<?xml version="1.0" standalone="no"?>
 <!DOCTYPE svg PUBLIC "-//W3C//DTD SVG 1.1//EN" 
 "http://www.w3.org/Graphics/SVG/1.1/DTD/svg11.dtd"> 
<svg
  xmlns:svg="http://www.w3.org/2000/svg"
  xmlns="http://www.w3.org/2000/svg"
  xmlns:xlink="http://www.w3.org/1999/xlink"
  version="1.1"
  width="29.700220cm" height="21.000720cm" viewBox="0 0 116930 82680">
<title>SVG Picture created as GPU_Projeto.svg date 2021/01/31 04:03:31 </title>
  <desc>Picture generated by Eeschema-SVG </desc>
<g style="fill:#000000; fill-opacity:1;stroke:#000000; stroke-opacity:1;
stroke-linecap:round; stroke-linejoin:round;"
 transform="translate(0 0) scale(1 1)">
</g>
<g style="fill:#000000; fill-opacity:0.0; 
stroke:#000000; stroke-width:-10; stroke-opacity:1; 
stroke-linecap:round; stroke-linejoin:round;">
</g>
<g style="fill:#840000; fill-opacity:0.0; 
stroke:#840000; stroke-width:-10; stroke-opacity:1; 
stroke-linecap:round; stroke-linejoin:round;">
</g>
<g style="fill:#840000; fill-opacity:0.0; 
stroke:#840000; stroke-width:100; stroke-opacity:1; 
stroke-linecap:round; stroke-linejoin:round;">
</g>
<g style="fill:#840000; fill-opacity:0.0; 
stroke:#840000; stroke-width:60; stroke-opacity:1; 
stroke-linecap:round; stroke-linejoin:round;">
<rect x="69690" y="65360" width="42520" height="12600" rx="0" />
</g>
<g style="fill:#840000; fill-opacity:0.0; 
stroke:#840000; stroke-width:100; stroke-opacity:1; 
stroke-linecap:round; stroke-linejoin:round;">
</g>
<g style="fill:#840000; fill-opacity:0.0; 
stroke:#840000; stroke-width:60; stroke-opacity:1; 
stroke-linecap:round; stroke-linejoin:round;">
<rect x="3940" y="3940" width="109050" height="74800" rx="0" />
</g>
<g style="fill:#840000; fill-opacity:0.0; 
stroke:#840000; stroke-width:100; stroke-opacity:1; 
stroke-linecap:round; stroke-linejoin:round;">
</g>
<g style="fill:#840000; fill-opacity:0.0; 
stroke:#840000; stroke-width:60; stroke-opacity:1; 
stroke-linecap:round; stroke-linejoin:round;">
<rect x="4720" y="4720" width="107490" height="73240" rx="0" />
</g>
<g style="fill:#840000; fill-opacity:0.0; 
stroke:#840000; stroke-width:100; stroke-opacity:1; 
stroke-linecap:round; stroke-linejoin:round;">
</g>
<g style="fill:#840000; fill-opacity:0.0; 
stroke:#840000; stroke-width:60; stroke-opacity:1; 
stroke-linecap:round; stroke-linejoin:round;">
<path d="M23620 4720
L23620 3940
" />
</g>
<g style="fill:#840000; fill-opacity:0.0; 
stroke:#840000; stroke-width:100; stroke-opacity:1; 
stroke-linecap:round; stroke-linejoin:round;">
</g>
<g style="fill:#840000; fill-opacity:0.0; 
stroke:#840000; stroke-width:60; stroke-opacity:1; 
stroke-linecap:round; stroke-linejoin:round;">
<path d="M43310 4720
L43310 3940
" />
</g>
<g style="fill:#840000; fill-opacity:0.0; 
stroke:#840000; stroke-width:100; stroke-opacity:1; 
stroke-linecap:round; stroke-linejoin:round;">
</g>
<g style="fill:#840000; fill-opacity:0.0; 
stroke:#840000; stroke-width:60; stroke-opacity:1; 
stroke-linecap:round; stroke-linejoin:round;">
<path d="M62990 4720
L62990 3940
" />
</g>
<g style="fill:#840000; fill-opacity:0.0; 
stroke:#840000; stroke-width:100; stroke-opacity:1; 
stroke-linecap:round; stroke-linejoin:round;">
</g>
<g style="fill:#840000; fill-opacity:0.0; 
stroke:#840000; stroke-width:60; stroke-opacity:1; 
stroke-linecap:round; stroke-linejoin:round;">
<path d="M82680 4720
L82680 3940
" />
</g>
<g style="fill:#840000; fill-opacity:0.0; 
stroke:#840000; stroke-width:100; stroke-opacity:1; 
stroke-linecap:round; stroke-linejoin:round;">
</g>
<g style="fill:#840000; fill-opacity:0.0; 
stroke:#840000; stroke-width:60; stroke-opacity:1; 
stroke-linecap:round; stroke-linejoin:round;">
<path d="M102360 4720
L102360 3940
" />
</g>
<g style="fill:#840000; fill-opacity:0.0; 
stroke:#840000; stroke-width:100; stroke-opacity:1; 
stroke-linecap:round; stroke-linejoin:round;">
</g>
<g style="fill:#840000; fill-opacity:0.0; 
stroke:#840000; stroke-width:60; stroke-opacity:1; 
stroke-linecap:round; stroke-linejoin:round;">
<text x="13780" y="4580"
textLength="550" font-size="680" lengthAdjust="spacingAndGlyphs"
text-anchor="start" opacity="0">1</text>
<path d="M14190 4560
L13900 4560
" />
<path d="M14050 4560
L14050 4050
L14000 4120
L13950 4170
L13900 4190
" />
</g>
<g style="fill:#840000; fill-opacity:0.0; 
stroke:#840000; stroke-width:100; stroke-opacity:1; 
stroke-linecap:round; stroke-linejoin:round;">
</g>
<g style="fill:#840000; fill-opacity:0.0; 
stroke:#840000; stroke-width:60; stroke-opacity:1; 
stroke-linecap:round; stroke-linejoin:round;">
<text x="33460" y="4580"
textLength="550" font-size="680" lengthAdjust="spacingAndGlyphs"
text-anchor="start" opacity="0">2</text>
<path d="M33580 4090
L33610 4070
L33660 4050
L33780 4050
L33830 4070
L33850 4090
L33870 4140
L33870 4190
L33850 4260
L33560 4560
L33870 4560
" />
</g>
<g style="fill:#840000; fill-opacity:0.0; 
stroke:#840000; stroke-width:100; stroke-opacity:1; 
stroke-linecap:round; stroke-linejoin:round;">
</g>
<g style="fill:#840000; fill-opacity:0.0; 
stroke:#840000; stroke-width:60; stroke-opacity:1; 
stroke-linecap:round; stroke-linejoin:round;">
<text x="53150" y="4580"
textLength="550" font-size="680" lengthAdjust="spacingAndGlyphs"
text-anchor="start" opacity="0">3</text>
<path d="M53250 4050
L53560 4050
L53390 4240
L53470 4240
L53520 4260
L53540 4290
L53560 4340
L53560 4460
L53540 4510
L53520 4530
L53470 4560
L53320 4560
L53270 4530
L53250 4510
" />
</g>
<g style="fill:#840000; fill-opacity:0.0; 
stroke:#840000; stroke-width:100; stroke-opacity:1; 
stroke-linecap:round; stroke-linejoin:round;">
</g>
<g style="fill:#840000; fill-opacity:0.0; 
stroke:#840000; stroke-width:60; stroke-opacity:1; 
stroke-linecap:round; stroke-linejoin:round;">
<text x="72830" y="4580"
textLength="550" font-size="680" lengthAdjust="spacingAndGlyphs"
text-anchor="start" opacity="0">4</text>
<path d="M73200 4220
L73200 4560
" />
<path d="M73070 4020
L72950 4390
L73270 4390
" />
</g>
<g style="fill:#840000; fill-opacity:0.0; 
stroke:#840000; stroke-width:100; stroke-opacity:1; 
stroke-linecap:round; stroke-linejoin:round;">
</g>
<g style="fill:#840000; fill-opacity:0.0; 
stroke:#840000; stroke-width:60; stroke-opacity:1; 
stroke-linecap:round; stroke-linejoin:round;">
<text x="92520" y="4580"
textLength="550" font-size="680" lengthAdjust="spacingAndGlyphs"
text-anchor="start" opacity="0">5</text>
<path d="M92910 4050
L92670 4050
L92640 4290
L92670 4260
L92720 4240
L92840 4240
L92890 4260
L92910 4290
L92930 4340
L92930 4460
L92910 4510
L92890 4530
L92840 4560
L92720 4560
L92670 4530
L92640 4510
" />
</g>
<g style="fill:#840000; fill-opacity:0.0; 
stroke:#840000; stroke-width:100; stroke-opacity:1; 
stroke-linecap:round; stroke-linejoin:round;">
</g>
<g style="fill:#840000; fill-opacity:0.0; 
stroke:#840000; stroke-width:60; stroke-opacity:1; 
stroke-linecap:round; stroke-linejoin:round;">
<text x="112200" y="4580"
textLength="550" font-size="680" lengthAdjust="spacingAndGlyphs"
text-anchor="start" opacity="0">6</text>
<path d="M112570 4050
L112470 4050
L112420 4070
L112400 4090
L112350 4170
L112320 4260
L112320 4460
L112350 4510
L112370 4530
L112420 4560
L112520 4560
L112570 4530
L112590 4510
L112610 4460
L112610 4340
L112590 4290
L112570 4260
L112520 4240
L112420 4240
L112370 4260
L112350 4290
L112320 4340
" />
</g>
<g style="fill:#840000; fill-opacity:0.0; 
stroke:#840000; stroke-width:100; stroke-opacity:1; 
stroke-linecap:round; stroke-linejoin:round;">
</g>
<g style="fill:#840000; fill-opacity:0.0; 
stroke:#840000; stroke-width:60; stroke-opacity:1; 
stroke-linecap:round; stroke-linejoin:round;">
<path d="M23620 77960
L23620 78740
" />
</g>
<g style="fill:#840000; fill-opacity:0.0; 
stroke:#840000; stroke-width:100; stroke-opacity:1; 
stroke-linecap:round; stroke-linejoin:round;">
</g>
<g style="fill:#840000; fill-opacity:0.0; 
stroke:#840000; stroke-width:60; stroke-opacity:1; 
stroke-linecap:round; stroke-linejoin:round;">
<path d="M43310 77960
L43310 78740
" />
</g>
<g style="fill:#840000; fill-opacity:0.0; 
stroke:#840000; stroke-width:100; stroke-opacity:1; 
stroke-linecap:round; stroke-linejoin:round;">
</g>
<g style="fill:#840000; fill-opacity:0.0; 
stroke:#840000; stroke-width:60; stroke-opacity:1; 
stroke-linecap:round; stroke-linejoin:round;">
<path d="M62990 77960
L62990 78740
" />
</g>
<g style="fill:#840000; fill-opacity:0.0; 
stroke:#840000; stroke-width:100; stroke-opacity:1; 
stroke-linecap:round; stroke-linejoin:round;">
</g>
<g style="fill:#840000; fill-opacity:0.0; 
stroke:#840000; stroke-width:60; stroke-opacity:1; 
stroke-linecap:round; stroke-linejoin:round;">
<path d="M82680 77960
L82680 78740
" />
</g>
<g style="fill:#840000; fill-opacity:0.0; 
stroke:#840000; stroke-width:100; stroke-opacity:1; 
stroke-linecap:round; stroke-linejoin:round;">
</g>
<g style="fill:#840000; fill-opacity:0.0; 
stroke:#840000; stroke-width:60; stroke-opacity:1; 
stroke-linecap:round; stroke-linejoin:round;">
<path d="M102360 77960
L102360 78740
" />
</g>
<g style="fill:#840000; fill-opacity:0.0; 
stroke:#840000; stroke-width:100; stroke-opacity:1; 
stroke-linecap:round; stroke-linejoin:round;">
</g>
<g style="fill:#840000; fill-opacity:0.0; 
stroke:#840000; stroke-width:60; stroke-opacity:1; 
stroke-linecap:round; stroke-linejoin:round;">
<text x="13780" y="78600"
textLength="550" font-size="680" lengthAdjust="spacingAndGlyphs"
text-anchor="start" opacity="0">1</text>
<path d="M14190 78580
L13900 78580
" />
<path d="M14050 78580
L14050 78070
L14000 78140
L13950 78190
L13900 78210
" />
</g>
<g style="fill:#840000; fill-opacity:0.0; 
stroke:#840000; stroke-width:100; stroke-opacity:1; 
stroke-linecap:round; stroke-linejoin:round;">
</g>
<g style="fill:#840000; fill-opacity:0.0; 
stroke:#840000; stroke-width:60; stroke-opacity:1; 
stroke-linecap:round; stroke-linejoin:round;">
<text x="33460" y="78600"
textLength="550" font-size="680" lengthAdjust="spacingAndGlyphs"
text-anchor="start" opacity="0">2</text>
<path d="M33580 78110
L33610 78090
L33660 78070
L33780 78070
L33830 78090
L33850 78110
L33870 78160
L33870 78210
L33850 78280
L33560 78580
L33870 78580
" />
</g>
<g style="fill:#840000; fill-opacity:0.0; 
stroke:#840000; stroke-width:100; stroke-opacity:1; 
stroke-linecap:round; stroke-linejoin:round;">
</g>
<g style="fill:#840000; fill-opacity:0.0; 
stroke:#840000; stroke-width:60; stroke-opacity:1; 
stroke-linecap:round; stroke-linejoin:round;">
<text x="53150" y="78600"
textLength="550" font-size="680" lengthAdjust="spacingAndGlyphs"
text-anchor="start" opacity="0">3</text>
<path d="M53250 78070
L53560 78070
L53390 78260
L53470 78260
L53520 78280
L53540 78310
L53560 78360
L53560 78480
L53540 78530
L53520 78550
L53470 78580
L53320 78580
L53270 78550
L53250 78530
" />
</g>
<g style="fill:#840000; fill-opacity:0.0; 
stroke:#840000; stroke-width:100; stroke-opacity:1; 
stroke-linecap:round; stroke-linejoin:round;">
</g>
<g style="fill:#840000; fill-opacity:0.0; 
stroke:#840000; stroke-width:60; stroke-opacity:1; 
stroke-linecap:round; stroke-linejoin:round;">
<text x="72830" y="78600"
textLength="550" font-size="680" lengthAdjust="spacingAndGlyphs"
text-anchor="start" opacity="0">4</text>
<path d="M73200 78240
L73200 78580
" />
<path d="M73070 78040
L72950 78410
L73270 78410
" />
</g>
<g style="fill:#840000; fill-opacity:0.0; 
stroke:#840000; stroke-width:100; stroke-opacity:1; 
stroke-linecap:round; stroke-linejoin:round;">
</g>
<g style="fill:#840000; fill-opacity:0.0; 
stroke:#840000; stroke-width:60; stroke-opacity:1; 
stroke-linecap:round; stroke-linejoin:round;">
<text x="92520" y="78600"
textLength="550" font-size="680" lengthAdjust="spacingAndGlyphs"
text-anchor="start" opacity="0">5</text>
<path d="M92910 78070
L92670 78070
L92640 78310
L92670 78280
L92720 78260
L92840 78260
L92890 78280
L92910 78310
L92930 78360
L92930 78480
L92910 78530
L92890 78550
L92840 78580
L92720 78580
L92670 78550
L92640 78530
" />
</g>
<g style="fill:#840000; fill-opacity:0.0; 
stroke:#840000; stroke-width:100; stroke-opacity:1; 
stroke-linecap:round; stroke-linejoin:round;">
</g>
<g style="fill:#840000; fill-opacity:0.0; 
stroke:#840000; stroke-width:60; stroke-opacity:1; 
stroke-linecap:round; stroke-linejoin:round;">
<text x="112200" y="78600"
textLength="550" font-size="680" lengthAdjust="spacingAndGlyphs"
text-anchor="start" opacity="0">6</text>
<path d="M112570 78070
L112470 78070
L112420 78090
L112400 78110
L112350 78190
L112320 78280
L112320 78480
L112350 78530
L112370 78550
L112420 78580
L112520 78580
L112570 78550
L112590 78530
L112610 78480
L112610 78360
L112590 78310
L112570 78280
L112520 78260
L112420 78260
L112370 78280
L112350 78310
L112320 78360
" />
</g>
<g style="fill:#840000; fill-opacity:0.0; 
stroke:#840000; stroke-width:100; stroke-opacity:1; 
stroke-linecap:round; stroke-linejoin:round;">
</g>
<g style="fill:#840000; fill-opacity:0.0; 
stroke:#840000; stroke-width:60; stroke-opacity:1; 
stroke-linecap:round; stroke-linejoin:round;">
<path d="M3940 23620
L4720 23620
" />
</g>
<g style="fill:#840000; fill-opacity:0.0; 
stroke:#840000; stroke-width:100; stroke-opacity:1; 
stroke-linecap:round; stroke-linejoin:round;">
</g>
<g style="fill:#840000; fill-opacity:0.0; 
stroke:#840000; stroke-width:60; stroke-opacity:1; 
stroke-linecap:round; stroke-linejoin:round;">
<path d="M3940 43310
L4720 43310
" />
</g>
<g style="fill:#840000; fill-opacity:0.0; 
stroke:#840000; stroke-width:100; stroke-opacity:1; 
stroke-linecap:round; stroke-linejoin:round;">
</g>
<g style="fill:#840000; fill-opacity:0.0; 
stroke:#840000; stroke-width:60; stroke-opacity:1; 
stroke-linecap:round; stroke-linejoin:round;">
<path d="M3940 62990
L4720 62990
" />
</g>
<g style="fill:#840000; fill-opacity:0.0; 
stroke:#840000; stroke-width:100; stroke-opacity:1; 
stroke-linecap:round; stroke-linejoin:round;">
</g>
<g style="fill:#840000; fill-opacity:0.0; 
stroke:#840000; stroke-width:60; stroke-opacity:1; 
stroke-linecap:round; stroke-linejoin:round;">
<text x="4330" y="14030"
textLength="500" font-size="680" lengthAdjust="spacingAndGlyphs"
text-anchor="middle" opacity="0">A</text>
<path d="M4200 13860
L4450 13860
" />
<path d="M4160 14010
L4330 13500
L4500 14010
" />
</g>
<g style="fill:#840000; fill-opacity:0.0; 
stroke:#840000; stroke-width:100; stroke-opacity:1; 
stroke-linecap:round; stroke-linejoin:round;">
</g>
<g style="fill:#840000; fill-opacity:0.0; 
stroke:#840000; stroke-width:60; stroke-opacity:1; 
stroke-linecap:round; stroke-linejoin:round;">
<text x="4330" y="33710"
textLength="570" font-size="680" lengthAdjust="spacingAndGlyphs"
text-anchor="middle" opacity="0">B</text>
<path d="M4360 33420
L4430 33440
L4460 33470
L4480 33520
L4480 33590
L4460 33640
L4430 33660
L4390 33690
L4190 33690
L4190 33180
L4360 33180
L4410 33200
L4430 33220
L4460 33270
L4460 33320
L4430 33370
L4410 33390
L4360 33420
L4190 33420
" />
</g>
<g style="fill:#840000; fill-opacity:0.0; 
stroke:#840000; stroke-width:100; stroke-opacity:1; 
stroke-linecap:round; stroke-linejoin:round;">
</g>
<g style="fill:#840000; fill-opacity:0.0; 
stroke:#840000; stroke-width:60; stroke-opacity:1; 
stroke-linecap:round; stroke-linejoin:round;">
<text x="4330" y="53400"
textLength="570" font-size="680" lengthAdjust="spacingAndGlyphs"
text-anchor="middle" opacity="0">C</text>
<path d="M4480 53330
L4460 53350
L4390 53380
L4340 53380
L4260 53350
L4220 53300
L4190 53250
L4170 53160
L4170 53080
L4190 52990
L4220 52940
L4260 52890
L4340 52870
L4390 52870
L4460 52890
L4480 52910
" />
</g>
<g style="fill:#840000; fill-opacity:0.0; 
stroke:#840000; stroke-width:100; stroke-opacity:1; 
stroke-linecap:round; stroke-linejoin:round;">
</g>
<g style="fill:#840000; fill-opacity:0.0; 
stroke:#840000; stroke-width:60; stroke-opacity:1; 
stroke-linecap:round; stroke-linejoin:round;">
<text x="4330" y="73080"
textLength="570" font-size="680" lengthAdjust="spacingAndGlyphs"
text-anchor="middle" opacity="0">D</text>
<path d="M4190 73060
L4190 72550
L4310 72550
L4390 72570
L4430 72620
L4460 72670
L4480 72760
L4480 72840
L4460 72930
L4430 72980
L4390 73030
L4310 73060
L4190 73060
" />
</g>
<g style="fill:#840000; fill-opacity:0.0; 
stroke:#840000; stroke-width:100; stroke-opacity:1; 
stroke-linecap:round; stroke-linejoin:round;">
</g>
<g style="fill:#840000; fill-opacity:0.0; 
stroke:#840000; stroke-width:60; stroke-opacity:1; 
stroke-linecap:round; stroke-linejoin:round;">
<path d="M112990 23620
L112210 23620
" />
</g>
<g style="fill:#840000; fill-opacity:0.0; 
stroke:#840000; stroke-width:100; stroke-opacity:1; 
stroke-linecap:round; stroke-linejoin:round;">
</g>
<g style="fill:#840000; fill-opacity:0.0; 
stroke:#840000; stroke-width:60; stroke-opacity:1; 
stroke-linecap:round; stroke-linejoin:round;">
<path d="M112990 43310
L112210 43310
" />
</g>
<g style="fill:#840000; fill-opacity:0.0; 
stroke:#840000; stroke-width:100; stroke-opacity:1; 
stroke-linecap:round; stroke-linejoin:round;">
</g>
<g style="fill:#840000; fill-opacity:0.0; 
stroke:#840000; stroke-width:60; stroke-opacity:1; 
stroke-linecap:round; stroke-linejoin:round;">
<path d="M112990 62990
L112210 62990
" />
</g>
<g style="fill:#840000; fill-opacity:0.0; 
stroke:#840000; stroke-width:100; stroke-opacity:1; 
stroke-linecap:round; stroke-linejoin:round;">
</g>
<g style="fill:#840000; fill-opacity:0.0; 
stroke:#840000; stroke-width:60; stroke-opacity:1; 
stroke-linecap:round; stroke-linejoin:round;">
<text x="112600" y="14030"
textLength="500" font-size="680" lengthAdjust="spacingAndGlyphs"
text-anchor="middle" opacity="0">A</text>
<path d="M112470 13860
L112720 13860
" />
<path d="M112430 14010
L112600 13500
L112770 14010
" />
</g>
<g style="fill:#840000; fill-opacity:0.0; 
stroke:#840000; stroke-width:100; stroke-opacity:1; 
stroke-linecap:round; stroke-linejoin:round;">
</g>
<g style="fill:#840000; fill-opacity:0.0; 
stroke:#840000; stroke-width:60; stroke-opacity:1; 
stroke-linecap:round; stroke-linejoin:round;">
<text x="112600" y="33710"
textLength="570" font-size="680" lengthAdjust="spacingAndGlyphs"
text-anchor="middle" opacity="0">B</text>
<path d="M112630 33420
L112700 33440
L112730 33470
L112750 33520
L112750 33590
L112730 33640
L112700 33660
L112660 33690
L112460 33690
L112460 33180
L112630 33180
L112680 33200
L112700 33220
L112730 33270
L112730 33320
L112700 33370
L112680 33390
L112630 33420
L112460 33420
" />
</g>
<g style="fill:#840000; fill-opacity:0.0; 
stroke:#840000; stroke-width:100; stroke-opacity:1; 
stroke-linecap:round; stroke-linejoin:round;">
</g>
<g style="fill:#840000; fill-opacity:0.0; 
stroke:#840000; stroke-width:60; stroke-opacity:1; 
stroke-linecap:round; stroke-linejoin:round;">
<text x="112600" y="53400"
textLength="570" font-size="680" lengthAdjust="spacingAndGlyphs"
text-anchor="middle" opacity="0">C</text>
<path d="M112750 53330
L112730 53350
L112660 53380
L112610 53380
L112530 53350
L112490 53300
L112460 53250
L112440 53160
L112440 53080
L112460 52990
L112490 52940
L112530 52890
L112610 52870
L112660 52870
L112730 52890
L112750 52910
" />
</g>
<g style="fill:#840000; fill-opacity:0.0; 
stroke:#840000; stroke-width:100; stroke-opacity:1; 
stroke-linecap:round; stroke-linejoin:round;">
</g>
<g style="fill:#840000; fill-opacity:0.0; 
stroke:#840000; stroke-width:60; stroke-opacity:1; 
stroke-linecap:round; stroke-linejoin:round;">
<text x="112600" y="73080"
textLength="570" font-size="680" lengthAdjust="spacingAndGlyphs"
text-anchor="middle" opacity="0">D</text>
<path d="M112460 73060
L112460 72550
L112580 72550
L112660 72570
L112700 72620
L112730 72670
L112750 72760
L112750 72840
L112730 72930
L112700 72980
L112660 73030
L112580 73060
L112460 73060
" />
</g>
<g style="fill:#840000; fill-opacity:0.0; 
stroke:#840000; stroke-width:100; stroke-opacity:1; 
stroke-linecap:round; stroke-linejoin:round;">
</g>
<g style="fill:#840000; fill-opacity:0.0; 
stroke:#840000; stroke-width:60; stroke-opacity:1; 
stroke-linecap:round; stroke-linejoin:round;">
<text x="78740" y="76320"
textLength="2760" font-size="780" lengthAdjust="spacingAndGlyphs"
text-anchor="start" opacity="0">Date: </text>
<path d="M78910 76290
L78910 75700
L79050 75700
L79130 75730
L79190 75790
L79210 75840
L79240 75950
L79240 76040
L79210 76150
L79190 76210
L79130 76260
L79050 76290
L78910 76290
" />
<path d="M79750 76290
L79750 75980
L79720 75930
L79660 75900
L79550 75900
L79500 75930
" />
<path d="M79750 76260
L79690 76290
L79550 76290
L79500 76260
L79470 76210
L79470 76150
L79500 76100
L79550 76070
L79690 76070
L79750 76040
" />
<path d="M79950 75900
L80170 75900
" />
<path d="M80030 75700
L80030 76210
L80060 76260
L80110 76290
L80170 76290
" />
<path d="M80590 76260
L80540 76290
L80420 76290
L80370 76260
L80340 76210
L80340 75980
L80370 75930
L80420 75900
L80540 75900
L80590 75930
L80620 75980
L80620 76040
L80340 76100
" />
<path d="M80870 76240
L80900 76260
L80870 76290
L80840 76260
L80870 76240
L80870 76290
" />
<path d="M80870 75930
L80900 75950
L80870 75980
L80840 75950
L80870 75930
L80870 75980
" />
</g>
<g style="fill:#840000; fill-opacity:0.0; 
stroke:#840000; stroke-width:100; stroke-opacity:1; 
stroke-linecap:round; stroke-linejoin:round;">
</g>
<g style="fill:#840000; fill-opacity:0.0; 
stroke:#840000; stroke-width:60; stroke-opacity:1; 
stroke-linecap:round; stroke-linejoin:round;">
<path d="M69690 76580
L112210 76580
" />
</g>
<g style="fill:#840000; fill-opacity:0.0; 
stroke:#840000; stroke-width:100; stroke-opacity:1; 
stroke-linecap:round; stroke-linejoin:round;">
</g>
<g style="fill:#840000; fill-opacity:0.0; 
stroke:#840000; stroke-width:60; stroke-opacity:1; 
stroke-linecap:round; stroke-linejoin:round;">
<text x="70080" y="77420"
textLength="13520" font-size="780" lengthAdjust="spacingAndGlyphs"
text-anchor="start" opacity="0">KiCad E.D.A.  kicad (5.1.7)-1</text>
<path d="M70250 77390
L70250 76800
" />
<path d="M70580 77390
L70330 77050
" />
<path d="M70580 76800
L70250 77140
" />
<path d="M70840 77390
L70840 77000
" />
<path d="M70840 76800
L70810 76830
L70840 76860
L70860 76830
L70840 76800
L70840 76860
" />
<path d="M71450 77340
L71430 77360
L71340 77390
L71290 77390
L71200 77360
L71140 77310
L71120 77250
L71090 77140
L71090 77050
L71120 76940
L71140 76890
L71200 76830
L71290 76800
L71340 76800
L71430 76830
L71450 76860
" />
<path d="M71960 77390
L71960 77080
L71930 77030
L71880 77000
L71760 77000
L71710 77030
" />
<path d="M71960 77360
L71900 77390
L71760 77390
L71710 77360
L71680 77310
L71680 77250
L71710 77200
L71760 77170
L71900 77170
L71960 77140
" />
<path d="M72490 77390
L72490 76800
" />
<path d="M72490 77360
L72440 77390
L72320 77390
L72270 77360
L72240 77340
L72210 77280
L72210 77110
L72240 77050
L72270 77030
L72320 77000
L72440 77000
L72490 77030
" />
<path d="M73220 77080
L73420 77080
" />
<path d="M73500 77390
L73220 77390
L73220 76800
L73500 76800
" />
<path d="M73760 77340
L73790 77360
L73760 77390
L73730 77360
L73760 77340
L73760 77390
" />
<path d="M74040 77390
L74040 76800
L74180 76800
L74260 76830
L74320 76890
L74350 76940
L74380 77050
L74380 77140
L74350 77250
L74320 77310
L74260 77360
L74180 77390
L74040 77390
" />
<path d="M74630 77340
L74660 77360
L74630 77390
L74600 77360
L74630 77340
L74630 77390
" />
<path d="M74880 77220
L75160 77220
" />
<path d="M74830 77390
L75020 76800
L75220 77390
" />
<path d="M75420 77340
L75440 77360
L75420 77390
L75390 77360
L75420 77340
L75420 77390
" />
<path d="M76600 77390
L76600 76800
" />
<path d="M76650 77170
L76820 77390
" />
<path d="M76820 77000
L76600 77220
" />
<path d="M77070 77390
L77070 77000
" />
<path d="M77070 76800
L77040 76830
L77070 76860
L77100 76830
L77070 76800
L77070 76860
" />
<path d="M77610 77360
L77550 77390
L77440 77390
L77380 77360
L77350 77340
L77330 77280
L77330 77110
L77350 77050
L77380 77030
L77440 77000
L77550 77000
L77610 77030
" />
<path d="M78110 77390
L78110 77080
L78080 77030
L78030 77000
L77920 77000
L77860 77030
" />
<path d="M78110 77360
L78060 77390
L77920 77390
L77860 77360
L77830 77310
L77830 77250
L77860 77200
L77920 77170
L78060 77170
L78110 77140
" />
<path d="M78650 77390
L78650 76800
" />
<path d="M78650 77360
L78590 77390
L78480 77390
L78420 77360
L78390 77340
L78370 77280
L78370 77110
L78390 77050
L78420 77030
L78480 77000
L78590 77000
L78650 77030
" />
<path d="M79550 77620
L79520 77590
L79460 77500
L79430 77450
L79400 77360
L79380 77220
L79380 77110
L79400 76970
L79430 76890
L79460 76830
L79520 76750
L79550 76720
" />
<path d="M80050 76800
L79770 76800
L79740 77080
L79770 77050
L79830 77030
L79970 77030
L80020 77050
L80050 77080
L80080 77140
L80080 77280
L80050 77340
L80020 77360
L79970 77390
L79830 77390
L79770 77360
L79740 77340
" />
<path d="M80330 77340
L80360 77360
L80330 77390
L80300 77360
L80330 77340
L80330 77390
" />
<path d="M80920 77390
L80580 77390
" />
<path d="M80750 77390
L80750 76800
L80700 76890
L80640 76940
L80580 76970
" />
<path d="M81170 77340
L81200 77360
L81170 77390
L81150 77360
L81170 77340
L81170 77390
" />
<path d="M81400 76800
L81790 76800
L81540 77390
" />
<path d="M81960 77620
L81990 77590
L82050 77500
L82070 77450
L82100 77360
L82130 77220
L82130 77110
L82100 76970
L82070 76890
L82050 76830
L81990 76750
L81960 76720
" />
<path d="M82410 77170
L82860 77170
" />
<path d="M83450 77390
L83110 77390
" />
<path d="M83280 77390
L83280 76800
L83230 76890
L83170 76940
L83110 76970
" />
</g>
<g style="fill:#840000; fill-opacity:0.0; 
stroke:#840000; stroke-width:100; stroke-opacity:1; 
stroke-linecap:round; stroke-linejoin:round;">
</g>
<g style="fill:#840000; fill-opacity:0.0; 
stroke:#840000; stroke-width:60; stroke-opacity:1; 
stroke-linecap:round; stroke-linejoin:round;">
<path d="M69690 75400
L112210 75400
" />
</g>
<g style="fill:#840000; fill-opacity:0.0; 
stroke:#840000; stroke-width:100; stroke-opacity:1; 
stroke-linecap:round; stroke-linejoin:round;">
</g>
<g style="fill:#840000; fill-opacity:0.0; 
stroke:#840000; stroke-width:120; stroke-opacity:1; 
stroke-linecap:round; stroke-linejoin:round;">
<text x="103540" y="76320"
textLength="2340" font-size="780" lengthAdjust="spacingAndGlyphs"
text-anchor="start" opacity="0">Rev: </text>
<path d="M104090 76290
L103890 76010
" />
<path d="M103750 76290
L103750 75700
L103980 75700
L104030 75730
L104060 75760
L104090 75810
L104090 75900
L104060 75950
L104030 75980
L103980 76010
L103750 76010
" />
<path d="M104570 76260
L104510 76290
L104400 76290
L104340 76260
L104320 76210
L104320 75980
L104340 75930
L104400 75900
L104510 75900
L104570 75930
L104600 75980
L104600 76040
L104320 76100
" />
<path d="M104790 75900
L104930 76290
L105070 75900
" />
<path d="M105300 76240
L105330 76260
L105300 76290
L105270 76260
L105300 76240
L105300 76290
" />
<path d="M105300 75930
L105330 75950
L105300 75980
L105270 75950
L105300 75930
L105300 75980
" />
</g>
<g style="fill:#840000; fill-opacity:0.0; 
stroke:#840000; stroke-width:100; stroke-opacity:1; 
stroke-linecap:round; stroke-linejoin:round;">
</g>
<g style="fill:#840000; fill-opacity:0.0; 
stroke:#840000; stroke-width:60; stroke-opacity:1; 
stroke-linecap:round; stroke-linejoin:round;">
<text x="70080" y="76320"
textLength="3780" font-size="780" lengthAdjust="spacingAndGlyphs"
text-anchor="start" opacity="0">Size: A4</text>
<path d="M70220 76260
L70300 76290
L70440 76290
L70500 76260
L70530 76240
L70550 76180
L70550 76120
L70530 76070
L70500 76040
L70440 76010
L70330 75980
L70270 75950
L70250 75930
L70220 75870
L70220 75810
L70250 75760
L70270 75730
L70330 75700
L70470 75700
L70550 75730
" />
<path d="M70810 76290
L70810 75900
" />
<path d="M70810 75700
L70780 75730
L70810 75760
L70840 75730
L70810 75700
L70810 75760
" />
<path d="M71030 75900
L71340 75900
L71030 76290
L71340 76290
" />
<path d="M71790 76260
L71730 76290
L71620 76290
L71570 76260
L71540 76210
L71540 75980
L71570 75930
L71620 75900
L71730 75900
L71790 75930
L71820 75980
L71820 76040
L71540 76100
" />
<path d="M72070 76240
L72100 76260
L72070 76290
L72040 76260
L72070 76240
L72070 76290
" />
<path d="M72070 75930
L72100 75950
L72070 75980
L72040 75950
L72070 75930
L72070 75980
" />
<path d="M72770 76120
L73060 76120
" />
<path d="M72720 76290
L72910 75700
L73110 76290
" />
<path d="M73560 75900
L73560 76290
" />
<path d="M73420 75670
L73280 76100
L73650 76100
" />
</g>
<g style="fill:#840000; fill-opacity:0.0; 
stroke:#840000; stroke-width:100; stroke-opacity:1; 
stroke-linecap:round; stroke-linejoin:round;">
</g>
<g style="fill:#840000; fill-opacity:0.0; 
stroke:#840000; stroke-width:60; stroke-opacity:1; 
stroke-linecap:round; stroke-linejoin:round;">
<text x="103540" y="77420"
textLength="3350" font-size="780" lengthAdjust="spacingAndGlyphs"
text-anchor="start" opacity="0">Id: 1/6</text>
<path d="M103710 77390
L103710 76800
" />
<path d="M104240 77390
L104240 76800
" />
<path d="M104240 77360
L104180 77390
L104070 77390
L104010 77360
L103990 77340
L103960 77280
L103960 77110
L103990 77050
L104010 77030
L104070 77000
L104180 77000
L104240 77030
" />
<path d="M104520 77340
L104550 77360
L104520 77390
L104490 77360
L104520 77340
L104520 77390
" />
<path d="M104520 77030
L104550 77050
L104520 77080
L104490 77050
L104520 77030
L104520 77080
" />
<path d="M105560 77390
L105220 77390
" />
<path d="M105390 77390
L105390 76800
L105340 76890
L105280 76940
L105220 76970
" />
<path d="M106230 76770
L105730 77530
" />
<path d="M106680 76800
L106570 76800
L106520 76830
L106490 76860
L106430 76940
L106400 77050
L106400 77280
L106430 77340
L106460 77360
L106520 77390
L106630 77390
L106680 77360
L106710 77340
L106740 77280
L106740 77140
L106710 77080
L106680 77050
L106630 77030
L106520 77030
L106460 77050
L106430 77080
L106400 77140
" />
</g>
<g style="fill:#840000; fill-opacity:0.0; 
stroke:#840000; stroke-width:100; stroke-opacity:1; 
stroke-linecap:round; stroke-linejoin:round;">
</g>
<g style="fill:#840000; fill-opacity:0.0; 
stroke:#840000; stroke-width:60; stroke-opacity:1; 
stroke-linecap:round; stroke-linejoin:round;">
<path d="M69690 73820
L112210 73820
" />
</g>
<g style="fill:#840000; fill-opacity:0.0; 
stroke:#840000; stroke-width:100; stroke-opacity:1; 
stroke-linecap:round; stroke-linejoin:round;">
</g>
<g style="fill:#840000; fill-opacity:0.0; 
stroke:#840000; stroke-width:160; stroke-opacity:1; 
stroke-linecap:round; stroke-linejoin:round;">
<text x="70080" y="74920"
textLength="18270" font-size="1050" lengthAdjust="spacingAndGlyphs"
text-anchor="start" opacity="0">Title: Básico Mini Computador</text>
<path d="M70360 74090
L70810 74090
" />
<path d="M70480 74880
L70580 74090
" />
<path d="M70970 74880
L71040 74360
" />
<path d="M71070 74090
L71030 74130
L71060 74170
L71110 74130
L71070 74090
L71060 74170
" />
<path d="M71300 74360
L71600 74360
" />
<path d="M71450 74090
L71360 74770
L71390 74840
L71460 74880
L71540 74880
" />
<path d="M71910 74880
L71840 74840
L71820 74770
L71900 74090
" />
<path d="M72520 74840
L72440 74880
L72290 74880
L72220 74840
L72190 74770
L72230 74470
L72280 74390
L72360 74360
L72510 74360
L72580 74390
L72610 74470
L72600 74540
L72210 74620
" />
<path d="M72900 74810
L72930 74840
L72890 74880
L72860 74840
L72900 74810
L72890 74880
" />
<path d="M72950 74390
L72990 74430
L72940 74470
L72910 74430
L72950 74390
L72940 74470
" />
<path d="M74190 74470
L74290 74510
L74330 74540
L74350 74620
L74340 74730
L74290 74810
L74250 74840
L74170 74880
L73870 74880
L73970 74090
L74230 74090
L74300 74130
L74340 74170
L74360 74240
L74350 74320
L74310 74390
L74270 74430
L74190 74470
L73920 74470
" />
<path d="M75000 74880
L75050 74470
L75020 74390
L74950 74360
L74800 74360
L74720 74390
" />
<path d="M75000 74840
L74920 74880
L74740 74880
L74670 74840
L74640 74770
L74650 74690
L74690 74620
L74770 74580
L74960 74580
L75040 74540
" />
<path d="M74990 74050
L74860 74170
" />
<path d="M75340 74840
L75410 74880
L75560 74880
L75640 74840
L75690 74770
L75690 74730
L75670 74660
L75600 74620
L75480 74620
L75410 74580
L75380 74510
L75390 74470
L75440 74390
L75520 74360
L75630 74360
L75700 74390
" />
<path d="M76010 74880
L76080 74360
" />
<path d="M76110 74090
L76070 74130
L76100 74170
L76150 74130
L76110 74090
L76100 74170
" />
<path d="M76730 74840
L76650 74880
L76500 74880
L76430 74840
L76400 74810
L76370 74730
L76400 74510
L76450 74430
L76490 74390
L76570 74360
L76720 74360
L76790 74390
" />
<path d="M77180 74880
L77110 74840
L77080 74810
L77050 74730
L77080 74510
L77120 74430
L77170 74390
L77250 74360
L77360 74360
L77430 74390
L77460 74430
L77490 74510
L77460 74730
L77420 74810
L77370 74840
L77290 74880
L77180 74880
" />
<path d="M78380 74880
L78480 74090
L78680 74660
L79010 74090
L78910 74880
" />
<path d="M79290 74880
L79350 74360
" />
<path d="M79390 74090
L79340 74130
L79380 74170
L79420 74130
L79390 74090
L79380 74170
" />
<path d="M79730 74360
L79660 74880
" />
<path d="M79720 74430
L79760 74390
L79840 74360
L79960 74360
L80030 74390
L80050 74470
L80000 74880
" />
<path d="M80380 74880
L80440 74360
" />
<path d="M80480 74090
L80430 74130
L80470 74170
L80510 74130
L80480 74090
L80470 74170
" />
<path d="M81820 74810
L81780 74840
L81660 74880
L81580 74880
L81470 74840
L81410 74770
L81380 74690
L81360 74540
L81380 74430
L81430 74280
L81480 74210
L81560 74130
L81680 74090
L81760 74090
L81860 74130
L81900 74170
" />
<path d="M82260 74880
L82190 74840
L82160 74810
L82130 74730
L82160 74510
L82200 74430
L82250 74390
L82330 74360
L82440 74360
L82510 74390
L82540 74430
L82570 74510
L82540 74730
L82490 74810
L82450 74840
L82370 74880
L82260 74880
" />
<path d="M82860 74880
L82930 74360
" />
<path d="M82920 74430
L82960 74390
L83040 74360
L83150 74360
L83220 74390
L83250 74470
L83200 74880
" />
<path d="M83250 74470
L83300 74390
L83380 74360
L83490 74360
L83560 74390
L83590 74470
L83540 74880
" />
<path d="M83980 74360
L83880 75150
" />
<path d="M83980 74390
L84060 74360
L84210 74360
L84280 74390
L84310 74430
L84340 74510
L84310 74730
L84260 74810
L84220 74840
L84140 74880
L83990 74880
L83920 74840
" />
<path d="M85030 74360
L84970 74880
" />
<path d="M84700 74360
L84640 74770
L84670 74840
L84740 74880
L84860 74880
L84940 74840
L84980 74810
" />
<path d="M85300 74360
L85600 74360
" />
<path d="M85440 74090
L85360 74770
L85390 74840
L85460 74880
L85530 74880
" />
<path d="M86130 74880
L86190 74470
L86160 74390
L86090 74360
L85940 74360
L85860 74390
" />
<path d="M86140 74840
L86060 74880
L85870 74880
L85800 74840
L85770 74770
L85780 74690
L85830 74620
L85910 74580
L86100 74580
L86180 74540
" />
<path d="M86850 74880
L86950 74090
" />
<path d="M86850 74840
L86770 74880
L86620 74880
L86550 74840
L86520 74810
L86490 74730
L86520 74510
L86570 74430
L86610 74390
L86690 74360
L86840 74360
L86910 74390
" />
<path d="M87340 74880
L87270 74840
L87230 74810
L87210 74730
L87230 74510
L87280 74430
L87320 74390
L87400 74360
L87520 74360
L87590 74390
L87620 74430
L87650 74510
L87620 74730
L87570 74810
L87530 74840
L87450 74880
L87340 74880
" />
<path d="M87940 74880
L88010 74360
" />
<path d="M87990 74510
L88030 74430
L88080 74390
L88160 74360
L88230 74360
" />
</g>
<g style="fill:#840000; fill-opacity:0.0; 
stroke:#840000; stroke-width:100; stroke-opacity:1; 
stroke-linecap:round; stroke-linejoin:round;">
</g>
<g style="fill:#840000; fill-opacity:0.0; 
stroke:#840000; stroke-width:60; stroke-opacity:1; 
stroke-linecap:round; stroke-linejoin:round;">
<text x="70080" y="73400"
textLength="9730" font-size="780" lengthAdjust="spacingAndGlyphs"
text-anchor="start" opacity="0">File: GPU_Projeto.sch</text>
<path d="M70440 73060
L70250 73060
" />
<path d="M70250 73370
L70250 72780
L70530 72780
" />
<path d="M70750 73370
L70750 72980
" />
<path d="M70750 72780
L70720 72810
L70750 72840
L70780 72810
L70750 72780
L70750 72840
" />
<path d="M71120 73370
L71060 73340
L71030 73290
L71030 72780
" />
<path d="M71570 73340
L71510 73370
L71400 73370
L71340 73340
L71310 73290
L71310 73060
L71340 73010
L71400 72980
L71510 72980
L71570 73010
L71590 73060
L71590 73120
L71310 73180
" />
<path d="M71850 73320
L71880 73340
L71850 73370
L71820 73340
L71850 73320
L71850 73370
" />
<path d="M71850 73010
L71880 73030
L71850 73060
L71820 73030
L71850 73010
L71850 73060
" />
<path d="M72890 72810
L72830 72780
L72750 72780
L72660 72810
L72610 72870
L72580 72920
L72550 73030
L72550 73120
L72580 73230
L72610 73290
L72660 73340
L72750 73370
L72800 73370
L72890 73340
L72910 73320
L72910 73120
L72800 73120
" />
<path d="M73170 73370
L73170 72780
L73390 72780
L73450 72810
L73480 72840
L73500 72890
L73500 72980
L73480 73030
L73450 73060
L73390 73090
L73170 73090
" />
<path d="M73760 72780
L73760 73260
L73790 73320
L73810 73340
L73870 73370
L73980 73370
L74040 73340
L74070 73320
L74090 73260
L74090 72780
" />
<path d="M74240 73430
L74680 73430
" />
<path d="M74830 73370
L74830 72780
L75050 72780
L75110 72810
L75130 72840
L75160 72890
L75160 72980
L75130 73030
L75110 73060
L75050 73090
L74830 73090
" />
<path d="M75420 73370
L75420 72980
" />
<path d="M75420 73090
L75440 73030
L75470 73010
L75530 72980
L75580 72980
" />
<path d="M75860 73370
L75810 73340
L75780 73320
L75750 73260
L75750 73090
L75780 73030
L75810 73010
L75860 72980
L75950 72980
L76010 73010
L76030 73030
L76060 73090
L76060 73260
L76030 73320
L76010 73340
L75950 73370
L75860 73370
" />
<path d="M76310 72980
L76310 73480
L76290 73540
L76230 73570
L76200 73570
" />
<path d="M76310 72780
L76290 72810
L76310 72840
L76340 72810
L76310 72780
L76310 72840
" />
<path d="M76820 73340
L76760 73370
L76650 73370
L76600 73340
L76570 73290
L76570 73060
L76600 73010
L76650 72980
L76760 72980
L76820 73010
L76850 73060
L76850 73120
L76570 73180
" />
<path d="M77020 72980
L77240 72980
" />
<path d="M77100 72780
L77100 73290
L77130 73340
L77190 73370
L77240 73370
" />
<path d="M77520 73370
L77470 73340
L77440 73320
L77410 73260
L77410 73090
L77440 73030
L77470 73010
L77520 72980
L77610 72980
L77660 73010
L77690 73030
L77720 73090
L77720 73260
L77690 73320
L77660 73340
L77610 73370
L77520 73370
" />
<path d="M77970 73320
L78000 73340
L77970 73370
L77940 73340
L77970 73320
L77970 73370
" />
<path d="M78220 73340
L78280 73370
L78390 73370
L78450 73340
L78480 73290
L78480 73260
L78450 73200
L78390 73180
L78310 73180
L78250 73150
L78220 73090
L78220 73060
L78250 73010
L78310 72980
L78390 72980
L78450 73010
" />
<path d="M78980 73340
L78930 73370
L78810 73370
L78760 73340
L78730 73320
L78700 73260
L78700 73090
L78730 73030
L78760 73010
L78810 72980
L78930 72980
L78980 73010
" />
<path d="M79240 73370
L79240 72780
" />
<path d="M79490 73370
L79490 73060
L79460 73010
L79400 72980
L79320 72980
L79260 73010
L79240 73030
" />
</g>
<g style="fill:#840000; fill-opacity:0.0; 
stroke:#840000; stroke-width:100; stroke-opacity:1; 
stroke-linecap:round; stroke-linejoin:round;">
</g>
<g style="fill:#840000; fill-opacity:0.0; 
stroke:#840000; stroke-width:60; stroke-opacity:1; 
stroke-linecap:round; stroke-linejoin:round;">
<path d="M69690 71460
L112210 71460
" />
</g>
<g style="fill:#840000; fill-opacity:0.0; 
stroke:#840000; stroke-width:100; stroke-opacity:1; 
stroke-linecap:round; stroke-linejoin:round;">
</g>
<g style="fill:#840000; fill-opacity:0.0; 
stroke:#840000; stroke-width:60; stroke-opacity:1; 
stroke-linecap:round; stroke-linejoin:round;">
<text x="70080" y="72340"
textLength="3850" font-size="780" lengthAdjust="spacingAndGlyphs"
text-anchor="start" opacity="0">Sheet: /</text>
<path d="M70220 72280
L70300 72310
L70440 72310
L70500 72280
L70530 72260
L70550 72200
L70550 72140
L70530 72090
L70500 72060
L70440 72030
L70330 72000
L70270 71970
L70250 71950
L70220 71890
L70220 71830
L70250 71780
L70270 71750
L70330 71720
L70470 71720
L70550 71750
" />
<path d="M70810 72310
L70810 71720
" />
<path d="M71060 72310
L71060 72000
L71030 71950
L70980 71920
L70890 71920
L70840 71950
L70810 71970
" />
<path d="M71570 72280
L71510 72310
L71400 72310
L71340 72280
L71310 72230
L71310 72000
L71340 71950
L71400 71920
L71510 71920
L71570 71950
L71590 72000
L71590 72060
L71310 72120
" />
<path d="M72070 72280
L72020 72310
L71900 72310
L71850 72280
L71820 72230
L71820 72000
L71850 71950
L71900 71920
L72020 71920
L72070 71950
L72100 72000
L72100 72060
L71820 72120
" />
<path d="M72270 71920
L72490 71920
" />
<path d="M72350 71720
L72350 72230
L72380 72280
L72440 72310
L72490 72310
" />
<path d="M72690 72260
L72720 72280
L72690 72310
L72660 72280
L72690 72260
L72690 72310
" />
<path d="M72690 71950
L72720 71970
L72690 72000
L72660 71970
L72690 71950
L72690 72000
" />
<path d="M73840 71690
L73340 72450
" />
</g>
<g style="fill:#840000; fill-opacity:0.0; 
stroke:#840000; stroke-width:100; stroke-opacity:1; 
stroke-linecap:round; stroke-linejoin:round;">
</g>
<g style="fill:#840000; fill-opacity:0.0; 
stroke:#840000; stroke-width:120; stroke-opacity:1; 
stroke-linecap:round; stroke-linejoin:round;">
<text x="70080" y="71160"
textLength="5120" font-size="780" lengthAdjust="spacingAndGlyphs"
text-anchor="start" opacity="0">Diogo Silva</text>
<path d="M70290 71130
L70290 70540
L70430 70540
L70520 70570
L70570 70630
L70600 70680
L70630 70790
L70630 70880
L70600 70990
L70570 71050
L70520 71100
L70430 71130
L70290 71130
" />
<path d="M70880 71130
L70880 70740
" />
<path d="M70880 70540
L70860 70570
L70880 70600
L70910 70570
L70880 70540
L70880 70600
" />
<path d="M71250 71130
L71190 71100
L71160 71080
L71140 71020
L71140 70850
L71160 70790
L71190 70770
L71250 70740
L71330 70740
L71390 70770
L71420 70790
L71450 70850
L71450 71020
L71420 71080
L71390 71100
L71330 71130
L71250 71130
" />
<path d="M71950 70740
L71950 71220
L71920 71270
L71890 71300
L71840 71330
L71750 71330
L71700 71300
" />
<path d="M71950 71100
L71890 71130
L71780 71130
L71730 71100
L71700 71080
L71670 71020
L71670 70850
L71700 70790
L71730 70770
L71780 70740
L71890 70740
L71950 70770
" />
<path d="M72320 71130
L72260 71100
L72230 71080
L72200 71020
L72200 70850
L72230 70790
L72260 70770
L72320 70740
L72400 70740
L72460 70770
L72480 70790
L72510 70850
L72510 71020
L72480 71080
L72460 71100
L72400 71130
L72320 71130
" />
<path d="M73190 71100
L73270 71130
L73410 71130
L73470 71100
L73500 71080
L73520 71020
L73520 70960
L73500 70910
L73470 70880
L73410 70850
L73300 70820
L73240 70790
L73220 70770
L73190 70710
L73190 70650
L73220 70600
L73240 70570
L73300 70540
L73440 70540
L73520 70570
" />
<path d="M73780 71130
L73780 70740
" />
<path d="M73780 70540
L73750 70570
L73780 70600
L73810 70570
L73780 70540
L73780 70600
" />
<path d="M74140 71130
L74090 71100
L74060 71050
L74060 70540
" />
<path d="M74310 70740
L74450 71130
L74590 70740
" />
<path d="M75070 71130
L75070 70820
L75040 70770
L74990 70740
L74870 70740
L74820 70770
" />
<path d="M75070 71100
L75010 71130
L74870 71130
L74820 71100
L74790 71050
L74790 70990
L74820 70940
L74870 70910
L75010 70910
L75070 70880
" />
</g>
<g style="fill:#840000; fill-opacity:0.0; 
stroke:#840000; stroke-width:100; stroke-opacity:1; 
stroke-linecap:round; stroke-linejoin:round;">
</g>
<g style="fill:#840000; fill-opacity:0.0; 
stroke:#840000; stroke-width:60; stroke-opacity:1; 
stroke-linecap:round; stroke-linejoin:round;">
<text x="70080" y="69980"
textLength="6590" font-size="780" lengthAdjust="spacingAndGlyphs"
text-anchor="start" opacity="0">nº 190204007</text>
<path d="M70250 69560
L70250 69950
" />
<path d="M70250 69610
L70270 69590
L70330 69560
L70410 69560
L70470 69590
L70500 69640
L70500 69950
" />
<path d="M70810 69590
L70750 69560
L70720 69500
L70720 69390
L70750 69330
L70810 69310
L70860 69310
L70920 69330
L70950 69390
L70950 69500
L70920 69560
L70860 69590
L70810 69590
" />
<path d="M71930 69950
L71590 69950
" />
<path d="M71760 69950
L71760 69360
L71710 69450
L71650 69500
L71590 69530
" />
<path d="M72210 69950
L72320 69950
L72380 69920
L72410 69900
L72470 69810
L72490 69700
L72490 69470
L72470 69420
L72440 69390
L72380 69360
L72270 69360
L72210 69390
L72180 69420
L72160 69470
L72160 69610
L72180 69670
L72210 69700
L72270 69730
L72380 69730
L72440 69700
L72470 69670
L72490 69610
" />
<path d="M72860 69360
L72910 69360
L72970 69390
L73000 69420
L73030 69470
L73060 69590
L73060 69730
L73030 69840
L73000 69900
L72970 69920
L72910 69950
L72860 69950
L72800 69920
L72770 69900
L72750 69840
L72720 69730
L72720 69590
L72750 69470
L72770 69420
L72800 69390
L72860 69360
" />
<path d="M73280 69420
L73310 69390
L73360 69360
L73500 69360
L73560 69390
L73590 69420
L73620 69470
L73620 69530
L73590 69610
L73250 69950
L73620 69950
" />
<path d="M73980 69360
L74040 69360
L74090 69390
L74120 69420
L74150 69470
L74180 69590
L74180 69730
L74150 69840
L74120 69900
L74090 69920
L74040 69950
L73980 69950
L73930 69920
L73900 69900
L73870 69840
L73840 69730
L73840 69590
L73870 69470
L73900 69420
L73930 69390
L73980 69360
" />
<path d="M74680 69560
L74680 69950
" />
<path d="M74540 69330
L74400 69760
L74770 69760
" />
<path d="M75110 69360
L75160 69360
L75220 69390
L75250 69420
L75270 69470
L75300 69590
L75300 69730
L75270 69840
L75250 69900
L75220 69920
L75160 69950
L75110 69950
L75050 69920
L75020 69900
L74990 69840
L74970 69730
L74970 69590
L74990 69470
L75020 69420
L75050 69390
L75110 69360
" />
<path d="M75670 69360
L75720 69360
L75780 69390
L75810 69420
L75840 69470
L75860 69590
L75860 69730
L75840 69840
L75810 69900
L75780 69920
L75720 69950
L75670 69950
L75610 69920
L75580 69900
L75560 69840
L75530 69730
L75530 69590
L75560 69470
L75580 69420
L75610 69390
L75670 69360
" />
<path d="M76060 69360
L76450 69360
L76200 69950
" />
</g>
<g style="fill:#840000; fill-opacity:0.0; 
stroke:#840000; stroke-width:100; stroke-opacity:1; 
stroke-linecap:round; stroke-linejoin:round;">
</g>
<g style="fill:#840000; fill-opacity:0.0; 
stroke:#840000; stroke-width:60; stroke-opacity:1; 
stroke-linecap:round; stroke-linejoin:round;">
<text x="70080" y="68800"
textLength="8010" font-size="780" lengthAdjust="spacingAndGlyphs"
text-anchor="start" opacity="0">Disciplina de PSE</text>
<path d="M70250 68770
L70250 68180
L70390 68180
L70470 68210
L70530 68270
L70550 68320
L70580 68430
L70580 68520
L70550 68630
L70530 68690
L70470 68740
L70390 68770
L70250 68770
" />
<path d="M70840 68770
L70840 68380
" />
<path d="M70840 68180
L70810 68210
L70840 68240
L70860 68210
L70840 68180
L70840 68240
" />
<path d="M71090 68740
L71140 68770
L71260 68770
L71310 68740
L71340 68690
L71340 68660
L71310 68600
L71260 68580
L71170 68580
L71120 68550
L71090 68490
L71090 68460
L71120 68410
L71170 68380
L71260 68380
L71310 68410
" />
<path d="M71850 68740
L71790 68770
L71680 68770
L71620 68740
L71590 68720
L71570 68660
L71570 68490
L71590 68430
L71620 68410
L71680 68380
L71790 68380
L71850 68410
" />
<path d="M72100 68770
L72100 68380
" />
<path d="M72100 68180
L72070 68210
L72100 68240
L72130 68210
L72100 68180
L72100 68240
" />
<path d="M72380 68380
L72380 68970
" />
<path d="M72380 68410
L72440 68380
L72550 68380
L72610 68410
L72630 68430
L72660 68490
L72660 68660
L72630 68720
L72610 68740
L72550 68770
L72440 68770
L72380 68740
" />
<path d="M73000 68770
L72940 68740
L72910 68690
L72910 68180
" />
<path d="M73220 68770
L73220 68380
" />
<path d="M73220 68180
L73200 68210
L73220 68240
L73250 68210
L73220 68180
L73220 68240
" />
<path d="M73500 68380
L73500 68770
" />
<path d="M73500 68430
L73530 68410
L73590 68380
L73670 68380
L73730 68410
L73760 68460
L73760 68770
" />
<path d="M74290 68770
L74290 68460
L74260 68410
L74210 68380
L74090 68380
L74040 68410
" />
<path d="M74290 68740
L74240 68770
L74090 68770
L74040 68740
L74010 68690
L74010 68630
L74040 68580
L74090 68550
L74240 68550
L74290 68520
" />
<path d="M75270 68770
L75270 68180
" />
<path d="M75270 68740
L75220 68770
L75110 68770
L75050 68740
L75020 68720
L74990 68660
L74990 68490
L75020 68430
L75050 68410
L75110 68380
L75220 68380
L75270 68410
" />
<path d="M75780 68740
L75720 68770
L75610 68770
L75560 68740
L75530 68690
L75530 68460
L75560 68410
L75610 68380
L75720 68380
L75780 68410
L75810 68460
L75810 68520
L75530 68580
" />
<path d="M76510 68770
L76510 68180
L76740 68180
L76790 68210
L76820 68240
L76850 68290
L76850 68380
L76820 68430
L76790 68460
L76740 68490
L76510 68490
" />
<path d="M77070 68740
L77160 68770
L77300 68770
L77350 68740
L77380 68720
L77410 68660
L77410 68600
L77380 68550
L77350 68520
L77300 68490
L77190 68460
L77130 68430
L77100 68410
L77070 68350
L77070 68290
L77100 68240
L77130 68210
L77190 68180
L77330 68180
L77410 68210
" />
<path d="M77660 68460
L77860 68460
" />
<path d="M77940 68770
L77660 68770
L77660 68180
L77940 68180
" />
</g>
<g style="fill:#840000; fill-opacity:0.0; 
stroke:#840000; stroke-width:100; stroke-opacity:1; 
stroke-linecap:round; stroke-linejoin:round;">
</g>
<g style="fill:#840000; fill-opacity:0.0; 
stroke:#840000; stroke-width:60; stroke-opacity:1; 
stroke-linecap:round; stroke-linejoin:round;">
<text x="70080" y="67620"
textLength="11190" font-size="780" lengthAdjust="spacingAndGlyphs"
text-anchor="start" opacity="0">Docente: Pedro Vitoriano</text>
<path d="M70250 67590
L70250 67000
L70390 67000
L70470 67030
L70530 67090
L70550 67140
L70580 67250
L70580 67340
L70550 67450
L70530 67510
L70470 67560
L70390 67590
L70250 67590
" />
<path d="M70920 67590
L70860 67560
L70840 67540
L70810 67480
L70810 67310
L70840 67250
L70860 67230
L70920 67200
L71000 67200
L71060 67230
L71090 67250
L71120 67310
L71120 67480
L71090 67540
L71060 67560
L71000 67590
L70920 67590
" />
<path d="M71620 67560
L71570 67590
L71450 67590
L71400 67560
L71370 67540
L71340 67480
L71340 67310
L71370 67250
L71400 67230
L71450 67200
L71570 67200
L71620 67230
" />
<path d="M72100 67560
L72040 67590
L71930 67590
L71880 67560
L71850 67510
L71850 67280
L71880 67230
L71930 67200
L72040 67200
L72100 67230
L72130 67280
L72130 67340
L71850 67400
" />
<path d="M72380 67200
L72380 67590
" />
<path d="M72380 67250
L72410 67230
L72470 67200
L72550 67200
L72610 67230
L72630 67280
L72630 67590
" />
<path d="M72830 67200
L73060 67200
" />
<path d="M72910 67000
L72910 67510
L72940 67560
L73000 67590
L73060 67590
" />
<path d="M73480 67560
L73420 67590
L73310 67590
L73250 67560
L73220 67510
L73220 67280
L73250 67230
L73310 67200
L73420 67200
L73480 67230
L73500 67280
L73500 67340
L73220 67400
" />
<path d="M73760 67540
L73790 67560
L73760 67590
L73730 67560
L73760 67540
L73760 67590
" />
<path d="M73760 67230
L73790 67250
L73760 67280
L73730 67250
L73760 67230
L73760 67280
" />
<path d="M74490 67590
L74490 67000
L74710 67000
L74770 67030
L74800 67060
L74830 67110
L74830 67200
L74800 67250
L74770 67280
L74710 67310
L74490 67310
" />
<path d="M75300 67560
L75250 67590
L75130 67590
L75080 67560
L75050 67510
L75050 67280
L75080 67230
L75130 67200
L75250 67200
L75300 67230
L75330 67280
L75330 67340
L75050 67400
" />
<path d="M75840 67590
L75840 67000
" />
<path d="M75840 67560
L75780 67590
L75670 67590
L75610 67560
L75580 67540
L75560 67480
L75560 67310
L75580 67250
L75610 67230
L75670 67200
L75780 67200
L75840 67230
" />
<path d="M76120 67590
L76120 67200
" />
<path d="M76120 67310
L76150 67250
L76170 67230
L76230 67200
L76290 67200
" />
<path d="M76570 67590
L76510 67560
L76480 67540
L76450 67480
L76450 67310
L76480 67250
L76510 67230
L76570 67200
L76650 67200
L76710 67230
L76740 67250
L76760 67310
L76760 67480
L76740 67540
L76710 67560
L76650 67590
L76570 67590
" />
<path d="M77380 67000
L77580 67590
L77780 67000
" />
<path d="M77970 67590
L77970 67200
" />
<path d="M77970 67000
L77940 67030
L77970 67060
L78000 67030
L77970 67000
L77970 67060
" />
<path d="M78170 67200
L78390 67200
" />
<path d="M78250 67000
L78250 67510
L78280 67560
L78340 67590
L78390 67590
" />
<path d="M78670 67590
L78620 67560
L78590 67540
L78560 67480
L78560 67310
L78590 67250
L78620 67230
L78670 67200
L78760 67200
L78810 67230
L78840 67250
L78870 67310
L78870 67480
L78840 67540
L78810 67560
L78760 67590
L78670 67590
" />
<path d="M79120 67590
L79120 67200
" />
<path d="M79120 67310
L79150 67250
L79180 67230
L79240 67200
L79290 67200
" />
<path d="M79490 67590
L79490 67200
" />
<path d="M79490 67000
L79460 67030
L79490 67060
L79520 67030
L79490 67000
L79490 67060
" />
<path d="M80020 67590
L80020 67280
L79990 67230
L79940 67200
L79830 67200
L79770 67230
" />
<path d="M80020 67560
L79970 67590
L79830 67590
L79770 67560
L79740 67510
L79740 67450
L79770 67400
L79830 67370
L79970 67370
L80020 67340
" />
<path d="M80300 67200
L80300 67590
" />
<path d="M80300 67250
L80330 67230
L80390 67200
L80470 67200
L80530 67230
L80560 67280
L80560 67590
" />
<path d="M80920 67590
L80870 67560
L80840 67540
L80810 67480
L80810 67310
L80840 67250
L80870 67230
L80920 67200
L81010 67200
L81060 67230
L81090 67250
L81120 67310
L81120 67480
L81090 67540
L81060 67560
L81010 67590
L80920 67590
" />
</g>
<g style="fill:#840000; fill-opacity:0.0; 
stroke:#840000; stroke-width:100; stroke-opacity:1; 
stroke-linecap:round; stroke-linejoin:round;">
</g>
<g style="fill:#840000; fill-opacity:0.0; 
stroke:#840000; stroke-width:60; stroke-opacity:1; 
stroke-linecap:round; stroke-linejoin:round;">
<text x="70080" y="66430"
textLength="10510" font-size="780" lengthAdjust="spacingAndGlyphs"
text-anchor="start" opacity="0">Ano Letivo: 2020/2021</text>
<path d="M70220 66230
L70500 66230
" />
<path d="M70160 66400
L70360 65810
L70550 66400
" />
<path d="M70750 66010
L70750 66400
" />
<path d="M70750 66060
L70780 66040
L70840 66010
L70920 66010
L70980 66040
L71000 66090
L71000 66400
" />
<path d="M71370 66400
L71310 66370
L71290 66350
L71260 66290
L71260 66120
L71290 66060
L71310 66040
L71370 66010
L71450 66010
L71510 66040
L71540 66060
L71570 66120
L71570 66290
L71540 66350
L71510 66370
L71450 66400
L71370 66400
" />
<path d="M72550 66400
L72270 66400
L72270 65810
" />
<path d="M72970 66370
L72910 66400
L72800 66400
L72750 66370
L72720 66320
L72720 66090
L72750 66040
L72800 66010
L72910 66010
L72970 66040
L73000 66090
L73000 66150
L72720 66210
" />
<path d="M73170 66010
L73390 66010
" />
<path d="M73250 65810
L73250 66320
L73280 66370
L73340 66400
L73390 66400
" />
<path d="M73590 66400
L73590 66010
" />
<path d="M73590 65810
L73560 65840
L73590 65870
L73620 65840
L73590 65810
L73590 65870
" />
<path d="M73810 66010
L73950 66400
L74090 66010
" />
<path d="M74400 66400
L74350 66370
L74320 66350
L74290 66290
L74290 66120
L74320 66060
L74350 66040
L74400 66010
L74490 66010
L74540 66040
L74570 66060
L74600 66120
L74600 66290
L74570 66350
L74540 66370
L74490 66400
L74400 66400
" />
<path d="M74850 66350
L74880 66370
L74850 66400
L74830 66370
L74850 66350
L74850 66400
" />
<path d="M74850 66040
L74880 66060
L74850 66090
L74830 66060
L74850 66040
L74850 66090
" />
<path d="M75560 65870
L75580 65840
L75640 65810
L75780 65810
L75840 65840
L75860 65870
L75890 65920
L75890 65980
L75860 66060
L75530 66400
L75890 66400
" />
<path d="M76260 65810
L76310 65810
L76370 65840
L76400 65870
L76430 65920
L76450 66040
L76450 66180
L76430 66290
L76400 66350
L76370 66370
L76310 66400
L76260 66400
L76200 66370
L76170 66350
L76150 66290
L76120 66180
L76120 66040
L76150 65920
L76170 65870
L76200 65840
L76260 65810
" />
<path d="M76680 65870
L76710 65840
L76760 65810
L76900 65810
L76960 65840
L76990 65870
L77020 65920
L77020 65980
L76990 66060
L76650 66400
L77020 66400
" />
<path d="M77380 65810
L77440 65810
L77490 65840
L77520 65870
L77550 65920
L77580 66040
L77580 66180
L77550 66290
L77520 66350
L77490 66370
L77440 66400
L77380 66400
L77330 66370
L77300 66350
L77270 66290
L77240 66180
L77240 66040
L77270 65920
L77300 65870
L77330 65840
L77380 65810
" />
<path d="M78250 65780
L77750 66540
" />
<path d="M78420 65870
L78450 65840
L78510 65810
L78650 65810
L78700 65840
L78730 65870
L78760 65920
L78760 65980
L78730 66060
L78390 66400
L78760 66400
" />
<path d="M79120 65810
L79180 65810
L79240 65840
L79260 65870
L79290 65920
L79320 66040
L79320 66180
L79290 66290
L79260 66350
L79240 66370
L79180 66400
L79120 66400
L79070 66370
L79040 66350
L79010 66290
L78980 66180
L78980 66040
L79010 65920
L79040 65870
L79070 65840
L79120 65810
" />
<path d="M79550 65870
L79570 65840
L79630 65810
L79770 65810
L79830 65840
L79850 65870
L79880 65920
L79880 65980
L79850 66060
L79520 66400
L79880 66400
" />
<path d="M80440 66400
L80110 66400
" />
<path d="M80280 66400
L80280 65810
L80220 65900
L80160 65950
L80110 65980
" />
</g>
<g style="fill:#840000; fill-opacity:0.0; 
stroke:#840000; stroke-width:100; stroke-opacity:1; 
stroke-linecap:round; stroke-linejoin:round;">
</g>
<g style="fill:#840000; fill-opacity:0.0; 
stroke:#840000; stroke-width:60; stroke-opacity:1; 
stroke-linecap:round; stroke-linejoin:round;">
<path d="M77560 75400
L77560 76580
" />
</g>
<g style="fill:#840000; fill-opacity:0.0; 
stroke:#840000; stroke-width:100; stroke-opacity:1; 
stroke-linecap:round; stroke-linejoin:round;">
</g>
<g style="fill:#840000; fill-opacity:0.0; 
stroke:#840000; stroke-width:60; stroke-opacity:1; 
stroke-linecap:round; stroke-linejoin:round;">
<path d="M102760 75400
L102760 77960
" />
</g>
<g style="fill:#840084; fill-opacity:0.0; 
stroke:#840084; stroke-width:60; stroke-opacity:1; 
stroke-linecap:round; stroke-linejoin:round;">
<path d="M45000 34500
L52000 34500
L52000 38000
L45000 38000
L45000 34500
" />
</g>
<g style="fill:#008484; fill-opacity:0.0; 
stroke:#008484; stroke-width:60; stroke-opacity:1; 
stroke-linecap:round; stroke-linejoin:round;">
</g>
<g style="fill:#000000; fill-opacity:0.0; 
stroke:#000000; stroke-width:60; stroke-opacity:1; 
stroke-linecap:round; stroke-linejoin:round;">
<text x="45000" y="34460"
textLength="4250" font-size="660" lengthAdjust="spacingAndGlyphs"
text-anchor="start" opacity="0">Sheet: PSU</text>
<path d="M45120 34410
L45190 34430
L45310 34430
L45360 34410
L45380 34380
L45410 34340
L45410 34290
L45380 34240
L45360 34220
L45310 34190
L45220 34170
L45170 34150
L45140 34120
L45120 34070
L45120 34030
L45140 33980
L45170 33960
L45220 33930
L45330 33930
L45410 33960
" />
<path d="M45620 34430
L45620 33930
" />
<path d="M45830 34430
L45830 34170
L45810 34120
L45760 34100
L45690 34100
L45640 34120
L45620 34150
" />
<path d="M46260 34410
L46220 34430
L46120 34430
L46070 34410
L46050 34360
L46050 34170
L46070 34120
L46120 34100
L46220 34100
L46260 34120
L46290 34170
L46290 34220
L46050 34260
" />
<path d="M46690 34410
L46640 34430
L46550 34430
L46500 34410
L46480 34360
L46480 34170
L46500 34120
L46550 34100
L46640 34100
L46690 34120
L46720 34170
L46720 34220
L46480 34260
" />
<path d="M46860 34100
L47050 34100
" />
<path d="M46930 33930
L46930 34360
L46950 34410
L47000 34430
L47050 34430
" />
<path d="M47220 34380
L47240 34410
L47220 34430
L47190 34410
L47220 34380
L47220 34430
" />
<path d="M47220 34120
L47240 34150
L47220 34170
L47190 34150
L47220 34120
L47220 34170
" />
<path d="M47830 34430
L47830 33930
L48030 33930
L48070 33960
L48100 33980
L48120 34030
L48120 34100
L48100 34150
L48070 34170
L48030 34190
L47830 34190
" />
<path d="M48310 34410
L48380 34430
L48500 34430
L48550 34410
L48570 34380
L48600 34340
L48600 34290
L48570 34240
L48550 34220
L48500 34190
L48410 34170
L48360 34150
L48330 34120
L48310 34070
L48310 34030
L48330 33980
L48360 33960
L48410 33930
L48530 33930
L48600 33960
" />
<path d="M48810 33930
L48810 34340
L48830 34380
L48860 34410
L48910 34430
L49000 34430
L49050 34410
L49070 34380
L49100 34340
L49100 33930
" />
</g>
<g style="fill:#848400; fill-opacity:0.0; 
stroke:#848400; stroke-width:60; stroke-opacity:1; 
stroke-linecap:round; stroke-linejoin:round;">
</g>
<g style="fill:#000000; fill-opacity:0.0; 
stroke:#000000; stroke-width:60; stroke-opacity:1; 
stroke-linecap:round; stroke-linejoin:round;">
<text x="45000" y="38540"
textLength="5060" font-size="660" lengthAdjust="spacingAndGlyphs"
text-anchor="start" opacity="0">File: PSU.sch</text>
<path d="M45310 38250
L45140 38250
" />
<path d="M45140 38510
L45140 38010
L45380 38010
" />
<path d="M45570 38510
L45570 38180
" />
<path d="M45570 38010
L45550 38040
L45570 38060
L45600 38040
L45570 38010
L45570 38060
" />
<path d="M45880 38510
L45830 38490
L45810 38440
L45810 38010
" />
<path d="M46260 38490
L46220 38510
L46120 38510
L46070 38490
L46050 38440
L46050 38250
L46070 38200
L46120 38180
L46220 38180
L46260 38200
L46290 38250
L46290 38300
L46050 38340
" />
<path d="M46500 38460
L46530 38490
L46500 38510
L46480 38490
L46500 38460
L46500 38510
" />
<path d="M46500 38200
L46530 38230
L46500 38250
L46480 38230
L46500 38200
L46500 38250
" />
<path d="M47120 38510
L47120 38010
L47310 38010
L47360 38040
L47380 38060
L47410 38110
L47410 38180
L47380 38230
L47360 38250
L47310 38270
L47120 38270
" />
<path d="M47600 38490
L47670 38510
L47790 38510
L47830 38490
L47860 38460
L47880 38420
L47880 38370
L47860 38320
L47830 38300
L47790 38270
L47690 38250
L47640 38230
L47620 38200
L47600 38150
L47600 38110
L47620 38060
L47640 38040
L47690 38010
L47810 38010
L47880 38040
" />
<path d="M48100 38010
L48100 38420
L48120 38460
L48140 38490
L48190 38510
L48290 38510
L48330 38490
L48360 38460
L48380 38420
L48380 38010
" />
<path d="M48620 38460
L48640 38490
L48620 38510
L48600 38490
L48620 38460
L48620 38510
" />
<path d="M48830 38490
L48880 38510
L48980 38510
L49030 38490
L49050 38440
L49050 38420
L49030 38370
L48980 38340
L48910 38340
L48860 38320
L48830 38270
L48830 38250
L48860 38200
L48910 38180
L48980 38180
L49030 38200
" />
<path d="M49480 38490
L49430 38510
L49330 38510
L49290 38490
L49260 38460
L49240 38420
L49240 38270
L49260 38230
L49290 38200
L49330 38180
L49430 38180
L49480 38200
" />
<path d="M49690 38510
L49690 38010
" />
<path d="M49910 38510
L49910 38250
L49880 38200
L49830 38180
L49760 38180
L49720 38200
L49690 38230
" />
</g>
<g style="fill:#840084; fill-opacity:0.0; 
stroke:#840084; stroke-width:60; stroke-opacity:1; 
stroke-linecap:round; stroke-linejoin:round;">
</g>
<g style="fill:#848400; fill-opacity:0.0; 
stroke:#848400; stroke-width:60; stroke-opacity:1; 
stroke-linecap:round; stroke-linejoin:round;">
<text x="51400" y="35750"
textLength="1580" font-size="660" lengthAdjust="spacingAndGlyphs"
text-anchor="end" opacity="0">+5V</text>
<path d="M49960 35530
L50340 35530
" />
<path d="M50150 35720
L50150 35340
" />
<path d="M50820 35220
L50580 35220
L50560 35460
L50580 35440
L50630 35410
L50750 35410
L50790 35440
L50820 35460
L50840 35510
L50840 35630
L50820 35670
L50790 35700
L50750 35720
L50630 35720
L50580 35700
L50560 35670
" />
<path d="M50980 35220
L51150 35720
L51320 35220
" />
</g>
<g style="fill:#848400; fill-opacity:0.0; 
stroke:#848400; stroke-width:100; stroke-opacity:1; 
stroke-linecap:round; stroke-linejoin:round;">
<path style="fill:#848400; fill-opacity:0.0; 
stroke:#848400; stroke-width:100; stroke-opacity:1; 
stroke-linecap:round; stroke-linejoin:round;fill:none"
d="M 52000,35500
51750,35250
51500,35250
51500,35750
51750,35750
Z" /> 
</g>
<g style="fill:#848400; fill-opacity:0.0; 
stroke:#848400; stroke-width:60; stroke-opacity:1; 
stroke-linecap:round; stroke-linejoin:round;">
<text x="51400" y="37250"
textLength="1580" font-size="660" lengthAdjust="spacingAndGlyphs"
text-anchor="end" opacity="0">GND</text>
<path d="M50220 36750
L50170 36720
L50100 36720
L50030 36750
L49980 36790
L49960 36840
L49940 36940
L49940 37010
L49960 37100
L49980 37150
L50030 37200
L50100 37220
L50150 37220
L50220 37200
L50250 37170
L50250 37010
L50150 37010
" />
<path d="M50460 37220
L50460 36720
L50750 37220
L50750 36720
" />
<path d="M50980 37220
L50980 36720
L51100 36720
L51170 36750
L51220 36790
L51250 36840
L51270 36940
L51270 37010
L51250 37100
L51220 37150
L51170 37200
L51100 37220
L50980 37220
" />
</g>
<g style="fill:#848400; fill-opacity:0.0; 
stroke:#848400; stroke-width:100; stroke-opacity:1; 
stroke-linecap:round; stroke-linejoin:round;">
<path style="fill:#848400; fill-opacity:0.0; 
stroke:#848400; stroke-width:100; stroke-opacity:1; 
stroke-linecap:round; stroke-linejoin:round;fill:none"
d="M 52000,37000
51750,36750
51500,36750
51500,37250
51750,37250
Z" /> 
</g>
<g style="fill:#848400; fill-opacity:0.0; 
stroke:#848400; stroke-width:60; stroke-opacity:1; 
stroke-linecap:round; stroke-linejoin:round;">
</g>
<g style="fill:#840084; fill-opacity:0.0; 
stroke:#840084; stroke-width:60; stroke-opacity:1; 
stroke-linecap:round; stroke-linejoin:round;">
<path d="M58500 33000
L70000 33000
L70000 40500
L58500 40500
L58500 33000
" />
</g>
<g style="fill:#008484; fill-opacity:0.0; 
stroke:#008484; stroke-width:60; stroke-opacity:1; 
stroke-linecap:round; stroke-linejoin:round;">
</g>
<g style="fill:#000000; fill-opacity:0.0; 
stroke:#000000; stroke-width:60; stroke-opacity:1; 
stroke-linecap:round; stroke-linejoin:round;">
<text x="58500" y="32960"
textLength="7230" font-size="660" lengthAdjust="spacingAndGlyphs"
text-anchor="start" opacity="0">Sheet: Computador</text>
<path d="M58620 32910
L58690 32930
L58810 32930
L58860 32910
L58880 32880
L58910 32840
L58910 32790
L58880 32740
L58860 32720
L58810 32690
L58720 32670
L58670 32650
L58640 32620
L58620 32570
L58620 32530
L58640 32480
L58670 32460
L58720 32430
L58830 32430
L58910 32460
" />
<path d="M59120 32930
L59120 32430
" />
<path d="M59330 32930
L59330 32670
L59310 32620
L59260 32600
L59190 32600
L59140 32620
L59120 32650
" />
<path d="M59760 32910
L59720 32930
L59620 32930
L59570 32910
L59550 32860
L59550 32670
L59570 32620
L59620 32600
L59720 32600
L59760 32620
L59790 32670
L59790 32720
L59550 32760
" />
<path d="M60190 32910
L60140 32930
L60050 32930
L60000 32910
L59980 32860
L59980 32670
L60000 32620
L60050 32600
L60140 32600
L60190 32620
L60220 32670
L60220 32720
L59980 32760
" />
<path d="M60360 32600
L60550 32600
" />
<path d="M60430 32430
L60430 32860
L60450 32910
L60500 32930
L60550 32930
" />
<path d="M60720 32880
L60740 32910
L60720 32930
L60690 32910
L60720 32880
L60720 32930
" />
<path d="M60720 32620
L60740 32650
L60720 32670
L60690 32650
L60720 32620
L60720 32670
" />
<path d="M61620 32880
L61600 32910
L61530 32930
L61480 32930
L61410 32910
L61360 32860
L61330 32810
L61310 32720
L61310 32650
L61330 32550
L61360 32500
L61410 32460
L61480 32430
L61530 32430
L61600 32460
L61620 32480
" />
<path d="M61910 32930
L61860 32910
L61830 32880
L61810 32840
L61810 32690
L61830 32650
L61860 32620
L61910 32600
L61980 32600
L62030 32620
L62050 32650
L62070 32690
L62070 32840
L62050 32880
L62030 32910
L61980 32930
L61910 32930
" />
<path d="M62290 32930
L62290 32600
" />
<path d="M62290 32650
L62310 32620
L62360 32600
L62430 32600
L62480 32620
L62500 32670
L62500 32930
" />
<path d="M62500 32670
L62530 32620
L62570 32600
L62640 32600
L62690 32620
L62720 32670
L62720 32930
" />
<path d="M62950 32600
L62950 33100
" />
<path d="M62950 32620
L63000 32600
L63100 32600
L63140 32620
L63170 32650
L63190 32690
L63190 32840
L63170 32880
L63140 32910
L63100 32930
L63000 32930
L62950 32910
" />
<path d="M63620 32600
L63620 32930
" />
<path d="M63410 32600
L63410 32860
L63430 32910
L63480 32930
L63550 32930
L63600 32910
L63620 32880
" />
<path d="M63790 32600
L63980 32600
" />
<path d="M63860 32430
L63860 32860
L63880 32910
L63930 32930
L63980 32930
" />
<path d="M64360 32930
L64360 32670
L64330 32620
L64290 32600
L64190 32600
L64140 32620
" />
<path d="M64360 32910
L64310 32930
L64190 32930
L64140 32910
L64120 32860
L64120 32810
L64140 32760
L64190 32740
L64310 32740
L64360 32720
" />
<path d="M64810 32930
L64810 32430
" />
<path d="M64810 32910
L64760 32930
L64670 32930
L64620 32910
L64600 32880
L64570 32840
L64570 32690
L64600 32650
L64620 32620
L64670 32600
L64760 32600
L64810 32620
" />
<path d="M65120 32930
L65070 32910
L65050 32880
L65030 32840
L65030 32690
L65050 32650
L65070 32620
L65120 32600
L65190 32600
L65240 32620
L65260 32650
L65290 32690
L65290 32840
L65260 32880
L65240 32910
L65190 32930
L65120 32930
" />
<path d="M65500 32930
L65500 32600
" />
<path d="M65500 32690
L65530 32650
L65550 32620
L65600 32600
L65640 32600
" />
</g>
<g style="fill:#848400; fill-opacity:0.0; 
stroke:#848400; stroke-width:60; stroke-opacity:1; 
stroke-linecap:round; stroke-linejoin:round;">
</g>
<g style="fill:#000000; fill-opacity:0.0; 
stroke:#000000; stroke-width:60; stroke-opacity:1; 
stroke-linecap:round; stroke-linejoin:round;">
<text x="58500" y="41040"
textLength="4560" font-size="660" lengthAdjust="spacingAndGlyphs"
text-anchor="start" opacity="0">File: PC.sch</text>
<path d="M58810 40750
L58640 40750
" />
<path d="M58640 41010
L58640 40510
L58880 40510
" />
<path d="M59070 41010
L59070 40680
" />
<path d="M59070 40510
L59050 40540
L59070 40560
L59100 40540
L59070 40510
L59070 40560
" />
<path d="M59380 41010
L59330 40990
L59310 40940
L59310 40510
" />
<path d="M59760 40990
L59720 41010
L59620 41010
L59570 40990
L59550 40940
L59550 40750
L59570 40700
L59620 40680
L59720 40680
L59760 40700
L59790 40750
L59790 40800
L59550 40840
" />
<path d="M60000 40960
L60030 40990
L60000 41010
L59980 40990
L60000 40960
L60000 41010
" />
<path d="M60000 40700
L60030 40730
L60000 40750
L59980 40730
L60000 40700
L60000 40750
" />
<path d="M60620 41010
L60620 40510
L60810 40510
L60860 40540
L60880 40560
L60910 40610
L60910 40680
L60880 40730
L60860 40750
L60810 40770
L60620 40770
" />
<path d="M61410 40960
L61380 40990
L61310 41010
L61260 41010
L61190 40990
L61140 40940
L61120 40890
L61100 40800
L61100 40730
L61120 40630
L61140 40580
L61190 40540
L61260 40510
L61310 40510
L61380 40540
L61410 40560
" />
<path d="M61620 40960
L61640 40990
L61620 41010
L61600 40990
L61620 40960
L61620 41010
" />
<path d="M61830 40990
L61880 41010
L61980 41010
L62030 40990
L62050 40940
L62050 40920
L62030 40870
L61980 40840
L61910 40840
L61860 40820
L61830 40770
L61830 40750
L61860 40700
L61910 40680
L61980 40680
L62030 40700
" />
<path d="M62480 40990
L62430 41010
L62330 41010
L62290 40990
L62260 40960
L62240 40920
L62240 40770
L62260 40730
L62290 40700
L62330 40680
L62430 40680
L62480 40700
" />
<path d="M62690 41010
L62690 40510
" />
<path d="M62910 41010
L62910 40750
L62880 40700
L62830 40680
L62760 40680
L62720 40700
L62690 40730
" />
</g>
<g style="fill:#840084; fill-opacity:0.0; 
stroke:#840084; stroke-width:60; stroke-opacity:1; 
stroke-linecap:round; stroke-linejoin:round;">
</g>
<g style="fill:#848400; fill-opacity:0.0; 
stroke:#848400; stroke-width:60; stroke-opacity:1; 
stroke-linecap:round; stroke-linejoin:round;">
<text x="59100" y="35750"
textLength="960" font-size="660" lengthAdjust="spacingAndGlyphs"
text-anchor="start" opacity="0">5V</text>
<path d="M59480 35220
L59240 35220
L59220 35460
L59240 35440
L59290 35410
L59410 35410
L59460 35440
L59480 35460
L59510 35510
L59510 35630
L59480 35670
L59460 35700
L59410 35720
L59290 35720
L59240 35700
L59220 35670
" />
<path d="M59650 35220
L59820 35720
L59980 35220
" />
</g>
<g style="fill:#848400; fill-opacity:0.0; 
stroke:#848400; stroke-width:100; stroke-opacity:1; 
stroke-linecap:round; stroke-linejoin:round;">
<path style="fill:#848400; fill-opacity:0.0; 
stroke:#848400; stroke-width:100; stroke-opacity:1; 
stroke-linecap:round; stroke-linejoin:round;fill:none"
d="M 59000,35500
58750,35250
58500,35250
58500,35750
58750,35750
Z" /> 
</g>
<g style="fill:#848400; fill-opacity:0.0; 
stroke:#848400; stroke-width:60; stroke-opacity:1; 
stroke-linecap:round; stroke-linejoin:round;">
<text x="59100" y="37250"
textLength="1580" font-size="660" lengthAdjust="spacingAndGlyphs"
text-anchor="start" opacity="0">GND</text>
<path d="M59510 36750
L59460 36720
L59390 36720
L59320 36750
L59270 36790
L59240 36840
L59220 36940
L59220 37010
L59240 37100
L59270 37150
L59320 37200
L59390 37220
L59430 37220
L59510 37200
L59530 37170
L59530 37010
L59430 37010
" />
<path d="M59740 37220
L59740 36720
L60030 37220
L60030 36720
" />
<path d="M60270 37220
L60270 36720
L60390 36720
L60460 36750
L60510 36790
L60530 36840
L60550 36940
L60550 37010
L60530 37100
L60510 37150
L60460 37200
L60390 37220
L60270 37220
" />
</g>
<g style="fill:#848400; fill-opacity:0.0; 
stroke:#848400; stroke-width:100; stroke-opacity:1; 
stroke-linecap:round; stroke-linejoin:round;">
<path style="fill:#848400; fill-opacity:0.0; 
stroke:#848400; stroke-width:100; stroke-opacity:1; 
stroke-linecap:round; stroke-linejoin:round;fill:none"
d="M 59000,37000
58750,36750
58500,36750
58500,37250
58750,37250
Z" /> 
</g>
<g style="fill:#848400; fill-opacity:0.0; 
stroke:#848400; stroke-width:0; stroke-opacity:1; 
stroke-linecap:round; stroke-linejoin:round;">
<g >
</g>
<g style="fill:#840000; fill-opacity:0.0; 
stroke:#840000; stroke-width:0; stroke-opacity:1; 
stroke-linecap:round; stroke-linejoin:round;">
</g>
<g style="fill:#840000; fill-opacity:0.0; 
stroke:#840000; stroke-width:500; stroke-opacity:1; 
stroke-linecap:round; stroke-linejoin:round;">
<circle cx="47500" cy="45500" r="500" /> 
</g>
<g style="fill:#008484; fill-opacity:0.0; 
stroke:#008484; stroke-width:500; stroke-opacity:1; 
stroke-linecap:round; stroke-linejoin:round;">
</g>
<g style="fill:#008484; fill-opacity:0.0; 
stroke:#008484; stroke-width:60; stroke-opacity:1; 
stroke-linecap:round; stroke-linejoin:round;">
<text x="47530" y="47270"
textLength="1060" font-size="660" lengthAdjust="spacingAndGlyphs"
text-anchor="middle" opacity="0">H1</text>
<path d="M47140 47240
L47140 46740
" />
<path d="M47140 46980
L47430 46980
" />
<path d="M47430 47240
L47430 46740
" />
<path d="M47930 47240
L47640 47240
" />
<path d="M47790 47240
L47790 46740
L47740 46810
L47690 46860
L47640 46880
" />
<text x="47540" y="48270"
textLength="5080" font-size="660" lengthAdjust="spacingAndGlyphs"
text-anchor="middle" opacity="0">MountingHole</text>
<path d="M45140 48240
L45140 47740
L45310 48100
L45480 47740
L45480 48240
" />
<path d="M45790 48240
L45740 48220
L45710 48190
L45690 48150
L45690 48000
L45710 47960
L45740 47930
L45790 47910
L45860 47910
L45900 47930
L45930 47960
L45950 48000
L45950 48150
L45930 48190
L45900 48220
L45860 48240
L45790 48240
" />
<path d="M46380 47910
L46380 48240
" />
<path d="M46170 47910
L46170 48170
L46190 48220
L46240 48240
L46310 48240
L46360 48220
L46380 48190
" />
<path d="M46620 47910
L46620 48240
" />
<path d="M46620 47960
L46640 47930
L46690 47910
L46760 47910
L46810 47930
L46830 47980
L46830 48240
" />
<path d="M47000 47910
L47190 47910
" />
<path d="M47070 47740
L47070 48170
L47090 48220
L47140 48240
L47190 48240
" />
<path d="M47360 48240
L47360 47910
" />
<path d="M47360 47740
L47330 47770
L47360 47790
L47380 47770
L47360 47740
L47360 47790
" />
<path d="M47590 47910
L47590 48240
" />
<path d="M47590 47960
L47620 47930
L47670 47910
L47740 47910
L47790 47930
L47810 47980
L47810 48240
" />
<path d="M48260 47910
L48260 48310
L48240 48360
L48210 48380
L48170 48410
L48090 48410
L48050 48380
" />
<path d="M48260 48220
L48210 48240
L48120 48240
L48070 48220
L48050 48190
L48020 48150
L48020 48000
L48050 47960
L48070 47930
L48120 47910
L48210 47910
L48260 47930
" />
<path d="M48500 48240
L48500 47740
" />
<path d="M48500 47980
L48790 47980
" />
<path d="M48790 48240
L48790 47740
" />
<path d="M49090 48240
L49050 48220
L49020 48190
L49000 48150
L49000 48000
L49020 47960
L49050 47930
L49090 47910
L49170 47910
L49210 47930
L49240 47960
L49260 48000
L49260 48150
L49240 48190
L49210 48220
L49170 48240
L49090 48240
" />
<path d="M49550 48240
L49500 48220
L49480 48170
L49480 47740
" />
<path d="M49930 48220
L49880 48240
L49790 48240
L49740 48220
L49710 48170
L49710 47980
L49740 47930
L49790 47910
L49880 47910
L49930 47930
L49950 47980
L49950 48030
L49710 48070
" />
</g>
</g>
<g style="fill:#008484; fill-opacity:0.0; 
stroke:#008484; stroke-width:0; stroke-opacity:1; 
stroke-linecap:round; stroke-linejoin:round;">
<g >
</g>
<g style="fill:#840000; fill-opacity:0.0; 
stroke:#840000; stroke-width:0; stroke-opacity:1; 
stroke-linecap:round; stroke-linejoin:round;">
</g>
<g style="fill:#840000; fill-opacity:0.0; 
stroke:#840000; stroke-width:500; stroke-opacity:1; 
stroke-linecap:round; stroke-linejoin:round;">
<circle cx="54000" cy="45500" r="500" /> 
</g>
<g style="fill:#008484; fill-opacity:0.0; 
stroke:#008484; stroke-width:500; stroke-opacity:1; 
stroke-linecap:round; stroke-linejoin:round;">
</g>
<g style="fill:#008484; fill-opacity:0.0; 
stroke:#008484; stroke-width:60; stroke-opacity:1; 
stroke-linecap:round; stroke-linejoin:round;">
<text x="54030" y="47270"
textLength="1060" font-size="660" lengthAdjust="spacingAndGlyphs"
text-anchor="middle" opacity="0">H2</text>
<path d="M53640 47240
L53640 46740
" />
<path d="M53640 46980
L53930 46980
" />
<path d="M53930 47240
L53930 46740
" />
<path d="M54140 46790
L54170 46770
L54220 46740
L54330 46740
L54380 46770
L54410 46790
L54430 46840
L54430 46880
L54410 46960
L54120 47240
L54430 47240
" />
<text x="54040" y="48270"
textLength="5080" font-size="660" lengthAdjust="spacingAndGlyphs"
text-anchor="middle" opacity="0">MountingHole</text>
<path d="M51640 48240
L51640 47740
L51810 48100
L51980 47740
L51980 48240
" />
<path d="M52290 48240
L52240 48220
L52210 48190
L52190 48150
L52190 48000
L52210 47960
L52240 47930
L52290 47910
L52360 47910
L52400 47930
L52430 47960
L52450 48000
L52450 48150
L52430 48190
L52400 48220
L52360 48240
L52290 48240
" />
<path d="M52880 47910
L52880 48240
" />
<path d="M52670 47910
L52670 48170
L52690 48220
L52740 48240
L52810 48240
L52860 48220
L52880 48190
" />
<path d="M53120 47910
L53120 48240
" />
<path d="M53120 47960
L53140 47930
L53190 47910
L53260 47910
L53310 47930
L53330 47980
L53330 48240
" />
<path d="M53500 47910
L53690 47910
" />
<path d="M53570 47740
L53570 48170
L53590 48220
L53640 48240
L53690 48240
" />
<path d="M53860 48240
L53860 47910
" />
<path d="M53860 47740
L53830 47770
L53860 47790
L53880 47770
L53860 47740
L53860 47790
" />
<path d="M54090 47910
L54090 48240
" />
<path d="M54090 47960
L54120 47930
L54170 47910
L54240 47910
L54290 47930
L54310 47980
L54310 48240
" />
<path d="M54760 47910
L54760 48310
L54740 48360
L54710 48380
L54670 48410
L54590 48410
L54550 48380
" />
<path d="M54760 48220
L54710 48240
L54620 48240
L54570 48220
L54550 48190
L54520 48150
L54520 48000
L54550 47960
L54570 47930
L54620 47910
L54710 47910
L54760 47930
" />
<path d="M55000 48240
L55000 47740
" />
<path d="M55000 47980
L55290 47980
" />
<path d="M55290 48240
L55290 47740
" />
<path d="M55590 48240
L55550 48220
L55520 48190
L55500 48150
L55500 48000
L55520 47960
L55550 47930
L55590 47910
L55670 47910
L55710 47930
L55740 47960
L55760 48000
L55760 48150
L55740 48190
L55710 48220
L55670 48240
L55590 48240
" />
<path d="M56050 48240
L56000 48220
L55980 48170
L55980 47740
" />
<path d="M56430 48220
L56380 48240
L56290 48240
L56240 48220
L56210 48170
L56210 47980
L56240 47930
L56290 47910
L56380 47910
L56430 47930
L56450 47980
L56450 48030
L56210 48070
" />
</g>
</g>
<g style="fill:#008484; fill-opacity:0.0; 
stroke:#008484; stroke-width:0; stroke-opacity:1; 
stroke-linecap:round; stroke-linejoin:round;">
<g >
</g>
<g style="fill:#840000; fill-opacity:0.0; 
stroke:#840000; stroke-width:0; stroke-opacity:1; 
stroke-linecap:round; stroke-linejoin:round;">
</g>
<g style="fill:#840000; fill-opacity:0.0; 
stroke:#840000; stroke-width:500; stroke-opacity:1; 
stroke-linecap:round; stroke-linejoin:round;">
<circle cx="60500" cy="45500" r="500" /> 
</g>
<g style="fill:#008484; fill-opacity:0.0; 
stroke:#008484; stroke-width:500; stroke-opacity:1; 
stroke-linecap:round; stroke-linejoin:round;">
</g>
<g style="fill:#008484; fill-opacity:0.0; 
stroke:#008484; stroke-width:60; stroke-opacity:1; 
stroke-linecap:round; stroke-linejoin:round;">
<text x="60530" y="47270"
textLength="1060" font-size="660" lengthAdjust="spacingAndGlyphs"
text-anchor="middle" opacity="0">H3</text>
<path d="M60140 47240
L60140 46740
" />
<path d="M60140 46980
L60430 46980
" />
<path d="M60430 47240
L60430 46740
" />
<path d="M60620 46740
L60930 46740
L60760 46930
L60830 46930
L60880 46960
L60910 46980
L60930 47030
L60930 47150
L60910 47190
L60880 47220
L60830 47240
L60690 47240
L60640 47220
L60620 47190
" />
<text x="60540" y="48270"
textLength="5080" font-size="660" lengthAdjust="spacingAndGlyphs"
text-anchor="middle" opacity="0">MountingHole</text>
<path d="M58140 48240
L58140 47740
L58310 48100
L58480 47740
L58480 48240
" />
<path d="M58790 48240
L58740 48220
L58710 48190
L58690 48150
L58690 48000
L58710 47960
L58740 47930
L58790 47910
L58860 47910
L58900 47930
L58930 47960
L58950 48000
L58950 48150
L58930 48190
L58900 48220
L58860 48240
L58790 48240
" />
<path d="M59380 47910
L59380 48240
" />
<path d="M59170 47910
L59170 48170
L59190 48220
L59240 48240
L59310 48240
L59360 48220
L59380 48190
" />
<path d="M59620 47910
L59620 48240
" />
<path d="M59620 47960
L59640 47930
L59690 47910
L59760 47910
L59810 47930
L59830 47980
L59830 48240
" />
<path d="M60000 47910
L60190 47910
" />
<path d="M60070 47740
L60070 48170
L60090 48220
L60140 48240
L60190 48240
" />
<path d="M60360 48240
L60360 47910
" />
<path d="M60360 47740
L60330 47770
L60360 47790
L60380 47770
L60360 47740
L60360 47790
" />
<path d="M60590 47910
L60590 48240
" />
<path d="M60590 47960
L60620 47930
L60670 47910
L60740 47910
L60790 47930
L60810 47980
L60810 48240
" />
<path d="M61260 47910
L61260 48310
L61240 48360
L61210 48380
L61170 48410
L61090 48410
L61050 48380
" />
<path d="M61260 48220
L61210 48240
L61120 48240
L61070 48220
L61050 48190
L61020 48150
L61020 48000
L61050 47960
L61070 47930
L61120 47910
L61210 47910
L61260 47930
" />
<path d="M61500 48240
L61500 47740
" />
<path d="M61500 47980
L61790 47980
" />
<path d="M61790 48240
L61790 47740
" />
<path d="M62090 48240
L62050 48220
L62020 48190
L62000 48150
L62000 48000
L62020 47960
L62050 47930
L62090 47910
L62170 47910
L62210 47930
L62240 47960
L62260 48000
L62260 48150
L62240 48190
L62210 48220
L62170 48240
L62090 48240
" />
<path d="M62550 48240
L62500 48220
L62480 48170
L62480 47740
" />
<path d="M62930 48220
L62880 48240
L62790 48240
L62740 48220
L62710 48170
L62710 47980
L62740 47930
L62790 47910
L62880 47910
L62930 47930
L62950 47980
L62950 48030
L62710 48070
" />
</g>
</g>
<g style="fill:#008484; fill-opacity:0.0; 
stroke:#008484; stroke-width:0; stroke-opacity:1; 
stroke-linecap:round; stroke-linejoin:round;">
<g >
</g>
<g style="fill:#840000; fill-opacity:0.0; 
stroke:#840000; stroke-width:0; stroke-opacity:1; 
stroke-linecap:round; stroke-linejoin:round;">
</g>
<g style="fill:#840000; fill-opacity:0.0; 
stroke:#840000; stroke-width:500; stroke-opacity:1; 
stroke-linecap:round; stroke-linejoin:round;">
<circle cx="67000" cy="45500" r="500" /> 
</g>
<g style="fill:#008484; fill-opacity:0.0; 
stroke:#008484; stroke-width:500; stroke-opacity:1; 
stroke-linecap:round; stroke-linejoin:round;">
</g>
<g style="fill:#008484; fill-opacity:0.0; 
stroke:#008484; stroke-width:60; stroke-opacity:1; 
stroke-linecap:round; stroke-linejoin:round;">
<text x="67030" y="47270"
textLength="1060" font-size="660" lengthAdjust="spacingAndGlyphs"
text-anchor="middle" opacity="0">H4</text>
<path d="M66640 47240
L66640 46740
" />
<path d="M66640 46980
L66930 46980
" />
<path d="M66930 47240
L66930 46740
" />
<path d="M67380 46910
L67380 47240
" />
<path d="M67260 46720
L67140 47070
L67450 47070
" />
<text x="67040" y="48270"
textLength="5080" font-size="660" lengthAdjust="spacingAndGlyphs"
text-anchor="middle" opacity="0">MountingHole</text>
<path d="M64640 48240
L64640 47740
L64810 48100
L64980 47740
L64980 48240
" />
<path d="M65290 48240
L65240 48220
L65210 48190
L65190 48150
L65190 48000
L65210 47960
L65240 47930
L65290 47910
L65360 47910
L65400 47930
L65430 47960
L65450 48000
L65450 48150
L65430 48190
L65400 48220
L65360 48240
L65290 48240
" />
<path d="M65880 47910
L65880 48240
" />
<path d="M65670 47910
L65670 48170
L65690 48220
L65740 48240
L65810 48240
L65860 48220
L65880 48190
" />
<path d="M66120 47910
L66120 48240
" />
<path d="M66120 47960
L66140 47930
L66190 47910
L66260 47910
L66310 47930
L66330 47980
L66330 48240
" />
<path d="M66500 47910
L66690 47910
" />
<path d="M66570 47740
L66570 48170
L66590 48220
L66640 48240
L66690 48240
" />
<path d="M66860 48240
L66860 47910
" />
<path d="M66860 47740
L66830 47770
L66860 47790
L66880 47770
L66860 47740
L66860 47790
" />
<path d="M67090 47910
L67090 48240
" />
<path d="M67090 47960
L67120 47930
L67170 47910
L67240 47910
L67290 47930
L67310 47980
L67310 48240
" />
<path d="M67760 47910
L67760 48310
L67740 48360
L67710 48380
L67670 48410
L67590 48410
L67550 48380
" />
<path d="M67760 48220
L67710 48240
L67620 48240
L67570 48220
L67550 48190
L67520 48150
L67520 48000
L67550 47960
L67570 47930
L67620 47910
L67710 47910
L67760 47930
" />
<path d="M68000 48240
L68000 47740
" />
<path d="M68000 47980
L68290 47980
" />
<path d="M68290 48240
L68290 47740
" />
<path d="M68590 48240
L68550 48220
L68520 48190
L68500 48150
L68500 48000
L68520 47960
L68550 47930
L68590 47910
L68670 47910
L68710 47930
L68740 47960
L68760 48000
L68760 48150
L68740 48190
L68710 48220
L68670 48240
L68590 48240
" />
<path d="M69050 48240
L69000 48220
L68980 48170
L68980 47740
" />
<path d="M69430 48220
L69380 48240
L69290 48240
L69240 48220
L69210 48170
L69210 47980
L69240 47930
L69290 47910
L69380 47910
L69430 47930
L69450 47980
L69450 48030
L69210 48070
" />
</g>
</g>
<g style="fill:#008484; fill-opacity:0.0; 
stroke:#008484; stroke-width:60; stroke-opacity:1; 
stroke-linecap:round; stroke-linejoin:round;">
</g>
<g style="fill:#008400; fill-opacity:0.0; 
stroke:#008400; stroke-width:60; stroke-opacity:1; 
stroke-linecap:round; stroke-linejoin:round;">
<path d="M52000 35500
L58500 35500
" />
<path d="M52000 37000
L58500 37000
" />
</g> 
</svg>
