%TF.GenerationSoftware,KiCad,Pcbnew,(5.1.7)-1*%
%TF.CreationDate,2021-02-02T03:53:03+00:00*%
%TF.ProjectId,GPU_Projeto,4750555f-5072-46f6-9a65-746f2e6b6963,rev?*%
%TF.SameCoordinates,Original*%
%TF.FileFunction,Legend,Top*%
%TF.FilePolarity,Positive*%
%FSLAX46Y46*%
G04 Gerber Fmt 4.6, Leading zero omitted, Abs format (unit mm)*
G04 Created by KiCad (PCBNEW (5.1.7)-1) date 2021-02-02 03:53:03*
%MOMM*%
%LPD*%
G01*
G04 APERTURE LIST*
%ADD10C,0.100000*%
%ADD11C,0.150000*%
%ADD12C,0.300000*%
%ADD13C,0.400000*%
%ADD14C,0.120000*%
G04 APERTURE END LIST*
D10*
D11*
X90007200Y-253002200D02*
X90007200Y-285002200D01*
X198007200Y-285002200D01*
X198007200Y-253002200D01*
X90007200Y-253002200D01*
D10*
D11*
X10000000Y-10000000D02*
X10000000Y-287002200D01*
X200007200Y-287002200D01*
X200007200Y-10000000D01*
X10000000Y-10000000D01*
D10*
D11*
X12000000Y-12000000D02*
X12000000Y-285002200D01*
X198007200Y-285002200D01*
X198007200Y-12000000D01*
X12000000Y-12000000D01*
D10*
D11*
X60000000Y-12000000D02*
X60000000Y-10000000D01*
D10*
D11*
X110000000Y-12000000D02*
X110000000Y-10000000D01*
D10*
D11*
X160000000Y-12000000D02*
X160000000Y-10000000D01*
D10*
D11*
X36065476Y-11588095D02*
X35322619Y-11588095D01*
X35694047Y-11588095D02*
X35694047Y-10288095D01*
X35570238Y-10473809D01*
X35446428Y-10597619D01*
X35322619Y-10659523D01*
D10*
D11*
X85322619Y-10411904D02*
X85384523Y-10350000D01*
X85508333Y-10288095D01*
X85817857Y-10288095D01*
X85941666Y-10350000D01*
X86003571Y-10411904D01*
X86065476Y-10535714D01*
X86065476Y-10659523D01*
X86003571Y-10845238D01*
X85260714Y-11588095D01*
X86065476Y-11588095D01*
D10*
D11*
X135260714Y-10288095D02*
X136065476Y-10288095D01*
X135632142Y-10783333D01*
X135817857Y-10783333D01*
X135941666Y-10845238D01*
X136003571Y-10907142D01*
X136065476Y-11030952D01*
X136065476Y-11340476D01*
X136003571Y-11464285D01*
X135941666Y-11526190D01*
X135817857Y-11588095D01*
X135446428Y-11588095D01*
X135322619Y-11526190D01*
X135260714Y-11464285D01*
D10*
D11*
X185941666Y-10721428D02*
X185941666Y-11588095D01*
X185632142Y-10226190D02*
X185322619Y-11154761D01*
X186127380Y-11154761D01*
D10*
D11*
X60000000Y-285002200D02*
X60000000Y-287002200D01*
D10*
D11*
X110000000Y-285002200D02*
X110000000Y-287002200D01*
D10*
D11*
X160000000Y-285002200D02*
X160000000Y-287002200D01*
D10*
D11*
X36065476Y-286590295D02*
X35322619Y-286590295D01*
X35694047Y-286590295D02*
X35694047Y-285290295D01*
X35570238Y-285476009D01*
X35446428Y-285599819D01*
X35322619Y-285661723D01*
D10*
D11*
X85322619Y-285414104D02*
X85384523Y-285352200D01*
X85508333Y-285290295D01*
X85817857Y-285290295D01*
X85941666Y-285352200D01*
X86003571Y-285414104D01*
X86065476Y-285537914D01*
X86065476Y-285661723D01*
X86003571Y-285847438D01*
X85260714Y-286590295D01*
X86065476Y-286590295D01*
D10*
D11*
X135260714Y-285290295D02*
X136065476Y-285290295D01*
X135632142Y-285785533D01*
X135817857Y-285785533D01*
X135941666Y-285847438D01*
X136003571Y-285909342D01*
X136065476Y-286033152D01*
X136065476Y-286342676D01*
X136003571Y-286466485D01*
X135941666Y-286528390D01*
X135817857Y-286590295D01*
X135446428Y-286590295D01*
X135322619Y-286528390D01*
X135260714Y-286466485D01*
D10*
D11*
X185941666Y-285723628D02*
X185941666Y-286590295D01*
X185632142Y-285228390D02*
X185322619Y-286156961D01*
X186127380Y-286156961D01*
D10*
D11*
X10000000Y-60000000D02*
X12000000Y-60000000D01*
D10*
D11*
X10000000Y-110000000D02*
X12000000Y-110000000D01*
D10*
D11*
X10000000Y-160000000D02*
X12000000Y-160000000D01*
D10*
D11*
X10000000Y-210000000D02*
X12000000Y-210000000D01*
D10*
D11*
X10000000Y-260000000D02*
X12000000Y-260000000D01*
D10*
D11*
X10690476Y-35216666D02*
X11309523Y-35216666D01*
X10566666Y-35588095D02*
X11000000Y-34288095D01*
X11433333Y-35588095D01*
D10*
D11*
X11092857Y-84907142D02*
X11278571Y-84969047D01*
X11340476Y-85030952D01*
X11402380Y-85154761D01*
X11402380Y-85340476D01*
X11340476Y-85464285D01*
X11278571Y-85526190D01*
X11154761Y-85588095D01*
X10659523Y-85588095D01*
X10659523Y-84288095D01*
X11092857Y-84288095D01*
X11216666Y-84350000D01*
X11278571Y-84411904D01*
X11340476Y-84535714D01*
X11340476Y-84659523D01*
X11278571Y-84783333D01*
X11216666Y-84845238D01*
X11092857Y-84907142D01*
X10659523Y-84907142D01*
D10*
D11*
X11402380Y-135464285D02*
X11340476Y-135526190D01*
X11154761Y-135588095D01*
X11030952Y-135588095D01*
X10845238Y-135526190D01*
X10721428Y-135402380D01*
X10659523Y-135278571D01*
X10597619Y-135030952D01*
X10597619Y-134845238D01*
X10659523Y-134597619D01*
X10721428Y-134473809D01*
X10845238Y-134350000D01*
X11030952Y-134288095D01*
X11154761Y-134288095D01*
X11340476Y-134350000D01*
X11402380Y-134411904D01*
D10*
D11*
X10659523Y-185588095D02*
X10659523Y-184288095D01*
X10969047Y-184288095D01*
X11154761Y-184350000D01*
X11278571Y-184473809D01*
X11340476Y-184597619D01*
X11402380Y-184845238D01*
X11402380Y-185030952D01*
X11340476Y-185278571D01*
X11278571Y-185402380D01*
X11154761Y-185526190D01*
X10969047Y-185588095D01*
X10659523Y-185588095D01*
D10*
D11*
X10721428Y-234907142D02*
X11154761Y-234907142D01*
X11340476Y-235588095D02*
X10721428Y-235588095D01*
X10721428Y-234288095D01*
X11340476Y-234288095D01*
D10*
D11*
X11185714Y-284907142D02*
X10752380Y-284907142D01*
X10752380Y-285588095D02*
X10752380Y-284288095D01*
X11371428Y-284288095D01*
D10*
D11*
X200007200Y-60000000D02*
X198007200Y-60000000D01*
D10*
D11*
X200007200Y-110000000D02*
X198007200Y-110000000D01*
D10*
D11*
X200007200Y-160000000D02*
X198007200Y-160000000D01*
D10*
D11*
X200007200Y-210000000D02*
X198007200Y-210000000D01*
D10*
D11*
X200007200Y-260000000D02*
X198007200Y-260000000D01*
D10*
D11*
X198697676Y-35216666D02*
X199316723Y-35216666D01*
X198573866Y-35588095D02*
X199007200Y-34288095D01*
X199440533Y-35588095D01*
D10*
D11*
X199100057Y-84907142D02*
X199285771Y-84969047D01*
X199347676Y-85030952D01*
X199409580Y-85154761D01*
X199409580Y-85340476D01*
X199347676Y-85464285D01*
X199285771Y-85526190D01*
X199161961Y-85588095D01*
X198666723Y-85588095D01*
X198666723Y-84288095D01*
X199100057Y-84288095D01*
X199223866Y-84350000D01*
X199285771Y-84411904D01*
X199347676Y-84535714D01*
X199347676Y-84659523D01*
X199285771Y-84783333D01*
X199223866Y-84845238D01*
X199100057Y-84907142D01*
X198666723Y-84907142D01*
D10*
D11*
X199409580Y-135464285D02*
X199347676Y-135526190D01*
X199161961Y-135588095D01*
X199038152Y-135588095D01*
X198852438Y-135526190D01*
X198728628Y-135402380D01*
X198666723Y-135278571D01*
X198604819Y-135030952D01*
X198604819Y-134845238D01*
X198666723Y-134597619D01*
X198728628Y-134473809D01*
X198852438Y-134350000D01*
X199038152Y-134288095D01*
X199161961Y-134288095D01*
X199347676Y-134350000D01*
X199409580Y-134411904D01*
D10*
D11*
X198666723Y-185588095D02*
X198666723Y-184288095D01*
X198976247Y-184288095D01*
X199161961Y-184350000D01*
X199285771Y-184473809D01*
X199347676Y-184597619D01*
X199409580Y-184845238D01*
X199409580Y-185030952D01*
X199347676Y-185278571D01*
X199285771Y-185402380D01*
X199161961Y-185526190D01*
X198976247Y-185588095D01*
X198666723Y-185588095D01*
D10*
D11*
X198728628Y-234907142D02*
X199161961Y-234907142D01*
X199347676Y-235588095D02*
X198728628Y-235588095D01*
X198728628Y-234288095D01*
X199347676Y-234288095D01*
D10*
D11*
X199192914Y-284907142D02*
X198759580Y-284907142D01*
X198759580Y-285588095D02*
X198759580Y-284288095D01*
X199378628Y-284288095D01*
D10*
D11*
X113439342Y-280780771D02*
X113439342Y-279280771D01*
X113796485Y-279280771D01*
X114010771Y-279352200D01*
X114153628Y-279495057D01*
X114225057Y-279637914D01*
X114296485Y-279923628D01*
X114296485Y-280137914D01*
X114225057Y-280423628D01*
X114153628Y-280566485D01*
X114010771Y-280709342D01*
X113796485Y-280780771D01*
X113439342Y-280780771D01*
X115582200Y-280780771D02*
X115582200Y-279995057D01*
X115510771Y-279852200D01*
X115367914Y-279780771D01*
X115082200Y-279780771D01*
X114939342Y-279852200D01*
X115582200Y-280709342D02*
X115439342Y-280780771D01*
X115082200Y-280780771D01*
X114939342Y-280709342D01*
X114867914Y-280566485D01*
X114867914Y-280423628D01*
X114939342Y-280280771D01*
X115082200Y-280209342D01*
X115439342Y-280209342D01*
X115582200Y-280137914D01*
X116082200Y-279780771D02*
X116653628Y-279780771D01*
X116296485Y-279280771D02*
X116296485Y-280566485D01*
X116367914Y-280709342D01*
X116510771Y-280780771D01*
X116653628Y-280780771D01*
X117725057Y-280709342D02*
X117582200Y-280780771D01*
X117296485Y-280780771D01*
X117153628Y-280709342D01*
X117082200Y-280566485D01*
X117082200Y-279995057D01*
X117153628Y-279852200D01*
X117296485Y-279780771D01*
X117582200Y-279780771D01*
X117725057Y-279852200D01*
X117796485Y-279995057D01*
X117796485Y-280137914D01*
X117082200Y-280280771D01*
X118439342Y-280637914D02*
X118510771Y-280709342D01*
X118439342Y-280780771D01*
X118367914Y-280709342D01*
X118439342Y-280637914D01*
X118439342Y-280780771D01*
X118439342Y-279852200D02*
X118510771Y-279923628D01*
X118439342Y-279995057D01*
X118367914Y-279923628D01*
X118439342Y-279852200D01*
X118439342Y-279995057D01*
D10*
D11*
X90007200Y-281502200D02*
X198007200Y-281502200D01*
D10*
D11*
X91439342Y-283580771D02*
X91439342Y-282080771D01*
X92296485Y-283580771D02*
X91653628Y-282723628D01*
X92296485Y-282080771D02*
X91439342Y-282937914D01*
X92939342Y-283580771D02*
X92939342Y-282580771D01*
X92939342Y-282080771D02*
X92867914Y-282152200D01*
X92939342Y-282223628D01*
X93010771Y-282152200D01*
X92939342Y-282080771D01*
X92939342Y-282223628D01*
X94510771Y-283437914D02*
X94439342Y-283509342D01*
X94225057Y-283580771D01*
X94082200Y-283580771D01*
X93867914Y-283509342D01*
X93725057Y-283366485D01*
X93653628Y-283223628D01*
X93582200Y-282937914D01*
X93582200Y-282723628D01*
X93653628Y-282437914D01*
X93725057Y-282295057D01*
X93867914Y-282152200D01*
X94082200Y-282080771D01*
X94225057Y-282080771D01*
X94439342Y-282152200D01*
X94510771Y-282223628D01*
X95796485Y-283580771D02*
X95796485Y-282795057D01*
X95725057Y-282652200D01*
X95582200Y-282580771D01*
X95296485Y-282580771D01*
X95153628Y-282652200D01*
X95796485Y-283509342D02*
X95653628Y-283580771D01*
X95296485Y-283580771D01*
X95153628Y-283509342D01*
X95082200Y-283366485D01*
X95082200Y-283223628D01*
X95153628Y-283080771D01*
X95296485Y-283009342D01*
X95653628Y-283009342D01*
X95796485Y-282937914D01*
X97153628Y-283580771D02*
X97153628Y-282080771D01*
X97153628Y-283509342D02*
X97010771Y-283580771D01*
X96725057Y-283580771D01*
X96582200Y-283509342D01*
X96510771Y-283437914D01*
X96439342Y-283295057D01*
X96439342Y-282866485D01*
X96510771Y-282723628D01*
X96582200Y-282652200D01*
X96725057Y-282580771D01*
X97010771Y-282580771D01*
X97153628Y-282652200D01*
X99010771Y-282795057D02*
X99510771Y-282795057D01*
X99725057Y-283580771D02*
X99010771Y-283580771D01*
X99010771Y-282080771D01*
X99725057Y-282080771D01*
X100367914Y-283437914D02*
X100439342Y-283509342D01*
X100367914Y-283580771D01*
X100296485Y-283509342D01*
X100367914Y-283437914D01*
X100367914Y-283580771D01*
X101082200Y-283580771D02*
X101082200Y-282080771D01*
X101439342Y-282080771D01*
X101653628Y-282152200D01*
X101796485Y-282295057D01*
X101867914Y-282437914D01*
X101939342Y-282723628D01*
X101939342Y-282937914D01*
X101867914Y-283223628D01*
X101796485Y-283366485D01*
X101653628Y-283509342D01*
X101439342Y-283580771D01*
X101082200Y-283580771D01*
X102582200Y-283437914D02*
X102653628Y-283509342D01*
X102582200Y-283580771D01*
X102510771Y-283509342D01*
X102582200Y-283437914D01*
X102582200Y-283580771D01*
X103225057Y-283152200D02*
X103939342Y-283152200D01*
X103082200Y-283580771D02*
X103582200Y-282080771D01*
X104082200Y-283580771D01*
X104582200Y-283437914D02*
X104653628Y-283509342D01*
X104582200Y-283580771D01*
X104510771Y-283509342D01*
X104582200Y-283437914D01*
X104582200Y-283580771D01*
X107582200Y-283580771D02*
X107582200Y-282080771D01*
X107725057Y-283009342D02*
X108153628Y-283580771D01*
X108153628Y-282580771D02*
X107582200Y-283152200D01*
X108796485Y-283580771D02*
X108796485Y-282580771D01*
X108796485Y-282080771D02*
X108725057Y-282152200D01*
X108796485Y-282223628D01*
X108867914Y-282152200D01*
X108796485Y-282080771D01*
X108796485Y-282223628D01*
X110153628Y-283509342D02*
X110010771Y-283580771D01*
X109725057Y-283580771D01*
X109582200Y-283509342D01*
X109510771Y-283437914D01*
X109439342Y-283295057D01*
X109439342Y-282866485D01*
X109510771Y-282723628D01*
X109582200Y-282652200D01*
X109725057Y-282580771D01*
X110010771Y-282580771D01*
X110153628Y-282652200D01*
X111439342Y-283580771D02*
X111439342Y-282795057D01*
X111367914Y-282652200D01*
X111225057Y-282580771D01*
X110939342Y-282580771D01*
X110796485Y-282652200D01*
X111439342Y-283509342D02*
X111296485Y-283580771D01*
X110939342Y-283580771D01*
X110796485Y-283509342D01*
X110725057Y-283366485D01*
X110725057Y-283223628D01*
X110796485Y-283080771D01*
X110939342Y-283009342D01*
X111296485Y-283009342D01*
X111439342Y-282937914D01*
X112796485Y-283580771D02*
X112796485Y-282080771D01*
X112796485Y-283509342D02*
X112653628Y-283580771D01*
X112367914Y-283580771D01*
X112225057Y-283509342D01*
X112153628Y-283437914D01*
X112082200Y-283295057D01*
X112082200Y-282866485D01*
X112153628Y-282723628D01*
X112225057Y-282652200D01*
X112367914Y-282580771D01*
X112653628Y-282580771D01*
X112796485Y-282652200D01*
X115082200Y-284152200D02*
X115010771Y-284080771D01*
X114867914Y-283866485D01*
X114796485Y-283723628D01*
X114725057Y-283509342D01*
X114653628Y-283152200D01*
X114653628Y-282866485D01*
X114725057Y-282509342D01*
X114796485Y-282295057D01*
X114867914Y-282152200D01*
X115010771Y-281937914D01*
X115082200Y-281866485D01*
X116367914Y-282080771D02*
X115653628Y-282080771D01*
X115582200Y-282795057D01*
X115653628Y-282723628D01*
X115796485Y-282652200D01*
X116153628Y-282652200D01*
X116296485Y-282723628D01*
X116367914Y-282795057D01*
X116439342Y-282937914D01*
X116439342Y-283295057D01*
X116367914Y-283437914D01*
X116296485Y-283509342D01*
X116153628Y-283580771D01*
X115796485Y-283580771D01*
X115653628Y-283509342D01*
X115582200Y-283437914D01*
X117082200Y-283437914D02*
X117153628Y-283509342D01*
X117082200Y-283580771D01*
X117010771Y-283509342D01*
X117082200Y-283437914D01*
X117082200Y-283580771D01*
X118582200Y-283580771D02*
X117725057Y-283580771D01*
X118153628Y-283580771D02*
X118153628Y-282080771D01*
X118010771Y-282295057D01*
X117867914Y-282437914D01*
X117725057Y-282509342D01*
X119225057Y-283437914D02*
X119296485Y-283509342D01*
X119225057Y-283580771D01*
X119153628Y-283509342D01*
X119225057Y-283437914D01*
X119225057Y-283580771D01*
X119796485Y-282080771D02*
X120796485Y-282080771D01*
X120153628Y-283580771D01*
X121225057Y-284152200D02*
X121296485Y-284080771D01*
X121439342Y-283866485D01*
X121510771Y-283723628D01*
X121582200Y-283509342D01*
X121653628Y-283152200D01*
X121653628Y-282866485D01*
X121582200Y-282509342D01*
X121510771Y-282295057D01*
X121439342Y-282152200D01*
X121296485Y-281937914D01*
X121225057Y-281866485D01*
X122367914Y-283009342D02*
X123510771Y-283009342D01*
X125010771Y-283580771D02*
X124153628Y-283580771D01*
X124582200Y-283580771D02*
X124582200Y-282080771D01*
X124439342Y-282295057D01*
X124296485Y-282437914D01*
X124153628Y-282509342D01*
D10*
D11*
X90007200Y-278502200D02*
X198007200Y-278502200D01*
D10*
D12*
X177416485Y-280780771D02*
X176916485Y-280066485D01*
X176559342Y-280780771D02*
X176559342Y-279280771D01*
X177130771Y-279280771D01*
X177273628Y-279352200D01*
X177345057Y-279423628D01*
X177416485Y-279566485D01*
X177416485Y-279780771D01*
X177345057Y-279923628D01*
X177273628Y-279995057D01*
X177130771Y-280066485D01*
X176559342Y-280066485D01*
X178630771Y-280709342D02*
X178487914Y-280780771D01*
X178202200Y-280780771D01*
X178059342Y-280709342D01*
X177987914Y-280566485D01*
X177987914Y-279995057D01*
X178059342Y-279852200D01*
X178202200Y-279780771D01*
X178487914Y-279780771D01*
X178630771Y-279852200D01*
X178702200Y-279995057D01*
X178702200Y-280137914D01*
X177987914Y-280280771D01*
X179202200Y-279780771D02*
X179559342Y-280780771D01*
X179916485Y-279780771D01*
X180487914Y-280637914D02*
X180559342Y-280709342D01*
X180487914Y-280780771D01*
X180416485Y-280709342D01*
X180487914Y-280637914D01*
X180487914Y-280780771D01*
X180487914Y-279852200D02*
X180559342Y-279923628D01*
X180487914Y-279995057D01*
X180416485Y-279923628D01*
X180487914Y-279852200D01*
X180487914Y-279995057D01*
D10*
D11*
X91367914Y-280709342D02*
X91582200Y-280780771D01*
X91939342Y-280780771D01*
X92082200Y-280709342D01*
X92153628Y-280637914D01*
X92225057Y-280495057D01*
X92225057Y-280352200D01*
X92153628Y-280209342D01*
X92082200Y-280137914D01*
X91939342Y-280066485D01*
X91653628Y-279995057D01*
X91510771Y-279923628D01*
X91439342Y-279852200D01*
X91367914Y-279709342D01*
X91367914Y-279566485D01*
X91439342Y-279423628D01*
X91510771Y-279352200D01*
X91653628Y-279280771D01*
X92010771Y-279280771D01*
X92225057Y-279352200D01*
X92867914Y-280780771D02*
X92867914Y-279780771D01*
X92867914Y-279280771D02*
X92796485Y-279352200D01*
X92867914Y-279423628D01*
X92939342Y-279352200D01*
X92867914Y-279280771D01*
X92867914Y-279423628D01*
X93439342Y-279780771D02*
X94225057Y-279780771D01*
X93439342Y-280780771D01*
X94225057Y-280780771D01*
X95367914Y-280709342D02*
X95225057Y-280780771D01*
X94939342Y-280780771D01*
X94796485Y-280709342D01*
X94725057Y-280566485D01*
X94725057Y-279995057D01*
X94796485Y-279852200D01*
X94939342Y-279780771D01*
X95225057Y-279780771D01*
X95367914Y-279852200D01*
X95439342Y-279995057D01*
X95439342Y-280137914D01*
X94725057Y-280280771D01*
X96082200Y-280637914D02*
X96153628Y-280709342D01*
X96082200Y-280780771D01*
X96010771Y-280709342D01*
X96082200Y-280637914D01*
X96082200Y-280780771D01*
X96082200Y-279852200D02*
X96153628Y-279923628D01*
X96082200Y-279995057D01*
X96010771Y-279923628D01*
X96082200Y-279852200D01*
X96082200Y-279995057D01*
X97867914Y-280352200D02*
X98582200Y-280352200D01*
X97725057Y-280780771D02*
X98225057Y-279280771D01*
X98725057Y-280780771D01*
X99867914Y-279780771D02*
X99867914Y-280780771D01*
X99510771Y-279209342D02*
X99153628Y-280280771D01*
X100082200Y-280280771D01*
D10*
D11*
X176439342Y-283580771D02*
X176439342Y-282080771D01*
X177796485Y-283580771D02*
X177796485Y-282080771D01*
X177796485Y-283509342D02*
X177653628Y-283580771D01*
X177367914Y-283580771D01*
X177225057Y-283509342D01*
X177153628Y-283437914D01*
X177082200Y-283295057D01*
X177082200Y-282866485D01*
X177153628Y-282723628D01*
X177225057Y-282652200D01*
X177367914Y-282580771D01*
X177653628Y-282580771D01*
X177796485Y-282652200D01*
X178510771Y-283437914D02*
X178582200Y-283509342D01*
X178510771Y-283580771D01*
X178439342Y-283509342D01*
X178510771Y-283437914D01*
X178510771Y-283580771D01*
X178510771Y-282652200D02*
X178582200Y-282723628D01*
X178510771Y-282795057D01*
X178439342Y-282723628D01*
X178510771Y-282652200D01*
X178510771Y-282795057D01*
X181153628Y-283580771D02*
X180296485Y-283580771D01*
X180725057Y-283580771D02*
X180725057Y-282080771D01*
X180582200Y-282295057D01*
X180439342Y-282437914D01*
X180296485Y-282509342D01*
X182867914Y-282009342D02*
X181582200Y-283937914D01*
X184153628Y-283580771D02*
X183296485Y-283580771D01*
X183725057Y-283580771D02*
X183725057Y-282080771D01*
X183582200Y-282295057D01*
X183439342Y-282437914D01*
X183296485Y-282509342D01*
D10*
D11*
X90007200Y-274502200D02*
X198007200Y-274502200D01*
D10*
D13*
X91719580Y-275206961D02*
X92862438Y-275206961D01*
X92041009Y-277206961D02*
X92291009Y-275206961D01*
X93279104Y-277206961D02*
X93445771Y-275873628D01*
X93529104Y-275206961D02*
X93421961Y-275302200D01*
X93505295Y-275397438D01*
X93612438Y-275302200D01*
X93529104Y-275206961D01*
X93505295Y-275397438D01*
X94112438Y-275873628D02*
X94874342Y-275873628D01*
X94481485Y-275206961D02*
X94267200Y-276921247D01*
X94338628Y-277111723D01*
X94517200Y-277206961D01*
X94707676Y-277206961D01*
X95660057Y-277206961D02*
X95481485Y-277111723D01*
X95410057Y-276921247D01*
X95624342Y-275206961D01*
X97195771Y-277111723D02*
X96993390Y-277206961D01*
X96612438Y-277206961D01*
X96433866Y-277111723D01*
X96362438Y-276921247D01*
X96457676Y-276159342D01*
X96576723Y-275968866D01*
X96779104Y-275873628D01*
X97160057Y-275873628D01*
X97338628Y-275968866D01*
X97410057Y-276159342D01*
X97386247Y-276349819D01*
X96410057Y-276540295D01*
X98160057Y-277016485D02*
X98243390Y-277111723D01*
X98136247Y-277206961D01*
X98052914Y-277111723D01*
X98160057Y-277016485D01*
X98136247Y-277206961D01*
X98291009Y-275968866D02*
X98374342Y-276064104D01*
X98267200Y-276159342D01*
X98183866Y-276064104D01*
X98291009Y-275968866D01*
X98267200Y-276159342D01*
X100612438Y-277206961D02*
X100862438Y-275206961D01*
X101624342Y-275206961D01*
X101802914Y-275302200D01*
X101886247Y-275397438D01*
X101957676Y-275587914D01*
X101921961Y-275873628D01*
X101802914Y-276064104D01*
X101695771Y-276159342D01*
X101493390Y-276254580D01*
X100731485Y-276254580D01*
X103779104Y-277016485D02*
X103671961Y-277111723D01*
X103374342Y-277206961D01*
X103183866Y-277206961D01*
X102910057Y-277111723D01*
X102743390Y-276921247D01*
X102671961Y-276730771D01*
X102624342Y-276349819D01*
X102660057Y-276064104D01*
X102802914Y-275683152D01*
X102921961Y-275492676D01*
X103136247Y-275302200D01*
X103433866Y-275206961D01*
X103624342Y-275206961D01*
X103898152Y-275302200D01*
X103981485Y-275397438D01*
D10*
D11*
X91939342Y-272595057D02*
X91439342Y-272595057D01*
X91439342Y-273380771D02*
X91439342Y-271880771D01*
X92153628Y-271880771D01*
X92725057Y-273380771D02*
X92725057Y-272380771D01*
X92725057Y-271880771D02*
X92653628Y-271952200D01*
X92725057Y-272023628D01*
X92796485Y-271952200D01*
X92725057Y-271880771D01*
X92725057Y-272023628D01*
X93653628Y-273380771D02*
X93510771Y-273309342D01*
X93439342Y-273166485D01*
X93439342Y-271880771D01*
X94796485Y-273309342D02*
X94653628Y-273380771D01*
X94367914Y-273380771D01*
X94225057Y-273309342D01*
X94153628Y-273166485D01*
X94153628Y-272595057D01*
X94225057Y-272452200D01*
X94367914Y-272380771D01*
X94653628Y-272380771D01*
X94796485Y-272452200D01*
X94867914Y-272595057D01*
X94867914Y-272737914D01*
X94153628Y-272880771D01*
X95510771Y-273237914D02*
X95582200Y-273309342D01*
X95510771Y-273380771D01*
X95439342Y-273309342D01*
X95510771Y-273237914D01*
X95510771Y-273380771D01*
X95510771Y-272452200D02*
X95582200Y-272523628D01*
X95510771Y-272595057D01*
X95439342Y-272523628D01*
X95510771Y-272452200D01*
X95510771Y-272595057D01*
X98153628Y-271952200D02*
X98010771Y-271880771D01*
X97796485Y-271880771D01*
X97582200Y-271952200D01*
X97439342Y-272095057D01*
X97367914Y-272237914D01*
X97296485Y-272523628D01*
X97296485Y-272737914D01*
X97367914Y-273023628D01*
X97439342Y-273166485D01*
X97582200Y-273309342D01*
X97796485Y-273380771D01*
X97939342Y-273380771D01*
X98153628Y-273309342D01*
X98225057Y-273237914D01*
X98225057Y-272737914D01*
X97939342Y-272737914D01*
X98867914Y-273380771D02*
X98867914Y-271880771D01*
X99439342Y-271880771D01*
X99582200Y-271952200D01*
X99653628Y-272023628D01*
X99725057Y-272166485D01*
X99725057Y-272380771D01*
X99653628Y-272523628D01*
X99582200Y-272595057D01*
X99439342Y-272666485D01*
X98867914Y-272666485D01*
X100367914Y-271880771D02*
X100367914Y-273095057D01*
X100439342Y-273237914D01*
X100510771Y-273309342D01*
X100653628Y-273380771D01*
X100939342Y-273380771D01*
X101082200Y-273309342D01*
X101153628Y-273237914D01*
X101225057Y-273095057D01*
X101225057Y-271880771D01*
X101582200Y-273523628D02*
X102725057Y-273523628D01*
X103082200Y-273380771D02*
X103082200Y-271880771D01*
X103653628Y-271880771D01*
X103796485Y-271952200D01*
X103867914Y-272023628D01*
X103939342Y-272166485D01*
X103939342Y-272380771D01*
X103867914Y-272523628D01*
X103796485Y-272595057D01*
X103653628Y-272666485D01*
X103082200Y-272666485D01*
X104582200Y-273380771D02*
X104582200Y-272380771D01*
X104582200Y-272666485D02*
X104653628Y-272523628D01*
X104725057Y-272452200D01*
X104867914Y-272380771D01*
X105010771Y-272380771D01*
X105725057Y-273380771D02*
X105582200Y-273309342D01*
X105510771Y-273237914D01*
X105439342Y-273095057D01*
X105439342Y-272666485D01*
X105510771Y-272523628D01*
X105582200Y-272452200D01*
X105725057Y-272380771D01*
X105939342Y-272380771D01*
X106082200Y-272452200D01*
X106153628Y-272523628D01*
X106225057Y-272666485D01*
X106225057Y-273095057D01*
X106153628Y-273237914D01*
X106082200Y-273309342D01*
X105939342Y-273380771D01*
X105725057Y-273380771D01*
X106867914Y-272380771D02*
X106867914Y-273666485D01*
X106796485Y-273809342D01*
X106653628Y-273880771D01*
X106582200Y-273880771D01*
X106867914Y-271880771D02*
X106796485Y-271952200D01*
X106867914Y-272023628D01*
X106939342Y-271952200D01*
X106867914Y-271880771D01*
X106867914Y-272023628D01*
X108153628Y-273309342D02*
X108010771Y-273380771D01*
X107725057Y-273380771D01*
X107582200Y-273309342D01*
X107510771Y-273166485D01*
X107510771Y-272595057D01*
X107582200Y-272452200D01*
X107725057Y-272380771D01*
X108010771Y-272380771D01*
X108153628Y-272452200D01*
X108225057Y-272595057D01*
X108225057Y-272737914D01*
X107510771Y-272880771D01*
X108653628Y-272380771D02*
X109225057Y-272380771D01*
X108867914Y-271880771D02*
X108867914Y-273166485D01*
X108939342Y-273309342D01*
X109082200Y-273380771D01*
X109225057Y-273380771D01*
X109939342Y-273380771D02*
X109796485Y-273309342D01*
X109725057Y-273237914D01*
X109653628Y-273095057D01*
X109653628Y-272666485D01*
X109725057Y-272523628D01*
X109796485Y-272452200D01*
X109939342Y-272380771D01*
X110153628Y-272380771D01*
X110296485Y-272452200D01*
X110367914Y-272523628D01*
X110439342Y-272666485D01*
X110439342Y-273095057D01*
X110367914Y-273237914D01*
X110296485Y-273309342D01*
X110153628Y-273380771D01*
X109939342Y-273380771D01*
X111082200Y-273237914D02*
X111153628Y-273309342D01*
X111082200Y-273380771D01*
X111010771Y-273309342D01*
X111082200Y-273237914D01*
X111082200Y-273380771D01*
X111796485Y-273380771D02*
X111796485Y-271880771D01*
X111939342Y-272809342D02*
X112367914Y-273380771D01*
X112367914Y-272380771D02*
X111796485Y-272952200D01*
X113010771Y-273380771D02*
X113010771Y-272380771D01*
X113010771Y-271880771D02*
X112939342Y-271952200D01*
X113010771Y-272023628D01*
X113082200Y-271952200D01*
X113010771Y-271880771D01*
X113010771Y-272023628D01*
X114367914Y-273309342D02*
X114225057Y-273380771D01*
X113939342Y-273380771D01*
X113796485Y-273309342D01*
X113725057Y-273237914D01*
X113653628Y-273095057D01*
X113653628Y-272666485D01*
X113725057Y-272523628D01*
X113796485Y-272452200D01*
X113939342Y-272380771D01*
X114225057Y-272380771D01*
X114367914Y-272452200D01*
X115653628Y-273380771D02*
X115653628Y-272595057D01*
X115582200Y-272452200D01*
X115439342Y-272380771D01*
X115153628Y-272380771D01*
X115010771Y-272452200D01*
X115653628Y-273309342D02*
X115510771Y-273380771D01*
X115153628Y-273380771D01*
X115010771Y-273309342D01*
X114939342Y-273166485D01*
X114939342Y-273023628D01*
X115010771Y-272880771D01*
X115153628Y-272809342D01*
X115510771Y-272809342D01*
X115653628Y-272737914D01*
X117010771Y-273380771D02*
X117010771Y-271880771D01*
X117010771Y-273309342D02*
X116867914Y-273380771D01*
X116582200Y-273380771D01*
X116439342Y-273309342D01*
X116367914Y-273237914D01*
X116296485Y-273095057D01*
X116296485Y-272666485D01*
X116367914Y-272523628D01*
X116439342Y-272452200D01*
X116582200Y-272380771D01*
X116867914Y-272380771D01*
X117010771Y-272452200D01*
X117367914Y-273523628D02*
X118510771Y-273523628D01*
X118867914Y-272380771D02*
X118867914Y-273880771D01*
X118867914Y-272452200D02*
X119010771Y-272380771D01*
X119296485Y-272380771D01*
X119439342Y-272452200D01*
X119510771Y-272523628D01*
X119582200Y-272666485D01*
X119582200Y-273095057D01*
X119510771Y-273237914D01*
X119439342Y-273309342D01*
X119296485Y-273380771D01*
X119010771Y-273380771D01*
X118867914Y-273309342D01*
X120867914Y-273309342D02*
X120725057Y-273380771D01*
X120439342Y-273380771D01*
X120296485Y-273309342D01*
X120225057Y-273237914D01*
X120153628Y-273095057D01*
X120153628Y-272666485D01*
X120225057Y-272523628D01*
X120296485Y-272452200D01*
X120439342Y-272380771D01*
X120725057Y-272380771D01*
X120867914Y-272452200D01*
X121510771Y-273380771D02*
X121510771Y-271880771D01*
X121510771Y-272452200D02*
X121653628Y-272380771D01*
X121939342Y-272380771D01*
X122082200Y-272452200D01*
X122153628Y-272523628D01*
X122225057Y-272666485D01*
X122225057Y-273095057D01*
X122153628Y-273237914D01*
X122082200Y-273309342D01*
X121939342Y-273380771D01*
X121653628Y-273380771D01*
X121510771Y-273309342D01*
D10*
D11*
X90007200Y-268502200D02*
X198007200Y-268502200D01*
D10*
D11*
X91367914Y-270609342D02*
X91582200Y-270680771D01*
X91939342Y-270680771D01*
X92082200Y-270609342D01*
X92153628Y-270537914D01*
X92225057Y-270395057D01*
X92225057Y-270252200D01*
X92153628Y-270109342D01*
X92082200Y-270037914D01*
X91939342Y-269966485D01*
X91653628Y-269895057D01*
X91510771Y-269823628D01*
X91439342Y-269752200D01*
X91367914Y-269609342D01*
X91367914Y-269466485D01*
X91439342Y-269323628D01*
X91510771Y-269252200D01*
X91653628Y-269180771D01*
X92010771Y-269180771D01*
X92225057Y-269252200D01*
X92867914Y-270680771D02*
X92867914Y-269180771D01*
X93510771Y-270680771D02*
X93510771Y-269895057D01*
X93439342Y-269752200D01*
X93296485Y-269680771D01*
X93082200Y-269680771D01*
X92939342Y-269752200D01*
X92867914Y-269823628D01*
X94796485Y-270609342D02*
X94653628Y-270680771D01*
X94367914Y-270680771D01*
X94225057Y-270609342D01*
X94153628Y-270466485D01*
X94153628Y-269895057D01*
X94225057Y-269752200D01*
X94367914Y-269680771D01*
X94653628Y-269680771D01*
X94796485Y-269752200D01*
X94867914Y-269895057D01*
X94867914Y-270037914D01*
X94153628Y-270180771D01*
X96082200Y-270609342D02*
X95939342Y-270680771D01*
X95653628Y-270680771D01*
X95510771Y-270609342D01*
X95439342Y-270466485D01*
X95439342Y-269895057D01*
X95510771Y-269752200D01*
X95653628Y-269680771D01*
X95939342Y-269680771D01*
X96082200Y-269752200D01*
X96153628Y-269895057D01*
X96153628Y-270037914D01*
X95439342Y-270180771D01*
X96582200Y-269680771D02*
X97153628Y-269680771D01*
X96796485Y-269180771D02*
X96796485Y-270466485D01*
X96867914Y-270609342D01*
X97010771Y-270680771D01*
X97153628Y-270680771D01*
X97653628Y-270537914D02*
X97725057Y-270609342D01*
X97653628Y-270680771D01*
X97582200Y-270609342D01*
X97653628Y-270537914D01*
X97653628Y-270680771D01*
X97653628Y-269752200D02*
X97725057Y-269823628D01*
X97653628Y-269895057D01*
X97582200Y-269823628D01*
X97653628Y-269752200D01*
X97653628Y-269895057D01*
D10*
D11*
X91439342Y-264680771D02*
X91439342Y-263180771D01*
X91796485Y-263180771D01*
X92010771Y-263252200D01*
X92153628Y-263395057D01*
X92225057Y-263537914D01*
X92296485Y-263823628D01*
X92296485Y-264037914D01*
X92225057Y-264323628D01*
X92153628Y-264466485D01*
X92010771Y-264609342D01*
X91796485Y-264680771D01*
X91439342Y-264680771D01*
X92939342Y-264680771D02*
X92939342Y-263680771D01*
X92939342Y-263180771D02*
X92867914Y-263252200D01*
X92939342Y-263323628D01*
X93010771Y-263252200D01*
X92939342Y-263180771D01*
X92939342Y-263323628D01*
X93867914Y-264680771D02*
X93725057Y-264609342D01*
X93653628Y-264537914D01*
X93582200Y-264395057D01*
X93582200Y-263966485D01*
X93653628Y-263823628D01*
X93725057Y-263752200D01*
X93867914Y-263680771D01*
X94082200Y-263680771D01*
X94225057Y-263752200D01*
X94296485Y-263823628D01*
X94367914Y-263966485D01*
X94367914Y-264395057D01*
X94296485Y-264537914D01*
X94225057Y-264609342D01*
X94082200Y-264680771D01*
X93867914Y-264680771D01*
X95653628Y-263680771D02*
X95653628Y-264895057D01*
X95582200Y-265037914D01*
X95510771Y-265109342D01*
X95367914Y-265180771D01*
X95153628Y-265180771D01*
X95010771Y-265109342D01*
X95653628Y-264609342D02*
X95510771Y-264680771D01*
X95225057Y-264680771D01*
X95082200Y-264609342D01*
X95010771Y-264537914D01*
X94939342Y-264395057D01*
X94939342Y-263966485D01*
X95010771Y-263823628D01*
X95082200Y-263752200D01*
X95225057Y-263680771D01*
X95510771Y-263680771D01*
X95653628Y-263752200D01*
X96582200Y-264680771D02*
X96439342Y-264609342D01*
X96367914Y-264537914D01*
X96296485Y-264395057D01*
X96296485Y-263966485D01*
X96367914Y-263823628D01*
X96439342Y-263752200D01*
X96582200Y-263680771D01*
X96796485Y-263680771D01*
X96939342Y-263752200D01*
X97010771Y-263823628D01*
X97082200Y-263966485D01*
X97082200Y-264395057D01*
X97010771Y-264537914D01*
X96939342Y-264609342D01*
X96796485Y-264680771D01*
X96582200Y-264680771D01*
X98796485Y-264609342D02*
X99010771Y-264680771D01*
X99367914Y-264680771D01*
X99510771Y-264609342D01*
X99582200Y-264537914D01*
X99653628Y-264395057D01*
X99653628Y-264252200D01*
X99582200Y-264109342D01*
X99510771Y-264037914D01*
X99367914Y-263966485D01*
X99082200Y-263895057D01*
X98939342Y-263823628D01*
X98867914Y-263752200D01*
X98796485Y-263609342D01*
X98796485Y-263466485D01*
X98867914Y-263323628D01*
X98939342Y-263252200D01*
X99082200Y-263180771D01*
X99439342Y-263180771D01*
X99653628Y-263252200D01*
X100296485Y-264680771D02*
X100296485Y-263680771D01*
X100296485Y-263180771D02*
X100225057Y-263252200D01*
X100296485Y-263323628D01*
X100367914Y-263252200D01*
X100296485Y-263180771D01*
X100296485Y-263323628D01*
X101225057Y-264680771D02*
X101082200Y-264609342D01*
X101010771Y-264466485D01*
X101010771Y-263180771D01*
X101653628Y-263680771D02*
X102010771Y-264680771D01*
X102367914Y-263680771D01*
X103582200Y-264680771D02*
X103582200Y-263895057D01*
X103510771Y-263752200D01*
X103367914Y-263680771D01*
X103082200Y-263680771D01*
X102939342Y-263752200D01*
X103582200Y-264609342D02*
X103439342Y-264680771D01*
X103082200Y-264680771D01*
X102939342Y-264609342D01*
X102867914Y-264466485D01*
X102867914Y-264323628D01*
X102939342Y-264180771D01*
X103082200Y-264109342D01*
X103439342Y-264109342D01*
X103582200Y-264037914D01*
D10*
D11*
X91439342Y-260680771D02*
X91439342Y-261680771D01*
X91439342Y-260823628D02*
X91510771Y-260752200D01*
X91653628Y-260680771D01*
X91867914Y-260680771D01*
X92010771Y-260752200D01*
X92082200Y-260895057D01*
X92082200Y-261680771D01*
X92867914Y-260752200D02*
X92725057Y-260680771D01*
X92653628Y-260537914D01*
X92653628Y-260252200D01*
X92725057Y-260109342D01*
X92867914Y-260037914D01*
X93010771Y-260037914D01*
X93153628Y-260109342D01*
X93225057Y-260252200D01*
X93225057Y-260537914D01*
X93153628Y-260680771D01*
X93010771Y-260752200D01*
X92867914Y-260752200D01*
X94582200Y-261680771D02*
X93725057Y-261680771D01*
X94153628Y-261680771D02*
X94153628Y-260180771D01*
X94010771Y-260395057D01*
X93867914Y-260537914D01*
X93725057Y-260609342D01*
X95296485Y-261680771D02*
X95582200Y-261680771D01*
X95725057Y-261609342D01*
X95796485Y-261537914D01*
X95939342Y-261323628D01*
X96010771Y-261037914D01*
X96010771Y-260466485D01*
X95939342Y-260323628D01*
X95867914Y-260252200D01*
X95725057Y-260180771D01*
X95439342Y-260180771D01*
X95296485Y-260252200D01*
X95225057Y-260323628D01*
X95153628Y-260466485D01*
X95153628Y-260823628D01*
X95225057Y-260966485D01*
X95296485Y-261037914D01*
X95439342Y-261109342D01*
X95725057Y-261109342D01*
X95867914Y-261037914D01*
X95939342Y-260966485D01*
X96010771Y-260823628D01*
X96939342Y-260180771D02*
X97082200Y-260180771D01*
X97225057Y-260252200D01*
X97296485Y-260323628D01*
X97367914Y-260466485D01*
X97439342Y-260752200D01*
X97439342Y-261109342D01*
X97367914Y-261395057D01*
X97296485Y-261537914D01*
X97225057Y-261609342D01*
X97082200Y-261680771D01*
X96939342Y-261680771D01*
X96796485Y-261609342D01*
X96725057Y-261537914D01*
X96653628Y-261395057D01*
X96582200Y-261109342D01*
X96582200Y-260752200D01*
X96653628Y-260466485D01*
X96725057Y-260323628D01*
X96796485Y-260252200D01*
X96939342Y-260180771D01*
X98010771Y-260323628D02*
X98082200Y-260252200D01*
X98225057Y-260180771D01*
X98582200Y-260180771D01*
X98725057Y-260252200D01*
X98796485Y-260323628D01*
X98867914Y-260466485D01*
X98867914Y-260609342D01*
X98796485Y-260823628D01*
X97939342Y-261680771D01*
X98867914Y-261680771D01*
X99796485Y-260180771D02*
X99939342Y-260180771D01*
X100082200Y-260252200D01*
X100153628Y-260323628D01*
X100225057Y-260466485D01*
X100296485Y-260752200D01*
X100296485Y-261109342D01*
X100225057Y-261395057D01*
X100153628Y-261537914D01*
X100082200Y-261609342D01*
X99939342Y-261680771D01*
X99796485Y-261680771D01*
X99653628Y-261609342D01*
X99582200Y-261537914D01*
X99510771Y-261395057D01*
X99439342Y-261109342D01*
X99439342Y-260752200D01*
X99510771Y-260466485D01*
X99582200Y-260323628D01*
X99653628Y-260252200D01*
X99796485Y-260180771D01*
X101582200Y-260680771D02*
X101582200Y-261680771D01*
X101225057Y-260109342D02*
X100867914Y-261180771D01*
X101796485Y-261180771D01*
X102653628Y-260180771D02*
X102796485Y-260180771D01*
X102939342Y-260252200D01*
X103010771Y-260323628D01*
X103082200Y-260466485D01*
X103153628Y-260752200D01*
X103153628Y-261109342D01*
X103082200Y-261395057D01*
X103010771Y-261537914D01*
X102939342Y-261609342D01*
X102796485Y-261680771D01*
X102653628Y-261680771D01*
X102510771Y-261609342D01*
X102439342Y-261537914D01*
X102367914Y-261395057D01*
X102296485Y-261109342D01*
X102296485Y-260752200D01*
X102367914Y-260466485D01*
X102439342Y-260323628D01*
X102510771Y-260252200D01*
X102653628Y-260180771D01*
X104082200Y-260180771D02*
X104225057Y-260180771D01*
X104367914Y-260252200D01*
X104439342Y-260323628D01*
X104510771Y-260466485D01*
X104582200Y-260752200D01*
X104582200Y-261109342D01*
X104510771Y-261395057D01*
X104439342Y-261537914D01*
X104367914Y-261609342D01*
X104225057Y-261680771D01*
X104082200Y-261680771D01*
X103939342Y-261609342D01*
X103867914Y-261537914D01*
X103796485Y-261395057D01*
X103725057Y-261109342D01*
X103725057Y-260752200D01*
X103796485Y-260466485D01*
X103867914Y-260323628D01*
X103939342Y-260252200D01*
X104082200Y-260180771D01*
X105082200Y-260180771D02*
X106082200Y-260180771D01*
X105439342Y-261680771D01*
D10*
D11*
X91439342Y-258680771D02*
X91439342Y-257180771D01*
X92010771Y-257180771D01*
X92153628Y-257252200D01*
X92225057Y-257323628D01*
X92296485Y-257466485D01*
X92296485Y-257680771D01*
X92225057Y-257823628D01*
X92153628Y-257895057D01*
X92010771Y-257966485D01*
X91439342Y-257966485D01*
X92939342Y-258680771D02*
X92939342Y-257680771D01*
X92939342Y-257966485D02*
X93010771Y-257823628D01*
X93082200Y-257752200D01*
X93225057Y-257680771D01*
X93367914Y-257680771D01*
X94082200Y-258680771D02*
X93939342Y-258609342D01*
X93867914Y-258537914D01*
X93796485Y-258395057D01*
X93796485Y-257966485D01*
X93867914Y-257823628D01*
X93939342Y-257752200D01*
X94082200Y-257680771D01*
X94296485Y-257680771D01*
X94439342Y-257752200D01*
X94510771Y-257823628D01*
X94582200Y-257966485D01*
X94582200Y-258395057D01*
X94510771Y-258537914D01*
X94439342Y-258609342D01*
X94296485Y-258680771D01*
X94082200Y-258680771D01*
X95225057Y-257680771D02*
X95225057Y-258966485D01*
X95153628Y-259109342D01*
X95010771Y-259180771D01*
X94939342Y-259180771D01*
X95225057Y-257180771D02*
X95153628Y-257252200D01*
X95225057Y-257323628D01*
X95296485Y-257252200D01*
X95225057Y-257180771D01*
X95225057Y-257323628D01*
X96510771Y-258609342D02*
X96367914Y-258680771D01*
X96082200Y-258680771D01*
X95939342Y-258609342D01*
X95867914Y-258466485D01*
X95867914Y-257895057D01*
X95939342Y-257752200D01*
X96082200Y-257680771D01*
X96367914Y-257680771D01*
X96510771Y-257752200D01*
X96582200Y-257895057D01*
X96582200Y-258037914D01*
X95867914Y-258180771D01*
X97010771Y-257680771D02*
X97582200Y-257680771D01*
X97225057Y-257180771D02*
X97225057Y-258466485D01*
X97296485Y-258609342D01*
X97439342Y-258680771D01*
X97582200Y-258680771D01*
X98296485Y-258680771D02*
X98153628Y-258609342D01*
X98082200Y-258537914D01*
X98010771Y-258395057D01*
X98010771Y-257966485D01*
X98082200Y-257823628D01*
X98153628Y-257752200D01*
X98296485Y-257680771D01*
X98510771Y-257680771D01*
X98653628Y-257752200D01*
X98725057Y-257823628D01*
X98796485Y-257966485D01*
X98796485Y-258395057D01*
X98725057Y-258537914D01*
X98653628Y-258609342D01*
X98510771Y-258680771D01*
X98296485Y-258680771D01*
D10*
D11*
X110007200Y-278502200D02*
X110007200Y-281502200D01*
D10*
D11*
X174007200Y-278502200D02*
X174007200Y-285002200D01*
D13*
X63024761Y-54654761D02*
X63024761Y-52654761D01*
X63500952Y-52654761D01*
X63786666Y-52750000D01*
X63977142Y-52940476D01*
X64072380Y-53130952D01*
X64167619Y-53511904D01*
X64167619Y-53797619D01*
X64072380Y-54178571D01*
X63977142Y-54369047D01*
X63786666Y-54559523D01*
X63500952Y-54654761D01*
X63024761Y-54654761D01*
X65024761Y-54654761D02*
X65024761Y-53321428D01*
X65024761Y-52654761D02*
X64929523Y-52750000D01*
X65024761Y-52845238D01*
X65120000Y-52750000D01*
X65024761Y-52654761D01*
X65024761Y-52845238D01*
X66262857Y-54654761D02*
X66072380Y-54559523D01*
X65977142Y-54464285D01*
X65881904Y-54273809D01*
X65881904Y-53702380D01*
X65977142Y-53511904D01*
X66072380Y-53416666D01*
X66262857Y-53321428D01*
X66548571Y-53321428D01*
X66739047Y-53416666D01*
X66834285Y-53511904D01*
X66929523Y-53702380D01*
X66929523Y-54273809D01*
X66834285Y-54464285D01*
X66739047Y-54559523D01*
X66548571Y-54654761D01*
X66262857Y-54654761D01*
X68643809Y-53321428D02*
X68643809Y-54940476D01*
X68548571Y-55130952D01*
X68453333Y-55226190D01*
X68262857Y-55321428D01*
X67977142Y-55321428D01*
X67786666Y-55226190D01*
X68643809Y-54559523D02*
X68453333Y-54654761D01*
X68072380Y-54654761D01*
X67881904Y-54559523D01*
X67786666Y-54464285D01*
X67691428Y-54273809D01*
X67691428Y-53702380D01*
X67786666Y-53511904D01*
X67881904Y-53416666D01*
X68072380Y-53321428D01*
X68453333Y-53321428D01*
X68643809Y-53416666D01*
X69881904Y-54654761D02*
X69691428Y-54559523D01*
X69596190Y-54464285D01*
X69500952Y-54273809D01*
X69500952Y-53702380D01*
X69596190Y-53511904D01*
X69691428Y-53416666D01*
X69881904Y-53321428D01*
X70167619Y-53321428D01*
X70358095Y-53416666D01*
X70453333Y-53511904D01*
X70548571Y-53702380D01*
X70548571Y-54273809D01*
X70453333Y-54464285D01*
X70358095Y-54559523D01*
X70167619Y-54654761D01*
X69881904Y-54654761D01*
X72834285Y-54559523D02*
X73120000Y-54654761D01*
X73596190Y-54654761D01*
X73786666Y-54559523D01*
X73881904Y-54464285D01*
X73977142Y-54273809D01*
X73977142Y-54083333D01*
X73881904Y-53892857D01*
X73786666Y-53797619D01*
X73596190Y-53702380D01*
X73215238Y-53607142D01*
X73024761Y-53511904D01*
X72929523Y-53416666D01*
X72834285Y-53226190D01*
X72834285Y-53035714D01*
X72929523Y-52845238D01*
X73024761Y-52750000D01*
X73215238Y-52654761D01*
X73691428Y-52654761D01*
X73977142Y-52750000D01*
X74834285Y-54654761D02*
X74834285Y-53321428D01*
X74834285Y-52654761D02*
X74739047Y-52750000D01*
X74834285Y-52845238D01*
X74929523Y-52750000D01*
X74834285Y-52654761D01*
X74834285Y-52845238D01*
X76072380Y-54654761D02*
X75881904Y-54559523D01*
X75786666Y-54369047D01*
X75786666Y-52654761D01*
X76643809Y-53321428D02*
X77120000Y-54654761D01*
X77596190Y-53321428D01*
X79215238Y-54654761D02*
X79215238Y-53607142D01*
X79120000Y-53416666D01*
X78929523Y-53321428D01*
X78548571Y-53321428D01*
X78358095Y-53416666D01*
X79215238Y-54559523D02*
X79024761Y-54654761D01*
X78548571Y-54654761D01*
X78358095Y-54559523D01*
X78262857Y-54369047D01*
X78262857Y-54178571D01*
X78358095Y-53988095D01*
X78548571Y-53892857D01*
X79024761Y-53892857D01*
X79215238Y-53797619D01*
X61310476Y-58054761D02*
X61310476Y-56054761D01*
X62453333Y-58054761D01*
X62453333Y-56054761D01*
X63500952Y-56816666D02*
X63310476Y-56721428D01*
X63215238Y-56530952D01*
X63215238Y-56150000D01*
X63310476Y-55959523D01*
X63500952Y-55864285D01*
X63691428Y-55864285D01*
X63881904Y-55959523D01*
X63977142Y-56150000D01*
X63977142Y-56530952D01*
X63881904Y-56721428D01*
X63691428Y-56816666D01*
X63500952Y-56816666D01*
X65786666Y-58054761D02*
X64643809Y-58054761D01*
X65215238Y-58054761D02*
X65215238Y-56054761D01*
X65024761Y-56340476D01*
X64834285Y-56530952D01*
X64643809Y-56626190D01*
X66739047Y-58054761D02*
X67120000Y-58054761D01*
X67310476Y-57959523D01*
X67405714Y-57864285D01*
X67596190Y-57578571D01*
X67691428Y-57197619D01*
X67691428Y-56435714D01*
X67596190Y-56245238D01*
X67500952Y-56150000D01*
X67310476Y-56054761D01*
X66929523Y-56054761D01*
X66739047Y-56150000D01*
X66643809Y-56245238D01*
X66548571Y-56435714D01*
X66548571Y-56911904D01*
X66643809Y-57102380D01*
X66739047Y-57197619D01*
X66929523Y-57292857D01*
X67310476Y-57292857D01*
X67500952Y-57197619D01*
X67596190Y-57102380D01*
X67691428Y-56911904D01*
X68929523Y-56054761D02*
X69120000Y-56054761D01*
X69310476Y-56150000D01*
X69405714Y-56245238D01*
X69500952Y-56435714D01*
X69596190Y-56816666D01*
X69596190Y-57292857D01*
X69500952Y-57673809D01*
X69405714Y-57864285D01*
X69310476Y-57959523D01*
X69120000Y-58054761D01*
X68929523Y-58054761D01*
X68739047Y-57959523D01*
X68643809Y-57864285D01*
X68548571Y-57673809D01*
X68453333Y-57292857D01*
X68453333Y-56816666D01*
X68548571Y-56435714D01*
X68643809Y-56245238D01*
X68739047Y-56150000D01*
X68929523Y-56054761D01*
X70358095Y-56245238D02*
X70453333Y-56150000D01*
X70643809Y-56054761D01*
X71120000Y-56054761D01*
X71310476Y-56150000D01*
X71405714Y-56245238D01*
X71500952Y-56435714D01*
X71500952Y-56626190D01*
X71405714Y-56911904D01*
X70262857Y-58054761D01*
X71500952Y-58054761D01*
X72739047Y-56054761D02*
X72929523Y-56054761D01*
X73120000Y-56150000D01*
X73215238Y-56245238D01*
X73310476Y-56435714D01*
X73405714Y-56816666D01*
X73405714Y-57292857D01*
X73310476Y-57673809D01*
X73215238Y-57864285D01*
X73120000Y-57959523D01*
X72929523Y-58054761D01*
X72739047Y-58054761D01*
X72548571Y-57959523D01*
X72453333Y-57864285D01*
X72358095Y-57673809D01*
X72262857Y-57292857D01*
X72262857Y-56816666D01*
X72358095Y-56435714D01*
X72453333Y-56245238D01*
X72548571Y-56150000D01*
X72739047Y-56054761D01*
X75120000Y-56721428D02*
X75120000Y-58054761D01*
X74643809Y-55959523D02*
X74167619Y-57388095D01*
X75405714Y-57388095D01*
X76548571Y-56054761D02*
X76739047Y-56054761D01*
X76929523Y-56150000D01*
X77024761Y-56245238D01*
X77120000Y-56435714D01*
X77215238Y-56816666D01*
X77215238Y-57292857D01*
X77120000Y-57673809D01*
X77024761Y-57864285D01*
X76929523Y-57959523D01*
X76739047Y-58054761D01*
X76548571Y-58054761D01*
X76358095Y-57959523D01*
X76262857Y-57864285D01*
X76167619Y-57673809D01*
X76072380Y-57292857D01*
X76072380Y-56816666D01*
X76167619Y-56435714D01*
X76262857Y-56245238D01*
X76358095Y-56150000D01*
X76548571Y-56054761D01*
X78453333Y-56054761D02*
X78643809Y-56054761D01*
X78834285Y-56150000D01*
X78929523Y-56245238D01*
X79024761Y-56435714D01*
X79120000Y-56816666D01*
X79120000Y-57292857D01*
X79024761Y-57673809D01*
X78929523Y-57864285D01*
X78834285Y-57959523D01*
X78643809Y-58054761D01*
X78453333Y-58054761D01*
X78262857Y-57959523D01*
X78167619Y-57864285D01*
X78072380Y-57673809D01*
X77977142Y-57292857D01*
X77977142Y-56816666D01*
X78072380Y-56435714D01*
X78167619Y-56245238D01*
X78262857Y-56150000D01*
X78453333Y-56054761D01*
X79786666Y-56054761D02*
X81120000Y-56054761D01*
X80262857Y-58054761D01*
X66262857Y-61454761D02*
X66262857Y-59454761D01*
X67024761Y-59454761D01*
X67215238Y-59550000D01*
X67310476Y-59645238D01*
X67405714Y-59835714D01*
X67405714Y-60121428D01*
X67310476Y-60311904D01*
X67215238Y-60407142D01*
X67024761Y-60502380D01*
X66262857Y-60502380D01*
X68262857Y-61454761D02*
X68262857Y-60121428D01*
X68262857Y-60502380D02*
X68358095Y-60311904D01*
X68453333Y-60216666D01*
X68643809Y-60121428D01*
X68834285Y-60121428D01*
X69786666Y-61454761D02*
X69596190Y-61359523D01*
X69500952Y-61264285D01*
X69405714Y-61073809D01*
X69405714Y-60502380D01*
X69500952Y-60311904D01*
X69596190Y-60216666D01*
X69786666Y-60121428D01*
X70072380Y-60121428D01*
X70262857Y-60216666D01*
X70358095Y-60311904D01*
X70453333Y-60502380D01*
X70453333Y-61073809D01*
X70358095Y-61264285D01*
X70262857Y-61359523D01*
X70072380Y-61454761D01*
X69786666Y-61454761D01*
X71310476Y-60121428D02*
X71310476Y-61835714D01*
X71215238Y-62026190D01*
X71024761Y-62121428D01*
X70929523Y-62121428D01*
X71310476Y-59454761D02*
X71215238Y-59550000D01*
X71310476Y-59645238D01*
X71405714Y-59550000D01*
X71310476Y-59454761D01*
X71310476Y-59645238D01*
X73024761Y-61359523D02*
X72834285Y-61454761D01*
X72453333Y-61454761D01*
X72262857Y-61359523D01*
X72167619Y-61169047D01*
X72167619Y-60407142D01*
X72262857Y-60216666D01*
X72453333Y-60121428D01*
X72834285Y-60121428D01*
X73024761Y-60216666D01*
X73120000Y-60407142D01*
X73120000Y-60597619D01*
X72167619Y-60788095D01*
X73691428Y-60121428D02*
X74453333Y-60121428D01*
X73977142Y-59454761D02*
X73977142Y-61169047D01*
X74072380Y-61359523D01*
X74262857Y-61454761D01*
X74453333Y-61454761D01*
X75405714Y-61454761D02*
X75215238Y-61359523D01*
X75120000Y-61264285D01*
X75024761Y-61073809D01*
X75024761Y-60502380D01*
X75120000Y-60311904D01*
X75215238Y-60216666D01*
X75405714Y-60121428D01*
X75691428Y-60121428D01*
X75881904Y-60216666D01*
X75977142Y-60311904D01*
X76072380Y-60502380D01*
X76072380Y-61073809D01*
X75977142Y-61264285D01*
X75881904Y-61359523D01*
X75691428Y-61454761D01*
X75405714Y-61454761D01*
D14*
%TO.C,T1*%
X42110000Y-203390000D02*
X60210000Y-203390000D01*
X42110000Y-221490000D02*
X42110000Y-203390000D01*
X60210000Y-221540000D02*
X42110000Y-221490000D01*
X60210000Y-203390000D02*
X60210000Y-221540000D01*
%TO.C,J5*%
X183310000Y-86590000D02*
X174710000Y-86590000D01*
X174710000Y-86590000D02*
X174710000Y-55620000D01*
X174710000Y-55620000D02*
X183310000Y-55620000D01*
X173815662Y-67040000D02*
X173815662Y-66540000D01*
X173815662Y-66540000D02*
X174248675Y-66790000D01*
X174248675Y-66790000D02*
X173815662Y-67040000D01*
%TO.C,R6*%
X89422500Y-58182742D02*
X89422500Y-58657258D01*
X88377500Y-58182742D02*
X88377500Y-58657258D01*
%TO.C,R1*%
X124982500Y-147557258D02*
X124982500Y-147082742D01*
X123937500Y-147557258D02*
X123937500Y-147082742D01*
%TO.C,R2*%
X124982500Y-139112258D02*
X124982500Y-138637742D01*
X123937500Y-139112258D02*
X123937500Y-138637742D01*
%TO.C,R3*%
X183402500Y-133587258D02*
X183402500Y-133112742D01*
X182357500Y-133587258D02*
X182357500Y-133112742D01*
%TO.C,R12*%
X95772500Y-52307258D02*
X95772500Y-51832742D01*
X94727500Y-52307258D02*
X94727500Y-51832742D01*
%TO.C,R5*%
X166892500Y-108632258D02*
X166892500Y-108157742D01*
X165847500Y-108632258D02*
X165847500Y-108157742D01*
%TO.C,R7*%
X84567500Y-53577258D02*
X84567500Y-53102742D01*
X85612500Y-53577258D02*
X85612500Y-53102742D01*
%TO.C,R8*%
X104887500Y-52307258D02*
X104887500Y-51832742D01*
X105932500Y-52307258D02*
X105932500Y-51832742D01*
%TO.C,R9*%
X102347500Y-52307258D02*
X102347500Y-51832742D01*
X103392500Y-52307258D02*
X103392500Y-51832742D01*
%TO.C,R10*%
X99807500Y-52307258D02*
X99807500Y-51832742D01*
X100852500Y-52307258D02*
X100852500Y-51832742D01*
%TO.C,R11*%
X97267500Y-52307258D02*
X97267500Y-51832742D01*
X98312500Y-52307258D02*
X98312500Y-51832742D01*
%TO.C,U20*%
X66040000Y-121275000D02*
X67990000Y-121275000D01*
X66040000Y-121275000D02*
X64090000Y-121275000D01*
X66040000Y-112405000D02*
X67990000Y-112405000D01*
X66040000Y-112405000D02*
X62590000Y-112405000D01*
%TO.C,U12*%
X113840000Y-86540000D02*
X119840000Y-86540000D01*
X111840000Y-73480000D02*
X116840000Y-73480000D01*
%TO.C,U9*%
X184969000Y-209151000D02*
X62689000Y-209151000D01*
X184969000Y-164871000D02*
X184969000Y-209151000D01*
X62689000Y-164871000D02*
X62689000Y-209151000D01*
X62689000Y-164871000D02*
X184969000Y-164871000D01*
X133729000Y-164511000D02*
X137729000Y-164511000D01*
X67329000Y-192011000D02*
X67329000Y-194211000D01*
X67329000Y-194211000D02*
X65329000Y-194211000D01*
X65329000Y-194211000D02*
X65329000Y-192011000D01*
X67329000Y-182011000D02*
X67329000Y-179811000D01*
X67329000Y-179811000D02*
X65329000Y-179811000D01*
X65329000Y-179811000D02*
X65329000Y-182011000D01*
X71429000Y-192011000D02*
X64329000Y-192011000D01*
X64329000Y-192011000D02*
X64329000Y-182011000D01*
X64329000Y-182011000D02*
X71429000Y-182011000D01*
X172329000Y-201511000D02*
X74829000Y-201511000D01*
X173329000Y-177511000D02*
X173329000Y-200511000D01*
X74829000Y-176511000D02*
X172329000Y-176511000D01*
X73829000Y-200511000D02*
X73829000Y-177511000D01*
X175829000Y-206711000D02*
X71429000Y-206711000D01*
X71429000Y-206711000D02*
X71429000Y-171311000D01*
X71429000Y-171311000D02*
X175829000Y-171311000D01*
X175829000Y-171311000D02*
X175829000Y-206711000D01*
X73829000Y-200511000D02*
G75*
G03*
X74829000Y-201511000I1000000J0D01*
G01*
X74829000Y-176511000D02*
G75*
G03*
X73829000Y-177511000I0J-1000000D01*
G01*
X173329000Y-177511000D02*
G75*
G03*
X172329000Y-176511000I-1000000J0D01*
G01*
X172329000Y-201511000D02*
G75*
G03*
X173329000Y-200511000I0J1000000D01*
G01*
%TO.C,C1*%
X103256000Y-160685241D02*
X103886000Y-160685241D01*
X103571000Y-161000241D02*
X103571000Y-160370241D01*
X105008000Y-154259000D02*
X105812000Y-154259000D01*
X104777000Y-154299000D02*
X106043000Y-154299000D01*
X104608000Y-154339000D02*
X106212000Y-154339000D01*
X104470000Y-154379000D02*
X106350000Y-154379000D01*
X104351000Y-154419000D02*
X106469000Y-154419000D01*
X104245000Y-154459000D02*
X106575000Y-154459000D01*
X104148000Y-154499000D02*
X106672000Y-154499000D01*
X104060000Y-154539000D02*
X106760000Y-154539000D01*
X103978000Y-154579000D02*
X106842000Y-154579000D01*
X103901000Y-154619000D02*
X106919000Y-154619000D01*
X103829000Y-154659000D02*
X106991000Y-154659000D01*
X103760000Y-154699000D02*
X107060000Y-154699000D01*
X103696000Y-154739000D02*
X107124000Y-154739000D01*
X103634000Y-154779000D02*
X107186000Y-154779000D01*
X103576000Y-154819000D02*
X107244000Y-154819000D01*
X103520000Y-154859000D02*
X107300000Y-154859000D01*
X103466000Y-154899000D02*
X107354000Y-154899000D01*
X103415000Y-154939000D02*
X107405000Y-154939000D01*
X103366000Y-154979000D02*
X107454000Y-154979000D01*
X103318000Y-155019000D02*
X107502000Y-155019000D01*
X103273000Y-155059000D02*
X107547000Y-155059000D01*
X103228000Y-155099000D02*
X107592000Y-155099000D01*
X103186000Y-155139000D02*
X107634000Y-155139000D01*
X103145000Y-155179000D02*
X107675000Y-155179000D01*
X106450000Y-155219000D02*
X107715000Y-155219000D01*
X103105000Y-155219000D02*
X104370000Y-155219000D01*
X106450000Y-155259000D02*
X107753000Y-155259000D01*
X103067000Y-155259000D02*
X104370000Y-155259000D01*
X106450000Y-155299000D02*
X107790000Y-155299000D01*
X103030000Y-155299000D02*
X104370000Y-155299000D01*
X106450000Y-155339000D02*
X107826000Y-155339000D01*
X102994000Y-155339000D02*
X104370000Y-155339000D01*
X106450000Y-155379000D02*
X107860000Y-155379000D01*
X102960000Y-155379000D02*
X104370000Y-155379000D01*
X106450000Y-155419000D02*
X107894000Y-155419000D01*
X102926000Y-155419000D02*
X104370000Y-155419000D01*
X106450000Y-155459000D02*
X107926000Y-155459000D01*
X102894000Y-155459000D02*
X104370000Y-155459000D01*
X106450000Y-155499000D02*
X107958000Y-155499000D01*
X102862000Y-155499000D02*
X104370000Y-155499000D01*
X106450000Y-155539000D02*
X107988000Y-155539000D01*
X102832000Y-155539000D02*
X104370000Y-155539000D01*
X106450000Y-155579000D02*
X108017000Y-155579000D01*
X102803000Y-155579000D02*
X104370000Y-155579000D01*
X106450000Y-155619000D02*
X108046000Y-155619000D01*
X102774000Y-155619000D02*
X104370000Y-155619000D01*
X106450000Y-155659000D02*
X108074000Y-155659000D01*
X102746000Y-155659000D02*
X104370000Y-155659000D01*
X106450000Y-155699000D02*
X108100000Y-155699000D01*
X102720000Y-155699000D02*
X104370000Y-155699000D01*
X106450000Y-155739000D02*
X108126000Y-155739000D01*
X102694000Y-155739000D02*
X104370000Y-155739000D01*
X106450000Y-155779000D02*
X108152000Y-155779000D01*
X102668000Y-155779000D02*
X104370000Y-155779000D01*
X106450000Y-155819000D02*
X108176000Y-155819000D01*
X102644000Y-155819000D02*
X104370000Y-155819000D01*
X106450000Y-155859000D02*
X108200000Y-155859000D01*
X102620000Y-155859000D02*
X104370000Y-155859000D01*
X106450000Y-155899000D02*
X108222000Y-155899000D01*
X102598000Y-155899000D02*
X104370000Y-155899000D01*
X106450000Y-155939000D02*
X108244000Y-155939000D01*
X102576000Y-155939000D02*
X104370000Y-155939000D01*
X106450000Y-155979000D02*
X108266000Y-155979000D01*
X102554000Y-155979000D02*
X104370000Y-155979000D01*
X106450000Y-156019000D02*
X108286000Y-156019000D01*
X102534000Y-156019000D02*
X104370000Y-156019000D01*
X106450000Y-156059000D02*
X108306000Y-156059000D01*
X102514000Y-156059000D02*
X104370000Y-156059000D01*
X106450000Y-156099000D02*
X108326000Y-156099000D01*
X102494000Y-156099000D02*
X104370000Y-156099000D01*
X106450000Y-156139000D02*
X108344000Y-156139000D01*
X102476000Y-156139000D02*
X104370000Y-156139000D01*
X106450000Y-156179000D02*
X108362000Y-156179000D01*
X102458000Y-156179000D02*
X104370000Y-156179000D01*
X106450000Y-156219000D02*
X108380000Y-156219000D01*
X102440000Y-156219000D02*
X104370000Y-156219000D01*
X106450000Y-156259000D02*
X108396000Y-156259000D01*
X102424000Y-156259000D02*
X104370000Y-156259000D01*
X106450000Y-156299000D02*
X108412000Y-156299000D01*
X102408000Y-156299000D02*
X104370000Y-156299000D01*
X106450000Y-156339000D02*
X108428000Y-156339000D01*
X102392000Y-156339000D02*
X104370000Y-156339000D01*
X106450000Y-156379000D02*
X108443000Y-156379000D01*
X102377000Y-156379000D02*
X104370000Y-156379000D01*
X106450000Y-156419000D02*
X108457000Y-156419000D01*
X102363000Y-156419000D02*
X104370000Y-156419000D01*
X106450000Y-156459000D02*
X108471000Y-156459000D01*
X102349000Y-156459000D02*
X104370000Y-156459000D01*
X106450000Y-156499000D02*
X108484000Y-156499000D01*
X102336000Y-156499000D02*
X104370000Y-156499000D01*
X106450000Y-156539000D02*
X108496000Y-156539000D01*
X102324000Y-156539000D02*
X104370000Y-156539000D01*
X106450000Y-156579000D02*
X108508000Y-156579000D01*
X102312000Y-156579000D02*
X104370000Y-156579000D01*
X106450000Y-156619000D02*
X108520000Y-156619000D01*
X102300000Y-156619000D02*
X104370000Y-156619000D01*
X106450000Y-156659000D02*
X108531000Y-156659000D01*
X102289000Y-156659000D02*
X104370000Y-156659000D01*
X106450000Y-156699000D02*
X108541000Y-156699000D01*
X102279000Y-156699000D02*
X104370000Y-156699000D01*
X106450000Y-156739000D02*
X108551000Y-156739000D01*
X102269000Y-156739000D02*
X104370000Y-156739000D01*
X106450000Y-156779000D02*
X108560000Y-156779000D01*
X102260000Y-156779000D02*
X104370000Y-156779000D01*
X106450000Y-156820000D02*
X108569000Y-156820000D01*
X102251000Y-156820000D02*
X104370000Y-156820000D01*
X106450000Y-156860000D02*
X108577000Y-156860000D01*
X102243000Y-156860000D02*
X104370000Y-156860000D01*
X106450000Y-156900000D02*
X108585000Y-156900000D01*
X102235000Y-156900000D02*
X104370000Y-156900000D01*
X106450000Y-156940000D02*
X108592000Y-156940000D01*
X102228000Y-156940000D02*
X104370000Y-156940000D01*
X106450000Y-156980000D02*
X108599000Y-156980000D01*
X102221000Y-156980000D02*
X104370000Y-156980000D01*
X106450000Y-157020000D02*
X108605000Y-157020000D01*
X102215000Y-157020000D02*
X104370000Y-157020000D01*
X106450000Y-157060000D02*
X108611000Y-157060000D01*
X102209000Y-157060000D02*
X104370000Y-157060000D01*
X106450000Y-157100000D02*
X108616000Y-157100000D01*
X102204000Y-157100000D02*
X104370000Y-157100000D01*
X106450000Y-157140000D02*
X108621000Y-157140000D01*
X102199000Y-157140000D02*
X104370000Y-157140000D01*
X106450000Y-157180000D02*
X108625000Y-157180000D01*
X102195000Y-157180000D02*
X104370000Y-157180000D01*
X106450000Y-157220000D02*
X108628000Y-157220000D01*
X102192000Y-157220000D02*
X104370000Y-157220000D01*
X106450000Y-157260000D02*
X108632000Y-157260000D01*
X102188000Y-157260000D02*
X104370000Y-157260000D01*
X102186000Y-157300000D02*
X108634000Y-157300000D01*
X102183000Y-157340000D02*
X108637000Y-157340000D01*
X102182000Y-157380000D02*
X108638000Y-157380000D01*
X102180000Y-157420000D02*
X108640000Y-157420000D01*
X102180000Y-157460000D02*
X108640000Y-157460000D01*
X102180000Y-157500000D02*
X108640000Y-157500000D01*
X108680000Y-157500000D02*
G75*
G03*
X108680000Y-157500000I-3270000J0D01*
G01*
%TO.C,C2*%
X161745000Y-210785225D02*
X161245000Y-210785225D01*
X161495000Y-210535225D02*
X161495000Y-211035225D01*
X160304000Y-215941000D02*
X159736000Y-215941000D01*
X160538000Y-215901000D02*
X159502000Y-215901000D01*
X160697000Y-215861000D02*
X159343000Y-215861000D01*
X160825000Y-215821000D02*
X159215000Y-215821000D01*
X160935000Y-215781000D02*
X159105000Y-215781000D01*
X161031000Y-215741000D02*
X159009000Y-215741000D01*
X161118000Y-215701000D02*
X158922000Y-215701000D01*
X161198000Y-215661000D02*
X158842000Y-215661000D01*
X158980000Y-215621000D02*
X158769000Y-215621000D01*
X161271000Y-215621000D02*
X161060000Y-215621000D01*
X158980000Y-215581000D02*
X158701000Y-215581000D01*
X161339000Y-215581000D02*
X161060000Y-215581000D01*
X158980000Y-215541000D02*
X158637000Y-215541000D01*
X161403000Y-215541000D02*
X161060000Y-215541000D01*
X158980000Y-215501000D02*
X158577000Y-215501000D01*
X161463000Y-215501000D02*
X161060000Y-215501000D01*
X158980000Y-215461000D02*
X158520000Y-215461000D01*
X161520000Y-215461000D02*
X161060000Y-215461000D01*
X158980000Y-215421000D02*
X158466000Y-215421000D01*
X161574000Y-215421000D02*
X161060000Y-215421000D01*
X158980000Y-215381000D02*
X158415000Y-215381000D01*
X161625000Y-215381000D02*
X161060000Y-215381000D01*
X158980000Y-215341000D02*
X158367000Y-215341000D01*
X161673000Y-215341000D02*
X161060000Y-215341000D01*
X158980000Y-215301000D02*
X158321000Y-215301000D01*
X161719000Y-215301000D02*
X161060000Y-215301000D01*
X158980000Y-215261000D02*
X158277000Y-215261000D01*
X161763000Y-215261000D02*
X161060000Y-215261000D01*
X158980000Y-215221000D02*
X158235000Y-215221000D01*
X161805000Y-215221000D02*
X161060000Y-215221000D01*
X158980000Y-215181000D02*
X158194000Y-215181000D01*
X161846000Y-215181000D02*
X161060000Y-215181000D01*
X158980000Y-215141000D02*
X158156000Y-215141000D01*
X161884000Y-215141000D02*
X161060000Y-215141000D01*
X158980000Y-215101000D02*
X158119000Y-215101000D01*
X161921000Y-215101000D02*
X161060000Y-215101000D01*
X158980000Y-215061000D02*
X158083000Y-215061000D01*
X161957000Y-215061000D02*
X161060000Y-215061000D01*
X158980000Y-215021000D02*
X158049000Y-215021000D01*
X161991000Y-215021000D02*
X161060000Y-215021000D01*
X158980000Y-214981000D02*
X158016000Y-214981000D01*
X162024000Y-214981000D02*
X161060000Y-214981000D01*
X158980000Y-214941000D02*
X157985000Y-214941000D01*
X162055000Y-214941000D02*
X161060000Y-214941000D01*
X158980000Y-214901000D02*
X157955000Y-214901000D01*
X162085000Y-214901000D02*
X161060000Y-214901000D01*
X158980000Y-214861000D02*
X157925000Y-214861000D01*
X162115000Y-214861000D02*
X161060000Y-214861000D01*
X158980000Y-214821000D02*
X157898000Y-214821000D01*
X162142000Y-214821000D02*
X161060000Y-214821000D01*
X158980000Y-214781000D02*
X157871000Y-214781000D01*
X162169000Y-214781000D02*
X161060000Y-214781000D01*
X158980000Y-214741000D02*
X157845000Y-214741000D01*
X162195000Y-214741000D02*
X161060000Y-214741000D01*
X158980000Y-214701000D02*
X157820000Y-214701000D01*
X162220000Y-214701000D02*
X161060000Y-214701000D01*
X158980000Y-214661000D02*
X157796000Y-214661000D01*
X162244000Y-214661000D02*
X161060000Y-214661000D01*
X158980000Y-214621000D02*
X157773000Y-214621000D01*
X162267000Y-214621000D02*
X161060000Y-214621000D01*
X158980000Y-214581000D02*
X157752000Y-214581000D01*
X162288000Y-214581000D02*
X161060000Y-214581000D01*
X158980000Y-214541000D02*
X157730000Y-214541000D01*
X162310000Y-214541000D02*
X161060000Y-214541000D01*
X158980000Y-214501000D02*
X157710000Y-214501000D01*
X162330000Y-214501000D02*
X161060000Y-214501000D01*
X158980000Y-214461000D02*
X157691000Y-214461000D01*
X162349000Y-214461000D02*
X161060000Y-214461000D01*
X158980000Y-214421000D02*
X157672000Y-214421000D01*
X162368000Y-214421000D02*
X161060000Y-214421000D01*
X158980000Y-214381000D02*
X157655000Y-214381000D01*
X162385000Y-214381000D02*
X161060000Y-214381000D01*
X158980000Y-214341000D02*
X157638000Y-214341000D01*
X162402000Y-214341000D02*
X161060000Y-214341000D01*
X158980000Y-214301000D02*
X157622000Y-214301000D01*
X162418000Y-214301000D02*
X161060000Y-214301000D01*
X158980000Y-214261000D02*
X157606000Y-214261000D01*
X162434000Y-214261000D02*
X161060000Y-214261000D01*
X158980000Y-214221000D02*
X157592000Y-214221000D01*
X162448000Y-214221000D02*
X161060000Y-214221000D01*
X158980000Y-214181000D02*
X157578000Y-214181000D01*
X162462000Y-214181000D02*
X161060000Y-214181000D01*
X158980000Y-214141000D02*
X157565000Y-214141000D01*
X162475000Y-214141000D02*
X161060000Y-214141000D01*
X158980000Y-214101000D02*
X157552000Y-214101000D01*
X162488000Y-214101000D02*
X161060000Y-214101000D01*
X158980000Y-214061000D02*
X157540000Y-214061000D01*
X162500000Y-214061000D02*
X161060000Y-214061000D01*
X158980000Y-214020000D02*
X157529000Y-214020000D01*
X162511000Y-214020000D02*
X161060000Y-214020000D01*
X158980000Y-213980000D02*
X157519000Y-213980000D01*
X162521000Y-213980000D02*
X161060000Y-213980000D01*
X158980000Y-213940000D02*
X157509000Y-213940000D01*
X162531000Y-213940000D02*
X161060000Y-213940000D01*
X158980000Y-213900000D02*
X157500000Y-213900000D01*
X162540000Y-213900000D02*
X161060000Y-213900000D01*
X158980000Y-213860000D02*
X157492000Y-213860000D01*
X162548000Y-213860000D02*
X161060000Y-213860000D01*
X158980000Y-213820000D02*
X157484000Y-213820000D01*
X162556000Y-213820000D02*
X161060000Y-213820000D01*
X158980000Y-213780000D02*
X157477000Y-213780000D01*
X162563000Y-213780000D02*
X161060000Y-213780000D01*
X158980000Y-213740000D02*
X157470000Y-213740000D01*
X162570000Y-213740000D02*
X161060000Y-213740000D01*
X158980000Y-213700000D02*
X157464000Y-213700000D01*
X162576000Y-213700000D02*
X161060000Y-213700000D01*
X158980000Y-213660000D02*
X157459000Y-213660000D01*
X162581000Y-213660000D02*
X161060000Y-213660000D01*
X158980000Y-213620000D02*
X157455000Y-213620000D01*
X162585000Y-213620000D02*
X161060000Y-213620000D01*
X158980000Y-213580000D02*
X157451000Y-213580000D01*
X162589000Y-213580000D02*
X161060000Y-213580000D01*
X162593000Y-213540000D02*
X157447000Y-213540000D01*
X162596000Y-213500000D02*
X157444000Y-213500000D01*
X162598000Y-213460000D02*
X157442000Y-213460000D01*
X162599000Y-213420000D02*
X157441000Y-213420000D01*
X162600000Y-213380000D02*
X157440000Y-213380000D01*
X162600000Y-213340000D02*
X157440000Y-213340000D01*
X162640000Y-213340000D02*
G75*
G03*
X162640000Y-213340000I-2620000J0D01*
G01*
%TO.C,C3*%
X78800000Y-161290000D02*
G75*
G03*
X78800000Y-161290000I-2620000J0D01*
G01*
X76180000Y-158710000D02*
X76180000Y-163870000D01*
X76220000Y-158710000D02*
X76220000Y-163870000D01*
X76260000Y-158711000D02*
X76260000Y-163869000D01*
X76300000Y-158712000D02*
X76300000Y-163868000D01*
X76340000Y-158714000D02*
X76340000Y-163866000D01*
X76380000Y-158717000D02*
X76380000Y-163863000D01*
X76420000Y-158721000D02*
X76420000Y-160250000D01*
X76420000Y-162330000D02*
X76420000Y-163859000D01*
X76460000Y-158725000D02*
X76460000Y-160250000D01*
X76460000Y-162330000D02*
X76460000Y-163855000D01*
X76500000Y-158729000D02*
X76500000Y-160250000D01*
X76500000Y-162330000D02*
X76500000Y-163851000D01*
X76540000Y-158734000D02*
X76540000Y-160250000D01*
X76540000Y-162330000D02*
X76540000Y-163846000D01*
X76580000Y-158740000D02*
X76580000Y-160250000D01*
X76580000Y-162330000D02*
X76580000Y-163840000D01*
X76620000Y-158747000D02*
X76620000Y-160250000D01*
X76620000Y-162330000D02*
X76620000Y-163833000D01*
X76660000Y-158754000D02*
X76660000Y-160250000D01*
X76660000Y-162330000D02*
X76660000Y-163826000D01*
X76700000Y-158762000D02*
X76700000Y-160250000D01*
X76700000Y-162330000D02*
X76700000Y-163818000D01*
X76740000Y-158770000D02*
X76740000Y-160250000D01*
X76740000Y-162330000D02*
X76740000Y-163810000D01*
X76780000Y-158779000D02*
X76780000Y-160250000D01*
X76780000Y-162330000D02*
X76780000Y-163801000D01*
X76820000Y-158789000D02*
X76820000Y-160250000D01*
X76820000Y-162330000D02*
X76820000Y-163791000D01*
X76860000Y-158799000D02*
X76860000Y-160250000D01*
X76860000Y-162330000D02*
X76860000Y-163781000D01*
X76901000Y-158810000D02*
X76901000Y-160250000D01*
X76901000Y-162330000D02*
X76901000Y-163770000D01*
X76941000Y-158822000D02*
X76941000Y-160250000D01*
X76941000Y-162330000D02*
X76941000Y-163758000D01*
X76981000Y-158835000D02*
X76981000Y-160250000D01*
X76981000Y-162330000D02*
X76981000Y-163745000D01*
X77021000Y-158848000D02*
X77021000Y-160250000D01*
X77021000Y-162330000D02*
X77021000Y-163732000D01*
X77061000Y-158862000D02*
X77061000Y-160250000D01*
X77061000Y-162330000D02*
X77061000Y-163718000D01*
X77101000Y-158876000D02*
X77101000Y-160250000D01*
X77101000Y-162330000D02*
X77101000Y-163704000D01*
X77141000Y-158892000D02*
X77141000Y-160250000D01*
X77141000Y-162330000D02*
X77141000Y-163688000D01*
X77181000Y-158908000D02*
X77181000Y-160250000D01*
X77181000Y-162330000D02*
X77181000Y-163672000D01*
X77221000Y-158925000D02*
X77221000Y-160250000D01*
X77221000Y-162330000D02*
X77221000Y-163655000D01*
X77261000Y-158942000D02*
X77261000Y-160250000D01*
X77261000Y-162330000D02*
X77261000Y-163638000D01*
X77301000Y-158961000D02*
X77301000Y-160250000D01*
X77301000Y-162330000D02*
X77301000Y-163619000D01*
X77341000Y-158980000D02*
X77341000Y-160250000D01*
X77341000Y-162330000D02*
X77341000Y-163600000D01*
X77381000Y-159000000D02*
X77381000Y-160250000D01*
X77381000Y-162330000D02*
X77381000Y-163580000D01*
X77421000Y-159022000D02*
X77421000Y-160250000D01*
X77421000Y-162330000D02*
X77421000Y-163558000D01*
X77461000Y-159043000D02*
X77461000Y-160250000D01*
X77461000Y-162330000D02*
X77461000Y-163537000D01*
X77501000Y-159066000D02*
X77501000Y-160250000D01*
X77501000Y-162330000D02*
X77501000Y-163514000D01*
X77541000Y-159090000D02*
X77541000Y-160250000D01*
X77541000Y-162330000D02*
X77541000Y-163490000D01*
X77581000Y-159115000D02*
X77581000Y-160250000D01*
X77581000Y-162330000D02*
X77581000Y-163465000D01*
X77621000Y-159141000D02*
X77621000Y-160250000D01*
X77621000Y-162330000D02*
X77621000Y-163439000D01*
X77661000Y-159168000D02*
X77661000Y-160250000D01*
X77661000Y-162330000D02*
X77661000Y-163412000D01*
X77701000Y-159195000D02*
X77701000Y-160250000D01*
X77701000Y-162330000D02*
X77701000Y-163385000D01*
X77741000Y-159225000D02*
X77741000Y-160250000D01*
X77741000Y-162330000D02*
X77741000Y-163355000D01*
X77781000Y-159255000D02*
X77781000Y-160250000D01*
X77781000Y-162330000D02*
X77781000Y-163325000D01*
X77821000Y-159286000D02*
X77821000Y-160250000D01*
X77821000Y-162330000D02*
X77821000Y-163294000D01*
X77861000Y-159319000D02*
X77861000Y-160250000D01*
X77861000Y-162330000D02*
X77861000Y-163261000D01*
X77901000Y-159353000D02*
X77901000Y-160250000D01*
X77901000Y-162330000D02*
X77901000Y-163227000D01*
X77941000Y-159389000D02*
X77941000Y-160250000D01*
X77941000Y-162330000D02*
X77941000Y-163191000D01*
X77981000Y-159426000D02*
X77981000Y-160250000D01*
X77981000Y-162330000D02*
X77981000Y-163154000D01*
X78021000Y-159464000D02*
X78021000Y-160250000D01*
X78021000Y-162330000D02*
X78021000Y-163116000D01*
X78061000Y-159505000D02*
X78061000Y-160250000D01*
X78061000Y-162330000D02*
X78061000Y-163075000D01*
X78101000Y-159547000D02*
X78101000Y-160250000D01*
X78101000Y-162330000D02*
X78101000Y-163033000D01*
X78141000Y-159591000D02*
X78141000Y-160250000D01*
X78141000Y-162330000D02*
X78141000Y-162989000D01*
X78181000Y-159637000D02*
X78181000Y-160250000D01*
X78181000Y-162330000D02*
X78181000Y-162943000D01*
X78221000Y-159685000D02*
X78221000Y-160250000D01*
X78221000Y-162330000D02*
X78221000Y-162895000D01*
X78261000Y-159736000D02*
X78261000Y-160250000D01*
X78261000Y-162330000D02*
X78261000Y-162844000D01*
X78301000Y-159790000D02*
X78301000Y-160250000D01*
X78301000Y-162330000D02*
X78301000Y-162790000D01*
X78341000Y-159847000D02*
X78341000Y-160250000D01*
X78341000Y-162330000D02*
X78341000Y-162733000D01*
X78381000Y-159907000D02*
X78381000Y-160250000D01*
X78381000Y-162330000D02*
X78381000Y-162673000D01*
X78421000Y-159971000D02*
X78421000Y-160250000D01*
X78421000Y-162330000D02*
X78421000Y-162609000D01*
X78461000Y-160039000D02*
X78461000Y-160250000D01*
X78461000Y-162330000D02*
X78461000Y-162541000D01*
X78501000Y-160112000D02*
X78501000Y-162468000D01*
X78541000Y-160192000D02*
X78541000Y-162388000D01*
X78581000Y-160279000D02*
X78581000Y-162301000D01*
X78621000Y-160375000D02*
X78621000Y-162205000D01*
X78661000Y-160485000D02*
X78661000Y-162095000D01*
X78701000Y-160613000D02*
X78701000Y-161967000D01*
X78741000Y-160772000D02*
X78741000Y-161808000D01*
X78781000Y-161006000D02*
X78781000Y-161574000D01*
X73375225Y-159815000D02*
X73875225Y-159815000D01*
X73625225Y-159565000D02*
X73625225Y-160065000D01*
%TO.C,C4*%
X134700000Y-159405000D02*
G75*
G03*
X134700000Y-159405000I-2620000J0D01*
G01*
X129500000Y-159405000D02*
X134660000Y-159405000D01*
X129500000Y-159365000D02*
X134660000Y-159365000D01*
X129501000Y-159325000D02*
X134659000Y-159325000D01*
X129502000Y-159285000D02*
X134658000Y-159285000D01*
X129504000Y-159245000D02*
X134656000Y-159245000D01*
X129507000Y-159205000D02*
X134653000Y-159205000D01*
X129511000Y-159165000D02*
X131040000Y-159165000D01*
X133120000Y-159165000D02*
X134649000Y-159165000D01*
X129515000Y-159125000D02*
X131040000Y-159125000D01*
X133120000Y-159125000D02*
X134645000Y-159125000D01*
X129519000Y-159085000D02*
X131040000Y-159085000D01*
X133120000Y-159085000D02*
X134641000Y-159085000D01*
X129524000Y-159045000D02*
X131040000Y-159045000D01*
X133120000Y-159045000D02*
X134636000Y-159045000D01*
X129530000Y-159005000D02*
X131040000Y-159005000D01*
X133120000Y-159005000D02*
X134630000Y-159005000D01*
X129537000Y-158965000D02*
X131040000Y-158965000D01*
X133120000Y-158965000D02*
X134623000Y-158965000D01*
X129544000Y-158925000D02*
X131040000Y-158925000D01*
X133120000Y-158925000D02*
X134616000Y-158925000D01*
X129552000Y-158885000D02*
X131040000Y-158885000D01*
X133120000Y-158885000D02*
X134608000Y-158885000D01*
X129560000Y-158845000D02*
X131040000Y-158845000D01*
X133120000Y-158845000D02*
X134600000Y-158845000D01*
X129569000Y-158805000D02*
X131040000Y-158805000D01*
X133120000Y-158805000D02*
X134591000Y-158805000D01*
X129579000Y-158765000D02*
X131040000Y-158765000D01*
X133120000Y-158765000D02*
X134581000Y-158765000D01*
X129589000Y-158725000D02*
X131040000Y-158725000D01*
X133120000Y-158725000D02*
X134571000Y-158725000D01*
X129600000Y-158684000D02*
X131040000Y-158684000D01*
X133120000Y-158684000D02*
X134560000Y-158684000D01*
X129612000Y-158644000D02*
X131040000Y-158644000D01*
X133120000Y-158644000D02*
X134548000Y-158644000D01*
X129625000Y-158604000D02*
X131040000Y-158604000D01*
X133120000Y-158604000D02*
X134535000Y-158604000D01*
X129638000Y-158564000D02*
X131040000Y-158564000D01*
X133120000Y-158564000D02*
X134522000Y-158564000D01*
X129652000Y-158524000D02*
X131040000Y-158524000D01*
X133120000Y-158524000D02*
X134508000Y-158524000D01*
X129666000Y-158484000D02*
X131040000Y-158484000D01*
X133120000Y-158484000D02*
X134494000Y-158484000D01*
X129682000Y-158444000D02*
X131040000Y-158444000D01*
X133120000Y-158444000D02*
X134478000Y-158444000D01*
X129698000Y-158404000D02*
X131040000Y-158404000D01*
X133120000Y-158404000D02*
X134462000Y-158404000D01*
X129715000Y-158364000D02*
X131040000Y-158364000D01*
X133120000Y-158364000D02*
X134445000Y-158364000D01*
X129732000Y-158324000D02*
X131040000Y-158324000D01*
X133120000Y-158324000D02*
X134428000Y-158324000D01*
X129751000Y-158284000D02*
X131040000Y-158284000D01*
X133120000Y-158284000D02*
X134409000Y-158284000D01*
X129770000Y-158244000D02*
X131040000Y-158244000D01*
X133120000Y-158244000D02*
X134390000Y-158244000D01*
X129790000Y-158204000D02*
X131040000Y-158204000D01*
X133120000Y-158204000D02*
X134370000Y-158204000D01*
X129812000Y-158164000D02*
X131040000Y-158164000D01*
X133120000Y-158164000D02*
X134348000Y-158164000D01*
X129833000Y-158124000D02*
X131040000Y-158124000D01*
X133120000Y-158124000D02*
X134327000Y-158124000D01*
X129856000Y-158084000D02*
X131040000Y-158084000D01*
X133120000Y-158084000D02*
X134304000Y-158084000D01*
X129880000Y-158044000D02*
X131040000Y-158044000D01*
X133120000Y-158044000D02*
X134280000Y-158044000D01*
X129905000Y-158004000D02*
X131040000Y-158004000D01*
X133120000Y-158004000D02*
X134255000Y-158004000D01*
X129931000Y-157964000D02*
X131040000Y-157964000D01*
X133120000Y-157964000D02*
X134229000Y-157964000D01*
X129958000Y-157924000D02*
X131040000Y-157924000D01*
X133120000Y-157924000D02*
X134202000Y-157924000D01*
X129985000Y-157884000D02*
X131040000Y-157884000D01*
X133120000Y-157884000D02*
X134175000Y-157884000D01*
X130015000Y-157844000D02*
X131040000Y-157844000D01*
X133120000Y-157844000D02*
X134145000Y-157844000D01*
X130045000Y-157804000D02*
X131040000Y-157804000D01*
X133120000Y-157804000D02*
X134115000Y-157804000D01*
X130076000Y-157764000D02*
X131040000Y-157764000D01*
X133120000Y-157764000D02*
X134084000Y-157764000D01*
X130109000Y-157724000D02*
X131040000Y-157724000D01*
X133120000Y-157724000D02*
X134051000Y-157724000D01*
X130143000Y-157684000D02*
X131040000Y-157684000D01*
X133120000Y-157684000D02*
X134017000Y-157684000D01*
X130179000Y-157644000D02*
X131040000Y-157644000D01*
X133120000Y-157644000D02*
X133981000Y-157644000D01*
X130216000Y-157604000D02*
X131040000Y-157604000D01*
X133120000Y-157604000D02*
X133944000Y-157604000D01*
X130254000Y-157564000D02*
X131040000Y-157564000D01*
X133120000Y-157564000D02*
X133906000Y-157564000D01*
X130295000Y-157524000D02*
X131040000Y-157524000D01*
X133120000Y-157524000D02*
X133865000Y-157524000D01*
X130337000Y-157484000D02*
X131040000Y-157484000D01*
X133120000Y-157484000D02*
X133823000Y-157484000D01*
X130381000Y-157444000D02*
X131040000Y-157444000D01*
X133120000Y-157444000D02*
X133779000Y-157444000D01*
X130427000Y-157404000D02*
X131040000Y-157404000D01*
X133120000Y-157404000D02*
X133733000Y-157404000D01*
X130475000Y-157364000D02*
X131040000Y-157364000D01*
X133120000Y-157364000D02*
X133685000Y-157364000D01*
X130526000Y-157324000D02*
X131040000Y-157324000D01*
X133120000Y-157324000D02*
X133634000Y-157324000D01*
X130580000Y-157284000D02*
X131040000Y-157284000D01*
X133120000Y-157284000D02*
X133580000Y-157284000D01*
X130637000Y-157244000D02*
X131040000Y-157244000D01*
X133120000Y-157244000D02*
X133523000Y-157244000D01*
X130697000Y-157204000D02*
X131040000Y-157204000D01*
X133120000Y-157204000D02*
X133463000Y-157204000D01*
X130761000Y-157164000D02*
X131040000Y-157164000D01*
X133120000Y-157164000D02*
X133399000Y-157164000D01*
X130829000Y-157124000D02*
X131040000Y-157124000D01*
X133120000Y-157124000D02*
X133331000Y-157124000D01*
X130902000Y-157084000D02*
X133258000Y-157084000D01*
X130982000Y-157044000D02*
X133178000Y-157044000D01*
X131069000Y-157004000D02*
X133091000Y-157004000D01*
X131165000Y-156964000D02*
X132995000Y-156964000D01*
X131275000Y-156924000D02*
X132885000Y-156924000D01*
X131403000Y-156884000D02*
X132757000Y-156884000D01*
X131562000Y-156844000D02*
X132598000Y-156844000D01*
X131796000Y-156804000D02*
X132364000Y-156804000D01*
X130605000Y-162209775D02*
X130605000Y-161709775D01*
X130355000Y-161959775D02*
X130855000Y-161959775D01*
%TO.C,C5*%
X90625000Y-158715225D02*
X90125000Y-158715225D01*
X90375000Y-158465225D02*
X90375000Y-158965225D01*
X89184000Y-163871000D02*
X88616000Y-163871000D01*
X89418000Y-163831000D02*
X88382000Y-163831000D01*
X89577000Y-163791000D02*
X88223000Y-163791000D01*
X89705000Y-163751000D02*
X88095000Y-163751000D01*
X89815000Y-163711000D02*
X87985000Y-163711000D01*
X89911000Y-163671000D02*
X87889000Y-163671000D01*
X89998000Y-163631000D02*
X87802000Y-163631000D01*
X90078000Y-163591000D02*
X87722000Y-163591000D01*
X87860000Y-163551000D02*
X87649000Y-163551000D01*
X90151000Y-163551000D02*
X89940000Y-163551000D01*
X87860000Y-163511000D02*
X87581000Y-163511000D01*
X90219000Y-163511000D02*
X89940000Y-163511000D01*
X87860000Y-163471000D02*
X87517000Y-163471000D01*
X90283000Y-163471000D02*
X89940000Y-163471000D01*
X87860000Y-163431000D02*
X87457000Y-163431000D01*
X90343000Y-163431000D02*
X89940000Y-163431000D01*
X87860000Y-163391000D02*
X87400000Y-163391000D01*
X90400000Y-163391000D02*
X89940000Y-163391000D01*
X87860000Y-163351000D02*
X87346000Y-163351000D01*
X90454000Y-163351000D02*
X89940000Y-163351000D01*
X87860000Y-163311000D02*
X87295000Y-163311000D01*
X90505000Y-163311000D02*
X89940000Y-163311000D01*
X87860000Y-163271000D02*
X87247000Y-163271000D01*
X90553000Y-163271000D02*
X89940000Y-163271000D01*
X87860000Y-163231000D02*
X87201000Y-163231000D01*
X90599000Y-163231000D02*
X89940000Y-163231000D01*
X87860000Y-163191000D02*
X87157000Y-163191000D01*
X90643000Y-163191000D02*
X89940000Y-163191000D01*
X87860000Y-163151000D02*
X87115000Y-163151000D01*
X90685000Y-163151000D02*
X89940000Y-163151000D01*
X87860000Y-163111000D02*
X87074000Y-163111000D01*
X90726000Y-163111000D02*
X89940000Y-163111000D01*
X87860000Y-163071000D02*
X87036000Y-163071000D01*
X90764000Y-163071000D02*
X89940000Y-163071000D01*
X87860000Y-163031000D02*
X86999000Y-163031000D01*
X90801000Y-163031000D02*
X89940000Y-163031000D01*
X87860000Y-162991000D02*
X86963000Y-162991000D01*
X90837000Y-162991000D02*
X89940000Y-162991000D01*
X87860000Y-162951000D02*
X86929000Y-162951000D01*
X90871000Y-162951000D02*
X89940000Y-162951000D01*
X87860000Y-162911000D02*
X86896000Y-162911000D01*
X90904000Y-162911000D02*
X89940000Y-162911000D01*
X87860000Y-162871000D02*
X86865000Y-162871000D01*
X90935000Y-162871000D02*
X89940000Y-162871000D01*
X87860000Y-162831000D02*
X86835000Y-162831000D01*
X90965000Y-162831000D02*
X89940000Y-162831000D01*
X87860000Y-162791000D02*
X86805000Y-162791000D01*
X90995000Y-162791000D02*
X89940000Y-162791000D01*
X87860000Y-162751000D02*
X86778000Y-162751000D01*
X91022000Y-162751000D02*
X89940000Y-162751000D01*
X87860000Y-162711000D02*
X86751000Y-162711000D01*
X91049000Y-162711000D02*
X89940000Y-162711000D01*
X87860000Y-162671000D02*
X86725000Y-162671000D01*
X91075000Y-162671000D02*
X89940000Y-162671000D01*
X87860000Y-162631000D02*
X86700000Y-162631000D01*
X91100000Y-162631000D02*
X89940000Y-162631000D01*
X87860000Y-162591000D02*
X86676000Y-162591000D01*
X91124000Y-162591000D02*
X89940000Y-162591000D01*
X87860000Y-162551000D02*
X86653000Y-162551000D01*
X91147000Y-162551000D02*
X89940000Y-162551000D01*
X87860000Y-162511000D02*
X86632000Y-162511000D01*
X91168000Y-162511000D02*
X89940000Y-162511000D01*
X87860000Y-162471000D02*
X86610000Y-162471000D01*
X91190000Y-162471000D02*
X89940000Y-162471000D01*
X87860000Y-162431000D02*
X86590000Y-162431000D01*
X91210000Y-162431000D02*
X89940000Y-162431000D01*
X87860000Y-162391000D02*
X86571000Y-162391000D01*
X91229000Y-162391000D02*
X89940000Y-162391000D01*
X87860000Y-162351000D02*
X86552000Y-162351000D01*
X91248000Y-162351000D02*
X89940000Y-162351000D01*
X87860000Y-162311000D02*
X86535000Y-162311000D01*
X91265000Y-162311000D02*
X89940000Y-162311000D01*
X87860000Y-162271000D02*
X86518000Y-162271000D01*
X91282000Y-162271000D02*
X89940000Y-162271000D01*
X87860000Y-162231000D02*
X86502000Y-162231000D01*
X91298000Y-162231000D02*
X89940000Y-162231000D01*
X87860000Y-162191000D02*
X86486000Y-162191000D01*
X91314000Y-162191000D02*
X89940000Y-162191000D01*
X87860000Y-162151000D02*
X86472000Y-162151000D01*
X91328000Y-162151000D02*
X89940000Y-162151000D01*
X87860000Y-162111000D02*
X86458000Y-162111000D01*
X91342000Y-162111000D02*
X89940000Y-162111000D01*
X87860000Y-162071000D02*
X86445000Y-162071000D01*
X91355000Y-162071000D02*
X89940000Y-162071000D01*
X87860000Y-162031000D02*
X86432000Y-162031000D01*
X91368000Y-162031000D02*
X89940000Y-162031000D01*
X87860000Y-161991000D02*
X86420000Y-161991000D01*
X91380000Y-161991000D02*
X89940000Y-161991000D01*
X87860000Y-161950000D02*
X86409000Y-161950000D01*
X91391000Y-161950000D02*
X89940000Y-161950000D01*
X87860000Y-161910000D02*
X86399000Y-161910000D01*
X91401000Y-161910000D02*
X89940000Y-161910000D01*
X87860000Y-161870000D02*
X86389000Y-161870000D01*
X91411000Y-161870000D02*
X89940000Y-161870000D01*
X87860000Y-161830000D02*
X86380000Y-161830000D01*
X91420000Y-161830000D02*
X89940000Y-161830000D01*
X87860000Y-161790000D02*
X86372000Y-161790000D01*
X91428000Y-161790000D02*
X89940000Y-161790000D01*
X87860000Y-161750000D02*
X86364000Y-161750000D01*
X91436000Y-161750000D02*
X89940000Y-161750000D01*
X87860000Y-161710000D02*
X86357000Y-161710000D01*
X91443000Y-161710000D02*
X89940000Y-161710000D01*
X87860000Y-161670000D02*
X86350000Y-161670000D01*
X91450000Y-161670000D02*
X89940000Y-161670000D01*
X87860000Y-161630000D02*
X86344000Y-161630000D01*
X91456000Y-161630000D02*
X89940000Y-161630000D01*
X87860000Y-161590000D02*
X86339000Y-161590000D01*
X91461000Y-161590000D02*
X89940000Y-161590000D01*
X87860000Y-161550000D02*
X86335000Y-161550000D01*
X91465000Y-161550000D02*
X89940000Y-161550000D01*
X87860000Y-161510000D02*
X86331000Y-161510000D01*
X91469000Y-161510000D02*
X89940000Y-161510000D01*
X91473000Y-161470000D02*
X86327000Y-161470000D01*
X91476000Y-161430000D02*
X86324000Y-161430000D01*
X91478000Y-161390000D02*
X86322000Y-161390000D01*
X91479000Y-161350000D02*
X86321000Y-161350000D01*
X91480000Y-161310000D02*
X86320000Y-161310000D01*
X91480000Y-161270000D02*
X86320000Y-161270000D01*
X91520000Y-161270000D02*
G75*
G03*
X91520000Y-161270000I-2620000J0D01*
G01*
%TO.C,C6*%
X137975000Y-161959775D02*
X138475000Y-161959775D01*
X138225000Y-162209775D02*
X138225000Y-161709775D01*
X139416000Y-156804000D02*
X139984000Y-156804000D01*
X139182000Y-156844000D02*
X140218000Y-156844000D01*
X139023000Y-156884000D02*
X140377000Y-156884000D01*
X138895000Y-156924000D02*
X140505000Y-156924000D01*
X138785000Y-156964000D02*
X140615000Y-156964000D01*
X138689000Y-157004000D02*
X140711000Y-157004000D01*
X138602000Y-157044000D02*
X140798000Y-157044000D01*
X138522000Y-157084000D02*
X140878000Y-157084000D01*
X140740000Y-157124000D02*
X140951000Y-157124000D01*
X138449000Y-157124000D02*
X138660000Y-157124000D01*
X140740000Y-157164000D02*
X141019000Y-157164000D01*
X138381000Y-157164000D02*
X138660000Y-157164000D01*
X140740000Y-157204000D02*
X141083000Y-157204000D01*
X138317000Y-157204000D02*
X138660000Y-157204000D01*
X140740000Y-157244000D02*
X141143000Y-157244000D01*
X138257000Y-157244000D02*
X138660000Y-157244000D01*
X140740000Y-157284000D02*
X141200000Y-157284000D01*
X138200000Y-157284000D02*
X138660000Y-157284000D01*
X140740000Y-157324000D02*
X141254000Y-157324000D01*
X138146000Y-157324000D02*
X138660000Y-157324000D01*
X140740000Y-157364000D02*
X141305000Y-157364000D01*
X138095000Y-157364000D02*
X138660000Y-157364000D01*
X140740000Y-157404000D02*
X141353000Y-157404000D01*
X138047000Y-157404000D02*
X138660000Y-157404000D01*
X140740000Y-157444000D02*
X141399000Y-157444000D01*
X138001000Y-157444000D02*
X138660000Y-157444000D01*
X140740000Y-157484000D02*
X141443000Y-157484000D01*
X137957000Y-157484000D02*
X138660000Y-157484000D01*
X140740000Y-157524000D02*
X141485000Y-157524000D01*
X137915000Y-157524000D02*
X138660000Y-157524000D01*
X140740000Y-157564000D02*
X141526000Y-157564000D01*
X137874000Y-157564000D02*
X138660000Y-157564000D01*
X140740000Y-157604000D02*
X141564000Y-157604000D01*
X137836000Y-157604000D02*
X138660000Y-157604000D01*
X140740000Y-157644000D02*
X141601000Y-157644000D01*
X137799000Y-157644000D02*
X138660000Y-157644000D01*
X140740000Y-157684000D02*
X141637000Y-157684000D01*
X137763000Y-157684000D02*
X138660000Y-157684000D01*
X140740000Y-157724000D02*
X141671000Y-157724000D01*
X137729000Y-157724000D02*
X138660000Y-157724000D01*
X140740000Y-157764000D02*
X141704000Y-157764000D01*
X137696000Y-157764000D02*
X138660000Y-157764000D01*
X140740000Y-157804000D02*
X141735000Y-157804000D01*
X137665000Y-157804000D02*
X138660000Y-157804000D01*
X140740000Y-157844000D02*
X141765000Y-157844000D01*
X137635000Y-157844000D02*
X138660000Y-157844000D01*
X140740000Y-157884000D02*
X141795000Y-157884000D01*
X137605000Y-157884000D02*
X138660000Y-157884000D01*
X140740000Y-157924000D02*
X141822000Y-157924000D01*
X137578000Y-157924000D02*
X138660000Y-157924000D01*
X140740000Y-157964000D02*
X141849000Y-157964000D01*
X137551000Y-157964000D02*
X138660000Y-157964000D01*
X140740000Y-158004000D02*
X141875000Y-158004000D01*
X137525000Y-158004000D02*
X138660000Y-158004000D01*
X140740000Y-158044000D02*
X141900000Y-158044000D01*
X137500000Y-158044000D02*
X138660000Y-158044000D01*
X140740000Y-158084000D02*
X141924000Y-158084000D01*
X137476000Y-158084000D02*
X138660000Y-158084000D01*
X140740000Y-158124000D02*
X141947000Y-158124000D01*
X137453000Y-158124000D02*
X138660000Y-158124000D01*
X140740000Y-158164000D02*
X141968000Y-158164000D01*
X137432000Y-158164000D02*
X138660000Y-158164000D01*
X140740000Y-158204000D02*
X141990000Y-158204000D01*
X137410000Y-158204000D02*
X138660000Y-158204000D01*
X140740000Y-158244000D02*
X142010000Y-158244000D01*
X137390000Y-158244000D02*
X138660000Y-158244000D01*
X140740000Y-158284000D02*
X142029000Y-158284000D01*
X137371000Y-158284000D02*
X138660000Y-158284000D01*
X140740000Y-158324000D02*
X142048000Y-158324000D01*
X137352000Y-158324000D02*
X138660000Y-158324000D01*
X140740000Y-158364000D02*
X142065000Y-158364000D01*
X137335000Y-158364000D02*
X138660000Y-158364000D01*
X140740000Y-158404000D02*
X142082000Y-158404000D01*
X137318000Y-158404000D02*
X138660000Y-158404000D01*
X140740000Y-158444000D02*
X142098000Y-158444000D01*
X137302000Y-158444000D02*
X138660000Y-158444000D01*
X140740000Y-158484000D02*
X142114000Y-158484000D01*
X137286000Y-158484000D02*
X138660000Y-158484000D01*
X140740000Y-158524000D02*
X142128000Y-158524000D01*
X137272000Y-158524000D02*
X138660000Y-158524000D01*
X140740000Y-158564000D02*
X142142000Y-158564000D01*
X137258000Y-158564000D02*
X138660000Y-158564000D01*
X140740000Y-158604000D02*
X142155000Y-158604000D01*
X137245000Y-158604000D02*
X138660000Y-158604000D01*
X140740000Y-158644000D02*
X142168000Y-158644000D01*
X137232000Y-158644000D02*
X138660000Y-158644000D01*
X140740000Y-158684000D02*
X142180000Y-158684000D01*
X137220000Y-158684000D02*
X138660000Y-158684000D01*
X140740000Y-158725000D02*
X142191000Y-158725000D01*
X137209000Y-158725000D02*
X138660000Y-158725000D01*
X140740000Y-158765000D02*
X142201000Y-158765000D01*
X137199000Y-158765000D02*
X138660000Y-158765000D01*
X140740000Y-158805000D02*
X142211000Y-158805000D01*
X137189000Y-158805000D02*
X138660000Y-158805000D01*
X140740000Y-158845000D02*
X142220000Y-158845000D01*
X137180000Y-158845000D02*
X138660000Y-158845000D01*
X140740000Y-158885000D02*
X142228000Y-158885000D01*
X137172000Y-158885000D02*
X138660000Y-158885000D01*
X140740000Y-158925000D02*
X142236000Y-158925000D01*
X137164000Y-158925000D02*
X138660000Y-158925000D01*
X140740000Y-158965000D02*
X142243000Y-158965000D01*
X137157000Y-158965000D02*
X138660000Y-158965000D01*
X140740000Y-159005000D02*
X142250000Y-159005000D01*
X137150000Y-159005000D02*
X138660000Y-159005000D01*
X140740000Y-159045000D02*
X142256000Y-159045000D01*
X137144000Y-159045000D02*
X138660000Y-159045000D01*
X140740000Y-159085000D02*
X142261000Y-159085000D01*
X137139000Y-159085000D02*
X138660000Y-159085000D01*
X140740000Y-159125000D02*
X142265000Y-159125000D01*
X137135000Y-159125000D02*
X138660000Y-159125000D01*
X140740000Y-159165000D02*
X142269000Y-159165000D01*
X137131000Y-159165000D02*
X138660000Y-159165000D01*
X137127000Y-159205000D02*
X142273000Y-159205000D01*
X137124000Y-159245000D02*
X142276000Y-159245000D01*
X137122000Y-159285000D02*
X142278000Y-159285000D01*
X137121000Y-159325000D02*
X142279000Y-159325000D01*
X137120000Y-159365000D02*
X142280000Y-159365000D01*
X137120000Y-159405000D02*
X142280000Y-159405000D01*
X142320000Y-159405000D02*
G75*
G03*
X142320000Y-159405000I-2620000J0D01*
G01*
%TO.C,C7*%
X128350000Y-159405000D02*
G75*
G03*
X128350000Y-159405000I-2620000J0D01*
G01*
X123150000Y-159405000D02*
X128310000Y-159405000D01*
X123150000Y-159365000D02*
X128310000Y-159365000D01*
X123151000Y-159325000D02*
X128309000Y-159325000D01*
X123152000Y-159285000D02*
X128308000Y-159285000D01*
X123154000Y-159245000D02*
X128306000Y-159245000D01*
X123157000Y-159205000D02*
X128303000Y-159205000D01*
X123161000Y-159165000D02*
X124690000Y-159165000D01*
X126770000Y-159165000D02*
X128299000Y-159165000D01*
X123165000Y-159125000D02*
X124690000Y-159125000D01*
X126770000Y-159125000D02*
X128295000Y-159125000D01*
X123169000Y-159085000D02*
X124690000Y-159085000D01*
X126770000Y-159085000D02*
X128291000Y-159085000D01*
X123174000Y-159045000D02*
X124690000Y-159045000D01*
X126770000Y-159045000D02*
X128286000Y-159045000D01*
X123180000Y-159005000D02*
X124690000Y-159005000D01*
X126770000Y-159005000D02*
X128280000Y-159005000D01*
X123187000Y-158965000D02*
X124690000Y-158965000D01*
X126770000Y-158965000D02*
X128273000Y-158965000D01*
X123194000Y-158925000D02*
X124690000Y-158925000D01*
X126770000Y-158925000D02*
X128266000Y-158925000D01*
X123202000Y-158885000D02*
X124690000Y-158885000D01*
X126770000Y-158885000D02*
X128258000Y-158885000D01*
X123210000Y-158845000D02*
X124690000Y-158845000D01*
X126770000Y-158845000D02*
X128250000Y-158845000D01*
X123219000Y-158805000D02*
X124690000Y-158805000D01*
X126770000Y-158805000D02*
X128241000Y-158805000D01*
X123229000Y-158765000D02*
X124690000Y-158765000D01*
X126770000Y-158765000D02*
X128231000Y-158765000D01*
X123239000Y-158725000D02*
X124690000Y-158725000D01*
X126770000Y-158725000D02*
X128221000Y-158725000D01*
X123250000Y-158684000D02*
X124690000Y-158684000D01*
X126770000Y-158684000D02*
X128210000Y-158684000D01*
X123262000Y-158644000D02*
X124690000Y-158644000D01*
X126770000Y-158644000D02*
X128198000Y-158644000D01*
X123275000Y-158604000D02*
X124690000Y-158604000D01*
X126770000Y-158604000D02*
X128185000Y-158604000D01*
X123288000Y-158564000D02*
X124690000Y-158564000D01*
X126770000Y-158564000D02*
X128172000Y-158564000D01*
X123302000Y-158524000D02*
X124690000Y-158524000D01*
X126770000Y-158524000D02*
X128158000Y-158524000D01*
X123316000Y-158484000D02*
X124690000Y-158484000D01*
X126770000Y-158484000D02*
X128144000Y-158484000D01*
X123332000Y-158444000D02*
X124690000Y-158444000D01*
X126770000Y-158444000D02*
X128128000Y-158444000D01*
X123348000Y-158404000D02*
X124690000Y-158404000D01*
X126770000Y-158404000D02*
X128112000Y-158404000D01*
X123365000Y-158364000D02*
X124690000Y-158364000D01*
X126770000Y-158364000D02*
X128095000Y-158364000D01*
X123382000Y-158324000D02*
X124690000Y-158324000D01*
X126770000Y-158324000D02*
X128078000Y-158324000D01*
X123401000Y-158284000D02*
X124690000Y-158284000D01*
X126770000Y-158284000D02*
X128059000Y-158284000D01*
X123420000Y-158244000D02*
X124690000Y-158244000D01*
X126770000Y-158244000D02*
X128040000Y-158244000D01*
X123440000Y-158204000D02*
X124690000Y-158204000D01*
X126770000Y-158204000D02*
X128020000Y-158204000D01*
X123462000Y-158164000D02*
X124690000Y-158164000D01*
X126770000Y-158164000D02*
X127998000Y-158164000D01*
X123483000Y-158124000D02*
X124690000Y-158124000D01*
X126770000Y-158124000D02*
X127977000Y-158124000D01*
X123506000Y-158084000D02*
X124690000Y-158084000D01*
X126770000Y-158084000D02*
X127954000Y-158084000D01*
X123530000Y-158044000D02*
X124690000Y-158044000D01*
X126770000Y-158044000D02*
X127930000Y-158044000D01*
X123555000Y-158004000D02*
X124690000Y-158004000D01*
X126770000Y-158004000D02*
X127905000Y-158004000D01*
X123581000Y-157964000D02*
X124690000Y-157964000D01*
X126770000Y-157964000D02*
X127879000Y-157964000D01*
X123608000Y-157924000D02*
X124690000Y-157924000D01*
X126770000Y-157924000D02*
X127852000Y-157924000D01*
X123635000Y-157884000D02*
X124690000Y-157884000D01*
X126770000Y-157884000D02*
X127825000Y-157884000D01*
X123665000Y-157844000D02*
X124690000Y-157844000D01*
X126770000Y-157844000D02*
X127795000Y-157844000D01*
X123695000Y-157804000D02*
X124690000Y-157804000D01*
X126770000Y-157804000D02*
X127765000Y-157804000D01*
X123726000Y-157764000D02*
X124690000Y-157764000D01*
X126770000Y-157764000D02*
X127734000Y-157764000D01*
X123759000Y-157724000D02*
X124690000Y-157724000D01*
X126770000Y-157724000D02*
X127701000Y-157724000D01*
X123793000Y-157684000D02*
X124690000Y-157684000D01*
X126770000Y-157684000D02*
X127667000Y-157684000D01*
X123829000Y-157644000D02*
X124690000Y-157644000D01*
X126770000Y-157644000D02*
X127631000Y-157644000D01*
X123866000Y-157604000D02*
X124690000Y-157604000D01*
X126770000Y-157604000D02*
X127594000Y-157604000D01*
X123904000Y-157564000D02*
X124690000Y-157564000D01*
X126770000Y-157564000D02*
X127556000Y-157564000D01*
X123945000Y-157524000D02*
X124690000Y-157524000D01*
X126770000Y-157524000D02*
X127515000Y-157524000D01*
X123987000Y-157484000D02*
X124690000Y-157484000D01*
X126770000Y-157484000D02*
X127473000Y-157484000D01*
X124031000Y-157444000D02*
X124690000Y-157444000D01*
X126770000Y-157444000D02*
X127429000Y-157444000D01*
X124077000Y-157404000D02*
X124690000Y-157404000D01*
X126770000Y-157404000D02*
X127383000Y-157404000D01*
X124125000Y-157364000D02*
X124690000Y-157364000D01*
X126770000Y-157364000D02*
X127335000Y-157364000D01*
X124176000Y-157324000D02*
X124690000Y-157324000D01*
X126770000Y-157324000D02*
X127284000Y-157324000D01*
X124230000Y-157284000D02*
X124690000Y-157284000D01*
X126770000Y-157284000D02*
X127230000Y-157284000D01*
X124287000Y-157244000D02*
X124690000Y-157244000D01*
X126770000Y-157244000D02*
X127173000Y-157244000D01*
X124347000Y-157204000D02*
X124690000Y-157204000D01*
X126770000Y-157204000D02*
X127113000Y-157204000D01*
X124411000Y-157164000D02*
X124690000Y-157164000D01*
X126770000Y-157164000D02*
X127049000Y-157164000D01*
X124479000Y-157124000D02*
X124690000Y-157124000D01*
X126770000Y-157124000D02*
X126981000Y-157124000D01*
X124552000Y-157084000D02*
X126908000Y-157084000D01*
X124632000Y-157044000D02*
X126828000Y-157044000D01*
X124719000Y-157004000D02*
X126741000Y-157004000D01*
X124815000Y-156964000D02*
X126645000Y-156964000D01*
X124925000Y-156924000D02*
X126535000Y-156924000D01*
X125053000Y-156884000D02*
X126407000Y-156884000D01*
X125212000Y-156844000D02*
X126248000Y-156844000D01*
X125446000Y-156804000D02*
X126014000Y-156804000D01*
X124255000Y-162209775D02*
X124255000Y-161709775D01*
X124005000Y-161959775D02*
X124505000Y-161959775D01*
%TO.C,D1*%
X83640000Y-213160000D02*
X83640000Y-216100000D01*
X83640000Y-216100000D02*
X89080000Y-216100000D01*
X89080000Y-216100000D02*
X89080000Y-213160000D01*
X89080000Y-213160000D02*
X83640000Y-213160000D01*
X82620000Y-214630000D02*
X83640000Y-214630000D01*
X90100000Y-214630000D02*
X89080000Y-214630000D01*
X84540000Y-213160000D02*
X84540000Y-216100000D01*
X84660000Y-213160000D02*
X84660000Y-216100000D01*
X84420000Y-213160000D02*
X84420000Y-216100000D01*
%TO.C,D2*%
X88300000Y-221180000D02*
X88300000Y-218240000D01*
X88060000Y-221180000D02*
X88060000Y-218240000D01*
X88180000Y-221180000D02*
X88180000Y-218240000D01*
X82620000Y-219710000D02*
X83640000Y-219710000D01*
X90100000Y-219710000D02*
X89080000Y-219710000D01*
X83640000Y-221180000D02*
X89080000Y-221180000D01*
X83640000Y-218240000D02*
X83640000Y-221180000D01*
X89080000Y-218240000D02*
X83640000Y-218240000D01*
X89080000Y-221180000D02*
X89080000Y-218240000D01*
%TO.C,D3*%
X73679200Y-216100000D02*
X73679200Y-213160000D01*
X73679200Y-213160000D02*
X68239200Y-213160000D01*
X68239200Y-213160000D02*
X68239200Y-216100000D01*
X68239200Y-216100000D02*
X73679200Y-216100000D01*
X74699200Y-214630000D02*
X73679200Y-214630000D01*
X67219200Y-214630000D02*
X68239200Y-214630000D01*
X72779200Y-216100000D02*
X72779200Y-213160000D01*
X72659200Y-216100000D02*
X72659200Y-213160000D01*
X72899200Y-216100000D02*
X72899200Y-213160000D01*
%TO.C,D4*%
X73060000Y-221180000D02*
X73060000Y-218240000D01*
X72820000Y-221180000D02*
X72820000Y-218240000D01*
X72940000Y-221180000D02*
X72940000Y-218240000D01*
X67380000Y-219710000D02*
X68400000Y-219710000D01*
X74860000Y-219710000D02*
X73840000Y-219710000D01*
X68400000Y-221180000D02*
X73840000Y-221180000D01*
X68400000Y-218240000D02*
X68400000Y-221180000D01*
X73840000Y-218240000D02*
X68400000Y-218240000D01*
X73840000Y-221180000D02*
X73840000Y-218240000D01*
%TO.C,F1*%
X57150000Y-196850000D02*
X44450000Y-196850000D01*
X57150000Y-201930000D02*
X57150000Y-196850000D01*
X44450000Y-201930000D02*
X57150000Y-201930000D01*
X44450000Y-201930000D02*
X44450000Y-196850000D01*
X54610000Y-199390000D02*
X55880000Y-199390000D01*
X46990000Y-199390000D02*
X45720000Y-199390000D01*
X54610000Y-199390000D02*
X46990000Y-199390000D01*
X53340000Y-198120000D02*
X53340000Y-200660000D01*
X48260000Y-198120000D02*
X53340000Y-198120000D01*
X48260000Y-200660000D02*
X48260000Y-198120000D01*
X53340000Y-200660000D02*
X48260000Y-200660000D01*
D11*
%TO.C,HS1*%
X43260000Y-195070000D02*
X43260000Y-163070000D01*
X46260000Y-186570000D02*
X46260000Y-171570000D01*
X57260000Y-186570000D02*
X57260000Y-195070000D01*
X57260000Y-171570000D02*
X57260000Y-163070000D01*
X46260000Y-171570000D02*
X47260000Y-171570000D01*
X46260000Y-186570000D02*
X47260000Y-186570000D01*
X49260000Y-186570000D02*
X57260000Y-186570000D01*
X49260000Y-171570000D02*
X57260000Y-171570000D01*
X47260000Y-189570000D02*
X47260000Y-195070000D01*
X49260000Y-195070000D02*
X49260000Y-189570000D01*
X47260000Y-168570000D02*
X47260000Y-163070000D01*
X49260000Y-168570000D02*
X49260000Y-163070000D01*
X45010000Y-168570000D02*
X45010000Y-163070000D01*
X55260000Y-168570000D02*
X55260000Y-163070000D01*
X51260000Y-168570000D02*
X51260000Y-163070000D01*
X53260000Y-168570000D02*
X53260000Y-163070000D01*
X55260000Y-189570000D02*
X55260000Y-195070000D01*
X53260000Y-195070000D02*
X53260000Y-189570000D01*
X51260000Y-189570000D02*
X51260000Y-195070000D01*
X45010000Y-189570000D02*
X45010000Y-195070000D01*
X43260000Y-163070000D02*
X45010000Y-163070000D01*
X45010000Y-195070000D02*
X43260000Y-195070000D01*
X45010000Y-189570000D02*
X47260000Y-189570000D01*
X49260000Y-189570000D02*
X51260000Y-189570000D01*
X47260000Y-195070000D02*
X49260000Y-195070000D01*
X51260000Y-195070000D02*
X53260000Y-195070000D01*
X53260000Y-189570000D02*
X55260000Y-189570000D01*
X55260000Y-195070000D02*
X57260000Y-195070000D01*
X53260000Y-168570000D02*
X55260000Y-168570000D01*
X49260000Y-168570000D02*
X51260000Y-168570000D01*
X45010000Y-168570000D02*
X47260000Y-168570000D01*
X47260000Y-163070000D02*
X49260000Y-163070000D01*
X51260000Y-163070000D02*
X53260000Y-163070000D01*
X55260000Y-163070000D02*
X57260000Y-163070000D01*
X44010000Y-180820000D02*
X44510000Y-180820000D01*
X45010000Y-180820000D02*
X45510000Y-180820000D01*
X44010000Y-177320000D02*
X44510000Y-177320000D01*
X45010000Y-177320000D02*
X45510000Y-177320000D01*
X46010000Y-177320000D02*
X46260000Y-177320000D01*
X46010000Y-180820000D02*
X46260000Y-180820000D01*
X43510000Y-180820000D02*
X43260000Y-180820000D01*
X43510000Y-177320000D02*
X43260000Y-177320000D01*
D14*
%TO.C,J1*%
X174400000Y-220980000D02*
G75*
G03*
X174400000Y-220980000I-1680000J0D01*
G01*
X165040000Y-225080000D02*
X175320000Y-225080000D01*
X165040000Y-223580000D02*
X175320000Y-223580000D01*
X165040000Y-218679000D02*
X175320000Y-218679000D01*
X165040000Y-215719000D02*
X175320000Y-215719000D01*
X165040000Y-225640000D02*
X175320000Y-225640000D01*
X165040000Y-215719000D02*
X165040000Y-225640000D01*
X175320000Y-215719000D02*
X175320000Y-225640000D01*
X173995000Y-219911000D02*
X173948000Y-219957000D01*
X171686000Y-222219000D02*
X171651000Y-222254000D01*
X173790000Y-219705000D02*
X173755000Y-219741000D01*
X171493000Y-222003000D02*
X171446000Y-222049000D01*
X164800000Y-225140000D02*
X164800000Y-225880000D01*
X164800000Y-225880000D02*
X165300000Y-225880000D01*
X167668805Y-222660253D02*
G75*
G02*
X166956000Y-222515000I-28805J1680253D01*
G01*
X166104574Y-221663042D02*
G75*
G02*
X166105000Y-220296000I1535426J683042D01*
G01*
X166956958Y-219444574D02*
G75*
G02*
X168324000Y-219445000I683042J-1535426D01*
G01*
X169175426Y-220296958D02*
G75*
G02*
X169175000Y-221664000I-1535426J-683042D01*
G01*
X168323318Y-222514756D02*
G75*
G02*
X167640000Y-222660000I-683318J1534756D01*
G01*
%TO.C,RV1*%
X185064000Y-161161000D02*
X175294000Y-161161000D01*
X185064000Y-156091000D02*
X175294000Y-156091000D01*
X185064000Y-161161000D02*
X185064000Y-156091000D01*
X175294000Y-161161000D02*
X175294000Y-156091000D01*
X186584000Y-158696000D02*
X185065000Y-158696000D01*
X186584000Y-156266000D02*
X185065000Y-156266000D01*
X186584000Y-158696000D02*
X186584000Y-156266000D01*
X185065000Y-158696000D02*
X185065000Y-156266000D01*
X186584000Y-157481000D02*
X185825000Y-157481000D01*
%TO.C,SW1*%
X103560000Y-211400000D02*
X97100000Y-211400000D01*
X103560000Y-215930000D02*
X103560000Y-213330000D01*
X103560000Y-217860000D02*
X97100000Y-217860000D01*
X97100000Y-215930000D02*
X97100000Y-213330000D01*
X103560000Y-217830000D02*
X103560000Y-217860000D01*
X103560000Y-211400000D02*
X103560000Y-211430000D01*
X97100000Y-211400000D02*
X97100000Y-211430000D01*
X97100000Y-217860000D02*
X97100000Y-217830000D01*
%TO.C,U1*%
X48300000Y-184190000D02*
X48300000Y-173950000D01*
X46760000Y-173950000D02*
X51501000Y-173950000D01*
X46760000Y-184190000D02*
X51501000Y-184190000D01*
X51501000Y-184190000D02*
X51501000Y-173950000D01*
X46760000Y-184190000D02*
X46760000Y-173950000D01*
%TO.C,U2*%
X116780000Y-53230000D02*
X116780000Y-58690000D01*
X167700000Y-53230000D02*
X116780000Y-53230000D01*
X167700000Y-66150000D02*
X167700000Y-53230000D01*
X116780000Y-66150000D02*
X167700000Y-66150000D01*
X116780000Y-60690000D02*
X116780000Y-66150000D01*
X116780000Y-58690000D02*
G75*
G02*
X116780000Y-60690000I0J-1000000D01*
G01*
%TO.C,U3*%
X111760000Y-139055000D02*
X113710000Y-139055000D01*
X111760000Y-139055000D02*
X109810000Y-139055000D01*
X111760000Y-130185000D02*
X113710000Y-130185000D01*
X111760000Y-130185000D02*
X108310000Y-130185000D01*
%TO.C,U4*%
X118840000Y-157980000D02*
X118840000Y-158640000D01*
X118840000Y-156320000D02*
X118840000Y-156980000D01*
X118840000Y-156320000D02*
X116810000Y-156320000D01*
X117430000Y-158640000D02*
X118840000Y-158640000D01*
%TO.C,U5*%
X156270000Y-102580000D02*
X156270000Y-101330000D01*
X120590000Y-102580000D02*
X156270000Y-102580000D01*
X120590000Y-98080000D02*
X120590000Y-102580000D01*
X156270000Y-98080000D02*
X120590000Y-98080000D01*
X156270000Y-99330000D02*
X156270000Y-98080000D01*
X156270000Y-101330000D02*
G75*
G02*
X156270000Y-99330000I0J1000000D01*
G01*
%TO.C,U6*%
X96520000Y-121275000D02*
X98470000Y-121275000D01*
X96520000Y-121275000D02*
X94570000Y-121275000D01*
X96520000Y-112405000D02*
X98470000Y-112405000D01*
X96520000Y-112405000D02*
X93070000Y-112405000D01*
%TO.C,U7*%
X163890000Y-118380000D02*
X163890000Y-116730000D01*
X163890000Y-116730000D02*
X128210000Y-116730000D01*
X128210000Y-116730000D02*
X128210000Y-122030000D01*
X128210000Y-122030000D02*
X163890000Y-122030000D01*
X163890000Y-122030000D02*
X163890000Y-120380000D01*
X163890000Y-120380000D02*
G75*
G02*
X163890000Y-118380000I0J1000000D01*
G01*
%TO.C,U8*%
X125670000Y-144510000D02*
X125670000Y-149970000D01*
X125670000Y-149970000D02*
X176590000Y-149970000D01*
X176590000Y-149970000D02*
X176590000Y-137050000D01*
X176590000Y-137050000D02*
X125670000Y-137050000D01*
X125670000Y-137050000D02*
X125670000Y-142510000D01*
X125670000Y-142510000D02*
G75*
G02*
X125670000Y-144510000I0J-1000000D01*
G01*
%TO.C,U10*%
X115570000Y-121275000D02*
X119020000Y-121275000D01*
X115570000Y-121275000D02*
X113620000Y-121275000D01*
X115570000Y-112405000D02*
X117520000Y-112405000D01*
X115570000Y-112405000D02*
X113620000Y-112405000D01*
%TO.C,U11*%
X50865000Y-144155000D02*
X47415000Y-144155000D01*
X50865000Y-144155000D02*
X52815000Y-144155000D01*
X50865000Y-153025000D02*
X48915000Y-153025000D01*
X50865000Y-153025000D02*
X52815000Y-153025000D01*
%TO.C,U13*%
X101470000Y-105590000D02*
X107470000Y-105590000D01*
X99470000Y-92530000D02*
X104470000Y-92530000D01*
%TO.C,U14*%
X101140000Y-70030000D02*
X107140000Y-70030000D01*
X99140000Y-56970000D02*
X104140000Y-56970000D01*
D11*
%TO.C,U28*%
X48550000Y-61145000D02*
X53050000Y-61145000D01*
X47425000Y-55595000D02*
X53050000Y-55595000D01*
%TO.C,U29*%
X46155000Y-67025000D02*
X51780000Y-67025000D01*
X47280000Y-72575000D02*
X51780000Y-72575000D01*
%TO.C,U30*%
X46155000Y-82265000D02*
X51780000Y-82265000D01*
X47280000Y-87815000D02*
X51780000Y-87815000D01*
D14*
%TO.C,U18*%
X50800000Y-109865000D02*
X47350000Y-109865000D01*
X50800000Y-109865000D02*
X52750000Y-109865000D01*
X50800000Y-118735000D02*
X48850000Y-118735000D01*
X50800000Y-118735000D02*
X52750000Y-118735000D01*
%TO.C,U33*%
X73660000Y-85715000D02*
X75610000Y-85715000D01*
X73660000Y-85715000D02*
X71710000Y-85715000D01*
X73660000Y-76845000D02*
X75610000Y-76845000D01*
X73660000Y-76845000D02*
X70210000Y-76845000D01*
%TO.C,U34*%
X49530000Y-103495000D02*
X51480000Y-103495000D01*
X49530000Y-103495000D02*
X47580000Y-103495000D01*
X49530000Y-94625000D02*
X51480000Y-94625000D01*
X49530000Y-94625000D02*
X46080000Y-94625000D01*
%TO.C,U35*%
X86360000Y-64145000D02*
X82910000Y-64145000D01*
X86360000Y-64145000D02*
X88310000Y-64145000D01*
X86360000Y-73015000D02*
X84410000Y-73015000D01*
X86360000Y-73015000D02*
X88310000Y-73015000D01*
%TO.C,U36*%
X86425000Y-94625000D02*
X82975000Y-94625000D01*
X86425000Y-94625000D02*
X88375000Y-94625000D01*
X86425000Y-103495000D02*
X84475000Y-103495000D01*
X86425000Y-103495000D02*
X88375000Y-103495000D01*
%TO.C,U37*%
X73660000Y-64145000D02*
X71710000Y-64145000D01*
X73660000Y-64145000D02*
X75610000Y-64145000D01*
X73660000Y-73015000D02*
X71710000Y-73015000D01*
X73660000Y-73015000D02*
X77110000Y-73015000D01*
%TO.C,U38*%
X86360000Y-85715000D02*
X88310000Y-85715000D01*
X86360000Y-85715000D02*
X84410000Y-85715000D01*
X86360000Y-76845000D02*
X88310000Y-76845000D01*
X86360000Y-76845000D02*
X82910000Y-76845000D01*
%TO.C,U39*%
X60960000Y-64145000D02*
X57510000Y-64145000D01*
X60960000Y-64145000D02*
X62910000Y-64145000D01*
X60960000Y-73015000D02*
X59010000Y-73015000D01*
X60960000Y-73015000D02*
X62910000Y-73015000D01*
%TO.C,U40*%
X101665000Y-76845000D02*
X98215000Y-76845000D01*
X101665000Y-76845000D02*
X103615000Y-76845000D01*
X101665000Y-85715000D02*
X99715000Y-85715000D01*
X101665000Y-85715000D02*
X103615000Y-85715000D01*
D11*
%TO.C,U15*%
X78795000Y-120190000D02*
X83295000Y-120190000D01*
X77670000Y-114640000D02*
X83295000Y-114640000D01*
%TO.C,U16*%
X77905000Y-106395000D02*
X83530000Y-106395000D01*
X79030000Y-111945000D02*
X83530000Y-111945000D01*
%TO.C,U17*%
X53050000Y-156670000D02*
X48550000Y-156670000D01*
X54175000Y-162220000D02*
X48550000Y-162220000D01*
D14*
%TO.C,U21*%
X50800000Y-136515000D02*
X52750000Y-136515000D01*
X50800000Y-136515000D02*
X48850000Y-136515000D01*
X50800000Y-127645000D02*
X52750000Y-127645000D01*
X50800000Y-127645000D02*
X47350000Y-127645000D01*
%TO.C,U22*%
X66105000Y-128915000D02*
X62655000Y-128915000D01*
X66105000Y-128915000D02*
X68055000Y-128915000D01*
X66105000Y-137785000D02*
X64155000Y-137785000D01*
X66105000Y-137785000D02*
X68055000Y-137785000D01*
%TO.C,U23*%
X66105000Y-154295000D02*
X68055000Y-154295000D01*
X66105000Y-154295000D02*
X64155000Y-154295000D01*
X66105000Y-145425000D02*
X68055000Y-145425000D01*
X66105000Y-145425000D02*
X62655000Y-145425000D01*
%TO.C,U24*%
X96585000Y-137785000D02*
X98535000Y-137785000D01*
X96585000Y-137785000D02*
X94635000Y-137785000D01*
X96585000Y-128915000D02*
X98535000Y-128915000D01*
X96585000Y-128915000D02*
X93135000Y-128915000D01*
%TO.C,U25*%
X96455000Y-151755000D02*
X98405000Y-151755000D01*
X96455000Y-151755000D02*
X94505000Y-151755000D01*
X96455000Y-142885000D02*
X98405000Y-142885000D01*
X96455000Y-142885000D02*
X93005000Y-142885000D01*
%TO.C,U26*%
X81280000Y-135245000D02*
X84730000Y-135245000D01*
X81280000Y-135245000D02*
X79330000Y-135245000D01*
X81280000Y-126375000D02*
X83230000Y-126375000D01*
X81280000Y-126375000D02*
X79330000Y-126375000D01*
%TO.C,U27*%
X81280000Y-151755000D02*
X83230000Y-151755000D01*
X81280000Y-151755000D02*
X79330000Y-151755000D01*
X81280000Y-142885000D02*
X83230000Y-142885000D01*
X81280000Y-142885000D02*
X77830000Y-142885000D01*
%TO.C,X1*%
X57260000Y-53930000D02*
X57260000Y-55340000D01*
X59580000Y-55340000D02*
X59580000Y-53310000D01*
X59580000Y-55340000D02*
X58920000Y-55340000D01*
X57920000Y-55340000D02*
X57260000Y-55340000D01*
%TO.C,J2*%
X178630000Y-120650000D02*
X178630000Y-121030000D01*
X182680000Y-120650000D02*
X182940000Y-120650000D01*
X178630000Y-120650000D02*
X180400000Y-120650000D01*
X178630000Y-128270000D02*
X178630000Y-127890000D01*
X180400000Y-128270000D02*
X178630000Y-128270000D01*
X182940000Y-128270000D02*
X182680000Y-128270000D01*
%TO.C,J3*%
X184240000Y-117730000D02*
X184240000Y-108330000D01*
X178440000Y-108330000D02*
X180440000Y-108330000D01*
X182340000Y-108330000D02*
X184240000Y-108330000D01*
X178440000Y-117730000D02*
X180440000Y-117730000D01*
X182340000Y-117730000D02*
X184240000Y-117730000D01*
%TO.C,J4*%
X164700000Y-93390000D02*
X163945000Y-93390000D01*
X167870000Y-103935000D02*
X168920000Y-103935000D01*
X167870000Y-91645000D02*
X168920000Y-91645000D01*
X164700000Y-93390000D02*
X164700000Y-102190000D01*
%TO.C,U19*%
X61025000Y-94625000D02*
X57575000Y-94625000D01*
X61025000Y-94625000D02*
X62975000Y-94625000D01*
X61025000Y-103495000D02*
X59075000Y-103495000D01*
X61025000Y-103495000D02*
X62975000Y-103495000D01*
%TO.C,U31*%
X61025000Y-84445000D02*
X62975000Y-84445000D01*
X61025000Y-84445000D02*
X59075000Y-84445000D01*
X61025000Y-75575000D02*
X62975000Y-75575000D01*
X61025000Y-75575000D02*
X57575000Y-75575000D01*
%TO.C,U32*%
X73660000Y-94625000D02*
X70210000Y-94625000D01*
X73660000Y-94625000D02*
X75610000Y-94625000D01*
X73660000Y-103495000D02*
X71710000Y-103495000D01*
X73660000Y-103495000D02*
X75610000Y-103495000D01*
%TO.C,T1*%
D11*
X50673095Y-204557380D02*
X51244523Y-204557380D01*
X50958809Y-205557380D02*
X50958809Y-204557380D01*
X52101666Y-205557380D02*
X51530238Y-205557380D01*
X51815952Y-205557380D02*
X51815952Y-204557380D01*
X51720714Y-204700238D01*
X51625476Y-204795476D01*
X51530238Y-204843095D01*
%TO.C,J5*%
X173222380Y-71438333D02*
X173936666Y-71438333D01*
X174079523Y-71485952D01*
X174174761Y-71581190D01*
X174222380Y-71724047D01*
X174222380Y-71819285D01*
X173222380Y-70485952D02*
X173222380Y-70962142D01*
X173698571Y-71009761D01*
X173650952Y-70962142D01*
X173603333Y-70866904D01*
X173603333Y-70628809D01*
X173650952Y-70533571D01*
X173698571Y-70485952D01*
X173793809Y-70438333D01*
X174031904Y-70438333D01*
X174127142Y-70485952D01*
X174174761Y-70533571D01*
X174222380Y-70628809D01*
X174222380Y-70866904D01*
X174174761Y-70962142D01*
X174127142Y-71009761D01*
%TO.C,R6*%
X88082380Y-58586666D02*
X87606190Y-58920000D01*
X88082380Y-59158095D02*
X87082380Y-59158095D01*
X87082380Y-58777142D01*
X87130000Y-58681904D01*
X87177619Y-58634285D01*
X87272857Y-58586666D01*
X87415714Y-58586666D01*
X87510952Y-58634285D01*
X87558571Y-58681904D01*
X87606190Y-58777142D01*
X87606190Y-59158095D01*
X87082380Y-57729523D02*
X87082380Y-57920000D01*
X87130000Y-58015238D01*
X87177619Y-58062857D01*
X87320476Y-58158095D01*
X87510952Y-58205714D01*
X87891904Y-58205714D01*
X87987142Y-58158095D01*
X88034761Y-58110476D01*
X88082380Y-58015238D01*
X88082380Y-57824761D01*
X88034761Y-57729523D01*
X87987142Y-57681904D01*
X87891904Y-57634285D01*
X87653809Y-57634285D01*
X87558571Y-57681904D01*
X87510952Y-57729523D01*
X87463333Y-57824761D01*
X87463333Y-58015238D01*
X87510952Y-58110476D01*
X87558571Y-58158095D01*
X87653809Y-58205714D01*
%TO.C,R1*%
X123482380Y-147486666D02*
X123006190Y-147820000D01*
X123482380Y-148058095D02*
X122482380Y-148058095D01*
X122482380Y-147677142D01*
X122530000Y-147581904D01*
X122577619Y-147534285D01*
X122672857Y-147486666D01*
X122815714Y-147486666D01*
X122910952Y-147534285D01*
X122958571Y-147581904D01*
X123006190Y-147677142D01*
X123006190Y-148058095D01*
X123482380Y-146534285D02*
X123482380Y-147105714D01*
X123482380Y-146820000D02*
X122482380Y-146820000D01*
X122625238Y-146915238D01*
X122720476Y-147010476D01*
X122768095Y-147105714D01*
%TO.C,R2*%
X123482380Y-139041666D02*
X123006190Y-139375000D01*
X123482380Y-139613095D02*
X122482380Y-139613095D01*
X122482380Y-139232142D01*
X122530000Y-139136904D01*
X122577619Y-139089285D01*
X122672857Y-139041666D01*
X122815714Y-139041666D01*
X122910952Y-139089285D01*
X122958571Y-139136904D01*
X123006190Y-139232142D01*
X123006190Y-139613095D01*
X122577619Y-138660714D02*
X122530000Y-138613095D01*
X122482380Y-138517857D01*
X122482380Y-138279761D01*
X122530000Y-138184523D01*
X122577619Y-138136904D01*
X122672857Y-138089285D01*
X122768095Y-138089285D01*
X122910952Y-138136904D01*
X123482380Y-138708333D01*
X123482380Y-138089285D01*
%TO.C,R3*%
X181902380Y-133516666D02*
X181426190Y-133850000D01*
X181902380Y-134088095D02*
X180902380Y-134088095D01*
X180902380Y-133707142D01*
X180950000Y-133611904D01*
X180997619Y-133564285D01*
X181092857Y-133516666D01*
X181235714Y-133516666D01*
X181330952Y-133564285D01*
X181378571Y-133611904D01*
X181426190Y-133707142D01*
X181426190Y-134088095D01*
X180902380Y-133183333D02*
X180902380Y-132564285D01*
X181283333Y-132897619D01*
X181283333Y-132754761D01*
X181330952Y-132659523D01*
X181378571Y-132611904D01*
X181473809Y-132564285D01*
X181711904Y-132564285D01*
X181807142Y-132611904D01*
X181854761Y-132659523D01*
X181902380Y-132754761D01*
X181902380Y-133040476D01*
X181854761Y-133135714D01*
X181807142Y-133183333D01*
%TO.C,R12*%
X94272380Y-52712857D02*
X93796190Y-53046190D01*
X94272380Y-53284285D02*
X93272380Y-53284285D01*
X93272380Y-52903333D01*
X93320000Y-52808095D01*
X93367619Y-52760476D01*
X93462857Y-52712857D01*
X93605714Y-52712857D01*
X93700952Y-52760476D01*
X93748571Y-52808095D01*
X93796190Y-52903333D01*
X93796190Y-53284285D01*
X94272380Y-51760476D02*
X94272380Y-52331904D01*
X94272380Y-52046190D02*
X93272380Y-52046190D01*
X93415238Y-52141428D01*
X93510476Y-52236666D01*
X93558095Y-52331904D01*
X93367619Y-51379523D02*
X93320000Y-51331904D01*
X93272380Y-51236666D01*
X93272380Y-50998571D01*
X93320000Y-50903333D01*
X93367619Y-50855714D01*
X93462857Y-50808095D01*
X93558095Y-50808095D01*
X93700952Y-50855714D01*
X94272380Y-51427142D01*
X94272380Y-50808095D01*
%TO.C,R5*%
X165392380Y-108561666D02*
X164916190Y-108895000D01*
X165392380Y-109133095D02*
X164392380Y-109133095D01*
X164392380Y-108752142D01*
X164440000Y-108656904D01*
X164487619Y-108609285D01*
X164582857Y-108561666D01*
X164725714Y-108561666D01*
X164820952Y-108609285D01*
X164868571Y-108656904D01*
X164916190Y-108752142D01*
X164916190Y-109133095D01*
X164392380Y-107656904D02*
X164392380Y-108133095D01*
X164868571Y-108180714D01*
X164820952Y-108133095D01*
X164773333Y-108037857D01*
X164773333Y-107799761D01*
X164820952Y-107704523D01*
X164868571Y-107656904D01*
X164963809Y-107609285D01*
X165201904Y-107609285D01*
X165297142Y-107656904D01*
X165344761Y-107704523D01*
X165392380Y-107799761D01*
X165392380Y-108037857D01*
X165344761Y-108133095D01*
X165297142Y-108180714D01*
%TO.C,R7*%
X84112380Y-53506666D02*
X83636190Y-53840000D01*
X84112380Y-54078095D02*
X83112380Y-54078095D01*
X83112380Y-53697142D01*
X83160000Y-53601904D01*
X83207619Y-53554285D01*
X83302857Y-53506666D01*
X83445714Y-53506666D01*
X83540952Y-53554285D01*
X83588571Y-53601904D01*
X83636190Y-53697142D01*
X83636190Y-54078095D01*
X83112380Y-53173333D02*
X83112380Y-52506666D01*
X84112380Y-52935238D01*
%TO.C,R8*%
X103527619Y-51903333D02*
X104003809Y-51570000D01*
X103527619Y-51331904D02*
X104527619Y-51331904D01*
X104527619Y-51712857D01*
X104480000Y-51808095D01*
X104432380Y-51855714D01*
X104337142Y-51903333D01*
X104194285Y-51903333D01*
X104099047Y-51855714D01*
X104051428Y-51808095D01*
X104003809Y-51712857D01*
X104003809Y-51331904D01*
X104099047Y-52474761D02*
X104146666Y-52379523D01*
X104194285Y-52331904D01*
X104289523Y-52284285D01*
X104337142Y-52284285D01*
X104432380Y-52331904D01*
X104480000Y-52379523D01*
X104527619Y-52474761D01*
X104527619Y-52665238D01*
X104480000Y-52760476D01*
X104432380Y-52808095D01*
X104337142Y-52855714D01*
X104289523Y-52855714D01*
X104194285Y-52808095D01*
X104146666Y-52760476D01*
X104099047Y-52665238D01*
X104099047Y-52474761D01*
X104051428Y-52379523D01*
X104003809Y-52331904D01*
X103908571Y-52284285D01*
X103718095Y-52284285D01*
X103622857Y-52331904D01*
X103575238Y-52379523D01*
X103527619Y-52474761D01*
X103527619Y-52665238D01*
X103575238Y-52760476D01*
X103622857Y-52808095D01*
X103718095Y-52855714D01*
X103908571Y-52855714D01*
X104003809Y-52808095D01*
X104051428Y-52760476D01*
X104099047Y-52665238D01*
%TO.C,R9*%
X100987619Y-51903333D02*
X101463809Y-51570000D01*
X100987619Y-51331904D02*
X101987619Y-51331904D01*
X101987619Y-51712857D01*
X101940000Y-51808095D01*
X101892380Y-51855714D01*
X101797142Y-51903333D01*
X101654285Y-51903333D01*
X101559047Y-51855714D01*
X101511428Y-51808095D01*
X101463809Y-51712857D01*
X101463809Y-51331904D01*
X100987619Y-52379523D02*
X100987619Y-52570000D01*
X101035238Y-52665238D01*
X101082857Y-52712857D01*
X101225714Y-52808095D01*
X101416190Y-52855714D01*
X101797142Y-52855714D01*
X101892380Y-52808095D01*
X101940000Y-52760476D01*
X101987619Y-52665238D01*
X101987619Y-52474761D01*
X101940000Y-52379523D01*
X101892380Y-52331904D01*
X101797142Y-52284285D01*
X101559047Y-52284285D01*
X101463809Y-52331904D01*
X101416190Y-52379523D01*
X101368571Y-52474761D01*
X101368571Y-52665238D01*
X101416190Y-52760476D01*
X101463809Y-52808095D01*
X101559047Y-52855714D01*
%TO.C,R10*%
X99352380Y-52712857D02*
X98876190Y-53046190D01*
X99352380Y-53284285D02*
X98352380Y-53284285D01*
X98352380Y-52903333D01*
X98400000Y-52808095D01*
X98447619Y-52760476D01*
X98542857Y-52712857D01*
X98685714Y-52712857D01*
X98780952Y-52760476D01*
X98828571Y-52808095D01*
X98876190Y-52903333D01*
X98876190Y-53284285D01*
X99352380Y-51760476D02*
X99352380Y-52331904D01*
X99352380Y-52046190D02*
X98352380Y-52046190D01*
X98495238Y-52141428D01*
X98590476Y-52236666D01*
X98638095Y-52331904D01*
X98352380Y-51141428D02*
X98352380Y-51046190D01*
X98400000Y-50950952D01*
X98447619Y-50903333D01*
X98542857Y-50855714D01*
X98733333Y-50808095D01*
X98971428Y-50808095D01*
X99161904Y-50855714D01*
X99257142Y-50903333D01*
X99304761Y-50950952D01*
X99352380Y-51046190D01*
X99352380Y-51141428D01*
X99304761Y-51236666D01*
X99257142Y-51284285D01*
X99161904Y-51331904D01*
X98971428Y-51379523D01*
X98733333Y-51379523D01*
X98542857Y-51331904D01*
X98447619Y-51284285D01*
X98400000Y-51236666D01*
X98352380Y-51141428D01*
%TO.C,R11*%
X96812380Y-52712857D02*
X96336190Y-53046190D01*
X96812380Y-53284285D02*
X95812380Y-53284285D01*
X95812380Y-52903333D01*
X95860000Y-52808095D01*
X95907619Y-52760476D01*
X96002857Y-52712857D01*
X96145714Y-52712857D01*
X96240952Y-52760476D01*
X96288571Y-52808095D01*
X96336190Y-52903333D01*
X96336190Y-53284285D01*
X96812380Y-51760476D02*
X96812380Y-52331904D01*
X96812380Y-52046190D02*
X95812380Y-52046190D01*
X95955238Y-52141428D01*
X96050476Y-52236666D01*
X96098095Y-52331904D01*
X96812380Y-50808095D02*
X96812380Y-51379523D01*
X96812380Y-51093809D02*
X95812380Y-51093809D01*
X95955238Y-51189047D01*
X96050476Y-51284285D01*
X96098095Y-51379523D01*
%TO.C,U20*%
X64801904Y-111012380D02*
X64801904Y-111821904D01*
X64849523Y-111917142D01*
X64897142Y-111964761D01*
X64992380Y-112012380D01*
X65182857Y-112012380D01*
X65278095Y-111964761D01*
X65325714Y-111917142D01*
X65373333Y-111821904D01*
X65373333Y-111012380D01*
X65801904Y-111107619D02*
X65849523Y-111060000D01*
X65944761Y-111012380D01*
X66182857Y-111012380D01*
X66278095Y-111060000D01*
X66325714Y-111107619D01*
X66373333Y-111202857D01*
X66373333Y-111298095D01*
X66325714Y-111440952D01*
X65754285Y-112012380D01*
X66373333Y-112012380D01*
X66992380Y-111012380D02*
X67087619Y-111012380D01*
X67182857Y-111060000D01*
X67230476Y-111107619D01*
X67278095Y-111202857D01*
X67325714Y-111393333D01*
X67325714Y-111631428D01*
X67278095Y-111821904D01*
X67230476Y-111917142D01*
X67182857Y-111964761D01*
X67087619Y-112012380D01*
X66992380Y-112012380D01*
X66897142Y-111964761D01*
X66849523Y-111917142D01*
X66801904Y-111821904D01*
X66754285Y-111631428D01*
X66754285Y-111393333D01*
X66801904Y-111202857D01*
X66849523Y-111107619D01*
X66897142Y-111060000D01*
X66992380Y-111012380D01*
%TO.C,U12*%
X111911904Y-72042380D02*
X111911904Y-72851904D01*
X111959523Y-72947142D01*
X112007142Y-72994761D01*
X112102380Y-73042380D01*
X112292857Y-73042380D01*
X112388095Y-72994761D01*
X112435714Y-72947142D01*
X112483333Y-72851904D01*
X112483333Y-72042380D01*
X113483333Y-73042380D02*
X112911904Y-73042380D01*
X113197619Y-73042380D02*
X113197619Y-72042380D01*
X113102380Y-72185238D01*
X113007142Y-72280476D01*
X112911904Y-72328095D01*
X113864285Y-72137619D02*
X113911904Y-72090000D01*
X114007142Y-72042380D01*
X114245238Y-72042380D01*
X114340476Y-72090000D01*
X114388095Y-72137619D01*
X114435714Y-72232857D01*
X114435714Y-72328095D01*
X114388095Y-72470952D01*
X113816666Y-73042380D01*
X114435714Y-73042380D01*
%TO.C,U9*%
X63847095Y-163483380D02*
X63847095Y-164292904D01*
X63894714Y-164388142D01*
X63942333Y-164435761D01*
X64037571Y-164483380D01*
X64228047Y-164483380D01*
X64323285Y-164435761D01*
X64370904Y-164388142D01*
X64418523Y-164292904D01*
X64418523Y-163483380D01*
X64942333Y-164483380D02*
X65132809Y-164483380D01*
X65228047Y-164435761D01*
X65275666Y-164388142D01*
X65370904Y-164245285D01*
X65418523Y-164054809D01*
X65418523Y-163673857D01*
X65370904Y-163578619D01*
X65323285Y-163531000D01*
X65228047Y-163483380D01*
X65037571Y-163483380D01*
X64942333Y-163531000D01*
X64894714Y-163578619D01*
X64847095Y-163673857D01*
X64847095Y-163911952D01*
X64894714Y-164007190D01*
X64942333Y-164054809D01*
X65037571Y-164102428D01*
X65228047Y-164102428D01*
X65323285Y-164054809D01*
X65370904Y-164007190D01*
X65418523Y-163911952D01*
%TO.C,C1*%
X101367142Y-157666666D02*
X101414761Y-157714285D01*
X101462380Y-157857142D01*
X101462380Y-157952380D01*
X101414761Y-158095238D01*
X101319523Y-158190476D01*
X101224285Y-158238095D01*
X101033809Y-158285714D01*
X100890952Y-158285714D01*
X100700476Y-158238095D01*
X100605238Y-158190476D01*
X100510000Y-158095238D01*
X100462380Y-157952380D01*
X100462380Y-157857142D01*
X100510000Y-157714285D01*
X100557619Y-157666666D01*
X101462380Y-156714285D02*
X101462380Y-157285714D01*
X101462380Y-157000000D02*
X100462380Y-157000000D01*
X100605238Y-157095238D01*
X100700476Y-157190476D01*
X100748095Y-157285714D01*
%TO.C,C2*%
X164127142Y-213506666D02*
X164174761Y-213554285D01*
X164222380Y-213697142D01*
X164222380Y-213792380D01*
X164174761Y-213935238D01*
X164079523Y-214030476D01*
X163984285Y-214078095D01*
X163793809Y-214125714D01*
X163650952Y-214125714D01*
X163460476Y-214078095D01*
X163365238Y-214030476D01*
X163270000Y-213935238D01*
X163222380Y-213792380D01*
X163222380Y-213697142D01*
X163270000Y-213554285D01*
X163317619Y-213506666D01*
X163317619Y-213125714D02*
X163270000Y-213078095D01*
X163222380Y-212982857D01*
X163222380Y-212744761D01*
X163270000Y-212649523D01*
X163317619Y-212601904D01*
X163412857Y-212554285D01*
X163508095Y-212554285D01*
X163650952Y-212601904D01*
X164222380Y-213173333D01*
X164222380Y-212554285D01*
%TO.C,C3*%
X76013333Y-157897142D02*
X75965714Y-157944761D01*
X75822857Y-157992380D01*
X75727619Y-157992380D01*
X75584761Y-157944761D01*
X75489523Y-157849523D01*
X75441904Y-157754285D01*
X75394285Y-157563809D01*
X75394285Y-157420952D01*
X75441904Y-157230476D01*
X75489523Y-157135238D01*
X75584761Y-157040000D01*
X75727619Y-156992380D01*
X75822857Y-156992380D01*
X75965714Y-157040000D01*
X76013333Y-157087619D01*
X76346666Y-156992380D02*
X76965714Y-156992380D01*
X76632380Y-157373333D01*
X76775238Y-157373333D01*
X76870476Y-157420952D01*
X76918095Y-157468571D01*
X76965714Y-157563809D01*
X76965714Y-157801904D01*
X76918095Y-157897142D01*
X76870476Y-157944761D01*
X76775238Y-157992380D01*
X76489523Y-157992380D01*
X76394285Y-157944761D01*
X76346666Y-157897142D01*
%TO.C,C4*%
X128687142Y-159571666D02*
X128734761Y-159619285D01*
X128782380Y-159762142D01*
X128782380Y-159857380D01*
X128734761Y-160000238D01*
X128639523Y-160095476D01*
X128544285Y-160143095D01*
X128353809Y-160190714D01*
X128210952Y-160190714D01*
X128020476Y-160143095D01*
X127925238Y-160095476D01*
X127830000Y-160000238D01*
X127782380Y-159857380D01*
X127782380Y-159762142D01*
X127830000Y-159619285D01*
X127877619Y-159571666D01*
X128115714Y-158714523D02*
X128782380Y-158714523D01*
X127734761Y-158952619D02*
X128449047Y-159190714D01*
X128449047Y-158571666D01*
%TO.C,C5*%
X93007142Y-161436666D02*
X93054761Y-161484285D01*
X93102380Y-161627142D01*
X93102380Y-161722380D01*
X93054761Y-161865238D01*
X92959523Y-161960476D01*
X92864285Y-162008095D01*
X92673809Y-162055714D01*
X92530952Y-162055714D01*
X92340476Y-162008095D01*
X92245238Y-161960476D01*
X92150000Y-161865238D01*
X92102380Y-161722380D01*
X92102380Y-161627142D01*
X92150000Y-161484285D01*
X92197619Y-161436666D01*
X92102380Y-160531904D02*
X92102380Y-161008095D01*
X92578571Y-161055714D01*
X92530952Y-161008095D01*
X92483333Y-160912857D01*
X92483333Y-160674761D01*
X92530952Y-160579523D01*
X92578571Y-160531904D01*
X92673809Y-160484285D01*
X92911904Y-160484285D01*
X93007142Y-160531904D01*
X93054761Y-160579523D01*
X93102380Y-160674761D01*
X93102380Y-160912857D01*
X93054761Y-161008095D01*
X93007142Y-161055714D01*
%TO.C,C6*%
X136307142Y-159571666D02*
X136354761Y-159619285D01*
X136402380Y-159762142D01*
X136402380Y-159857380D01*
X136354761Y-160000238D01*
X136259523Y-160095476D01*
X136164285Y-160143095D01*
X135973809Y-160190714D01*
X135830952Y-160190714D01*
X135640476Y-160143095D01*
X135545238Y-160095476D01*
X135450000Y-160000238D01*
X135402380Y-159857380D01*
X135402380Y-159762142D01*
X135450000Y-159619285D01*
X135497619Y-159571666D01*
X135402380Y-158714523D02*
X135402380Y-158905000D01*
X135450000Y-159000238D01*
X135497619Y-159047857D01*
X135640476Y-159143095D01*
X135830952Y-159190714D01*
X136211904Y-159190714D01*
X136307142Y-159143095D01*
X136354761Y-159095476D01*
X136402380Y-159000238D01*
X136402380Y-158809761D01*
X136354761Y-158714523D01*
X136307142Y-158666904D01*
X136211904Y-158619285D01*
X135973809Y-158619285D01*
X135878571Y-158666904D01*
X135830952Y-158714523D01*
X135783333Y-158809761D01*
X135783333Y-159000238D01*
X135830952Y-159095476D01*
X135878571Y-159143095D01*
X135973809Y-159190714D01*
%TO.C,C7*%
X122337142Y-159571666D02*
X122384761Y-159619285D01*
X122432380Y-159762142D01*
X122432380Y-159857380D01*
X122384761Y-160000238D01*
X122289523Y-160095476D01*
X122194285Y-160143095D01*
X122003809Y-160190714D01*
X121860952Y-160190714D01*
X121670476Y-160143095D01*
X121575238Y-160095476D01*
X121480000Y-160000238D01*
X121432380Y-159857380D01*
X121432380Y-159762142D01*
X121480000Y-159619285D01*
X121527619Y-159571666D01*
X121432380Y-159238333D02*
X121432380Y-158571666D01*
X122432380Y-159000238D01*
%TO.C,D1*%
X85621904Y-212612380D02*
X85621904Y-211612380D01*
X85860000Y-211612380D01*
X86002857Y-211660000D01*
X86098095Y-211755238D01*
X86145714Y-211850476D01*
X86193333Y-212040952D01*
X86193333Y-212183809D01*
X86145714Y-212374285D01*
X86098095Y-212469523D01*
X86002857Y-212564761D01*
X85860000Y-212612380D01*
X85621904Y-212612380D01*
X87145714Y-212612380D02*
X86574285Y-212612380D01*
X86860000Y-212612380D02*
X86860000Y-211612380D01*
X86764761Y-211755238D01*
X86669523Y-211850476D01*
X86574285Y-211898095D01*
X81018095Y-212982380D02*
X81018095Y-211982380D01*
X81589523Y-212982380D02*
X81160952Y-212410952D01*
X81589523Y-211982380D02*
X81018095Y-212553809D01*
%TO.C,D2*%
X85621904Y-222632380D02*
X85621904Y-221632380D01*
X85860000Y-221632380D01*
X86002857Y-221680000D01*
X86098095Y-221775238D01*
X86145714Y-221870476D01*
X86193333Y-222060952D01*
X86193333Y-222203809D01*
X86145714Y-222394285D01*
X86098095Y-222489523D01*
X86002857Y-222584761D01*
X85860000Y-222632380D01*
X85621904Y-222632380D01*
X86574285Y-221727619D02*
X86621904Y-221680000D01*
X86717142Y-221632380D01*
X86955238Y-221632380D01*
X87050476Y-221680000D01*
X87098095Y-221727619D01*
X87145714Y-221822857D01*
X87145714Y-221918095D01*
X87098095Y-222060952D01*
X86526666Y-222632380D01*
X87145714Y-222632380D01*
X91178095Y-222262380D02*
X91178095Y-221262380D01*
X91749523Y-222262380D02*
X91320952Y-221690952D01*
X91749523Y-221262380D02*
X91178095Y-221833809D01*
%TO.C,D3*%
X70221104Y-217552380D02*
X70221104Y-216552380D01*
X70459200Y-216552380D01*
X70602057Y-216600000D01*
X70697295Y-216695238D01*
X70744914Y-216790476D01*
X70792533Y-216980952D01*
X70792533Y-217123809D01*
X70744914Y-217314285D01*
X70697295Y-217409523D01*
X70602057Y-217504761D01*
X70459200Y-217552380D01*
X70221104Y-217552380D01*
X71125866Y-216552380D02*
X71744914Y-216552380D01*
X71411580Y-216933333D01*
X71554438Y-216933333D01*
X71649676Y-216980952D01*
X71697295Y-217028571D01*
X71744914Y-217123809D01*
X71744914Y-217361904D01*
X71697295Y-217457142D01*
X71649676Y-217504761D01*
X71554438Y-217552380D01*
X71268723Y-217552380D01*
X71173485Y-217504761D01*
X71125866Y-217457142D01*
X75777295Y-217182380D02*
X75777295Y-216182380D01*
X76348723Y-217182380D02*
X75920152Y-216610952D01*
X76348723Y-216182380D02*
X75777295Y-216753809D01*
%TO.C,D4*%
X70381904Y-222632380D02*
X70381904Y-221632380D01*
X70620000Y-221632380D01*
X70762857Y-221680000D01*
X70858095Y-221775238D01*
X70905714Y-221870476D01*
X70953333Y-222060952D01*
X70953333Y-222203809D01*
X70905714Y-222394285D01*
X70858095Y-222489523D01*
X70762857Y-222584761D01*
X70620000Y-222632380D01*
X70381904Y-222632380D01*
X71810476Y-221965714D02*
X71810476Y-222632380D01*
X71572380Y-221584761D02*
X71334285Y-222299047D01*
X71953333Y-222299047D01*
X75938095Y-222262380D02*
X75938095Y-221262380D01*
X76509523Y-222262380D02*
X76080952Y-221690952D01*
X76509523Y-221262380D02*
X75938095Y-221833809D01*
%TO.C,F1*%
X50466666Y-204108571D02*
X50133333Y-204108571D01*
X50133333Y-204632380D02*
X50133333Y-203632380D01*
X50609523Y-203632380D01*
X51514285Y-204632380D02*
X50942857Y-204632380D01*
X51228571Y-204632380D02*
X51228571Y-203632380D01*
X51133333Y-203775238D01*
X51038095Y-203870476D01*
X50942857Y-203918095D01*
%TO.C,H1*%
X178308095Y-48352380D02*
X178308095Y-47352380D01*
X178308095Y-47828571D02*
X178879523Y-47828571D01*
X178879523Y-48352380D02*
X178879523Y-47352380D01*
X179879523Y-48352380D02*
X179308095Y-48352380D01*
X179593809Y-48352380D02*
X179593809Y-47352380D01*
X179498571Y-47495238D01*
X179403333Y-47590476D01*
X179308095Y-47638095D01*
%TO.C,H2*%
X48768095Y-47082380D02*
X48768095Y-46082380D01*
X48768095Y-46558571D02*
X49339523Y-46558571D01*
X49339523Y-47082380D02*
X49339523Y-46082380D01*
X49768095Y-46177619D02*
X49815714Y-46130000D01*
X49910952Y-46082380D01*
X50149047Y-46082380D01*
X50244285Y-46130000D01*
X50291904Y-46177619D01*
X50339523Y-46272857D01*
X50339523Y-46368095D01*
X50291904Y-46510952D01*
X49720476Y-47082380D01*
X50339523Y-47082380D01*
%TO.C,H3*%
X37338095Y-215992380D02*
X37338095Y-214992380D01*
X37338095Y-215468571D02*
X37909523Y-215468571D01*
X37909523Y-215992380D02*
X37909523Y-214992380D01*
X38290476Y-214992380D02*
X38909523Y-214992380D01*
X38576190Y-215373333D01*
X38719047Y-215373333D01*
X38814285Y-215420952D01*
X38861904Y-215468571D01*
X38909523Y-215563809D01*
X38909523Y-215801904D01*
X38861904Y-215897142D01*
X38814285Y-215944761D01*
X38719047Y-215992380D01*
X38433333Y-215992380D01*
X38338095Y-215944761D01*
X38290476Y-215897142D01*
%TO.C,H4*%
X179578095Y-217262380D02*
X179578095Y-216262380D01*
X179578095Y-216738571D02*
X180149523Y-216738571D01*
X180149523Y-217262380D02*
X180149523Y-216262380D01*
X181054285Y-216595714D02*
X181054285Y-217262380D01*
X180816190Y-216214761D02*
X180578095Y-216929047D01*
X181197142Y-216929047D01*
%TO.C,HS1*%
X42712380Y-180308095D02*
X41712380Y-180308095D01*
X42188571Y-180308095D02*
X42188571Y-179736666D01*
X42712380Y-179736666D02*
X41712380Y-179736666D01*
X42664761Y-179308095D02*
X42712380Y-179165238D01*
X42712380Y-178927142D01*
X42664761Y-178831904D01*
X42617142Y-178784285D01*
X42521904Y-178736666D01*
X42426666Y-178736666D01*
X42331428Y-178784285D01*
X42283809Y-178831904D01*
X42236190Y-178927142D01*
X42188571Y-179117619D01*
X42140952Y-179212857D01*
X42093333Y-179260476D01*
X41998095Y-179308095D01*
X41902857Y-179308095D01*
X41807619Y-179260476D01*
X41760000Y-179212857D01*
X41712380Y-179117619D01*
X41712380Y-178879523D01*
X41760000Y-178736666D01*
X42712380Y-177784285D02*
X42712380Y-178355714D01*
X42712380Y-178070000D02*
X41712380Y-178070000D01*
X41855238Y-178165238D01*
X41950476Y-178260476D01*
X41998095Y-178355714D01*
%TO.C,J1*%
X169846666Y-214172380D02*
X169846666Y-214886666D01*
X169799047Y-215029523D01*
X169703809Y-215124761D01*
X169560952Y-215172380D01*
X169465714Y-215172380D01*
X170846666Y-215172380D02*
X170275238Y-215172380D01*
X170560952Y-215172380D02*
X170560952Y-214172380D01*
X170465714Y-214315238D01*
X170370476Y-214410476D01*
X170275238Y-214458095D01*
%TO.C,RV1*%
X180343761Y-162743380D02*
X180010428Y-162267190D01*
X179772333Y-162743380D02*
X179772333Y-161743380D01*
X180153285Y-161743380D01*
X180248523Y-161791000D01*
X180296142Y-161838619D01*
X180343761Y-161933857D01*
X180343761Y-162076714D01*
X180296142Y-162171952D01*
X180248523Y-162219571D01*
X180153285Y-162267190D01*
X179772333Y-162267190D01*
X180629476Y-161743380D02*
X180962809Y-162743380D01*
X181296142Y-161743380D01*
X182153285Y-162743380D02*
X181581857Y-162743380D01*
X181867571Y-162743380D02*
X181867571Y-161743380D01*
X181772333Y-161886238D01*
X181677095Y-161981476D01*
X181581857Y-162029095D01*
%TO.C,SW1*%
X98996666Y-219084761D02*
X99139523Y-219132380D01*
X99377619Y-219132380D01*
X99472857Y-219084761D01*
X99520476Y-219037142D01*
X99568095Y-218941904D01*
X99568095Y-218846666D01*
X99520476Y-218751428D01*
X99472857Y-218703809D01*
X99377619Y-218656190D01*
X99187142Y-218608571D01*
X99091904Y-218560952D01*
X99044285Y-218513333D01*
X98996666Y-218418095D01*
X98996666Y-218322857D01*
X99044285Y-218227619D01*
X99091904Y-218180000D01*
X99187142Y-218132380D01*
X99425238Y-218132380D01*
X99568095Y-218180000D01*
X99901428Y-218132380D02*
X100139523Y-219132380D01*
X100330000Y-218418095D01*
X100520476Y-219132380D01*
X100758571Y-218132380D01*
X101663333Y-219132380D02*
X101091904Y-219132380D01*
X101377619Y-219132380D02*
X101377619Y-218132380D01*
X101282380Y-218275238D01*
X101187142Y-218370476D01*
X101091904Y-218418095D01*
%TO.C,U1*%
X45212380Y-179831904D02*
X46021904Y-179831904D01*
X46117142Y-179784285D01*
X46164761Y-179736666D01*
X46212380Y-179641428D01*
X46212380Y-179450952D01*
X46164761Y-179355714D01*
X46117142Y-179308095D01*
X46021904Y-179260476D01*
X45212380Y-179260476D01*
X46212380Y-178260476D02*
X46212380Y-178831904D01*
X46212380Y-178546190D02*
X45212380Y-178546190D01*
X45355238Y-178641428D01*
X45450476Y-178736666D01*
X45498095Y-178831904D01*
%TO.C,U2*%
X115232380Y-60451904D02*
X116041904Y-60451904D01*
X116137142Y-60404285D01*
X116184761Y-60356666D01*
X116232380Y-60261428D01*
X116232380Y-60070952D01*
X116184761Y-59975714D01*
X116137142Y-59928095D01*
X116041904Y-59880476D01*
X115232380Y-59880476D01*
X115327619Y-59451904D02*
X115280000Y-59404285D01*
X115232380Y-59309047D01*
X115232380Y-59070952D01*
X115280000Y-58975714D01*
X115327619Y-58928095D01*
X115422857Y-58880476D01*
X115518095Y-58880476D01*
X115660952Y-58928095D01*
X116232380Y-59499523D01*
X116232380Y-58880476D01*
%TO.C,U3*%
X110998095Y-128792380D02*
X110998095Y-129601904D01*
X111045714Y-129697142D01*
X111093333Y-129744761D01*
X111188571Y-129792380D01*
X111379047Y-129792380D01*
X111474285Y-129744761D01*
X111521904Y-129697142D01*
X111569523Y-129601904D01*
X111569523Y-128792380D01*
X111950476Y-128792380D02*
X112569523Y-128792380D01*
X112236190Y-129173333D01*
X112379047Y-129173333D01*
X112474285Y-129220952D01*
X112521904Y-129268571D01*
X112569523Y-129363809D01*
X112569523Y-129601904D01*
X112521904Y-129697142D01*
X112474285Y-129744761D01*
X112379047Y-129792380D01*
X112093333Y-129792380D01*
X111998095Y-129744761D01*
X111950476Y-129697142D01*
%TO.C,U4*%
X117298095Y-154982380D02*
X117298095Y-155791904D01*
X117345714Y-155887142D01*
X117393333Y-155934761D01*
X117488571Y-155982380D01*
X117679047Y-155982380D01*
X117774285Y-155934761D01*
X117821904Y-155887142D01*
X117869523Y-155791904D01*
X117869523Y-154982380D01*
X118774285Y-155315714D02*
X118774285Y-155982380D01*
X118536190Y-154934761D02*
X118298095Y-155649047D01*
X118917142Y-155649047D01*
%TO.C,U5*%
X156722380Y-101091904D02*
X157531904Y-101091904D01*
X157627142Y-101044285D01*
X157674761Y-100996666D01*
X157722380Y-100901428D01*
X157722380Y-100710952D01*
X157674761Y-100615714D01*
X157627142Y-100568095D01*
X157531904Y-100520476D01*
X156722380Y-100520476D01*
X156722380Y-99568095D02*
X156722380Y-100044285D01*
X157198571Y-100091904D01*
X157150952Y-100044285D01*
X157103333Y-99949047D01*
X157103333Y-99710952D01*
X157150952Y-99615714D01*
X157198571Y-99568095D01*
X157293809Y-99520476D01*
X157531904Y-99520476D01*
X157627142Y-99568095D01*
X157674761Y-99615714D01*
X157722380Y-99710952D01*
X157722380Y-99949047D01*
X157674761Y-100044285D01*
X157627142Y-100091904D01*
%TO.C,U6*%
X95758095Y-111012380D02*
X95758095Y-111821904D01*
X95805714Y-111917142D01*
X95853333Y-111964761D01*
X95948571Y-112012380D01*
X96139047Y-112012380D01*
X96234285Y-111964761D01*
X96281904Y-111917142D01*
X96329523Y-111821904D01*
X96329523Y-111012380D01*
X97234285Y-111012380D02*
X97043809Y-111012380D01*
X96948571Y-111060000D01*
X96900952Y-111107619D01*
X96805714Y-111250476D01*
X96758095Y-111440952D01*
X96758095Y-111821904D01*
X96805714Y-111917142D01*
X96853333Y-111964761D01*
X96948571Y-112012380D01*
X97139047Y-112012380D01*
X97234285Y-111964761D01*
X97281904Y-111917142D01*
X97329523Y-111821904D01*
X97329523Y-111583809D01*
X97281904Y-111488571D01*
X97234285Y-111440952D01*
X97139047Y-111393333D01*
X96948571Y-111393333D01*
X96853333Y-111440952D01*
X96805714Y-111488571D01*
X96758095Y-111583809D01*
%TO.C,U7*%
X164342380Y-120141904D02*
X165151904Y-120141904D01*
X165247142Y-120094285D01*
X165294761Y-120046666D01*
X165342380Y-119951428D01*
X165342380Y-119760952D01*
X165294761Y-119665714D01*
X165247142Y-119618095D01*
X165151904Y-119570476D01*
X164342380Y-119570476D01*
X164342380Y-119189523D02*
X164342380Y-118522857D01*
X165342380Y-118951428D01*
%TO.C,U8*%
X124122380Y-144271904D02*
X124931904Y-144271904D01*
X125027142Y-144224285D01*
X125074761Y-144176666D01*
X125122380Y-144081428D01*
X125122380Y-143890952D01*
X125074761Y-143795714D01*
X125027142Y-143748095D01*
X124931904Y-143700476D01*
X124122380Y-143700476D01*
X124550952Y-143081428D02*
X124503333Y-143176666D01*
X124455714Y-143224285D01*
X124360476Y-143271904D01*
X124312857Y-143271904D01*
X124217619Y-143224285D01*
X124170000Y-143176666D01*
X124122380Y-143081428D01*
X124122380Y-142890952D01*
X124170000Y-142795714D01*
X124217619Y-142748095D01*
X124312857Y-142700476D01*
X124360476Y-142700476D01*
X124455714Y-142748095D01*
X124503333Y-142795714D01*
X124550952Y-142890952D01*
X124550952Y-143081428D01*
X124598571Y-143176666D01*
X124646190Y-143224285D01*
X124741428Y-143271904D01*
X124931904Y-143271904D01*
X125027142Y-143224285D01*
X125074761Y-143176666D01*
X125122380Y-143081428D01*
X125122380Y-142890952D01*
X125074761Y-142795714D01*
X125027142Y-142748095D01*
X124931904Y-142700476D01*
X124741428Y-142700476D01*
X124646190Y-142748095D01*
X124598571Y-142795714D01*
X124550952Y-142890952D01*
%TO.C,U10*%
X114331904Y-121572380D02*
X114331904Y-122381904D01*
X114379523Y-122477142D01*
X114427142Y-122524761D01*
X114522380Y-122572380D01*
X114712857Y-122572380D01*
X114808095Y-122524761D01*
X114855714Y-122477142D01*
X114903333Y-122381904D01*
X114903333Y-121572380D01*
X115903333Y-122572380D02*
X115331904Y-122572380D01*
X115617619Y-122572380D02*
X115617619Y-121572380D01*
X115522380Y-121715238D01*
X115427142Y-121810476D01*
X115331904Y-121858095D01*
X116522380Y-121572380D02*
X116617619Y-121572380D01*
X116712857Y-121620000D01*
X116760476Y-121667619D01*
X116808095Y-121762857D01*
X116855714Y-121953333D01*
X116855714Y-122191428D01*
X116808095Y-122381904D01*
X116760476Y-122477142D01*
X116712857Y-122524761D01*
X116617619Y-122572380D01*
X116522380Y-122572380D01*
X116427142Y-122524761D01*
X116379523Y-122477142D01*
X116331904Y-122381904D01*
X116284285Y-122191428D01*
X116284285Y-121953333D01*
X116331904Y-121762857D01*
X116379523Y-121667619D01*
X116427142Y-121620000D01*
X116522380Y-121572380D01*
%TO.C,U11*%
X49626904Y-142762380D02*
X49626904Y-143571904D01*
X49674523Y-143667142D01*
X49722142Y-143714761D01*
X49817380Y-143762380D01*
X50007857Y-143762380D01*
X50103095Y-143714761D01*
X50150714Y-143667142D01*
X50198333Y-143571904D01*
X50198333Y-142762380D01*
X51198333Y-143762380D02*
X50626904Y-143762380D01*
X50912619Y-143762380D02*
X50912619Y-142762380D01*
X50817380Y-142905238D01*
X50722142Y-143000476D01*
X50626904Y-143048095D01*
X52150714Y-143762380D02*
X51579285Y-143762380D01*
X51865000Y-143762380D02*
X51865000Y-142762380D01*
X51769761Y-142905238D01*
X51674523Y-143000476D01*
X51579285Y-143048095D01*
%TO.C,U13*%
X99541904Y-91092380D02*
X99541904Y-91901904D01*
X99589523Y-91997142D01*
X99637142Y-92044761D01*
X99732380Y-92092380D01*
X99922857Y-92092380D01*
X100018095Y-92044761D01*
X100065714Y-91997142D01*
X100113333Y-91901904D01*
X100113333Y-91092380D01*
X101113333Y-92092380D02*
X100541904Y-92092380D01*
X100827619Y-92092380D02*
X100827619Y-91092380D01*
X100732380Y-91235238D01*
X100637142Y-91330476D01*
X100541904Y-91378095D01*
X101446666Y-91092380D02*
X102065714Y-91092380D01*
X101732380Y-91473333D01*
X101875238Y-91473333D01*
X101970476Y-91520952D01*
X102018095Y-91568571D01*
X102065714Y-91663809D01*
X102065714Y-91901904D01*
X102018095Y-91997142D01*
X101970476Y-92044761D01*
X101875238Y-92092380D01*
X101589523Y-92092380D01*
X101494285Y-92044761D01*
X101446666Y-91997142D01*
%TO.C,U14*%
X99211904Y-55532380D02*
X99211904Y-56341904D01*
X99259523Y-56437142D01*
X99307142Y-56484761D01*
X99402380Y-56532380D01*
X99592857Y-56532380D01*
X99688095Y-56484761D01*
X99735714Y-56437142D01*
X99783333Y-56341904D01*
X99783333Y-55532380D01*
X100783333Y-56532380D02*
X100211904Y-56532380D01*
X100497619Y-56532380D02*
X100497619Y-55532380D01*
X100402380Y-55675238D01*
X100307142Y-55770476D01*
X100211904Y-55818095D01*
X101640476Y-55865714D02*
X101640476Y-56532380D01*
X101402380Y-55484761D02*
X101164285Y-56199047D01*
X101783333Y-56199047D01*
%TO.C,U28*%
X49561904Y-54322380D02*
X49561904Y-55131904D01*
X49609523Y-55227142D01*
X49657142Y-55274761D01*
X49752380Y-55322380D01*
X49942857Y-55322380D01*
X50038095Y-55274761D01*
X50085714Y-55227142D01*
X50133333Y-55131904D01*
X50133333Y-54322380D01*
X50561904Y-54417619D02*
X50609523Y-54370000D01*
X50704761Y-54322380D01*
X50942857Y-54322380D01*
X51038095Y-54370000D01*
X51085714Y-54417619D01*
X51133333Y-54512857D01*
X51133333Y-54608095D01*
X51085714Y-54750952D01*
X50514285Y-55322380D01*
X51133333Y-55322380D01*
X51704761Y-54750952D02*
X51609523Y-54703333D01*
X51561904Y-54655714D01*
X51514285Y-54560476D01*
X51514285Y-54512857D01*
X51561904Y-54417619D01*
X51609523Y-54370000D01*
X51704761Y-54322380D01*
X51895238Y-54322380D01*
X51990476Y-54370000D01*
X52038095Y-54417619D01*
X52085714Y-54512857D01*
X52085714Y-54560476D01*
X52038095Y-54655714D01*
X51990476Y-54703333D01*
X51895238Y-54750952D01*
X51704761Y-54750952D01*
X51609523Y-54798571D01*
X51561904Y-54846190D01*
X51514285Y-54941428D01*
X51514285Y-55131904D01*
X51561904Y-55227142D01*
X51609523Y-55274761D01*
X51704761Y-55322380D01*
X51895238Y-55322380D01*
X51990476Y-55274761D01*
X52038095Y-55227142D01*
X52085714Y-55131904D01*
X52085714Y-54941428D01*
X52038095Y-54846190D01*
X51990476Y-54798571D01*
X51895238Y-54750952D01*
%TO.C,U29*%
X48291904Y-65752380D02*
X48291904Y-66561904D01*
X48339523Y-66657142D01*
X48387142Y-66704761D01*
X48482380Y-66752380D01*
X48672857Y-66752380D01*
X48768095Y-66704761D01*
X48815714Y-66657142D01*
X48863333Y-66561904D01*
X48863333Y-65752380D01*
X49291904Y-65847619D02*
X49339523Y-65800000D01*
X49434761Y-65752380D01*
X49672857Y-65752380D01*
X49768095Y-65800000D01*
X49815714Y-65847619D01*
X49863333Y-65942857D01*
X49863333Y-66038095D01*
X49815714Y-66180952D01*
X49244285Y-66752380D01*
X49863333Y-66752380D01*
X50339523Y-66752380D02*
X50530000Y-66752380D01*
X50625238Y-66704761D01*
X50672857Y-66657142D01*
X50768095Y-66514285D01*
X50815714Y-66323809D01*
X50815714Y-65942857D01*
X50768095Y-65847619D01*
X50720476Y-65800000D01*
X50625238Y-65752380D01*
X50434761Y-65752380D01*
X50339523Y-65800000D01*
X50291904Y-65847619D01*
X50244285Y-65942857D01*
X50244285Y-66180952D01*
X50291904Y-66276190D01*
X50339523Y-66323809D01*
X50434761Y-66371428D01*
X50625238Y-66371428D01*
X50720476Y-66323809D01*
X50768095Y-66276190D01*
X50815714Y-66180952D01*
%TO.C,U30*%
X48291904Y-80992380D02*
X48291904Y-81801904D01*
X48339523Y-81897142D01*
X48387142Y-81944761D01*
X48482380Y-81992380D01*
X48672857Y-81992380D01*
X48768095Y-81944761D01*
X48815714Y-81897142D01*
X48863333Y-81801904D01*
X48863333Y-80992380D01*
X49244285Y-80992380D02*
X49863333Y-80992380D01*
X49530000Y-81373333D01*
X49672857Y-81373333D01*
X49768095Y-81420952D01*
X49815714Y-81468571D01*
X49863333Y-81563809D01*
X49863333Y-81801904D01*
X49815714Y-81897142D01*
X49768095Y-81944761D01*
X49672857Y-81992380D01*
X49387142Y-81992380D01*
X49291904Y-81944761D01*
X49244285Y-81897142D01*
X50482380Y-80992380D02*
X50577619Y-80992380D01*
X50672857Y-81040000D01*
X50720476Y-81087619D01*
X50768095Y-81182857D01*
X50815714Y-81373333D01*
X50815714Y-81611428D01*
X50768095Y-81801904D01*
X50720476Y-81897142D01*
X50672857Y-81944761D01*
X50577619Y-81992380D01*
X50482380Y-81992380D01*
X50387142Y-81944761D01*
X50339523Y-81897142D01*
X50291904Y-81801904D01*
X50244285Y-81611428D01*
X50244285Y-81373333D01*
X50291904Y-81182857D01*
X50339523Y-81087619D01*
X50387142Y-81040000D01*
X50482380Y-80992380D01*
%TO.C,U18*%
X49561904Y-108472380D02*
X49561904Y-109281904D01*
X49609523Y-109377142D01*
X49657142Y-109424761D01*
X49752380Y-109472380D01*
X49942857Y-109472380D01*
X50038095Y-109424761D01*
X50085714Y-109377142D01*
X50133333Y-109281904D01*
X50133333Y-108472380D01*
X51133333Y-109472380D02*
X50561904Y-109472380D01*
X50847619Y-109472380D02*
X50847619Y-108472380D01*
X50752380Y-108615238D01*
X50657142Y-108710476D01*
X50561904Y-108758095D01*
X51704761Y-108900952D02*
X51609523Y-108853333D01*
X51561904Y-108805714D01*
X51514285Y-108710476D01*
X51514285Y-108662857D01*
X51561904Y-108567619D01*
X51609523Y-108520000D01*
X51704761Y-108472380D01*
X51895238Y-108472380D01*
X51990476Y-108520000D01*
X52038095Y-108567619D01*
X52085714Y-108662857D01*
X52085714Y-108710476D01*
X52038095Y-108805714D01*
X51990476Y-108853333D01*
X51895238Y-108900952D01*
X51704761Y-108900952D01*
X51609523Y-108948571D01*
X51561904Y-108996190D01*
X51514285Y-109091428D01*
X51514285Y-109281904D01*
X51561904Y-109377142D01*
X51609523Y-109424761D01*
X51704761Y-109472380D01*
X51895238Y-109472380D01*
X51990476Y-109424761D01*
X52038095Y-109377142D01*
X52085714Y-109281904D01*
X52085714Y-109091428D01*
X52038095Y-108996190D01*
X51990476Y-108948571D01*
X51895238Y-108900952D01*
%TO.C,U33*%
X72421904Y-75452380D02*
X72421904Y-76261904D01*
X72469523Y-76357142D01*
X72517142Y-76404761D01*
X72612380Y-76452380D01*
X72802857Y-76452380D01*
X72898095Y-76404761D01*
X72945714Y-76357142D01*
X72993333Y-76261904D01*
X72993333Y-75452380D01*
X73374285Y-75452380D02*
X73993333Y-75452380D01*
X73660000Y-75833333D01*
X73802857Y-75833333D01*
X73898095Y-75880952D01*
X73945714Y-75928571D01*
X73993333Y-76023809D01*
X73993333Y-76261904D01*
X73945714Y-76357142D01*
X73898095Y-76404761D01*
X73802857Y-76452380D01*
X73517142Y-76452380D01*
X73421904Y-76404761D01*
X73374285Y-76357142D01*
X74326666Y-75452380D02*
X74945714Y-75452380D01*
X74612380Y-75833333D01*
X74755238Y-75833333D01*
X74850476Y-75880952D01*
X74898095Y-75928571D01*
X74945714Y-76023809D01*
X74945714Y-76261904D01*
X74898095Y-76357142D01*
X74850476Y-76404761D01*
X74755238Y-76452380D01*
X74469523Y-76452380D01*
X74374285Y-76404761D01*
X74326666Y-76357142D01*
%TO.C,U34*%
X48291904Y-93232380D02*
X48291904Y-94041904D01*
X48339523Y-94137142D01*
X48387142Y-94184761D01*
X48482380Y-94232380D01*
X48672857Y-94232380D01*
X48768095Y-94184761D01*
X48815714Y-94137142D01*
X48863333Y-94041904D01*
X48863333Y-93232380D01*
X49244285Y-93232380D02*
X49863333Y-93232380D01*
X49530000Y-93613333D01*
X49672857Y-93613333D01*
X49768095Y-93660952D01*
X49815714Y-93708571D01*
X49863333Y-93803809D01*
X49863333Y-94041904D01*
X49815714Y-94137142D01*
X49768095Y-94184761D01*
X49672857Y-94232380D01*
X49387142Y-94232380D01*
X49291904Y-94184761D01*
X49244285Y-94137142D01*
X50720476Y-93565714D02*
X50720476Y-94232380D01*
X50482380Y-93184761D02*
X50244285Y-93899047D01*
X50863333Y-93899047D01*
%TO.C,U35*%
X85121904Y-62752380D02*
X85121904Y-63561904D01*
X85169523Y-63657142D01*
X85217142Y-63704761D01*
X85312380Y-63752380D01*
X85502857Y-63752380D01*
X85598095Y-63704761D01*
X85645714Y-63657142D01*
X85693333Y-63561904D01*
X85693333Y-62752380D01*
X86074285Y-62752380D02*
X86693333Y-62752380D01*
X86360000Y-63133333D01*
X86502857Y-63133333D01*
X86598095Y-63180952D01*
X86645714Y-63228571D01*
X86693333Y-63323809D01*
X86693333Y-63561904D01*
X86645714Y-63657142D01*
X86598095Y-63704761D01*
X86502857Y-63752380D01*
X86217142Y-63752380D01*
X86121904Y-63704761D01*
X86074285Y-63657142D01*
X87598095Y-62752380D02*
X87121904Y-62752380D01*
X87074285Y-63228571D01*
X87121904Y-63180952D01*
X87217142Y-63133333D01*
X87455238Y-63133333D01*
X87550476Y-63180952D01*
X87598095Y-63228571D01*
X87645714Y-63323809D01*
X87645714Y-63561904D01*
X87598095Y-63657142D01*
X87550476Y-63704761D01*
X87455238Y-63752380D01*
X87217142Y-63752380D01*
X87121904Y-63704761D01*
X87074285Y-63657142D01*
%TO.C,U36*%
X85186904Y-93232380D02*
X85186904Y-94041904D01*
X85234523Y-94137142D01*
X85282142Y-94184761D01*
X85377380Y-94232380D01*
X85567857Y-94232380D01*
X85663095Y-94184761D01*
X85710714Y-94137142D01*
X85758333Y-94041904D01*
X85758333Y-93232380D01*
X86139285Y-93232380D02*
X86758333Y-93232380D01*
X86425000Y-93613333D01*
X86567857Y-93613333D01*
X86663095Y-93660952D01*
X86710714Y-93708571D01*
X86758333Y-93803809D01*
X86758333Y-94041904D01*
X86710714Y-94137142D01*
X86663095Y-94184761D01*
X86567857Y-94232380D01*
X86282142Y-94232380D01*
X86186904Y-94184761D01*
X86139285Y-94137142D01*
X87615476Y-93232380D02*
X87425000Y-93232380D01*
X87329761Y-93280000D01*
X87282142Y-93327619D01*
X87186904Y-93470476D01*
X87139285Y-93660952D01*
X87139285Y-94041904D01*
X87186904Y-94137142D01*
X87234523Y-94184761D01*
X87329761Y-94232380D01*
X87520238Y-94232380D01*
X87615476Y-94184761D01*
X87663095Y-94137142D01*
X87710714Y-94041904D01*
X87710714Y-93803809D01*
X87663095Y-93708571D01*
X87615476Y-93660952D01*
X87520238Y-93613333D01*
X87329761Y-93613333D01*
X87234523Y-93660952D01*
X87186904Y-93708571D01*
X87139285Y-93803809D01*
%TO.C,U37*%
X72421904Y-73312380D02*
X72421904Y-74121904D01*
X72469523Y-74217142D01*
X72517142Y-74264761D01*
X72612380Y-74312380D01*
X72802857Y-74312380D01*
X72898095Y-74264761D01*
X72945714Y-74217142D01*
X72993333Y-74121904D01*
X72993333Y-73312380D01*
X73374285Y-73312380D02*
X73993333Y-73312380D01*
X73660000Y-73693333D01*
X73802857Y-73693333D01*
X73898095Y-73740952D01*
X73945714Y-73788571D01*
X73993333Y-73883809D01*
X73993333Y-74121904D01*
X73945714Y-74217142D01*
X73898095Y-74264761D01*
X73802857Y-74312380D01*
X73517142Y-74312380D01*
X73421904Y-74264761D01*
X73374285Y-74217142D01*
X74326666Y-73312380D02*
X74993333Y-73312380D01*
X74564761Y-74312380D01*
%TO.C,U38*%
X85121904Y-75452380D02*
X85121904Y-76261904D01*
X85169523Y-76357142D01*
X85217142Y-76404761D01*
X85312380Y-76452380D01*
X85502857Y-76452380D01*
X85598095Y-76404761D01*
X85645714Y-76357142D01*
X85693333Y-76261904D01*
X85693333Y-75452380D01*
X86074285Y-75452380D02*
X86693333Y-75452380D01*
X86360000Y-75833333D01*
X86502857Y-75833333D01*
X86598095Y-75880952D01*
X86645714Y-75928571D01*
X86693333Y-76023809D01*
X86693333Y-76261904D01*
X86645714Y-76357142D01*
X86598095Y-76404761D01*
X86502857Y-76452380D01*
X86217142Y-76452380D01*
X86121904Y-76404761D01*
X86074285Y-76357142D01*
X87264761Y-75880952D02*
X87169523Y-75833333D01*
X87121904Y-75785714D01*
X87074285Y-75690476D01*
X87074285Y-75642857D01*
X87121904Y-75547619D01*
X87169523Y-75500000D01*
X87264761Y-75452380D01*
X87455238Y-75452380D01*
X87550476Y-75500000D01*
X87598095Y-75547619D01*
X87645714Y-75642857D01*
X87645714Y-75690476D01*
X87598095Y-75785714D01*
X87550476Y-75833333D01*
X87455238Y-75880952D01*
X87264761Y-75880952D01*
X87169523Y-75928571D01*
X87121904Y-75976190D01*
X87074285Y-76071428D01*
X87074285Y-76261904D01*
X87121904Y-76357142D01*
X87169523Y-76404761D01*
X87264761Y-76452380D01*
X87455238Y-76452380D01*
X87550476Y-76404761D01*
X87598095Y-76357142D01*
X87645714Y-76261904D01*
X87645714Y-76071428D01*
X87598095Y-75976190D01*
X87550476Y-75928571D01*
X87455238Y-75880952D01*
%TO.C,U39*%
X59721904Y-62752380D02*
X59721904Y-63561904D01*
X59769523Y-63657142D01*
X59817142Y-63704761D01*
X59912380Y-63752380D01*
X60102857Y-63752380D01*
X60198095Y-63704761D01*
X60245714Y-63657142D01*
X60293333Y-63561904D01*
X60293333Y-62752380D01*
X60674285Y-62752380D02*
X61293333Y-62752380D01*
X60960000Y-63133333D01*
X61102857Y-63133333D01*
X61198095Y-63180952D01*
X61245714Y-63228571D01*
X61293333Y-63323809D01*
X61293333Y-63561904D01*
X61245714Y-63657142D01*
X61198095Y-63704761D01*
X61102857Y-63752380D01*
X60817142Y-63752380D01*
X60721904Y-63704761D01*
X60674285Y-63657142D01*
X61769523Y-63752380D02*
X61960000Y-63752380D01*
X62055238Y-63704761D01*
X62102857Y-63657142D01*
X62198095Y-63514285D01*
X62245714Y-63323809D01*
X62245714Y-62942857D01*
X62198095Y-62847619D01*
X62150476Y-62800000D01*
X62055238Y-62752380D01*
X61864761Y-62752380D01*
X61769523Y-62800000D01*
X61721904Y-62847619D01*
X61674285Y-62942857D01*
X61674285Y-63180952D01*
X61721904Y-63276190D01*
X61769523Y-63323809D01*
X61864761Y-63371428D01*
X62055238Y-63371428D01*
X62150476Y-63323809D01*
X62198095Y-63276190D01*
X62245714Y-63180952D01*
%TO.C,U40*%
X100426904Y-75452380D02*
X100426904Y-76261904D01*
X100474523Y-76357142D01*
X100522142Y-76404761D01*
X100617380Y-76452380D01*
X100807857Y-76452380D01*
X100903095Y-76404761D01*
X100950714Y-76357142D01*
X100998333Y-76261904D01*
X100998333Y-75452380D01*
X101903095Y-75785714D02*
X101903095Y-76452380D01*
X101665000Y-75404761D02*
X101426904Y-76119047D01*
X102045952Y-76119047D01*
X102617380Y-75452380D02*
X102712619Y-75452380D01*
X102807857Y-75500000D01*
X102855476Y-75547619D01*
X102903095Y-75642857D01*
X102950714Y-75833333D01*
X102950714Y-76071428D01*
X102903095Y-76261904D01*
X102855476Y-76357142D01*
X102807857Y-76404761D01*
X102712619Y-76452380D01*
X102617380Y-76452380D01*
X102522142Y-76404761D01*
X102474523Y-76357142D01*
X102426904Y-76261904D01*
X102379285Y-76071428D01*
X102379285Y-75833333D01*
X102426904Y-75642857D01*
X102474523Y-75547619D01*
X102522142Y-75500000D01*
X102617380Y-75452380D01*
%TO.C,U15*%
X79806904Y-113367380D02*
X79806904Y-114176904D01*
X79854523Y-114272142D01*
X79902142Y-114319761D01*
X79997380Y-114367380D01*
X80187857Y-114367380D01*
X80283095Y-114319761D01*
X80330714Y-114272142D01*
X80378333Y-114176904D01*
X80378333Y-113367380D01*
X81378333Y-114367380D02*
X80806904Y-114367380D01*
X81092619Y-114367380D02*
X81092619Y-113367380D01*
X80997380Y-113510238D01*
X80902142Y-113605476D01*
X80806904Y-113653095D01*
X82283095Y-113367380D02*
X81806904Y-113367380D01*
X81759285Y-113843571D01*
X81806904Y-113795952D01*
X81902142Y-113748333D01*
X82140238Y-113748333D01*
X82235476Y-113795952D01*
X82283095Y-113843571D01*
X82330714Y-113938809D01*
X82330714Y-114176904D01*
X82283095Y-114272142D01*
X82235476Y-114319761D01*
X82140238Y-114367380D01*
X81902142Y-114367380D01*
X81806904Y-114319761D01*
X81759285Y-114272142D01*
%TO.C,U16*%
X80041904Y-105122380D02*
X80041904Y-105931904D01*
X80089523Y-106027142D01*
X80137142Y-106074761D01*
X80232380Y-106122380D01*
X80422857Y-106122380D01*
X80518095Y-106074761D01*
X80565714Y-106027142D01*
X80613333Y-105931904D01*
X80613333Y-105122380D01*
X81613333Y-106122380D02*
X81041904Y-106122380D01*
X81327619Y-106122380D02*
X81327619Y-105122380D01*
X81232380Y-105265238D01*
X81137142Y-105360476D01*
X81041904Y-105408095D01*
X82470476Y-105122380D02*
X82280000Y-105122380D01*
X82184761Y-105170000D01*
X82137142Y-105217619D01*
X82041904Y-105360476D01*
X81994285Y-105550952D01*
X81994285Y-105931904D01*
X82041904Y-106027142D01*
X82089523Y-106074761D01*
X82184761Y-106122380D01*
X82375238Y-106122380D01*
X82470476Y-106074761D01*
X82518095Y-106027142D01*
X82565714Y-105931904D01*
X82565714Y-105693809D01*
X82518095Y-105598571D01*
X82470476Y-105550952D01*
X82375238Y-105503333D01*
X82184761Y-105503333D01*
X82089523Y-105550952D01*
X82041904Y-105598571D01*
X81994285Y-105693809D01*
%TO.C,U17*%
X49561904Y-162397380D02*
X49561904Y-163206904D01*
X49609523Y-163302142D01*
X49657142Y-163349761D01*
X49752380Y-163397380D01*
X49942857Y-163397380D01*
X50038095Y-163349761D01*
X50085714Y-163302142D01*
X50133333Y-163206904D01*
X50133333Y-162397380D01*
X51133333Y-163397380D02*
X50561904Y-163397380D01*
X50847619Y-163397380D02*
X50847619Y-162397380D01*
X50752380Y-162540238D01*
X50657142Y-162635476D01*
X50561904Y-162683095D01*
X51466666Y-162397380D02*
X52133333Y-162397380D01*
X51704761Y-163397380D01*
%TO.C,U21*%
X49561904Y-126252380D02*
X49561904Y-127061904D01*
X49609523Y-127157142D01*
X49657142Y-127204761D01*
X49752380Y-127252380D01*
X49942857Y-127252380D01*
X50038095Y-127204761D01*
X50085714Y-127157142D01*
X50133333Y-127061904D01*
X50133333Y-126252380D01*
X50561904Y-126347619D02*
X50609523Y-126300000D01*
X50704761Y-126252380D01*
X50942857Y-126252380D01*
X51038095Y-126300000D01*
X51085714Y-126347619D01*
X51133333Y-126442857D01*
X51133333Y-126538095D01*
X51085714Y-126680952D01*
X50514285Y-127252380D01*
X51133333Y-127252380D01*
X52085714Y-127252380D02*
X51514285Y-127252380D01*
X51800000Y-127252380D02*
X51800000Y-126252380D01*
X51704761Y-126395238D01*
X51609523Y-126490476D01*
X51514285Y-126538095D01*
%TO.C,U22*%
X64866904Y-127522380D02*
X64866904Y-128331904D01*
X64914523Y-128427142D01*
X64962142Y-128474761D01*
X65057380Y-128522380D01*
X65247857Y-128522380D01*
X65343095Y-128474761D01*
X65390714Y-128427142D01*
X65438333Y-128331904D01*
X65438333Y-127522380D01*
X65866904Y-127617619D02*
X65914523Y-127570000D01*
X66009761Y-127522380D01*
X66247857Y-127522380D01*
X66343095Y-127570000D01*
X66390714Y-127617619D01*
X66438333Y-127712857D01*
X66438333Y-127808095D01*
X66390714Y-127950952D01*
X65819285Y-128522380D01*
X66438333Y-128522380D01*
X66819285Y-127617619D02*
X66866904Y-127570000D01*
X66962142Y-127522380D01*
X67200238Y-127522380D01*
X67295476Y-127570000D01*
X67343095Y-127617619D01*
X67390714Y-127712857D01*
X67390714Y-127808095D01*
X67343095Y-127950952D01*
X66771666Y-128522380D01*
X67390714Y-128522380D01*
%TO.C,U23*%
X64866904Y-144032380D02*
X64866904Y-144841904D01*
X64914523Y-144937142D01*
X64962142Y-144984761D01*
X65057380Y-145032380D01*
X65247857Y-145032380D01*
X65343095Y-144984761D01*
X65390714Y-144937142D01*
X65438333Y-144841904D01*
X65438333Y-144032380D01*
X65866904Y-144127619D02*
X65914523Y-144080000D01*
X66009761Y-144032380D01*
X66247857Y-144032380D01*
X66343095Y-144080000D01*
X66390714Y-144127619D01*
X66438333Y-144222857D01*
X66438333Y-144318095D01*
X66390714Y-144460952D01*
X65819285Y-145032380D01*
X66438333Y-145032380D01*
X66771666Y-144032380D02*
X67390714Y-144032380D01*
X67057380Y-144413333D01*
X67200238Y-144413333D01*
X67295476Y-144460952D01*
X67343095Y-144508571D01*
X67390714Y-144603809D01*
X67390714Y-144841904D01*
X67343095Y-144937142D01*
X67295476Y-144984761D01*
X67200238Y-145032380D01*
X66914523Y-145032380D01*
X66819285Y-144984761D01*
X66771666Y-144937142D01*
%TO.C,U24*%
X95346904Y-127522380D02*
X95346904Y-128331904D01*
X95394523Y-128427142D01*
X95442142Y-128474761D01*
X95537380Y-128522380D01*
X95727857Y-128522380D01*
X95823095Y-128474761D01*
X95870714Y-128427142D01*
X95918333Y-128331904D01*
X95918333Y-127522380D01*
X96346904Y-127617619D02*
X96394523Y-127570000D01*
X96489761Y-127522380D01*
X96727857Y-127522380D01*
X96823095Y-127570000D01*
X96870714Y-127617619D01*
X96918333Y-127712857D01*
X96918333Y-127808095D01*
X96870714Y-127950952D01*
X96299285Y-128522380D01*
X96918333Y-128522380D01*
X97775476Y-127855714D02*
X97775476Y-128522380D01*
X97537380Y-127474761D02*
X97299285Y-128189047D01*
X97918333Y-128189047D01*
%TO.C,U25*%
X95216904Y-141492380D02*
X95216904Y-142301904D01*
X95264523Y-142397142D01*
X95312142Y-142444761D01*
X95407380Y-142492380D01*
X95597857Y-142492380D01*
X95693095Y-142444761D01*
X95740714Y-142397142D01*
X95788333Y-142301904D01*
X95788333Y-141492380D01*
X96216904Y-141587619D02*
X96264523Y-141540000D01*
X96359761Y-141492380D01*
X96597857Y-141492380D01*
X96693095Y-141540000D01*
X96740714Y-141587619D01*
X96788333Y-141682857D01*
X96788333Y-141778095D01*
X96740714Y-141920952D01*
X96169285Y-142492380D01*
X96788333Y-142492380D01*
X97693095Y-141492380D02*
X97216904Y-141492380D01*
X97169285Y-141968571D01*
X97216904Y-141920952D01*
X97312142Y-141873333D01*
X97550238Y-141873333D01*
X97645476Y-141920952D01*
X97693095Y-141968571D01*
X97740714Y-142063809D01*
X97740714Y-142301904D01*
X97693095Y-142397142D01*
X97645476Y-142444761D01*
X97550238Y-142492380D01*
X97312142Y-142492380D01*
X97216904Y-142444761D01*
X97169285Y-142397142D01*
%TO.C,U26*%
X80041904Y-135542380D02*
X80041904Y-136351904D01*
X80089523Y-136447142D01*
X80137142Y-136494761D01*
X80232380Y-136542380D01*
X80422857Y-136542380D01*
X80518095Y-136494761D01*
X80565714Y-136447142D01*
X80613333Y-136351904D01*
X80613333Y-135542380D01*
X81041904Y-135637619D02*
X81089523Y-135590000D01*
X81184761Y-135542380D01*
X81422857Y-135542380D01*
X81518095Y-135590000D01*
X81565714Y-135637619D01*
X81613333Y-135732857D01*
X81613333Y-135828095D01*
X81565714Y-135970952D01*
X80994285Y-136542380D01*
X81613333Y-136542380D01*
X82470476Y-135542380D02*
X82280000Y-135542380D01*
X82184761Y-135590000D01*
X82137142Y-135637619D01*
X82041904Y-135780476D01*
X81994285Y-135970952D01*
X81994285Y-136351904D01*
X82041904Y-136447142D01*
X82089523Y-136494761D01*
X82184761Y-136542380D01*
X82375238Y-136542380D01*
X82470476Y-136494761D01*
X82518095Y-136447142D01*
X82565714Y-136351904D01*
X82565714Y-136113809D01*
X82518095Y-136018571D01*
X82470476Y-135970952D01*
X82375238Y-135923333D01*
X82184761Y-135923333D01*
X82089523Y-135970952D01*
X82041904Y-136018571D01*
X81994285Y-136113809D01*
%TO.C,U27*%
X80041904Y-141492380D02*
X80041904Y-142301904D01*
X80089523Y-142397142D01*
X80137142Y-142444761D01*
X80232380Y-142492380D01*
X80422857Y-142492380D01*
X80518095Y-142444761D01*
X80565714Y-142397142D01*
X80613333Y-142301904D01*
X80613333Y-141492380D01*
X81041904Y-141587619D02*
X81089523Y-141540000D01*
X81184761Y-141492380D01*
X81422857Y-141492380D01*
X81518095Y-141540000D01*
X81565714Y-141587619D01*
X81613333Y-141682857D01*
X81613333Y-141778095D01*
X81565714Y-141920952D01*
X80994285Y-142492380D01*
X81613333Y-142492380D01*
X81946666Y-141492380D02*
X82613333Y-141492380D01*
X82184761Y-142492380D01*
%TO.C,X1*%
X59822380Y-55369523D02*
X60822380Y-54702857D01*
X59822380Y-54702857D02*
X60822380Y-55369523D01*
X60822380Y-53798095D02*
X60822380Y-54369523D01*
X60822380Y-54083809D02*
X59822380Y-54083809D01*
X59965238Y-54179047D01*
X60060476Y-54274285D01*
X60108095Y-54369523D01*
%TO.C,J2*%
X176492380Y-124793333D02*
X177206666Y-124793333D01*
X177349523Y-124840952D01*
X177444761Y-124936190D01*
X177492380Y-125079047D01*
X177492380Y-125174285D01*
X176587619Y-124364761D02*
X176540000Y-124317142D01*
X176492380Y-124221904D01*
X176492380Y-123983809D01*
X176540000Y-123888571D01*
X176587619Y-123840952D01*
X176682857Y-123793333D01*
X176778095Y-123793333D01*
X176920952Y-123840952D01*
X177492380Y-124412380D01*
X177492380Y-123793333D01*
%TO.C,J3*%
X174147380Y-113363333D02*
X174861666Y-113363333D01*
X175004523Y-113410952D01*
X175099761Y-113506190D01*
X175147380Y-113649047D01*
X175147380Y-113744285D01*
X174147380Y-112982380D02*
X174147380Y-112363333D01*
X174528333Y-112696666D01*
X174528333Y-112553809D01*
X174575952Y-112458571D01*
X174623571Y-112410952D01*
X174718809Y-112363333D01*
X174956904Y-112363333D01*
X175052142Y-112410952D01*
X175099761Y-112458571D01*
X175147380Y-112553809D01*
X175147380Y-112839523D01*
X175099761Y-112934761D01*
X175052142Y-112982380D01*
%TO.C,J4*%
X165486666Y-89242380D02*
X165486666Y-89956666D01*
X165439047Y-90099523D01*
X165343809Y-90194761D01*
X165200952Y-90242380D01*
X165105714Y-90242380D01*
X166391428Y-89575714D02*
X166391428Y-90242380D01*
X166153333Y-89194761D02*
X165915238Y-89909047D01*
X166534285Y-89909047D01*
%TO.C,U19*%
X59786904Y-93232380D02*
X59786904Y-94041904D01*
X59834523Y-94137142D01*
X59882142Y-94184761D01*
X59977380Y-94232380D01*
X60167857Y-94232380D01*
X60263095Y-94184761D01*
X60310714Y-94137142D01*
X60358333Y-94041904D01*
X60358333Y-93232380D01*
X61358333Y-94232380D02*
X60786904Y-94232380D01*
X61072619Y-94232380D02*
X61072619Y-93232380D01*
X60977380Y-93375238D01*
X60882142Y-93470476D01*
X60786904Y-93518095D01*
X61834523Y-94232380D02*
X62025000Y-94232380D01*
X62120238Y-94184761D01*
X62167857Y-94137142D01*
X62263095Y-93994285D01*
X62310714Y-93803809D01*
X62310714Y-93422857D01*
X62263095Y-93327619D01*
X62215476Y-93280000D01*
X62120238Y-93232380D01*
X61929761Y-93232380D01*
X61834523Y-93280000D01*
X61786904Y-93327619D01*
X61739285Y-93422857D01*
X61739285Y-93660952D01*
X61786904Y-93756190D01*
X61834523Y-93803809D01*
X61929761Y-93851428D01*
X62120238Y-93851428D01*
X62215476Y-93803809D01*
X62263095Y-93756190D01*
X62310714Y-93660952D01*
%TO.C,U31*%
X59786904Y-74182380D02*
X59786904Y-74991904D01*
X59834523Y-75087142D01*
X59882142Y-75134761D01*
X59977380Y-75182380D01*
X60167857Y-75182380D01*
X60263095Y-75134761D01*
X60310714Y-75087142D01*
X60358333Y-74991904D01*
X60358333Y-74182380D01*
X60739285Y-74182380D02*
X61358333Y-74182380D01*
X61025000Y-74563333D01*
X61167857Y-74563333D01*
X61263095Y-74610952D01*
X61310714Y-74658571D01*
X61358333Y-74753809D01*
X61358333Y-74991904D01*
X61310714Y-75087142D01*
X61263095Y-75134761D01*
X61167857Y-75182380D01*
X60882142Y-75182380D01*
X60786904Y-75134761D01*
X60739285Y-75087142D01*
X62310714Y-75182380D02*
X61739285Y-75182380D01*
X62025000Y-75182380D02*
X62025000Y-74182380D01*
X61929761Y-74325238D01*
X61834523Y-74420476D01*
X61739285Y-74468095D01*
%TO.C,U32*%
X72421904Y-93232380D02*
X72421904Y-94041904D01*
X72469523Y-94137142D01*
X72517142Y-94184761D01*
X72612380Y-94232380D01*
X72802857Y-94232380D01*
X72898095Y-94184761D01*
X72945714Y-94137142D01*
X72993333Y-94041904D01*
X72993333Y-93232380D01*
X73374285Y-93232380D02*
X73993333Y-93232380D01*
X73660000Y-93613333D01*
X73802857Y-93613333D01*
X73898095Y-93660952D01*
X73945714Y-93708571D01*
X73993333Y-93803809D01*
X73993333Y-94041904D01*
X73945714Y-94137142D01*
X73898095Y-94184761D01*
X73802857Y-94232380D01*
X73517142Y-94232380D01*
X73421904Y-94184761D01*
X73374285Y-94137142D01*
X74374285Y-93327619D02*
X74421904Y-93280000D01*
X74517142Y-93232380D01*
X74755238Y-93232380D01*
X74850476Y-93280000D01*
X74898095Y-93327619D01*
X74945714Y-93422857D01*
X74945714Y-93518095D01*
X74898095Y-93660952D01*
X74326666Y-94232380D01*
X74945714Y-94232380D01*
%TD*%
M02*
