%TF.GenerationSoftware,KiCad,Pcbnew,(5.1.7)-1*%
%TF.CreationDate,2021-02-02T03:53:03+00:00*%
%TF.ProjectId,GPU_Projeto,4750555f-5072-46f6-9a65-746f2e6b6963,rev?*%
%TF.SameCoordinates,Original*%
%TF.FileFunction,Copper,L4,Bot*%
%TF.FilePolarity,Positive*%
%FSLAX46Y46*%
G04 Gerber Fmt 4.6, Leading zero omitted, Abs format (unit mm)*
G04 Created by KiCad (PCBNEW (5.1.7)-1) date 2021-02-02 03:53:03*
%MOMM*%
%LPD*%
G01*
G04 APERTURE LIST*
%ADD10C,0.100000*%
%ADD11C,0.150000*%
%ADD12C,0.300000*%
%ADD13C,0.400000*%
%TA.AperFunction,ComponentPad*%
%ADD14C,1.520000*%
%TD*%
%TA.AperFunction,ComponentPad*%
%ADD15R,1.520000X1.520000*%
%TD*%
%TA.AperFunction,ComponentPad*%
%ADD16C,4.000000*%
%TD*%
%TA.AperFunction,ComponentPad*%
%ADD17C,1.600000*%
%TD*%
%TA.AperFunction,ComponentPad*%
%ADD18R,1.600000X1.600000*%
%TD*%
%TA.AperFunction,ComponentPad*%
%ADD19O,1.800000X2.600000*%
%TD*%
%TA.AperFunction,ComponentPad*%
%ADD20R,1.800000X2.600000*%
%TD*%
%TA.AperFunction,ComponentPad*%
%ADD21O,2.200000X2.200000*%
%TD*%
%TA.AperFunction,ComponentPad*%
%ADD22R,2.200000X2.200000*%
%TD*%
%TA.AperFunction,ComponentPad*%
%ADD23O,1.500000X3.000000*%
%TD*%
%TA.AperFunction,ComponentPad*%
%ADD24C,3.800000*%
%TD*%
%TA.AperFunction,ComponentPad*%
%ADD25C,3.000000*%
%TD*%
%TA.AperFunction,ComponentPad*%
%ADD26C,2.600000*%
%TD*%
%TA.AperFunction,ComponentPad*%
%ADD27R,2.600000X2.600000*%
%TD*%
%TA.AperFunction,ComponentPad*%
%ADD28C,1.440000*%
%TD*%
%TA.AperFunction,ComponentPad*%
%ADD29R,2.000000X1.905000*%
%TD*%
%TA.AperFunction,ComponentPad*%
%ADD30O,2.000000X1.905000*%
%TD*%
%TA.AperFunction,ComponentPad*%
%ADD31O,1.600000X1.600000*%
%TD*%
%TA.AperFunction,ComponentPad*%
%ADD32R,1.600000X2.400000*%
%TD*%
%TA.AperFunction,ComponentPad*%
%ADD33O,1.600000X2.400000*%
%TD*%
%TA.AperFunction,ComponentPad*%
%ADD34O,2.100000X1.000000*%
%TD*%
%TA.AperFunction,ComponentPad*%
%ADD35O,1.600000X1.000000*%
%TD*%
%TA.AperFunction,ComponentPad*%
%ADD36O,3.500000X1.900000*%
%TD*%
%TA.AperFunction,ViaPad*%
%ADD37C,0.800000*%
%TD*%
%TA.AperFunction,Conductor*%
%ADD38C,0.250000*%
%TD*%
%TA.AperFunction,Conductor*%
%ADD39C,0.500000*%
%TD*%
G04 APERTURE END LIST*
D10*
D11*
X90007200Y-253002200D02*
X90007200Y-285002200D01*
X198007200Y-285002200D01*
X198007200Y-253002200D01*
X90007200Y-253002200D01*
D10*
D11*
X10000000Y-10000000D02*
X10000000Y-287002200D01*
X200007200Y-287002200D01*
X200007200Y-10000000D01*
X10000000Y-10000000D01*
D10*
D11*
X12000000Y-12000000D02*
X12000000Y-285002200D01*
X198007200Y-285002200D01*
X198007200Y-12000000D01*
X12000000Y-12000000D01*
D10*
D11*
X60000000Y-12000000D02*
X60000000Y-10000000D01*
D10*
D11*
X110000000Y-12000000D02*
X110000000Y-10000000D01*
D10*
D11*
X160000000Y-12000000D02*
X160000000Y-10000000D01*
D10*
D11*
X36065476Y-11588095D02*
X35322619Y-11588095D01*
X35694047Y-11588095D02*
X35694047Y-10288095D01*
X35570238Y-10473809D01*
X35446428Y-10597619D01*
X35322619Y-10659523D01*
D10*
D11*
X85322619Y-10411904D02*
X85384523Y-10350000D01*
X85508333Y-10288095D01*
X85817857Y-10288095D01*
X85941666Y-10350000D01*
X86003571Y-10411904D01*
X86065476Y-10535714D01*
X86065476Y-10659523D01*
X86003571Y-10845238D01*
X85260714Y-11588095D01*
X86065476Y-11588095D01*
D10*
D11*
X135260714Y-10288095D02*
X136065476Y-10288095D01*
X135632142Y-10783333D01*
X135817857Y-10783333D01*
X135941666Y-10845238D01*
X136003571Y-10907142D01*
X136065476Y-11030952D01*
X136065476Y-11340476D01*
X136003571Y-11464285D01*
X135941666Y-11526190D01*
X135817857Y-11588095D01*
X135446428Y-11588095D01*
X135322619Y-11526190D01*
X135260714Y-11464285D01*
D10*
D11*
X185941666Y-10721428D02*
X185941666Y-11588095D01*
X185632142Y-10226190D02*
X185322619Y-11154761D01*
X186127380Y-11154761D01*
D10*
D11*
X60000000Y-285002200D02*
X60000000Y-287002200D01*
D10*
D11*
X110000000Y-285002200D02*
X110000000Y-287002200D01*
D10*
D11*
X160000000Y-285002200D02*
X160000000Y-287002200D01*
D10*
D11*
X36065476Y-286590295D02*
X35322619Y-286590295D01*
X35694047Y-286590295D02*
X35694047Y-285290295D01*
X35570238Y-285476009D01*
X35446428Y-285599819D01*
X35322619Y-285661723D01*
D10*
D11*
X85322619Y-285414104D02*
X85384523Y-285352200D01*
X85508333Y-285290295D01*
X85817857Y-285290295D01*
X85941666Y-285352200D01*
X86003571Y-285414104D01*
X86065476Y-285537914D01*
X86065476Y-285661723D01*
X86003571Y-285847438D01*
X85260714Y-286590295D01*
X86065476Y-286590295D01*
D10*
D11*
X135260714Y-285290295D02*
X136065476Y-285290295D01*
X135632142Y-285785533D01*
X135817857Y-285785533D01*
X135941666Y-285847438D01*
X136003571Y-285909342D01*
X136065476Y-286033152D01*
X136065476Y-286342676D01*
X136003571Y-286466485D01*
X135941666Y-286528390D01*
X135817857Y-286590295D01*
X135446428Y-286590295D01*
X135322619Y-286528390D01*
X135260714Y-286466485D01*
D10*
D11*
X185941666Y-285723628D02*
X185941666Y-286590295D01*
X185632142Y-285228390D02*
X185322619Y-286156961D01*
X186127380Y-286156961D01*
D10*
D11*
X10000000Y-60000000D02*
X12000000Y-60000000D01*
D10*
D11*
X10000000Y-110000000D02*
X12000000Y-110000000D01*
D10*
D11*
X10000000Y-160000000D02*
X12000000Y-160000000D01*
D10*
D11*
X10000000Y-210000000D02*
X12000000Y-210000000D01*
D10*
D11*
X10000000Y-260000000D02*
X12000000Y-260000000D01*
D10*
D11*
X10690476Y-35216666D02*
X11309523Y-35216666D01*
X10566666Y-35588095D02*
X11000000Y-34288095D01*
X11433333Y-35588095D01*
D10*
D11*
X11092857Y-84907142D02*
X11278571Y-84969047D01*
X11340476Y-85030952D01*
X11402380Y-85154761D01*
X11402380Y-85340476D01*
X11340476Y-85464285D01*
X11278571Y-85526190D01*
X11154761Y-85588095D01*
X10659523Y-85588095D01*
X10659523Y-84288095D01*
X11092857Y-84288095D01*
X11216666Y-84350000D01*
X11278571Y-84411904D01*
X11340476Y-84535714D01*
X11340476Y-84659523D01*
X11278571Y-84783333D01*
X11216666Y-84845238D01*
X11092857Y-84907142D01*
X10659523Y-84907142D01*
D10*
D11*
X11402380Y-135464285D02*
X11340476Y-135526190D01*
X11154761Y-135588095D01*
X11030952Y-135588095D01*
X10845238Y-135526190D01*
X10721428Y-135402380D01*
X10659523Y-135278571D01*
X10597619Y-135030952D01*
X10597619Y-134845238D01*
X10659523Y-134597619D01*
X10721428Y-134473809D01*
X10845238Y-134350000D01*
X11030952Y-134288095D01*
X11154761Y-134288095D01*
X11340476Y-134350000D01*
X11402380Y-134411904D01*
D10*
D11*
X10659523Y-185588095D02*
X10659523Y-184288095D01*
X10969047Y-184288095D01*
X11154761Y-184350000D01*
X11278571Y-184473809D01*
X11340476Y-184597619D01*
X11402380Y-184845238D01*
X11402380Y-185030952D01*
X11340476Y-185278571D01*
X11278571Y-185402380D01*
X11154761Y-185526190D01*
X10969047Y-185588095D01*
X10659523Y-185588095D01*
D10*
D11*
X10721428Y-234907142D02*
X11154761Y-234907142D01*
X11340476Y-235588095D02*
X10721428Y-235588095D01*
X10721428Y-234288095D01*
X11340476Y-234288095D01*
D10*
D11*
X11185714Y-284907142D02*
X10752380Y-284907142D01*
X10752380Y-285588095D02*
X10752380Y-284288095D01*
X11371428Y-284288095D01*
D10*
D11*
X200007200Y-60000000D02*
X198007200Y-60000000D01*
D10*
D11*
X200007200Y-110000000D02*
X198007200Y-110000000D01*
D10*
D11*
X200007200Y-160000000D02*
X198007200Y-160000000D01*
D10*
D11*
X200007200Y-210000000D02*
X198007200Y-210000000D01*
D10*
D11*
X200007200Y-260000000D02*
X198007200Y-260000000D01*
D10*
D11*
X198697676Y-35216666D02*
X199316723Y-35216666D01*
X198573866Y-35588095D02*
X199007200Y-34288095D01*
X199440533Y-35588095D01*
D10*
D11*
X199100057Y-84907142D02*
X199285771Y-84969047D01*
X199347676Y-85030952D01*
X199409580Y-85154761D01*
X199409580Y-85340476D01*
X199347676Y-85464285D01*
X199285771Y-85526190D01*
X199161961Y-85588095D01*
X198666723Y-85588095D01*
X198666723Y-84288095D01*
X199100057Y-84288095D01*
X199223866Y-84350000D01*
X199285771Y-84411904D01*
X199347676Y-84535714D01*
X199347676Y-84659523D01*
X199285771Y-84783333D01*
X199223866Y-84845238D01*
X199100057Y-84907142D01*
X198666723Y-84907142D01*
D10*
D11*
X199409580Y-135464285D02*
X199347676Y-135526190D01*
X199161961Y-135588095D01*
X199038152Y-135588095D01*
X198852438Y-135526190D01*
X198728628Y-135402380D01*
X198666723Y-135278571D01*
X198604819Y-135030952D01*
X198604819Y-134845238D01*
X198666723Y-134597619D01*
X198728628Y-134473809D01*
X198852438Y-134350000D01*
X199038152Y-134288095D01*
X199161961Y-134288095D01*
X199347676Y-134350000D01*
X199409580Y-134411904D01*
D10*
D11*
X198666723Y-185588095D02*
X198666723Y-184288095D01*
X198976247Y-184288095D01*
X199161961Y-184350000D01*
X199285771Y-184473809D01*
X199347676Y-184597619D01*
X199409580Y-184845238D01*
X199409580Y-185030952D01*
X199347676Y-185278571D01*
X199285771Y-185402380D01*
X199161961Y-185526190D01*
X198976247Y-185588095D01*
X198666723Y-185588095D01*
D10*
D11*
X198728628Y-234907142D02*
X199161961Y-234907142D01*
X199347676Y-235588095D02*
X198728628Y-235588095D01*
X198728628Y-234288095D01*
X199347676Y-234288095D01*
D10*
D11*
X199192914Y-284907142D02*
X198759580Y-284907142D01*
X198759580Y-285588095D02*
X198759580Y-284288095D01*
X199378628Y-284288095D01*
D10*
D11*
X113439342Y-280780771D02*
X113439342Y-279280771D01*
X113796485Y-279280771D01*
X114010771Y-279352200D01*
X114153628Y-279495057D01*
X114225057Y-279637914D01*
X114296485Y-279923628D01*
X114296485Y-280137914D01*
X114225057Y-280423628D01*
X114153628Y-280566485D01*
X114010771Y-280709342D01*
X113796485Y-280780771D01*
X113439342Y-280780771D01*
X115582200Y-280780771D02*
X115582200Y-279995057D01*
X115510771Y-279852200D01*
X115367914Y-279780771D01*
X115082200Y-279780771D01*
X114939342Y-279852200D01*
X115582200Y-280709342D02*
X115439342Y-280780771D01*
X115082200Y-280780771D01*
X114939342Y-280709342D01*
X114867914Y-280566485D01*
X114867914Y-280423628D01*
X114939342Y-280280771D01*
X115082200Y-280209342D01*
X115439342Y-280209342D01*
X115582200Y-280137914D01*
X116082200Y-279780771D02*
X116653628Y-279780771D01*
X116296485Y-279280771D02*
X116296485Y-280566485D01*
X116367914Y-280709342D01*
X116510771Y-280780771D01*
X116653628Y-280780771D01*
X117725057Y-280709342D02*
X117582200Y-280780771D01*
X117296485Y-280780771D01*
X117153628Y-280709342D01*
X117082200Y-280566485D01*
X117082200Y-279995057D01*
X117153628Y-279852200D01*
X117296485Y-279780771D01*
X117582200Y-279780771D01*
X117725057Y-279852200D01*
X117796485Y-279995057D01*
X117796485Y-280137914D01*
X117082200Y-280280771D01*
X118439342Y-280637914D02*
X118510771Y-280709342D01*
X118439342Y-280780771D01*
X118367914Y-280709342D01*
X118439342Y-280637914D01*
X118439342Y-280780771D01*
X118439342Y-279852200D02*
X118510771Y-279923628D01*
X118439342Y-279995057D01*
X118367914Y-279923628D01*
X118439342Y-279852200D01*
X118439342Y-279995057D01*
D10*
D11*
X90007200Y-281502200D02*
X198007200Y-281502200D01*
D10*
D11*
X91439342Y-283580771D02*
X91439342Y-282080771D01*
X92296485Y-283580771D02*
X91653628Y-282723628D01*
X92296485Y-282080771D02*
X91439342Y-282937914D01*
X92939342Y-283580771D02*
X92939342Y-282580771D01*
X92939342Y-282080771D02*
X92867914Y-282152200D01*
X92939342Y-282223628D01*
X93010771Y-282152200D01*
X92939342Y-282080771D01*
X92939342Y-282223628D01*
X94510771Y-283437914D02*
X94439342Y-283509342D01*
X94225057Y-283580771D01*
X94082200Y-283580771D01*
X93867914Y-283509342D01*
X93725057Y-283366485D01*
X93653628Y-283223628D01*
X93582200Y-282937914D01*
X93582200Y-282723628D01*
X93653628Y-282437914D01*
X93725057Y-282295057D01*
X93867914Y-282152200D01*
X94082200Y-282080771D01*
X94225057Y-282080771D01*
X94439342Y-282152200D01*
X94510771Y-282223628D01*
X95796485Y-283580771D02*
X95796485Y-282795057D01*
X95725057Y-282652200D01*
X95582200Y-282580771D01*
X95296485Y-282580771D01*
X95153628Y-282652200D01*
X95796485Y-283509342D02*
X95653628Y-283580771D01*
X95296485Y-283580771D01*
X95153628Y-283509342D01*
X95082200Y-283366485D01*
X95082200Y-283223628D01*
X95153628Y-283080771D01*
X95296485Y-283009342D01*
X95653628Y-283009342D01*
X95796485Y-282937914D01*
X97153628Y-283580771D02*
X97153628Y-282080771D01*
X97153628Y-283509342D02*
X97010771Y-283580771D01*
X96725057Y-283580771D01*
X96582200Y-283509342D01*
X96510771Y-283437914D01*
X96439342Y-283295057D01*
X96439342Y-282866485D01*
X96510771Y-282723628D01*
X96582200Y-282652200D01*
X96725057Y-282580771D01*
X97010771Y-282580771D01*
X97153628Y-282652200D01*
X99010771Y-282795057D02*
X99510771Y-282795057D01*
X99725057Y-283580771D02*
X99010771Y-283580771D01*
X99010771Y-282080771D01*
X99725057Y-282080771D01*
X100367914Y-283437914D02*
X100439342Y-283509342D01*
X100367914Y-283580771D01*
X100296485Y-283509342D01*
X100367914Y-283437914D01*
X100367914Y-283580771D01*
X101082200Y-283580771D02*
X101082200Y-282080771D01*
X101439342Y-282080771D01*
X101653628Y-282152200D01*
X101796485Y-282295057D01*
X101867914Y-282437914D01*
X101939342Y-282723628D01*
X101939342Y-282937914D01*
X101867914Y-283223628D01*
X101796485Y-283366485D01*
X101653628Y-283509342D01*
X101439342Y-283580771D01*
X101082200Y-283580771D01*
X102582200Y-283437914D02*
X102653628Y-283509342D01*
X102582200Y-283580771D01*
X102510771Y-283509342D01*
X102582200Y-283437914D01*
X102582200Y-283580771D01*
X103225057Y-283152200D02*
X103939342Y-283152200D01*
X103082200Y-283580771D02*
X103582200Y-282080771D01*
X104082200Y-283580771D01*
X104582200Y-283437914D02*
X104653628Y-283509342D01*
X104582200Y-283580771D01*
X104510771Y-283509342D01*
X104582200Y-283437914D01*
X104582200Y-283580771D01*
X107582200Y-283580771D02*
X107582200Y-282080771D01*
X107725057Y-283009342D02*
X108153628Y-283580771D01*
X108153628Y-282580771D02*
X107582200Y-283152200D01*
X108796485Y-283580771D02*
X108796485Y-282580771D01*
X108796485Y-282080771D02*
X108725057Y-282152200D01*
X108796485Y-282223628D01*
X108867914Y-282152200D01*
X108796485Y-282080771D01*
X108796485Y-282223628D01*
X110153628Y-283509342D02*
X110010771Y-283580771D01*
X109725057Y-283580771D01*
X109582200Y-283509342D01*
X109510771Y-283437914D01*
X109439342Y-283295057D01*
X109439342Y-282866485D01*
X109510771Y-282723628D01*
X109582200Y-282652200D01*
X109725057Y-282580771D01*
X110010771Y-282580771D01*
X110153628Y-282652200D01*
X111439342Y-283580771D02*
X111439342Y-282795057D01*
X111367914Y-282652200D01*
X111225057Y-282580771D01*
X110939342Y-282580771D01*
X110796485Y-282652200D01*
X111439342Y-283509342D02*
X111296485Y-283580771D01*
X110939342Y-283580771D01*
X110796485Y-283509342D01*
X110725057Y-283366485D01*
X110725057Y-283223628D01*
X110796485Y-283080771D01*
X110939342Y-283009342D01*
X111296485Y-283009342D01*
X111439342Y-282937914D01*
X112796485Y-283580771D02*
X112796485Y-282080771D01*
X112796485Y-283509342D02*
X112653628Y-283580771D01*
X112367914Y-283580771D01*
X112225057Y-283509342D01*
X112153628Y-283437914D01*
X112082200Y-283295057D01*
X112082200Y-282866485D01*
X112153628Y-282723628D01*
X112225057Y-282652200D01*
X112367914Y-282580771D01*
X112653628Y-282580771D01*
X112796485Y-282652200D01*
X115082200Y-284152200D02*
X115010771Y-284080771D01*
X114867914Y-283866485D01*
X114796485Y-283723628D01*
X114725057Y-283509342D01*
X114653628Y-283152200D01*
X114653628Y-282866485D01*
X114725057Y-282509342D01*
X114796485Y-282295057D01*
X114867914Y-282152200D01*
X115010771Y-281937914D01*
X115082200Y-281866485D01*
X116367914Y-282080771D02*
X115653628Y-282080771D01*
X115582200Y-282795057D01*
X115653628Y-282723628D01*
X115796485Y-282652200D01*
X116153628Y-282652200D01*
X116296485Y-282723628D01*
X116367914Y-282795057D01*
X116439342Y-282937914D01*
X116439342Y-283295057D01*
X116367914Y-283437914D01*
X116296485Y-283509342D01*
X116153628Y-283580771D01*
X115796485Y-283580771D01*
X115653628Y-283509342D01*
X115582200Y-283437914D01*
X117082200Y-283437914D02*
X117153628Y-283509342D01*
X117082200Y-283580771D01*
X117010771Y-283509342D01*
X117082200Y-283437914D01*
X117082200Y-283580771D01*
X118582200Y-283580771D02*
X117725057Y-283580771D01*
X118153628Y-283580771D02*
X118153628Y-282080771D01*
X118010771Y-282295057D01*
X117867914Y-282437914D01*
X117725057Y-282509342D01*
X119225057Y-283437914D02*
X119296485Y-283509342D01*
X119225057Y-283580771D01*
X119153628Y-283509342D01*
X119225057Y-283437914D01*
X119225057Y-283580771D01*
X119796485Y-282080771D02*
X120796485Y-282080771D01*
X120153628Y-283580771D01*
X121225057Y-284152200D02*
X121296485Y-284080771D01*
X121439342Y-283866485D01*
X121510771Y-283723628D01*
X121582200Y-283509342D01*
X121653628Y-283152200D01*
X121653628Y-282866485D01*
X121582200Y-282509342D01*
X121510771Y-282295057D01*
X121439342Y-282152200D01*
X121296485Y-281937914D01*
X121225057Y-281866485D01*
X122367914Y-283009342D02*
X123510771Y-283009342D01*
X125010771Y-283580771D02*
X124153628Y-283580771D01*
X124582200Y-283580771D02*
X124582200Y-282080771D01*
X124439342Y-282295057D01*
X124296485Y-282437914D01*
X124153628Y-282509342D01*
D10*
D11*
X90007200Y-278502200D02*
X198007200Y-278502200D01*
D10*
D12*
X177416485Y-280780771D02*
X176916485Y-280066485D01*
X176559342Y-280780771D02*
X176559342Y-279280771D01*
X177130771Y-279280771D01*
X177273628Y-279352200D01*
X177345057Y-279423628D01*
X177416485Y-279566485D01*
X177416485Y-279780771D01*
X177345057Y-279923628D01*
X177273628Y-279995057D01*
X177130771Y-280066485D01*
X176559342Y-280066485D01*
X178630771Y-280709342D02*
X178487914Y-280780771D01*
X178202200Y-280780771D01*
X178059342Y-280709342D01*
X177987914Y-280566485D01*
X177987914Y-279995057D01*
X178059342Y-279852200D01*
X178202200Y-279780771D01*
X178487914Y-279780771D01*
X178630771Y-279852200D01*
X178702200Y-279995057D01*
X178702200Y-280137914D01*
X177987914Y-280280771D01*
X179202200Y-279780771D02*
X179559342Y-280780771D01*
X179916485Y-279780771D01*
X180487914Y-280637914D02*
X180559342Y-280709342D01*
X180487914Y-280780771D01*
X180416485Y-280709342D01*
X180487914Y-280637914D01*
X180487914Y-280780771D01*
X180487914Y-279852200D02*
X180559342Y-279923628D01*
X180487914Y-279995057D01*
X180416485Y-279923628D01*
X180487914Y-279852200D01*
X180487914Y-279995057D01*
D10*
D11*
X91367914Y-280709342D02*
X91582200Y-280780771D01*
X91939342Y-280780771D01*
X92082200Y-280709342D01*
X92153628Y-280637914D01*
X92225057Y-280495057D01*
X92225057Y-280352200D01*
X92153628Y-280209342D01*
X92082200Y-280137914D01*
X91939342Y-280066485D01*
X91653628Y-279995057D01*
X91510771Y-279923628D01*
X91439342Y-279852200D01*
X91367914Y-279709342D01*
X91367914Y-279566485D01*
X91439342Y-279423628D01*
X91510771Y-279352200D01*
X91653628Y-279280771D01*
X92010771Y-279280771D01*
X92225057Y-279352200D01*
X92867914Y-280780771D02*
X92867914Y-279780771D01*
X92867914Y-279280771D02*
X92796485Y-279352200D01*
X92867914Y-279423628D01*
X92939342Y-279352200D01*
X92867914Y-279280771D01*
X92867914Y-279423628D01*
X93439342Y-279780771D02*
X94225057Y-279780771D01*
X93439342Y-280780771D01*
X94225057Y-280780771D01*
X95367914Y-280709342D02*
X95225057Y-280780771D01*
X94939342Y-280780771D01*
X94796485Y-280709342D01*
X94725057Y-280566485D01*
X94725057Y-279995057D01*
X94796485Y-279852200D01*
X94939342Y-279780771D01*
X95225057Y-279780771D01*
X95367914Y-279852200D01*
X95439342Y-279995057D01*
X95439342Y-280137914D01*
X94725057Y-280280771D01*
X96082200Y-280637914D02*
X96153628Y-280709342D01*
X96082200Y-280780771D01*
X96010771Y-280709342D01*
X96082200Y-280637914D01*
X96082200Y-280780771D01*
X96082200Y-279852200D02*
X96153628Y-279923628D01*
X96082200Y-279995057D01*
X96010771Y-279923628D01*
X96082200Y-279852200D01*
X96082200Y-279995057D01*
X97867914Y-280352200D02*
X98582200Y-280352200D01*
X97725057Y-280780771D02*
X98225057Y-279280771D01*
X98725057Y-280780771D01*
X99867914Y-279780771D02*
X99867914Y-280780771D01*
X99510771Y-279209342D02*
X99153628Y-280280771D01*
X100082200Y-280280771D01*
D10*
D11*
X176439342Y-283580771D02*
X176439342Y-282080771D01*
X177796485Y-283580771D02*
X177796485Y-282080771D01*
X177796485Y-283509342D02*
X177653628Y-283580771D01*
X177367914Y-283580771D01*
X177225057Y-283509342D01*
X177153628Y-283437914D01*
X177082200Y-283295057D01*
X177082200Y-282866485D01*
X177153628Y-282723628D01*
X177225057Y-282652200D01*
X177367914Y-282580771D01*
X177653628Y-282580771D01*
X177796485Y-282652200D01*
X178510771Y-283437914D02*
X178582200Y-283509342D01*
X178510771Y-283580771D01*
X178439342Y-283509342D01*
X178510771Y-283437914D01*
X178510771Y-283580771D01*
X178510771Y-282652200D02*
X178582200Y-282723628D01*
X178510771Y-282795057D01*
X178439342Y-282723628D01*
X178510771Y-282652200D01*
X178510771Y-282795057D01*
X181153628Y-283580771D02*
X180296485Y-283580771D01*
X180725057Y-283580771D02*
X180725057Y-282080771D01*
X180582200Y-282295057D01*
X180439342Y-282437914D01*
X180296485Y-282509342D01*
X182867914Y-282009342D02*
X181582200Y-283937914D01*
X184153628Y-283580771D02*
X183296485Y-283580771D01*
X183725057Y-283580771D02*
X183725057Y-282080771D01*
X183582200Y-282295057D01*
X183439342Y-282437914D01*
X183296485Y-282509342D01*
D10*
D11*
X90007200Y-274502200D02*
X198007200Y-274502200D01*
D10*
D13*
X91719580Y-275206961D02*
X92862438Y-275206961D01*
X92041009Y-277206961D02*
X92291009Y-275206961D01*
X93279104Y-277206961D02*
X93445771Y-275873628D01*
X93529104Y-275206961D02*
X93421961Y-275302200D01*
X93505295Y-275397438D01*
X93612438Y-275302200D01*
X93529104Y-275206961D01*
X93505295Y-275397438D01*
X94112438Y-275873628D02*
X94874342Y-275873628D01*
X94481485Y-275206961D02*
X94267200Y-276921247D01*
X94338628Y-277111723D01*
X94517200Y-277206961D01*
X94707676Y-277206961D01*
X95660057Y-277206961D02*
X95481485Y-277111723D01*
X95410057Y-276921247D01*
X95624342Y-275206961D01*
X97195771Y-277111723D02*
X96993390Y-277206961D01*
X96612438Y-277206961D01*
X96433866Y-277111723D01*
X96362438Y-276921247D01*
X96457676Y-276159342D01*
X96576723Y-275968866D01*
X96779104Y-275873628D01*
X97160057Y-275873628D01*
X97338628Y-275968866D01*
X97410057Y-276159342D01*
X97386247Y-276349819D01*
X96410057Y-276540295D01*
X98160057Y-277016485D02*
X98243390Y-277111723D01*
X98136247Y-277206961D01*
X98052914Y-277111723D01*
X98160057Y-277016485D01*
X98136247Y-277206961D01*
X98291009Y-275968866D02*
X98374342Y-276064104D01*
X98267200Y-276159342D01*
X98183866Y-276064104D01*
X98291009Y-275968866D01*
X98267200Y-276159342D01*
X100612438Y-277206961D02*
X100862438Y-275206961D01*
X101624342Y-275206961D01*
X101802914Y-275302200D01*
X101886247Y-275397438D01*
X101957676Y-275587914D01*
X101921961Y-275873628D01*
X101802914Y-276064104D01*
X101695771Y-276159342D01*
X101493390Y-276254580D01*
X100731485Y-276254580D01*
X103779104Y-277016485D02*
X103671961Y-277111723D01*
X103374342Y-277206961D01*
X103183866Y-277206961D01*
X102910057Y-277111723D01*
X102743390Y-276921247D01*
X102671961Y-276730771D01*
X102624342Y-276349819D01*
X102660057Y-276064104D01*
X102802914Y-275683152D01*
X102921961Y-275492676D01*
X103136247Y-275302200D01*
X103433866Y-275206961D01*
X103624342Y-275206961D01*
X103898152Y-275302200D01*
X103981485Y-275397438D01*
D10*
D11*
X91939342Y-272595057D02*
X91439342Y-272595057D01*
X91439342Y-273380771D02*
X91439342Y-271880771D01*
X92153628Y-271880771D01*
X92725057Y-273380771D02*
X92725057Y-272380771D01*
X92725057Y-271880771D02*
X92653628Y-271952200D01*
X92725057Y-272023628D01*
X92796485Y-271952200D01*
X92725057Y-271880771D01*
X92725057Y-272023628D01*
X93653628Y-273380771D02*
X93510771Y-273309342D01*
X93439342Y-273166485D01*
X93439342Y-271880771D01*
X94796485Y-273309342D02*
X94653628Y-273380771D01*
X94367914Y-273380771D01*
X94225057Y-273309342D01*
X94153628Y-273166485D01*
X94153628Y-272595057D01*
X94225057Y-272452200D01*
X94367914Y-272380771D01*
X94653628Y-272380771D01*
X94796485Y-272452200D01*
X94867914Y-272595057D01*
X94867914Y-272737914D01*
X94153628Y-272880771D01*
X95510771Y-273237914D02*
X95582200Y-273309342D01*
X95510771Y-273380771D01*
X95439342Y-273309342D01*
X95510771Y-273237914D01*
X95510771Y-273380771D01*
X95510771Y-272452200D02*
X95582200Y-272523628D01*
X95510771Y-272595057D01*
X95439342Y-272523628D01*
X95510771Y-272452200D01*
X95510771Y-272595057D01*
X98153628Y-271952200D02*
X98010771Y-271880771D01*
X97796485Y-271880771D01*
X97582200Y-271952200D01*
X97439342Y-272095057D01*
X97367914Y-272237914D01*
X97296485Y-272523628D01*
X97296485Y-272737914D01*
X97367914Y-273023628D01*
X97439342Y-273166485D01*
X97582200Y-273309342D01*
X97796485Y-273380771D01*
X97939342Y-273380771D01*
X98153628Y-273309342D01*
X98225057Y-273237914D01*
X98225057Y-272737914D01*
X97939342Y-272737914D01*
X98867914Y-273380771D02*
X98867914Y-271880771D01*
X99439342Y-271880771D01*
X99582200Y-271952200D01*
X99653628Y-272023628D01*
X99725057Y-272166485D01*
X99725057Y-272380771D01*
X99653628Y-272523628D01*
X99582200Y-272595057D01*
X99439342Y-272666485D01*
X98867914Y-272666485D01*
X100367914Y-271880771D02*
X100367914Y-273095057D01*
X100439342Y-273237914D01*
X100510771Y-273309342D01*
X100653628Y-273380771D01*
X100939342Y-273380771D01*
X101082200Y-273309342D01*
X101153628Y-273237914D01*
X101225057Y-273095057D01*
X101225057Y-271880771D01*
X101582200Y-273523628D02*
X102725057Y-273523628D01*
X103082200Y-273380771D02*
X103082200Y-271880771D01*
X103653628Y-271880771D01*
X103796485Y-271952200D01*
X103867914Y-272023628D01*
X103939342Y-272166485D01*
X103939342Y-272380771D01*
X103867914Y-272523628D01*
X103796485Y-272595057D01*
X103653628Y-272666485D01*
X103082200Y-272666485D01*
X104582200Y-273380771D02*
X104582200Y-272380771D01*
X104582200Y-272666485D02*
X104653628Y-272523628D01*
X104725057Y-272452200D01*
X104867914Y-272380771D01*
X105010771Y-272380771D01*
X105725057Y-273380771D02*
X105582200Y-273309342D01*
X105510771Y-273237914D01*
X105439342Y-273095057D01*
X105439342Y-272666485D01*
X105510771Y-272523628D01*
X105582200Y-272452200D01*
X105725057Y-272380771D01*
X105939342Y-272380771D01*
X106082200Y-272452200D01*
X106153628Y-272523628D01*
X106225057Y-272666485D01*
X106225057Y-273095057D01*
X106153628Y-273237914D01*
X106082200Y-273309342D01*
X105939342Y-273380771D01*
X105725057Y-273380771D01*
X106867914Y-272380771D02*
X106867914Y-273666485D01*
X106796485Y-273809342D01*
X106653628Y-273880771D01*
X106582200Y-273880771D01*
X106867914Y-271880771D02*
X106796485Y-271952200D01*
X106867914Y-272023628D01*
X106939342Y-271952200D01*
X106867914Y-271880771D01*
X106867914Y-272023628D01*
X108153628Y-273309342D02*
X108010771Y-273380771D01*
X107725057Y-273380771D01*
X107582200Y-273309342D01*
X107510771Y-273166485D01*
X107510771Y-272595057D01*
X107582200Y-272452200D01*
X107725057Y-272380771D01*
X108010771Y-272380771D01*
X108153628Y-272452200D01*
X108225057Y-272595057D01*
X108225057Y-272737914D01*
X107510771Y-272880771D01*
X108653628Y-272380771D02*
X109225057Y-272380771D01*
X108867914Y-271880771D02*
X108867914Y-273166485D01*
X108939342Y-273309342D01*
X109082200Y-273380771D01*
X109225057Y-273380771D01*
X109939342Y-273380771D02*
X109796485Y-273309342D01*
X109725057Y-273237914D01*
X109653628Y-273095057D01*
X109653628Y-272666485D01*
X109725057Y-272523628D01*
X109796485Y-272452200D01*
X109939342Y-272380771D01*
X110153628Y-272380771D01*
X110296485Y-272452200D01*
X110367914Y-272523628D01*
X110439342Y-272666485D01*
X110439342Y-273095057D01*
X110367914Y-273237914D01*
X110296485Y-273309342D01*
X110153628Y-273380771D01*
X109939342Y-273380771D01*
X111082200Y-273237914D02*
X111153628Y-273309342D01*
X111082200Y-273380771D01*
X111010771Y-273309342D01*
X111082200Y-273237914D01*
X111082200Y-273380771D01*
X111796485Y-273380771D02*
X111796485Y-271880771D01*
X111939342Y-272809342D02*
X112367914Y-273380771D01*
X112367914Y-272380771D02*
X111796485Y-272952200D01*
X113010771Y-273380771D02*
X113010771Y-272380771D01*
X113010771Y-271880771D02*
X112939342Y-271952200D01*
X113010771Y-272023628D01*
X113082200Y-271952200D01*
X113010771Y-271880771D01*
X113010771Y-272023628D01*
X114367914Y-273309342D02*
X114225057Y-273380771D01*
X113939342Y-273380771D01*
X113796485Y-273309342D01*
X113725057Y-273237914D01*
X113653628Y-273095057D01*
X113653628Y-272666485D01*
X113725057Y-272523628D01*
X113796485Y-272452200D01*
X113939342Y-272380771D01*
X114225057Y-272380771D01*
X114367914Y-272452200D01*
X115653628Y-273380771D02*
X115653628Y-272595057D01*
X115582200Y-272452200D01*
X115439342Y-272380771D01*
X115153628Y-272380771D01*
X115010771Y-272452200D01*
X115653628Y-273309342D02*
X115510771Y-273380771D01*
X115153628Y-273380771D01*
X115010771Y-273309342D01*
X114939342Y-273166485D01*
X114939342Y-273023628D01*
X115010771Y-272880771D01*
X115153628Y-272809342D01*
X115510771Y-272809342D01*
X115653628Y-272737914D01*
X117010771Y-273380771D02*
X117010771Y-271880771D01*
X117010771Y-273309342D02*
X116867914Y-273380771D01*
X116582200Y-273380771D01*
X116439342Y-273309342D01*
X116367914Y-273237914D01*
X116296485Y-273095057D01*
X116296485Y-272666485D01*
X116367914Y-272523628D01*
X116439342Y-272452200D01*
X116582200Y-272380771D01*
X116867914Y-272380771D01*
X117010771Y-272452200D01*
X117367914Y-273523628D02*
X118510771Y-273523628D01*
X118867914Y-272380771D02*
X118867914Y-273880771D01*
X118867914Y-272452200D02*
X119010771Y-272380771D01*
X119296485Y-272380771D01*
X119439342Y-272452200D01*
X119510771Y-272523628D01*
X119582200Y-272666485D01*
X119582200Y-273095057D01*
X119510771Y-273237914D01*
X119439342Y-273309342D01*
X119296485Y-273380771D01*
X119010771Y-273380771D01*
X118867914Y-273309342D01*
X120867914Y-273309342D02*
X120725057Y-273380771D01*
X120439342Y-273380771D01*
X120296485Y-273309342D01*
X120225057Y-273237914D01*
X120153628Y-273095057D01*
X120153628Y-272666485D01*
X120225057Y-272523628D01*
X120296485Y-272452200D01*
X120439342Y-272380771D01*
X120725057Y-272380771D01*
X120867914Y-272452200D01*
X121510771Y-273380771D02*
X121510771Y-271880771D01*
X121510771Y-272452200D02*
X121653628Y-272380771D01*
X121939342Y-272380771D01*
X122082200Y-272452200D01*
X122153628Y-272523628D01*
X122225057Y-272666485D01*
X122225057Y-273095057D01*
X122153628Y-273237914D01*
X122082200Y-273309342D01*
X121939342Y-273380771D01*
X121653628Y-273380771D01*
X121510771Y-273309342D01*
D10*
D11*
X90007200Y-268502200D02*
X198007200Y-268502200D01*
D10*
D11*
X91367914Y-270609342D02*
X91582200Y-270680771D01*
X91939342Y-270680771D01*
X92082200Y-270609342D01*
X92153628Y-270537914D01*
X92225057Y-270395057D01*
X92225057Y-270252200D01*
X92153628Y-270109342D01*
X92082200Y-270037914D01*
X91939342Y-269966485D01*
X91653628Y-269895057D01*
X91510771Y-269823628D01*
X91439342Y-269752200D01*
X91367914Y-269609342D01*
X91367914Y-269466485D01*
X91439342Y-269323628D01*
X91510771Y-269252200D01*
X91653628Y-269180771D01*
X92010771Y-269180771D01*
X92225057Y-269252200D01*
X92867914Y-270680771D02*
X92867914Y-269180771D01*
X93510771Y-270680771D02*
X93510771Y-269895057D01*
X93439342Y-269752200D01*
X93296485Y-269680771D01*
X93082200Y-269680771D01*
X92939342Y-269752200D01*
X92867914Y-269823628D01*
X94796485Y-270609342D02*
X94653628Y-270680771D01*
X94367914Y-270680771D01*
X94225057Y-270609342D01*
X94153628Y-270466485D01*
X94153628Y-269895057D01*
X94225057Y-269752200D01*
X94367914Y-269680771D01*
X94653628Y-269680771D01*
X94796485Y-269752200D01*
X94867914Y-269895057D01*
X94867914Y-270037914D01*
X94153628Y-270180771D01*
X96082200Y-270609342D02*
X95939342Y-270680771D01*
X95653628Y-270680771D01*
X95510771Y-270609342D01*
X95439342Y-270466485D01*
X95439342Y-269895057D01*
X95510771Y-269752200D01*
X95653628Y-269680771D01*
X95939342Y-269680771D01*
X96082200Y-269752200D01*
X96153628Y-269895057D01*
X96153628Y-270037914D01*
X95439342Y-270180771D01*
X96582200Y-269680771D02*
X97153628Y-269680771D01*
X96796485Y-269180771D02*
X96796485Y-270466485D01*
X96867914Y-270609342D01*
X97010771Y-270680771D01*
X97153628Y-270680771D01*
X97653628Y-270537914D02*
X97725057Y-270609342D01*
X97653628Y-270680771D01*
X97582200Y-270609342D01*
X97653628Y-270537914D01*
X97653628Y-270680771D01*
X97653628Y-269752200D02*
X97725057Y-269823628D01*
X97653628Y-269895057D01*
X97582200Y-269823628D01*
X97653628Y-269752200D01*
X97653628Y-269895057D01*
D10*
D11*
X91439342Y-264680771D02*
X91439342Y-263180771D01*
X91796485Y-263180771D01*
X92010771Y-263252200D01*
X92153628Y-263395057D01*
X92225057Y-263537914D01*
X92296485Y-263823628D01*
X92296485Y-264037914D01*
X92225057Y-264323628D01*
X92153628Y-264466485D01*
X92010771Y-264609342D01*
X91796485Y-264680771D01*
X91439342Y-264680771D01*
X92939342Y-264680771D02*
X92939342Y-263680771D01*
X92939342Y-263180771D02*
X92867914Y-263252200D01*
X92939342Y-263323628D01*
X93010771Y-263252200D01*
X92939342Y-263180771D01*
X92939342Y-263323628D01*
X93867914Y-264680771D02*
X93725057Y-264609342D01*
X93653628Y-264537914D01*
X93582200Y-264395057D01*
X93582200Y-263966485D01*
X93653628Y-263823628D01*
X93725057Y-263752200D01*
X93867914Y-263680771D01*
X94082200Y-263680771D01*
X94225057Y-263752200D01*
X94296485Y-263823628D01*
X94367914Y-263966485D01*
X94367914Y-264395057D01*
X94296485Y-264537914D01*
X94225057Y-264609342D01*
X94082200Y-264680771D01*
X93867914Y-264680771D01*
X95653628Y-263680771D02*
X95653628Y-264895057D01*
X95582200Y-265037914D01*
X95510771Y-265109342D01*
X95367914Y-265180771D01*
X95153628Y-265180771D01*
X95010771Y-265109342D01*
X95653628Y-264609342D02*
X95510771Y-264680771D01*
X95225057Y-264680771D01*
X95082200Y-264609342D01*
X95010771Y-264537914D01*
X94939342Y-264395057D01*
X94939342Y-263966485D01*
X95010771Y-263823628D01*
X95082200Y-263752200D01*
X95225057Y-263680771D01*
X95510771Y-263680771D01*
X95653628Y-263752200D01*
X96582200Y-264680771D02*
X96439342Y-264609342D01*
X96367914Y-264537914D01*
X96296485Y-264395057D01*
X96296485Y-263966485D01*
X96367914Y-263823628D01*
X96439342Y-263752200D01*
X96582200Y-263680771D01*
X96796485Y-263680771D01*
X96939342Y-263752200D01*
X97010771Y-263823628D01*
X97082200Y-263966485D01*
X97082200Y-264395057D01*
X97010771Y-264537914D01*
X96939342Y-264609342D01*
X96796485Y-264680771D01*
X96582200Y-264680771D01*
X98796485Y-264609342D02*
X99010771Y-264680771D01*
X99367914Y-264680771D01*
X99510771Y-264609342D01*
X99582200Y-264537914D01*
X99653628Y-264395057D01*
X99653628Y-264252200D01*
X99582200Y-264109342D01*
X99510771Y-264037914D01*
X99367914Y-263966485D01*
X99082200Y-263895057D01*
X98939342Y-263823628D01*
X98867914Y-263752200D01*
X98796485Y-263609342D01*
X98796485Y-263466485D01*
X98867914Y-263323628D01*
X98939342Y-263252200D01*
X99082200Y-263180771D01*
X99439342Y-263180771D01*
X99653628Y-263252200D01*
X100296485Y-264680771D02*
X100296485Y-263680771D01*
X100296485Y-263180771D02*
X100225057Y-263252200D01*
X100296485Y-263323628D01*
X100367914Y-263252200D01*
X100296485Y-263180771D01*
X100296485Y-263323628D01*
X101225057Y-264680771D02*
X101082200Y-264609342D01*
X101010771Y-264466485D01*
X101010771Y-263180771D01*
X101653628Y-263680771D02*
X102010771Y-264680771D01*
X102367914Y-263680771D01*
X103582200Y-264680771D02*
X103582200Y-263895057D01*
X103510771Y-263752200D01*
X103367914Y-263680771D01*
X103082200Y-263680771D01*
X102939342Y-263752200D01*
X103582200Y-264609342D02*
X103439342Y-264680771D01*
X103082200Y-264680771D01*
X102939342Y-264609342D01*
X102867914Y-264466485D01*
X102867914Y-264323628D01*
X102939342Y-264180771D01*
X103082200Y-264109342D01*
X103439342Y-264109342D01*
X103582200Y-264037914D01*
D10*
D11*
X91439342Y-260680771D02*
X91439342Y-261680771D01*
X91439342Y-260823628D02*
X91510771Y-260752200D01*
X91653628Y-260680771D01*
X91867914Y-260680771D01*
X92010771Y-260752200D01*
X92082200Y-260895057D01*
X92082200Y-261680771D01*
X92867914Y-260752200D02*
X92725057Y-260680771D01*
X92653628Y-260537914D01*
X92653628Y-260252200D01*
X92725057Y-260109342D01*
X92867914Y-260037914D01*
X93010771Y-260037914D01*
X93153628Y-260109342D01*
X93225057Y-260252200D01*
X93225057Y-260537914D01*
X93153628Y-260680771D01*
X93010771Y-260752200D01*
X92867914Y-260752200D01*
X94582200Y-261680771D02*
X93725057Y-261680771D01*
X94153628Y-261680771D02*
X94153628Y-260180771D01*
X94010771Y-260395057D01*
X93867914Y-260537914D01*
X93725057Y-260609342D01*
X95296485Y-261680771D02*
X95582200Y-261680771D01*
X95725057Y-261609342D01*
X95796485Y-261537914D01*
X95939342Y-261323628D01*
X96010771Y-261037914D01*
X96010771Y-260466485D01*
X95939342Y-260323628D01*
X95867914Y-260252200D01*
X95725057Y-260180771D01*
X95439342Y-260180771D01*
X95296485Y-260252200D01*
X95225057Y-260323628D01*
X95153628Y-260466485D01*
X95153628Y-260823628D01*
X95225057Y-260966485D01*
X95296485Y-261037914D01*
X95439342Y-261109342D01*
X95725057Y-261109342D01*
X95867914Y-261037914D01*
X95939342Y-260966485D01*
X96010771Y-260823628D01*
X96939342Y-260180771D02*
X97082200Y-260180771D01*
X97225057Y-260252200D01*
X97296485Y-260323628D01*
X97367914Y-260466485D01*
X97439342Y-260752200D01*
X97439342Y-261109342D01*
X97367914Y-261395057D01*
X97296485Y-261537914D01*
X97225057Y-261609342D01*
X97082200Y-261680771D01*
X96939342Y-261680771D01*
X96796485Y-261609342D01*
X96725057Y-261537914D01*
X96653628Y-261395057D01*
X96582200Y-261109342D01*
X96582200Y-260752200D01*
X96653628Y-260466485D01*
X96725057Y-260323628D01*
X96796485Y-260252200D01*
X96939342Y-260180771D01*
X98010771Y-260323628D02*
X98082200Y-260252200D01*
X98225057Y-260180771D01*
X98582200Y-260180771D01*
X98725057Y-260252200D01*
X98796485Y-260323628D01*
X98867914Y-260466485D01*
X98867914Y-260609342D01*
X98796485Y-260823628D01*
X97939342Y-261680771D01*
X98867914Y-261680771D01*
X99796485Y-260180771D02*
X99939342Y-260180771D01*
X100082200Y-260252200D01*
X100153628Y-260323628D01*
X100225057Y-260466485D01*
X100296485Y-260752200D01*
X100296485Y-261109342D01*
X100225057Y-261395057D01*
X100153628Y-261537914D01*
X100082200Y-261609342D01*
X99939342Y-261680771D01*
X99796485Y-261680771D01*
X99653628Y-261609342D01*
X99582200Y-261537914D01*
X99510771Y-261395057D01*
X99439342Y-261109342D01*
X99439342Y-260752200D01*
X99510771Y-260466485D01*
X99582200Y-260323628D01*
X99653628Y-260252200D01*
X99796485Y-260180771D01*
X101582200Y-260680771D02*
X101582200Y-261680771D01*
X101225057Y-260109342D02*
X100867914Y-261180771D01*
X101796485Y-261180771D01*
X102653628Y-260180771D02*
X102796485Y-260180771D01*
X102939342Y-260252200D01*
X103010771Y-260323628D01*
X103082200Y-260466485D01*
X103153628Y-260752200D01*
X103153628Y-261109342D01*
X103082200Y-261395057D01*
X103010771Y-261537914D01*
X102939342Y-261609342D01*
X102796485Y-261680771D01*
X102653628Y-261680771D01*
X102510771Y-261609342D01*
X102439342Y-261537914D01*
X102367914Y-261395057D01*
X102296485Y-261109342D01*
X102296485Y-260752200D01*
X102367914Y-260466485D01*
X102439342Y-260323628D01*
X102510771Y-260252200D01*
X102653628Y-260180771D01*
X104082200Y-260180771D02*
X104225057Y-260180771D01*
X104367914Y-260252200D01*
X104439342Y-260323628D01*
X104510771Y-260466485D01*
X104582200Y-260752200D01*
X104582200Y-261109342D01*
X104510771Y-261395057D01*
X104439342Y-261537914D01*
X104367914Y-261609342D01*
X104225057Y-261680771D01*
X104082200Y-261680771D01*
X103939342Y-261609342D01*
X103867914Y-261537914D01*
X103796485Y-261395057D01*
X103725057Y-261109342D01*
X103725057Y-260752200D01*
X103796485Y-260466485D01*
X103867914Y-260323628D01*
X103939342Y-260252200D01*
X104082200Y-260180771D01*
X105082200Y-260180771D02*
X106082200Y-260180771D01*
X105439342Y-261680771D01*
D10*
D11*
X91439342Y-258680771D02*
X91439342Y-257180771D01*
X92010771Y-257180771D01*
X92153628Y-257252200D01*
X92225057Y-257323628D01*
X92296485Y-257466485D01*
X92296485Y-257680771D01*
X92225057Y-257823628D01*
X92153628Y-257895057D01*
X92010771Y-257966485D01*
X91439342Y-257966485D01*
X92939342Y-258680771D02*
X92939342Y-257680771D01*
X92939342Y-257966485D02*
X93010771Y-257823628D01*
X93082200Y-257752200D01*
X93225057Y-257680771D01*
X93367914Y-257680771D01*
X94082200Y-258680771D02*
X93939342Y-258609342D01*
X93867914Y-258537914D01*
X93796485Y-258395057D01*
X93796485Y-257966485D01*
X93867914Y-257823628D01*
X93939342Y-257752200D01*
X94082200Y-257680771D01*
X94296485Y-257680771D01*
X94439342Y-257752200D01*
X94510771Y-257823628D01*
X94582200Y-257966485D01*
X94582200Y-258395057D01*
X94510771Y-258537914D01*
X94439342Y-258609342D01*
X94296485Y-258680771D01*
X94082200Y-258680771D01*
X95225057Y-257680771D02*
X95225057Y-258966485D01*
X95153628Y-259109342D01*
X95010771Y-259180771D01*
X94939342Y-259180771D01*
X95225057Y-257180771D02*
X95153628Y-257252200D01*
X95225057Y-257323628D01*
X95296485Y-257252200D01*
X95225057Y-257180771D01*
X95225057Y-257323628D01*
X96510771Y-258609342D02*
X96367914Y-258680771D01*
X96082200Y-258680771D01*
X95939342Y-258609342D01*
X95867914Y-258466485D01*
X95867914Y-257895057D01*
X95939342Y-257752200D01*
X96082200Y-257680771D01*
X96367914Y-257680771D01*
X96510771Y-257752200D01*
X96582200Y-257895057D01*
X96582200Y-258037914D01*
X95867914Y-258180771D01*
X97010771Y-257680771D02*
X97582200Y-257680771D01*
X97225057Y-257180771D02*
X97225057Y-258466485D01*
X97296485Y-258609342D01*
X97439342Y-258680771D01*
X97582200Y-258680771D01*
X98296485Y-258680771D02*
X98153628Y-258609342D01*
X98082200Y-258537914D01*
X98010771Y-258395057D01*
X98010771Y-257966485D01*
X98082200Y-257823628D01*
X98153628Y-257752200D01*
X98296485Y-257680771D01*
X98510771Y-257680771D01*
X98653628Y-257752200D01*
X98725057Y-257823628D01*
X98796485Y-257966485D01*
X98796485Y-258395057D01*
X98725057Y-258537914D01*
X98653628Y-258609342D01*
X98510771Y-258680771D01*
X98296485Y-258680771D01*
D10*
D11*
X110007200Y-278502200D02*
X110007200Y-281502200D01*
D10*
D11*
X174007200Y-278502200D02*
X174007200Y-285002200D01*
D14*
%TO.P,T1,2*%
%TO.N,Net-(J1-Pad2)*%
X44810000Y-216260000D03*
%TO.P,T1,3*%
%TO.N,Net-(D1-Pad2)*%
X57510000Y-216260000D03*
%TO.P,T1,4*%
%TO.N,Net-(F1-Pad2)*%
X57510000Y-208640000D03*
D15*
%TO.P,T1,1*%
%TO.N,Net-(J1-Pad1)*%
X44810000Y-208640000D03*
%TD*%
D16*
%TO.P,J5,0*%
%TO.N,N/C*%
X178430000Y-58605000D03*
X178430000Y-83605000D03*
D17*
%TO.P,J5,15*%
X180340000Y-75950000D03*
%TO.P,J5,14*%
%TO.N,/Computador/Video Out/Sincroniza\u00E7\u00E3o Vertical/VSync*%
X180340000Y-73660000D03*
%TO.P,J5,13*%
%TO.N,/Computador/Video Out/Sincroniza\u00E7\u00E3o Horizontal/HSync*%
X180340000Y-71370000D03*
%TO.P,J5,12*%
%TO.N,N/C*%
X180340000Y-69080000D03*
%TO.P,J5,11*%
X180340000Y-66790000D03*
%TO.P,J5,10*%
%TO.N,GND*%
X178360000Y-74805000D03*
%TO.P,J5,9*%
%TO.N,N/C*%
X178360000Y-72515000D03*
%TO.P,J5,8*%
%TO.N,GND*%
X178360000Y-70225000D03*
%TO.P,J5,7*%
X178360000Y-67935000D03*
%TO.P,J5,6*%
X178360000Y-65645000D03*
%TO.P,J5,5*%
X176380000Y-75950000D03*
%TO.P,J5,4*%
%TO.N,N/C*%
X176380000Y-73660000D03*
%TO.P,J5,3*%
%TO.N,/Computador/Video Out/Blue*%
X176380000Y-71370000D03*
%TO.P,J5,2*%
%TO.N,/Computador/Video Out/Green*%
X176380000Y-69080000D03*
D18*
%TO.P,J5,1*%
%TO.N,/Computador/Video Out/Red*%
X176380000Y-66790000D03*
%TD*%
D16*
%TO.P,U9,*%
%TO.N,*%
X66328580Y-168511760D03*
X66328580Y-205511940D03*
X181329620Y-168511760D03*
X181329620Y-205511940D03*
D19*
%TO.P,U9,16*%
%TO.N,GND*%
X173829000Y-167511000D03*
%TO.P,U9,15*%
%TO.N,+5V*%
X171289000Y-167511000D03*
%TO.P,U9,14*%
%TO.N,Net-(U8-Pad17)*%
X168749000Y-167511000D03*
%TO.P,U9,13*%
%TO.N,Net-(U8-Pad16)*%
X166209000Y-167511000D03*
%TO.P,U9,12*%
%TO.N,Net-(U8-Pad15)*%
X163669000Y-167511000D03*
%TO.P,U9,11*%
%TO.N,Net-(U8-Pad14)*%
X161129000Y-167511000D03*
%TO.P,U9,10*%
%TO.N,Net-(U8-Pad13)*%
X158589000Y-167511000D03*
%TO.P,U9,9*%
%TO.N,Net-(U8-Pad12)*%
X156049000Y-167511000D03*
%TO.P,U9,8*%
%TO.N,Net-(U8-Pad11)*%
X153509000Y-167511000D03*
%TO.P,U9,7*%
%TO.N,Net-(U8-Pad10)*%
X150969000Y-167511000D03*
%TO.P,U9,6*%
%TO.N,Net-(U8-Pad9)*%
X148429000Y-167511000D03*
%TO.P,U9,5*%
%TO.N,Net-(U8-Pad8)*%
X145889000Y-167511000D03*
%TO.P,U9,4*%
%TO.N,Net-(U8-Pad7)*%
X143349000Y-167511000D03*
%TO.P,U9,3*%
%TO.N,Net-(RV1-Pad2)*%
X140809000Y-167511000D03*
%TO.P,U9,2*%
%TO.N,GND*%
X138269000Y-167511000D03*
D20*
%TO.P,U9,1*%
%TO.N,+5V*%
X135729000Y-167511000D03*
%TD*%
D18*
%TO.P,C1,1*%
%TO.N,Net-(C1-Pad1)*%
X105410000Y-158750000D03*
D17*
%TO.P,C1,2*%
%TO.N,GND*%
X105410000Y-156250000D03*
%TD*%
D18*
%TO.P,C2,1*%
%TO.N,Net-(C1-Pad1)*%
X160020000Y-212090000D03*
D17*
%TO.P,C2,2*%
%TO.N,GND*%
X160020000Y-214590000D03*
%TD*%
%TO.P,C3,2*%
%TO.N,GND*%
X77430000Y-161290000D03*
D18*
%TO.P,C3,1*%
%TO.N,/PSU/+5V*%
X74930000Y-161290000D03*
%TD*%
D17*
%TO.P,C4,2*%
%TO.N,GND*%
X132080000Y-158155000D03*
D18*
%TO.P,C4,1*%
%TO.N,+5V*%
X132080000Y-160655000D03*
%TD*%
%TO.P,C5,1*%
%TO.N,Net-(C5-Pad1)*%
X88900000Y-160020000D03*
D17*
%TO.P,C5,2*%
%TO.N,GND*%
X88900000Y-162520000D03*
%TD*%
D18*
%TO.P,C6,1*%
%TO.N,+5V*%
X139700000Y-160655000D03*
D17*
%TO.P,C6,2*%
%TO.N,GND*%
X139700000Y-158155000D03*
%TD*%
%TO.P,C7,2*%
%TO.N,GND*%
X125730000Y-158155000D03*
D18*
%TO.P,C7,1*%
%TO.N,+5V*%
X125730000Y-160655000D03*
%TD*%
D21*
%TO.P,D1,2*%
%TO.N,Net-(D1-Pad2)*%
X91440000Y-214630000D03*
D22*
%TO.P,D1,1*%
%TO.N,Net-(D1-Pad1)*%
X81280000Y-214630000D03*
%TD*%
%TO.P,D2,1*%
%TO.N,GND*%
X91440000Y-219710000D03*
D21*
%TO.P,D2,2*%
%TO.N,Net-(D1-Pad2)*%
X81280000Y-219710000D03*
%TD*%
%TO.P,D3,2*%
%TO.N,Net-(D1-Pad1)*%
X65879200Y-214630000D03*
D22*
%TO.P,D3,1*%
%TO.N,Net-(C1-Pad1)*%
X76039200Y-214630000D03*
%TD*%
%TO.P,D4,1*%
%TO.N,Net-(C1-Pad1)*%
X76200000Y-219710000D03*
D21*
%TO.P,D4,2*%
%TO.N,GND*%
X66040000Y-219710000D03*
%TD*%
D23*
%TO.P,F1,1*%
%TO.N,Net-(D1-Pad1)*%
X55880000Y-199390000D03*
%TO.P,F1,2*%
%TO.N,Net-(F1-Pad2)*%
X45720000Y-199390000D03*
%TD*%
D24*
%TO.P,H1,1*%
%TO.N,N/C*%
X179070000Y-50800000D03*
%TD*%
%TO.P,H2,1*%
%TO.N,N/C*%
X49530000Y-49530000D03*
%TD*%
%TO.P,H3,1*%
%TO.N,N/C*%
X38100000Y-218440000D03*
%TD*%
%TO.P,H4,1*%
%TO.N,N/C*%
X180340000Y-219710000D03*
%TD*%
D25*
%TO.P,HS1,1*%
%TO.N,GND*%
X48260000Y-187970000D03*
X48260000Y-170170000D03*
%TD*%
D26*
%TO.P,J1,2*%
%TO.N,Net-(J1-Pad2)*%
X172720000Y-220980000D03*
D27*
%TO.P,J1,1*%
%TO.N,Net-(J1-Pad1)*%
X167640000Y-220980000D03*
%TD*%
D28*
%TO.P,RV1,3*%
%TO.N,N/C*%
X182719000Y-159891000D03*
%TO.P,RV1,2*%
%TO.N,Net-(RV1-Pad2)*%
X180179000Y-157351000D03*
%TO.P,RV1,1*%
%TO.N,GND*%
X177639000Y-159891000D03*
%TD*%
D29*
%TO.P,U1,1*%
%TO.N,GND*%
X49530000Y-181610000D03*
D30*
%TO.P,U1,2*%
%TO.N,/PSU/+5V*%
X49530000Y-179070000D03*
%TO.P,U1,3*%
%TO.N,Net-(C1-Pad1)*%
X49530000Y-176530000D03*
%TD*%
D18*
%TO.P,U2,1*%
%TO.N,N/C*%
X118110000Y-67310000D03*
D31*
%TO.P,U2,21*%
%TO.N,GND*%
X166370000Y-52070000D03*
%TO.P,U2,2*%
%TO.N,/Computador/Video Out/~DMA*%
X120650000Y-67310000D03*
%TO.P,U2,22*%
%TO.N,/Computador/a12*%
X163830000Y-52070000D03*
%TO.P,U2,3*%
%TO.N,N/C*%
X123190000Y-67310000D03*
%TO.P,U2,23*%
%TO.N,/Computador/a13*%
X161290000Y-52070000D03*
%TO.P,U2,4*%
%TO.N,Net-(U2-Pad4)*%
X125730000Y-67310000D03*
%TO.P,U2,24*%
%TO.N,/Computador/a14*%
X158750000Y-52070000D03*
%TO.P,U2,5*%
%TO.N,N/C*%
X128270000Y-67310000D03*
%TO.P,U2,25*%
%TO.N,/Computador/a15*%
X156210000Y-52070000D03*
%TO.P,U2,6*%
%TO.N,/PSU/+5V*%
X130810000Y-67310000D03*
%TO.P,U2,26*%
%TO.N,/Computador/d7*%
X153670000Y-52070000D03*
%TO.P,U2,7*%
%TO.N,N/C*%
X133350000Y-67310000D03*
%TO.P,U2,27*%
%TO.N,/Computador/d6*%
X151130000Y-52070000D03*
%TO.P,U2,8*%
%TO.N,/PSU/+5V*%
X135890000Y-67310000D03*
%TO.P,U2,28*%
%TO.N,/Computador/d5*%
X148590000Y-52070000D03*
%TO.P,U2,9*%
%TO.N,/Computador/a0*%
X138430000Y-67310000D03*
%TO.P,U2,29*%
%TO.N,/Computador/d4*%
X146050000Y-52070000D03*
%TO.P,U2,10*%
%TO.N,/Computador/a1*%
X140970000Y-67310000D03*
%TO.P,U2,30*%
%TO.N,/Computador/d3*%
X143510000Y-52070000D03*
%TO.P,U2,11*%
%TO.N,/Computador/a2*%
X143510000Y-67310000D03*
%TO.P,U2,31*%
%TO.N,/Computador/d2*%
X140970000Y-52070000D03*
%TO.P,U2,12*%
%TO.N,/Computador/a3*%
X146050000Y-67310000D03*
%TO.P,U2,32*%
%TO.N,/Computador/d1*%
X138430000Y-52070000D03*
%TO.P,U2,13*%
%TO.N,/Computador/a4*%
X148590000Y-67310000D03*
%TO.P,U2,33*%
%TO.N,/Computador/d0*%
X135890000Y-52070000D03*
%TO.P,U2,14*%
%TO.N,/Computador/a5*%
X151130000Y-67310000D03*
%TO.P,U2,34*%
%TO.N,Net-(R2-Pad2)*%
X133350000Y-52070000D03*
%TO.P,U2,15*%
%TO.N,/Computador/a6*%
X153670000Y-67310000D03*
%TO.P,U2,35*%
%TO.N,N/C*%
X130810000Y-52070000D03*
%TO.P,U2,16*%
%TO.N,/Computador/a7*%
X156210000Y-67310000D03*
%TO.P,U2,36*%
%TO.N,/Computador/Video Out/~DMA*%
X128270000Y-52070000D03*
%TO.P,U2,17*%
%TO.N,/Computador/a8*%
X158750000Y-67310000D03*
%TO.P,U2,37*%
%TO.N,Net-(U2-Pad37)*%
X125730000Y-52070000D03*
%TO.P,U2,18*%
%TO.N,/Computador/a9*%
X161290000Y-67310000D03*
%TO.P,U2,38*%
%TO.N,N/C*%
X123190000Y-52070000D03*
%TO.P,U2,19*%
%TO.N,/Computador/a10*%
X163830000Y-67310000D03*
%TO.P,U2,39*%
%TO.N,N/C*%
X120650000Y-52070000D03*
%TO.P,U2,20*%
%TO.N,/Computador/a11*%
X166370000Y-67310000D03*
%TO.P,U2,40*%
%TO.N,Net-(C5-Pad1)*%
X118110000Y-52070000D03*
%TD*%
D32*
%TO.P,U5,1*%
%TO.N,/Computador/a14*%
X154940000Y-96520000D03*
D33*
%TO.P,U5,15*%
%TO.N,/Computador/d3*%
X121920000Y-104140000D03*
%TO.P,U5,2*%
%TO.N,/Computador/a12*%
X152400000Y-96520000D03*
%TO.P,U5,16*%
%TO.N,/Computador/d4*%
X124460000Y-104140000D03*
%TO.P,U5,3*%
%TO.N,/Computador/a7*%
X149860000Y-96520000D03*
%TO.P,U5,17*%
%TO.N,/Computador/d5*%
X127000000Y-104140000D03*
%TO.P,U5,4*%
%TO.N,/Computador/a6*%
X147320000Y-96520000D03*
%TO.P,U5,18*%
%TO.N,/Computador/d6*%
X129540000Y-104140000D03*
%TO.P,U5,5*%
%TO.N,/Computador/a5*%
X144780000Y-96520000D03*
%TO.P,U5,19*%
%TO.N,/Computador/d7*%
X132080000Y-104140000D03*
%TO.P,U5,6*%
%TO.N,/Computador/a4*%
X142240000Y-96520000D03*
%TO.P,U5,20*%
%TO.N,Net-(U3-Pad10)*%
X134620000Y-104140000D03*
%TO.P,U5,7*%
%TO.N,/Computador/a3*%
X139700000Y-96520000D03*
%TO.P,U5,21*%
%TO.N,/Computador/a10*%
X137160000Y-104140000D03*
%TO.P,U5,8*%
%TO.N,/Computador/a2*%
X137160000Y-96520000D03*
%TO.P,U5,22*%
%TO.N,GND*%
X139700000Y-104140000D03*
%TO.P,U5,9*%
%TO.N,/Computador/a1*%
X134620000Y-96520000D03*
%TO.P,U5,23*%
%TO.N,/Computador/a11*%
X142240000Y-104140000D03*
%TO.P,U5,10*%
%TO.N,/Computador/a0*%
X132080000Y-96520000D03*
%TO.P,U5,24*%
%TO.N,/Computador/a9*%
X144780000Y-104140000D03*
%TO.P,U5,11*%
%TO.N,/Computador/d0*%
X129540000Y-96520000D03*
%TO.P,U5,25*%
%TO.N,/Computador/a8*%
X147320000Y-104140000D03*
%TO.P,U5,12*%
%TO.N,/Computador/d1*%
X127000000Y-96520000D03*
%TO.P,U5,26*%
%TO.N,/Computador/a13*%
X149860000Y-104140000D03*
%TO.P,U5,13*%
%TO.N,/Computador/d2*%
X124460000Y-96520000D03*
%TO.P,U5,27*%
%TO.N,+5V*%
X152400000Y-104140000D03*
%TO.P,U5,14*%
%TO.N,GND*%
X121920000Y-96520000D03*
%TO.P,U5,28*%
%TO.N,+5V*%
X154940000Y-104140000D03*
%TD*%
D31*
%TO.P,U7,28*%
%TO.N,+5V*%
X162560000Y-123190000D03*
%TO.P,U7,14*%
%TO.N,GND*%
X129540000Y-115570000D03*
%TO.P,U7,27*%
%TO.N,Net-(R2-Pad2)*%
X160020000Y-123190000D03*
%TO.P,U7,13*%
%TO.N,/Computador/d2*%
X132080000Y-115570000D03*
%TO.P,U7,26*%
%TO.N,/Computador/a13*%
X157480000Y-123190000D03*
%TO.P,U7,12*%
%TO.N,/Computador/d1*%
X134620000Y-115570000D03*
%TO.P,U7,25*%
%TO.N,/Computador/a8*%
X154940000Y-123190000D03*
%TO.P,U7,11*%
%TO.N,/Computador/d0*%
X137160000Y-115570000D03*
%TO.P,U7,24*%
%TO.N,/Computador/a9*%
X152400000Y-123190000D03*
%TO.P,U7,10*%
%TO.N,/Computador/a0*%
X139700000Y-115570000D03*
%TO.P,U7,23*%
%TO.N,/Computador/a11*%
X149860000Y-123190000D03*
%TO.P,U7,9*%
%TO.N,/Computador/a1*%
X142240000Y-115570000D03*
%TO.P,U7,22*%
%TO.N,/Computador/a14*%
X147320000Y-123190000D03*
%TO.P,U7,8*%
%TO.N,/Computador/a2*%
X144780000Y-115570000D03*
%TO.P,U7,21*%
%TO.N,/Computador/a10*%
X144780000Y-123190000D03*
%TO.P,U7,7*%
%TO.N,/Computador/a3*%
X147320000Y-115570000D03*
%TO.P,U7,20*%
%TO.N,Net-(U6-Pad8)*%
X142240000Y-123190000D03*
%TO.P,U7,6*%
%TO.N,/Computador/a4*%
X149860000Y-115570000D03*
%TO.P,U7,19*%
%TO.N,/Computador/d7*%
X139700000Y-123190000D03*
%TO.P,U7,5*%
%TO.N,/Computador/a5*%
X152400000Y-115570000D03*
%TO.P,U7,18*%
%TO.N,/Computador/d6*%
X137160000Y-123190000D03*
%TO.P,U7,4*%
%TO.N,/Computador/a6*%
X154940000Y-115570000D03*
%TO.P,U7,17*%
%TO.N,/Computador/d5*%
X134620000Y-123190000D03*
%TO.P,U7,3*%
%TO.N,/Computador/a7*%
X157480000Y-115570000D03*
%TO.P,U7,16*%
%TO.N,/Computador/d4*%
X132080000Y-123190000D03*
%TO.P,U7,2*%
%TO.N,/Computador/a12*%
X160020000Y-115570000D03*
%TO.P,U7,15*%
%TO.N,/Computador/d3*%
X129540000Y-123190000D03*
D18*
%TO.P,U7,1*%
%TO.N,/Computador/a14*%
X162560000Y-115570000D03*
%TD*%
D31*
%TO.P,U8,40*%
%TO.N,N/C*%
X127000000Y-135890000D03*
%TO.P,U8,20*%
%TO.N,+5V*%
X175260000Y-151130000D03*
%TO.P,U8,39*%
%TO.N,N/C*%
X129540000Y-135890000D03*
%TO.P,U8,19*%
X172720000Y-151130000D03*
%TO.P,U8,38*%
%TO.N,/Computador/a0*%
X132080000Y-135890000D03*
%TO.P,U8,18*%
%TO.N,N/C*%
X170180000Y-151130000D03*
%TO.P,U8,37*%
%TO.N,/Computador/a1*%
X134620000Y-135890000D03*
%TO.P,U8,17*%
%TO.N,Net-(U8-Pad17)*%
X167640000Y-151130000D03*
%TO.P,U8,36*%
%TO.N,/Computador/a2*%
X137160000Y-135890000D03*
%TO.P,U8,16*%
%TO.N,Net-(U8-Pad16)*%
X165100000Y-151130000D03*
%TO.P,U8,35*%
%TO.N,/Computador/a3*%
X139700000Y-135890000D03*
%TO.P,U8,15*%
%TO.N,Net-(U8-Pad15)*%
X162560000Y-151130000D03*
%TO.P,U8,34*%
%TO.N,Net-(C5-Pad1)*%
X142240000Y-135890000D03*
%TO.P,U8,14*%
%TO.N,Net-(U8-Pad14)*%
X160020000Y-151130000D03*
%TO.P,U8,33*%
%TO.N,/Computador/d0*%
X144780000Y-135890000D03*
%TO.P,U8,13*%
%TO.N,Net-(U8-Pad13)*%
X157480000Y-151130000D03*
%TO.P,U8,32*%
%TO.N,/Computador/d1*%
X147320000Y-135890000D03*
%TO.P,U8,12*%
%TO.N,Net-(U8-Pad12)*%
X154940000Y-151130000D03*
%TO.P,U8,31*%
%TO.N,/Computador/d2*%
X149860000Y-135890000D03*
%TO.P,U8,11*%
%TO.N,Net-(U8-Pad11)*%
X152400000Y-151130000D03*
%TO.P,U8,30*%
%TO.N,/Computador/d3*%
X152400000Y-135890000D03*
%TO.P,U8,10*%
%TO.N,Net-(U8-Pad10)*%
X149860000Y-151130000D03*
%TO.P,U8,29*%
%TO.N,/Computador/d4*%
X154940000Y-135890000D03*
%TO.P,U8,9*%
%TO.N,Net-(U8-Pad9)*%
X147320000Y-151130000D03*
%TO.P,U8,28*%
%TO.N,/Computador/d5*%
X157480000Y-135890000D03*
%TO.P,U8,8*%
%TO.N,Net-(U8-Pad8)*%
X144780000Y-151130000D03*
%TO.P,U8,27*%
%TO.N,/Computador/d6*%
X160020000Y-135890000D03*
%TO.P,U8,7*%
%TO.N,Net-(U8-Pad7)*%
X142240000Y-151130000D03*
%TO.P,U8,26*%
%TO.N,/Computador/d7*%
X162560000Y-135890000D03*
%TO.P,U8,6*%
%TO.N,Net-(R5-Pad1)*%
X139700000Y-151130000D03*
%TO.P,U8,25*%
%TO.N,Net-(U2-Pad37)*%
X165100000Y-135890000D03*
%TO.P,U8,5*%
%TO.N,Net-(R12-Pad1)*%
X137160000Y-151130000D03*
%TO.P,U8,24*%
%TO.N,/Computador/a13*%
X167640000Y-135890000D03*
%TO.P,U8,4*%
%TO.N,Net-(J2-Pad2)*%
X134620000Y-151130000D03*
%TO.P,U8,23*%
%TO.N,Net-(U3-Pad6)*%
X170180000Y-135890000D03*
%TO.P,U8,3*%
%TO.N,Net-(R3-Pad1)*%
X132080000Y-151130000D03*
%TO.P,U8,22*%
%TO.N,Net-(R2-Pad2)*%
X172720000Y-135890000D03*
%TO.P,U8,2*%
%TO.N,N/C*%
X129540000Y-151130000D03*
%TO.P,U8,21*%
%TO.N,Net-(U2-Pad4)*%
X175260000Y-135890000D03*
D18*
%TO.P,U8,1*%
%TO.N,GND*%
X127000000Y-151130000D03*
%TD*%
D34*
%TO.P,J3,S1*%
%TO.N,GND*%
X177210000Y-108710000D03*
X177210000Y-117350000D03*
D35*
X181390000Y-117350000D03*
X181390000Y-108710000D03*
%TD*%
D36*
%TO.P,J4,5*%
%TO.N,GND*%
X165820000Y-103490000D03*
X165820000Y-92090000D03*
%TD*%
D37*
%TO.N,Net-(C1-Pad1)*%
X110490000Y-208280000D03*
%TO.N,GND*%
X177639000Y-111280000D03*
X181540000Y-119657000D03*
X182804000Y-127598000D03*
X177581000Y-126960000D03*
X46755000Y-72952600D03*
X53575000Y-156271000D03*
X78270000Y-120577000D03*
X119389000Y-156650000D03*
X102906000Y-216692000D03*
X100465000Y-70051200D03*
X101073000Y-103744000D03*
X45619200Y-87650500D03*
X46863800Y-60786700D03*
X59292800Y-55795200D03*
X77654700Y-112249000D03*
X100771000Y-58119900D03*
X110713000Y-85664000D03*
X161495000Y-102369000D03*
X174942000Y-113828000D03*
X177575000Y-121730000D03*
%TO.N,/PSU/+5V*%
X118069000Y-158605000D03*
X117772000Y-90678200D03*
%TO.N,+5V*%
X174968000Y-115480000D03*
X177587000Y-125898000D03*
X59070000Y-52624500D03*
X84905300Y-106163000D03*
X77262500Y-110845000D03*
X53465400Y-67264900D03*
X54709000Y-157755000D03*
X47174700Y-156370000D03*
X77113100Y-119070000D03*
X83746300Y-113670000D03*
X54939200Y-149860000D03*
X108145000Y-92486100D03*
X110738000Y-74286100D03*
X45594300Y-86621800D03*
X53432200Y-82538100D03*
X101081000Y-93653900D03*
X101081000Y-100542000D03*
X107521000Y-58119900D03*
X122961000Y-74024700D03*
X161495000Y-95376700D03*
X174955000Y-110233000D03*
X45615600Y-71475000D03*
X46899200Y-59769500D03*
X46895100Y-161950000D03*
X53155300Y-88136100D03*
X52305000Y-72964400D03*
X54736500Y-60668000D03*
X54425300Y-55396000D03*
X54945800Y-145844000D03*
X84967900Y-119714000D03*
%TO.N,Net-(R2-Pad2)*%
X125557000Y-138388000D03*
X116448000Y-138388000D03*
%TO.N,Net-(U2-Pad37)*%
X121072000Y-135222000D03*
X112302000Y-137040000D03*
%TO.N,Net-(U2-Pad4)*%
X159875000Y-66159800D03*
%TO.N,Net-(U3-Pad10)*%
X115706000Y-118950000D03*
%TO.N,Net-(U3-Pad6)*%
X110865000Y-137179000D03*
%TO.N,Net-(U6-Pad8)*%
X99644100Y-122020000D03*
%TO.N,Net-(U10-Pad6)*%
X56141400Y-142545000D03*
X111270000Y-117946000D03*
%TO.N,Net-(U16-Pad15)*%
X86960700Y-104915000D03*
X46099800Y-133816000D03*
%TO.N,Net-(U18-Pad2)*%
X77488600Y-75784200D03*
X56042400Y-79531600D03*
%TO.N,Net-(U18-Pad4)*%
X87301000Y-97533800D03*
X74314900Y-82746700D03*
X49947100Y-114212000D03*
%TO.N,Net-(U18-Pad6)*%
X86226500Y-88539600D03*
X73552400Y-79862800D03*
X46935100Y-94199800D03*
%TO.N,Net-(U18-Pad10)*%
X61757900Y-139006000D03*
X54870700Y-116245000D03*
X53844600Y-126842000D03*
%TO.N,Net-(U19-Pad8)*%
X58841000Y-93291100D03*
X69604300Y-80511700D03*
X48403300Y-93810300D03*
%TO.N,Net-(U21-Pad8)*%
X82145400Y-135025000D03*
X57455300Y-135890000D03*
%TO.N,Net-(U22-Pad8)*%
X68580000Y-138995000D03*
X92527900Y-131026000D03*
%TO.N,Net-(U29-Pad15)*%
X53445800Y-85854700D03*
X54086100Y-68225000D03*
%TO.N,Net-(U35-Pad8)*%
X87252600Y-72356100D03*
X74539200Y-70802500D03*
%TO.N,/Computador/Video Out/Red*%
X102332000Y-62339000D03*
%TO.N,/Computador/Video Out/Green*%
X104183000Y-63563000D03*
%TO.N,/Computador/Video Out/Blue*%
X88900000Y-62504600D03*
%TO.N,/Computador/Video Out/Sincroniza\u00E7\u00E3o Horizontal/HSync*%
X77892300Y-61602500D03*
%TO.N,/Computador/Video Out/Sincroniza\u00E7\u00E3o Vertical/VSync*%
X95742500Y-110223000D03*
%TO.N,Net-(R3-Pad1)*%
X182880000Y-145948000D03*
%TO.N,/Computador/a11*%
X111734000Y-101316000D03*
X160395000Y-101075000D03*
%TO.N,/Computador/a10*%
X110518000Y-99059800D03*
X135890000Y-89709900D03*
%TO.N,/Computador/a9*%
X141092000Y-85439600D03*
X107854000Y-96947900D03*
%TO.N,/Computador/a8*%
X113184000Y-100168000D03*
X158750000Y-96676200D03*
%TO.N,/Computador/Video Out/~DMA*%
X58988500Y-137368000D03*
X97411200Y-120830000D03*
X114225000Y-73410700D03*
%TO.N,/Computador/a7*%
X122665000Y-92527400D03*
%TO.N,/Computador/a6*%
X147233000Y-83488900D03*
X122978000Y-84227000D03*
%TO.N,/Computador/a5*%
X122970000Y-82880100D03*
%TO.N,/Computador/d0*%
X106776000Y-57095100D03*
X116134000Y-93169300D03*
X138322000Y-130553000D03*
%TO.N,/Computador/a4*%
X122977000Y-81849200D03*
%TO.N,/Computador/d1*%
X107538000Y-60569200D03*
X147320000Y-125668000D03*
%TO.N,/Computador/a3*%
X122957000Y-80645000D03*
%TO.N,/Computador/d2*%
X129642000Y-60353100D03*
X107512000Y-61569500D03*
X123690000Y-108200000D03*
X135794000Y-130447000D03*
%TO.N,/Computador/a2*%
X120314000Y-94994700D03*
%TO.N,/Computador/a1*%
X122966000Y-77591400D03*
%TO.N,/Computador/d4*%
X111561000Y-61165500D03*
X116097000Y-102839000D03*
%TO.N,/Computador/a0*%
X122970000Y-75530600D03*
X130703000Y-130033000D03*
X130703000Y-121114000D03*
%TO.N,/Computador/d5*%
X115259000Y-103419000D03*
X107270000Y-54814100D03*
%TO.N,/Computador/d7*%
X130955000Y-75514400D03*
X139700000Y-69124600D03*
%TO.N,/Computador/a15*%
X138452000Y-84748400D03*
X113598000Y-91431400D03*
%TO.N,/Computador/a14*%
X113635000Y-98605300D03*
%TO.N,/Computador/a13*%
X112532000Y-101967000D03*
%TO.N,/Computador/a12*%
X162705000Y-90892100D03*
X110733000Y-100538000D03*
%TO.N,/Computador/Video Out/~CPU_CLK*%
X54933300Y-148590000D03*
X110863000Y-133389000D03*
%TO.N,/Computador/Video Out/Sincroniza\u00E7\u00E3o Horizontal/(~HBLANK~)*%
X117434000Y-86079100D03*
X96543200Y-78891400D03*
%TO.N,/Computador/Video Out/Sincroniza\u00E7\u00E3o Vertical/Q9*%
X116435000Y-116163000D03*
X63565000Y-112091000D03*
X63630000Y-143289000D03*
X65058200Y-128898000D03*
X44728000Y-154397000D03*
X48325000Y-127350000D03*
%TO.N,/Computador/Video Out/Sincroniza\u00E7\u00E3o Vertical/Q3*%
X61099300Y-131727000D03*
X86309000Y-116954000D03*
X61193600Y-129111000D03*
%TO.N,/Computador/Video Out/Sincroniza\u00E7\u00E3o Horizontal/Q7*%
X49471200Y-96541300D03*
X73591000Y-96541300D03*
%TO.N,/Computador/Video Out/Sincroniza\u00E7\u00E3o Horizontal/Q6*%
X44905800Y-96188400D03*
X55582600Y-76959900D03*
X65108200Y-77077100D03*
X79078600Y-75788700D03*
%TO.N,/Computador/Video Out/Sincroniza\u00E7\u00E3o Horizontal/Q1*%
X55963500Y-59520500D03*
X87387400Y-69180700D03*
X56736500Y-74727000D03*
%TO.N,/Computador/Video Out/Sincroniza\u00E7\u00E3o Horizontal/Q2*%
X113165000Y-73440800D03*
X45437200Y-66005500D03*
X54853800Y-58772400D03*
%TO.N,/Computador/Video Out/Sincroniza\u00E7\u00E3o Horizontal/Q3*%
X72771200Y-78413900D03*
X60789200Y-78255500D03*
X113500000Y-88203000D03*
X55706500Y-64871300D03*
X59904800Y-65404900D03*
X83950000Y-93477300D03*
%TO.N,/Computador/Video Out/Sincroniza\u00E7\u00E3o Horizontal/Q4*%
X53998600Y-79323800D03*
X54789300Y-69960300D03*
X62364300Y-75255600D03*
X110590000Y-77479600D03*
%TO.N,/Computador/Video Out/Sincroniza\u00E7\u00E3o Horizontal/Q5*%
X55543400Y-70928400D03*
X61964900Y-71820400D03*
%TO.N,/Computador/Video Out/Sincroniza\u00E7\u00E3o Vertical/Q4*%
X57180200Y-127763000D03*
X86092300Y-107426000D03*
X67358800Y-127637000D03*
%TO.N,/Computador/Video Out/Sincroniza\u00E7\u00E3o Vertical/Q5*%
X85765500Y-108438000D03*
X67868300Y-106974000D03*
X60191500Y-140016000D03*
%TO.N,/Computador/Video Out/Sincroniza\u00E7\u00E3o Vertical/Q6*%
X85537300Y-109545000D03*
X56178800Y-127986000D03*
X69690800Y-109623000D03*
%TO.N,/Computador/Video Out/Sincroniza\u00E7\u00E3o Horizontal/264*%
X46755000Y-66740000D03*
X47580400Y-81989600D03*
X48348700Y-55292900D03*
X60626700Y-87685000D03*
%TO.N,/Computador/Video Out/Sincroniza\u00E7\u00E3o Horizontal/Q8*%
X53435500Y-84228200D03*
X61332300Y-86975800D03*
%TO.N,/Computador/Video Out/Sincroniza\u00E7\u00E3o Vertical/Q0*%
X57741500Y-113683000D03*
X57167300Y-117608000D03*
X85514800Y-115132000D03*
X65208000Y-113329000D03*
%TO.N,/Computador/Video Out/Sincroniza\u00E7\u00E3o Vertical/Q1*%
X86240200Y-114395000D03*
X64364900Y-111250000D03*
%TO.N,/Computador/Video Out/Sincroniza\u00E7\u00E3o Vertical/Q2*%
X54844400Y-117642000D03*
X60986200Y-134713000D03*
X62180300Y-132700000D03*
X84982400Y-117790000D03*
%TO.N,Net-(U31-Pad12)*%
X82328600Y-80567600D03*
X65092600Y-78273800D03*
%TO.N,Net-(J2-Pad2)*%
X176852000Y-146717000D03*
%TO.N,Net-(J3-PadA6)*%
X96330900Y-51332800D03*
X173463000Y-62294800D03*
%TO.N,Net-(U15-Pad1)*%
X85835300Y-105646000D03*
X78270000Y-113690000D03*
X75384500Y-113690000D03*
%TO.N,Net-(U28-Pad15)*%
X53332200Y-72723400D03*
X57461400Y-60178100D03*
%TO.N,Net-(U31-Pad8)*%
X45465200Y-95268000D03*
X66407000Y-88697000D03*
X72792800Y-81566600D03*
X74003300Y-88697000D03*
%TO.N,Net-(R12-Pad1)*%
X110770000Y-127593000D03*
%TD*%
D38*
%TO.N,Net-(C1-Pad1)*%
X105410000Y-158750000D02*
X105410000Y-203200000D01*
X105410000Y-203200000D02*
X110490000Y-208280000D01*
X110490000Y-208280000D02*
X110490000Y-208280000D01*
D39*
%TO.N,GND*%
X178360000Y-65645000D02*
X178360000Y-67935000D01*
X178360000Y-70225000D02*
X178360000Y-67935000D01*
X177525000Y-74805000D02*
X176380000Y-75950000D01*
X178360000Y-74805000D02*
X177525000Y-74805000D01*
D38*
%TO.N,/PSU/+5V*%
X135890000Y-67310000D02*
X134765000Y-67310000D01*
X134765000Y-67310000D02*
X134765000Y-67591300D01*
X134765000Y-67591300D02*
X133921000Y-68435300D01*
X133921000Y-68435300D02*
X132779000Y-68435300D01*
X132779000Y-68435300D02*
X131935000Y-67591400D01*
X131935000Y-67591400D02*
X131935000Y-67310000D01*
X131935000Y-67310000D02*
X131373000Y-67310000D01*
X130810000Y-67310000D02*
X131373000Y-67310000D01*
X117772000Y-90678200D02*
X119016000Y-89434500D01*
X119016000Y-89434500D02*
X119016000Y-76911600D01*
X119016000Y-76911600D02*
X126812000Y-69114900D01*
X126812000Y-69114900D02*
X129568000Y-69114900D01*
X129568000Y-69114900D02*
X131373000Y-67310000D01*
%TO.N,Net-(D1-Pad2)*%
X79854999Y-221135001D02*
X81280000Y-219710000D01*
X74839999Y-221135001D02*
X79854999Y-221135001D01*
X74614199Y-220909201D02*
X74839999Y-221135001D01*
X74679199Y-213204999D02*
X74614199Y-213269999D01*
X90014999Y-213204999D02*
X74679199Y-213204999D01*
X91440000Y-214630000D02*
X90014999Y-213204999D01*
X72668398Y-216260000D02*
X74614199Y-214314199D01*
X74614199Y-214314199D02*
X74614199Y-220909201D01*
X57510000Y-216260000D02*
X72668398Y-216260000D01*
X74614199Y-213269999D02*
X74614199Y-214314199D01*
%TO.N,Net-(D1-Pad1)*%
X82705001Y-216055001D02*
X81280000Y-214630000D01*
X82705001Y-220394001D02*
X82705001Y-216055001D01*
X61229208Y-221585010D02*
X81513992Y-221585010D01*
X56424999Y-216780801D02*
X61229208Y-221585010D01*
X81513992Y-221585010D02*
X82705001Y-220394001D01*
X56424999Y-215739199D02*
X56424999Y-216780801D01*
X57534198Y-214630000D02*
X56424999Y-215739199D01*
X65879200Y-214630000D02*
X57534198Y-214630000D01*
%TO.N,Net-(J1-Pad2)*%
X162184990Y-210444990D02*
X172720000Y-220980000D01*
X50625010Y-210444990D02*
X162184990Y-210444990D01*
X44810000Y-216260000D02*
X50625010Y-210444990D01*
%TO.N,Net-(R2-Pad2)*%
X125557000Y-138388000D02*
X116448000Y-138388000D01*
X125557000Y-138388000D02*
X125675000Y-138506000D01*
X125675000Y-138506000D02*
X169260000Y-138506000D01*
X169260000Y-138506000D02*
X171595000Y-136171000D01*
X171595000Y-136171000D02*
X171595000Y-135890000D01*
X171595000Y-135890000D02*
X172157000Y-135890000D01*
X172720000Y-135890000D02*
X172157000Y-135890000D01*
X172157000Y-135890000D02*
X160583000Y-124315000D01*
X160583000Y-124315000D02*
X160020000Y-124315000D01*
X160020000Y-124315000D02*
X160020000Y-123190000D01*
%TO.N,Net-(RV1-Pad2)*%
X180179000Y-157351000D02*
X151352000Y-157351000D01*
X151352000Y-157351000D02*
X142034000Y-166669000D01*
X142034000Y-166669000D02*
X142034000Y-167511000D01*
X142034000Y-167511000D02*
X140809000Y-167511000D01*
%TO.N,Net-(U2-Pad37)*%
X165100000Y-135890000D02*
X163975000Y-135890000D01*
X163975000Y-135890000D02*
X163975000Y-136171000D01*
X163975000Y-136171000D02*
X162636000Y-137510000D01*
X162636000Y-137510000D02*
X141535000Y-137510000D01*
X141535000Y-137510000D02*
X141058000Y-137032000D01*
X141058000Y-137032000D02*
X122131000Y-137032000D01*
X122131000Y-137032000D02*
X121072000Y-135974000D01*
X121072000Y-135974000D02*
X113368000Y-135974000D01*
X113368000Y-135974000D02*
X112302000Y-137040000D01*
X121072000Y-135974000D02*
X121072000Y-135222000D01*
%TO.N,Net-(U2-Pad4)*%
X125730000Y-67310000D02*
X126855000Y-67310000D01*
X126855000Y-67310000D02*
X126855000Y-67028700D01*
X126855000Y-67028700D02*
X127724000Y-66159800D01*
X127724000Y-66159800D02*
X159875000Y-66159800D01*
%TO.N,Net-(U3-Pad10)*%
X134620000Y-104140000D02*
X134620000Y-105665000D01*
X134620000Y-105665000D02*
X132819000Y-107466000D01*
X132819000Y-107466000D02*
X123325000Y-107466000D01*
X123325000Y-107466000D02*
X118051000Y-112740000D01*
X118051000Y-112740000D02*
X118051000Y-116605000D01*
X118051000Y-116605000D02*
X115706000Y-118950000D01*
%TO.N,Net-(U3-Pad6)*%
X170180000Y-135890000D02*
X169055000Y-135890000D01*
X169055000Y-135890000D02*
X169055000Y-136171000D01*
X169055000Y-136171000D02*
X167217000Y-138009000D01*
X167217000Y-138009000D02*
X141397000Y-138009000D01*
X141397000Y-138009000D02*
X140996000Y-137607000D01*
X140996000Y-137607000D02*
X112760000Y-137607000D01*
X112760000Y-137607000D02*
X112603000Y-137765000D01*
X112603000Y-137765000D02*
X111451000Y-137765000D01*
X111451000Y-137765000D02*
X110865000Y-137179000D01*
%TO.N,Net-(U6-Pad8)*%
X142240000Y-123190000D02*
X141115000Y-123190000D01*
X141115000Y-123190000D02*
X141115000Y-122909000D01*
X141115000Y-122909000D02*
X140226000Y-122020000D01*
X140226000Y-122020000D02*
X99644100Y-122020000D01*
%TO.N,Net-(U10-Pad6)*%
X56141400Y-142545000D02*
X62136500Y-142545000D01*
X62136500Y-142545000D02*
X68178000Y-136504000D01*
X68178000Y-136504000D02*
X83225300Y-136504000D01*
X83225300Y-136504000D02*
X101783000Y-117946000D01*
X101783000Y-117946000D02*
X111270000Y-117946000D01*
%TO.N,Net-(U16-Pad15)*%
X46099800Y-133816000D02*
X46099800Y-123290000D01*
X46099800Y-123290000D02*
X64474500Y-104915000D01*
X64474500Y-104915000D02*
X86960700Y-104915000D01*
%TO.N,Net-(U18-Pad2)*%
X77488600Y-75784200D02*
X77291900Y-75980900D01*
X77291900Y-75980900D02*
X55449000Y-75980900D01*
X55449000Y-75980900D02*
X54830800Y-76599100D01*
X54830800Y-76599100D02*
X54830800Y-78320000D01*
X54830800Y-78320000D02*
X56042400Y-79531600D01*
%TO.N,Net-(U18-Pad4)*%
X74728600Y-97533800D02*
X74728600Y-83160400D01*
X74728600Y-83160400D02*
X74314900Y-82746700D01*
X74728600Y-97533800D02*
X66625500Y-97533800D01*
X66625500Y-97533800D02*
X49947100Y-114212000D01*
X74728600Y-97533800D02*
X87301000Y-97533800D01*
%TO.N,Net-(U18-Pad6)*%
X73552400Y-79862800D02*
X73459700Y-79770100D01*
X73459700Y-79770100D02*
X69274800Y-79770100D01*
X69274800Y-79770100D02*
X68350700Y-80694200D01*
X68350700Y-80694200D02*
X68350700Y-81859200D01*
X68350700Y-81859200D02*
X57496300Y-92713600D01*
X57496300Y-92713600D02*
X48421300Y-92713600D01*
X48421300Y-92713600D02*
X46935100Y-94199800D01*
X73552400Y-79862800D02*
X77549700Y-79862800D01*
X77549700Y-79862800D02*
X86226500Y-88539600D01*
%TO.N,Net-(U18-Pad10)*%
X54111800Y-126842000D02*
X54111800Y-117004000D01*
X54111800Y-117004000D02*
X54870700Y-116245000D01*
X61757900Y-139006000D02*
X59544200Y-139006000D01*
X59544200Y-139006000D02*
X54111800Y-133574000D01*
X54111800Y-133574000D02*
X54111800Y-126842000D01*
X54111800Y-126842000D02*
X53844600Y-126842000D01*
%TO.N,Net-(U19-Pad8)*%
X58841000Y-93291100D02*
X48922500Y-93291100D01*
X48922500Y-93291100D02*
X48403300Y-93810300D01*
X69604300Y-80511700D02*
X69604300Y-82527800D01*
X69604300Y-82527800D02*
X58841000Y-93291100D01*
%TO.N,Net-(U21-Pad8)*%
X57455300Y-135890000D02*
X61756900Y-135890000D01*
X61756900Y-135890000D02*
X62621800Y-135025000D01*
X62621800Y-135025000D02*
X82145400Y-135025000D01*
%TO.N,Net-(U22-Pad8)*%
X92527900Y-131026000D02*
X84559100Y-138995000D01*
X84559100Y-138995000D02*
X68580000Y-138995000D01*
%TO.N,Net-(U29-Pad15)*%
X54086100Y-68225000D02*
X54064000Y-68247100D01*
X54064000Y-68247100D02*
X54064000Y-73730100D01*
X54064000Y-73730100D02*
X52701100Y-75093000D01*
X52701100Y-75093000D02*
X52701100Y-85110000D01*
X52701100Y-85110000D02*
X53445800Y-85854700D01*
%TO.N,Net-(U35-Pad8)*%
X87252600Y-72356100D02*
X76092800Y-72356100D01*
X76092800Y-72356100D02*
X74539200Y-70802500D01*
%TO.N,/Computador/Video Out/Red*%
X176380000Y-66790000D02*
X175255000Y-66790000D01*
X175255000Y-66790000D02*
X172336000Y-63871000D01*
X172336000Y-63871000D02*
X107212000Y-63871000D01*
X107212000Y-63871000D02*
X105680000Y-62339000D01*
X105680000Y-62339000D02*
X102332000Y-62339000D01*
%TO.N,/Computador/Video Out/Green*%
X104183000Y-63563000D02*
X104941000Y-64321300D01*
X104941000Y-64321300D02*
X171621000Y-64321300D01*
X171621000Y-64321300D02*
X176380000Y-69080000D01*
%TO.N,/Computador/Video Out/Blue*%
X88900000Y-62504600D02*
X91632500Y-65237100D01*
X91632500Y-65237100D02*
X170247000Y-65237100D01*
X170247000Y-65237100D02*
X176380000Y-71370000D01*
%TO.N,/Computador/Video Out/Sincroniza\u00E7\u00E3o Horizontal/HSync*%
X180340000Y-71370000D02*
X181505000Y-70205400D01*
X181505000Y-70205400D02*
X181505000Y-66333700D01*
X181505000Y-66333700D02*
X178465000Y-63294400D01*
X178465000Y-63294400D02*
X107349000Y-63294400D01*
X107349000Y-63294400D02*
X105657000Y-61602500D01*
X105657000Y-61602500D02*
X77892300Y-61602500D01*
%TO.N,/Computador/Video Out/Sincroniza\u00E7\u00E3o Vertical/VSync*%
X95742500Y-110223000D02*
X98054700Y-110223000D01*
X98054700Y-110223000D02*
X115839000Y-92439000D01*
X115839000Y-92439000D02*
X120382000Y-92439000D01*
X120382000Y-92439000D02*
X121018000Y-91802100D01*
X121018000Y-91802100D02*
X138243000Y-91802100D01*
X138243000Y-91802100D02*
X139884000Y-90160300D01*
X139884000Y-90160300D02*
X167729000Y-90160300D01*
X167729000Y-90160300D02*
X181486000Y-76404000D01*
X181486000Y-76404000D02*
X181486000Y-74805500D01*
X181486000Y-74805500D02*
X180340000Y-73660000D01*
%TO.N,Net-(R3-Pad1)*%
X132080000Y-151130000D02*
X133205000Y-151130000D01*
X133205000Y-151130000D02*
X133205000Y-150849000D01*
X133205000Y-150849000D02*
X138106000Y-145948000D01*
X138106000Y-145948000D02*
X182880000Y-145948000D01*
%TO.N,/Computador/a11*%
X142240000Y-104140000D02*
X142240000Y-102615000D01*
X142240000Y-102615000D02*
X141733000Y-102108000D01*
X141733000Y-102108000D02*
X114227000Y-102108000D01*
X114227000Y-102108000D02*
X113616000Y-102719000D01*
X113616000Y-102719000D02*
X112259000Y-102719000D01*
X112259000Y-102719000D02*
X111734000Y-102194000D01*
X111734000Y-102194000D02*
X111734000Y-101316000D01*
X142240000Y-104140000D02*
X142240000Y-105665000D01*
X142240000Y-105665000D02*
X146050000Y-109475000D01*
X146050000Y-109475000D02*
X146143000Y-109475000D01*
X149860000Y-123190000D02*
X148735000Y-123190000D01*
X148735000Y-123190000D02*
X148735000Y-123471000D01*
X148735000Y-123471000D02*
X147890000Y-124316000D01*
X147890000Y-124316000D02*
X146792000Y-124316000D01*
X146792000Y-124316000D02*
X146143000Y-123666000D01*
X146143000Y-123666000D02*
X146143000Y-109475000D01*
X146143000Y-109475000D02*
X151995000Y-109475000D01*
X151995000Y-109475000D02*
X160395000Y-101075000D01*
%TO.N,/Computador/a10*%
X144780000Y-123190000D02*
X144780000Y-122065000D01*
X144780000Y-122065000D02*
X143655000Y-120939000D01*
X143655000Y-120939000D02*
X143655000Y-112160000D01*
X143655000Y-112160000D02*
X137160000Y-105665000D01*
X137160000Y-105665000D02*
X137160000Y-104574000D01*
X137160000Y-104140000D02*
X137160000Y-104574000D01*
X163830000Y-67310000D02*
X163830000Y-68604600D01*
X163830000Y-68604600D02*
X142725000Y-89709900D01*
X142725000Y-89709900D02*
X135890000Y-89709900D01*
X110518000Y-99059800D02*
X110008000Y-99569700D01*
X110008000Y-99569700D02*
X110008000Y-101106000D01*
X110008000Y-101106000D02*
X115038000Y-106135000D01*
X115038000Y-106135000D02*
X132076000Y-106135000D01*
X132076000Y-106135000D02*
X133382000Y-104830000D01*
X133382000Y-104830000D02*
X133382000Y-103367000D01*
X133382000Y-103367000D02*
X134164000Y-102584000D01*
X134164000Y-102584000D02*
X135171000Y-102584000D01*
X135171000Y-102584000D02*
X137160000Y-104574000D01*
%TO.N,/Computador/a9*%
X161290000Y-67310000D02*
X161290000Y-70467400D01*
X161290000Y-70467400D02*
X146318000Y-85439600D01*
X146318000Y-85439600D02*
X141092000Y-85439600D01*
X141092000Y-85439600D02*
X139899000Y-86632200D01*
X139899000Y-86632200D02*
X124776000Y-86632200D01*
X124776000Y-86632200D02*
X119420000Y-91988700D01*
X119420000Y-91988700D02*
X115015000Y-91988700D01*
X115015000Y-91988700D02*
X110056000Y-96947900D01*
X110056000Y-96947900D02*
X107854000Y-96947900D01*
%TO.N,/Computador/a8*%
X147320000Y-104140000D02*
X147320000Y-103490000D01*
X147320000Y-103490000D02*
X147320000Y-102615000D01*
X147320000Y-102615000D02*
X144874000Y-100168000D01*
X144874000Y-100168000D02*
X113184000Y-100168000D01*
X147320000Y-103490000D02*
X147320000Y-103625000D01*
X147320000Y-103625000D02*
X149381000Y-105686000D01*
X149381000Y-105686000D02*
X150354000Y-105686000D01*
X150354000Y-105686000D02*
X151130000Y-104910000D01*
X151130000Y-104910000D02*
X151130000Y-103362000D01*
X151130000Y-103362000D02*
X157816000Y-96676200D01*
X157816000Y-96676200D02*
X158750000Y-96676200D01*
%TO.N,/Computador/Video Out/~DMA*%
X120650000Y-67310000D02*
X119525000Y-67310000D01*
X119525000Y-67310000D02*
X119525000Y-68111300D01*
X119525000Y-68111300D02*
X114225000Y-73410700D01*
X58988500Y-137368000D02*
X64872800Y-137368000D01*
X64872800Y-137368000D02*
X66187200Y-136054000D01*
X66187200Y-136054000D02*
X82187300Y-136054000D01*
X82187300Y-136054000D02*
X97411200Y-120830000D01*
%TO.N,/Computador/a7*%
X149860000Y-96520000D02*
X149860000Y-94994700D01*
X149860000Y-94994700D02*
X147393000Y-92527400D01*
X147393000Y-92527400D02*
X122665000Y-92527400D01*
%TO.N,/Computador/a6*%
X122978000Y-84227000D02*
X123716000Y-83488900D01*
X123716000Y-83488900D02*
X147233000Y-83488900D01*
%TO.N,/Computador/a5*%
X151130000Y-67310000D02*
X150005000Y-67310000D01*
X150005000Y-67310000D02*
X150005000Y-67591300D01*
X150005000Y-67591300D02*
X134716000Y-82880100D01*
X134716000Y-82880100D02*
X122970000Y-82880100D01*
%TO.N,/Computador/d0*%
X135890000Y-52070000D02*
X134765000Y-52070000D01*
X134765000Y-52070000D02*
X134765000Y-52351300D01*
X134765000Y-52351300D02*
X130021000Y-57095100D01*
X130021000Y-57095100D02*
X106776000Y-57095100D01*
X129540000Y-96520000D02*
X129540000Y-98045300D01*
X129540000Y-98045300D02*
X121010000Y-98045300D01*
X121010000Y-98045300D02*
X116134000Y-93169300D01*
X144780000Y-135890000D02*
X143655000Y-135890000D01*
X143655000Y-135890000D02*
X143655000Y-135609000D01*
X143655000Y-135609000D02*
X138600000Y-130554000D01*
X138600000Y-130554000D02*
X138322000Y-130554000D01*
X138322000Y-130554000D02*
X138322000Y-130553000D01*
%TO.N,/Computador/a4*%
X148590000Y-67310000D02*
X147465000Y-67310000D01*
X147465000Y-67310000D02*
X147465000Y-67591300D01*
X147465000Y-67591300D02*
X133207000Y-81849200D01*
X133207000Y-81849200D02*
X122977000Y-81849200D01*
%TO.N,/Computador/d1*%
X138430000Y-52070000D02*
X137305000Y-52070000D01*
X137305000Y-52070000D02*
X137305000Y-52249500D01*
X137305000Y-52249500D02*
X132009000Y-57545500D01*
X132009000Y-57545500D02*
X110561000Y-57545500D01*
X110561000Y-57545500D02*
X107538000Y-60569200D01*
X134620000Y-115570000D02*
X135745000Y-115570000D01*
X135745000Y-115570000D02*
X135745000Y-115851000D01*
X135745000Y-115851000D02*
X136589000Y-116695000D01*
X136589000Y-116695000D02*
X137407000Y-116695000D01*
X137407000Y-116695000D02*
X143510000Y-122798000D01*
X143510000Y-122798000D02*
X143510000Y-123513000D01*
X143510000Y-123513000D02*
X145665000Y-125668000D01*
X145665000Y-125668000D02*
X147320000Y-125668000D01*
%TO.N,/Computador/a3*%
X146050000Y-67310000D02*
X144925000Y-67310000D01*
X144925000Y-67310000D02*
X144925000Y-67591300D01*
X144925000Y-67591300D02*
X131871000Y-80645000D01*
X131871000Y-80645000D02*
X122957000Y-80645000D01*
%TO.N,/Computador/d2*%
X132080000Y-115570000D02*
X130955000Y-115570000D01*
X130955000Y-115570000D02*
X130955000Y-115337000D01*
X130955000Y-115337000D02*
X123818000Y-108200000D01*
X123818000Y-108200000D02*
X123690000Y-108200000D01*
X149860000Y-135890000D02*
X148735000Y-135890000D01*
X148735000Y-135890000D02*
X148735000Y-136171000D01*
X148735000Y-136171000D02*
X147846000Y-137060000D01*
X147846000Y-137060000D02*
X141809000Y-137060000D01*
X141809000Y-137060000D02*
X141059000Y-136310000D01*
X141059000Y-136310000D02*
X141059000Y-135635000D01*
X141059000Y-135635000D02*
X135871000Y-130447000D01*
X135871000Y-130447000D02*
X135794000Y-130447000D01*
X129642000Y-60353100D02*
X108954000Y-60353100D01*
X108954000Y-60353100D02*
X107737000Y-61569500D01*
X107737000Y-61569500D02*
X107512000Y-61569500D01*
%TO.N,/Computador/a2*%
X137160000Y-96520000D02*
X137160000Y-94994700D01*
X137160000Y-94994700D02*
X120314000Y-94994700D01*
%TO.N,/Computador/d3*%
X152400000Y-135890000D02*
X151275000Y-135890000D01*
X151275000Y-135890000D02*
X151275000Y-135609000D01*
X151275000Y-135609000D02*
X150431000Y-134765000D01*
X150431000Y-134765000D02*
X143862000Y-134765000D01*
X143862000Y-134765000D02*
X133412000Y-124315000D01*
X133412000Y-124315000D02*
X131509000Y-124315000D01*
X131509000Y-124315000D02*
X130665000Y-123471000D01*
X130665000Y-123471000D02*
X130665000Y-123190000D01*
X130665000Y-123190000D02*
X129540000Y-123190000D01*
%TO.N,/Computador/a1*%
X140970000Y-67310000D02*
X139845000Y-67310000D01*
X139845000Y-67310000D02*
X139845000Y-67560500D01*
X139845000Y-67560500D02*
X136391000Y-71013800D01*
X136391000Y-71013800D02*
X129544000Y-71013800D01*
X129544000Y-71013800D02*
X122966000Y-77591400D01*
%TO.N,/Computador/d4*%
X146050000Y-52070000D02*
X144925000Y-52070000D01*
X144925000Y-52070000D02*
X144925000Y-52351300D01*
X144925000Y-52351300D02*
X136110000Y-61165500D01*
X136110000Y-61165500D02*
X111561000Y-61165500D01*
X124460000Y-104140000D02*
X124460000Y-102615000D01*
X124460000Y-102615000D02*
X116321000Y-102615000D01*
X116321000Y-102615000D02*
X116097000Y-102839000D01*
X154940000Y-135890000D02*
X153815000Y-135890000D01*
X153815000Y-135890000D02*
X153815000Y-135609000D01*
X153815000Y-135609000D02*
X152520000Y-134314000D01*
X152520000Y-134314000D02*
X144100000Y-134314000D01*
X144100000Y-134314000D02*
X133205000Y-123419000D01*
X133205000Y-123419000D02*
X133205000Y-123190000D01*
X133205000Y-123190000D02*
X132080000Y-123190000D01*
%TO.N,/Computador/a0*%
X138430000Y-67310000D02*
X137305000Y-67310000D01*
X137305000Y-67310000D02*
X137305000Y-67591300D01*
X137305000Y-67591300D02*
X134333000Y-70563400D01*
X134333000Y-70563400D02*
X127937000Y-70563400D01*
X127937000Y-70563400D02*
X122970000Y-75530600D01*
X139700000Y-115570000D02*
X138575000Y-115570000D01*
X138575000Y-115570000D02*
X138575000Y-115289000D01*
X138575000Y-115289000D02*
X137731000Y-114445000D01*
X137731000Y-114445000D02*
X134121000Y-114445000D01*
X134121000Y-114445000D02*
X133350000Y-115216000D01*
X133350000Y-115216000D02*
X133350000Y-118466000D01*
X133350000Y-118466000D02*
X130703000Y-121114000D01*
X132080000Y-135890000D02*
X132080000Y-131410000D01*
X132080000Y-131410000D02*
X130703000Y-130033000D01*
%TO.N,/Computador/d5*%
X157480000Y-135890000D02*
X156355000Y-135890000D01*
X156355000Y-135890000D02*
X156355000Y-135640000D01*
X156355000Y-135640000D02*
X154129000Y-133414000D01*
X154129000Y-133414000D02*
X145765000Y-133414000D01*
X145765000Y-133414000D02*
X135745000Y-123394000D01*
X135745000Y-123394000D02*
X135745000Y-123190000D01*
X135745000Y-123190000D02*
X134620000Y-123190000D01*
X127000000Y-104140000D02*
X127000000Y-105665000D01*
X127000000Y-105665000D02*
X117505000Y-105665000D01*
X117505000Y-105665000D02*
X115259000Y-103419000D01*
X148590000Y-52070000D02*
X147465000Y-52070000D01*
X147465000Y-52070000D02*
X147465000Y-51788700D01*
X147465000Y-51788700D02*
X146607000Y-50930700D01*
X146607000Y-50930700D02*
X132894000Y-50930700D01*
X132894000Y-50930700D02*
X132080000Y-51745100D01*
X132080000Y-51745100D02*
X132080000Y-52470300D01*
X132080000Y-52470300D02*
X129736000Y-54814100D01*
X129736000Y-54814100D02*
X107270000Y-54814100D01*
%TO.N,/Computador/d6*%
X160020000Y-135890000D02*
X158895000Y-135890000D01*
X158895000Y-135890000D02*
X158895000Y-135609000D01*
X158895000Y-135609000D02*
X151926000Y-128640000D01*
X151926000Y-128640000D02*
X143454000Y-128640000D01*
X143454000Y-128640000D02*
X138285000Y-123471000D01*
X138285000Y-123471000D02*
X138285000Y-123190000D01*
X138285000Y-123190000D02*
X137160000Y-123190000D01*
%TO.N,/Computador/d7*%
X139700000Y-69124600D02*
X133310000Y-75514400D01*
X133310000Y-75514400D02*
X130955000Y-75514400D01*
X162560000Y-135890000D02*
X161435000Y-135890000D01*
X161435000Y-135890000D02*
X161435000Y-135609000D01*
X161435000Y-135609000D02*
X152914000Y-127088000D01*
X152914000Y-127088000D02*
X143598000Y-127088000D01*
X143598000Y-127088000D02*
X139700000Y-123190000D01*
%TO.N,/Computador/a15*%
X138452000Y-84748400D02*
X125916000Y-84748400D01*
X125916000Y-84748400D02*
X119233000Y-91431400D01*
X119233000Y-91431400D02*
X113598000Y-91431400D01*
%TO.N,/Computador/a14*%
X154940000Y-96520000D02*
X154940000Y-98045300D01*
X154940000Y-98045300D02*
X154026000Y-98959400D01*
X154026000Y-98959400D02*
X113989000Y-98959400D01*
X113989000Y-98959400D02*
X113635000Y-98605300D01*
X162560000Y-115570000D02*
X161435000Y-115570000D01*
X161435000Y-115570000D02*
X161435000Y-115851000D01*
X161435000Y-115851000D02*
X160591000Y-116695000D01*
X160591000Y-116695000D02*
X153815000Y-116695000D01*
X153815000Y-116695000D02*
X147320000Y-123190000D01*
%TO.N,/Computador/a13*%
X167640000Y-135890000D02*
X167640000Y-134765000D01*
X167640000Y-134765000D02*
X157480000Y-124605000D01*
X157480000Y-124605000D02*
X157480000Y-123190000D01*
X149860000Y-104140000D02*
X149860000Y-102615000D01*
X149860000Y-102615000D02*
X146688000Y-99442900D01*
X146688000Y-99442900D02*
X112884000Y-99442900D01*
X112884000Y-99442900D02*
X112459000Y-99867900D01*
X112459000Y-99867900D02*
X112459000Y-101894000D01*
X112459000Y-101894000D02*
X112532000Y-101967000D01*
%TO.N,/Computador/a12*%
X152400000Y-96086500D02*
X152400000Y-94994700D01*
X152400000Y-94994700D02*
X158602000Y-94994700D01*
X158602000Y-94994700D02*
X162705000Y-90892100D01*
X152400000Y-96520000D02*
X152400000Y-96086500D01*
X152400000Y-96086500D02*
X149977000Y-98509100D01*
X149977000Y-98509100D02*
X120833000Y-98509100D01*
X120833000Y-98509100D02*
X120172000Y-97847700D01*
X120172000Y-97847700D02*
X113314000Y-97847700D01*
X113314000Y-97847700D02*
X110733000Y-100428000D01*
X110733000Y-100428000D02*
X110733000Y-100538000D01*
%TO.N,/Computador/Video Out/~CPU_CLK*%
X54933300Y-148590000D02*
X95661600Y-148590000D01*
X95661600Y-148590000D02*
X110863000Y-133389000D01*
%TO.N,/Computador/Video Out/Sincroniza\u00E7\u00E3o Horizontal/(~HBLANK~)*%
X96543200Y-78891400D02*
X110247000Y-78891400D01*
X110247000Y-78891400D02*
X117434000Y-86079100D01*
%TO.N,/Computador/Video Out/Sincroniza\u00E7\u00E3o Vertical/Q9*%
X49305000Y-143289000D02*
X49305000Y-128330000D01*
X49305000Y-128330000D02*
X48325000Y-127350000D01*
X63630000Y-143289000D02*
X49305000Y-143289000D01*
X49305000Y-143289000D02*
X44728000Y-147866000D01*
X44728000Y-147866000D02*
X44728000Y-154397000D01*
X65058200Y-128898000D02*
X67170000Y-128898000D01*
X67170000Y-128898000D02*
X68095400Y-127972000D01*
X68095400Y-127972000D02*
X68095400Y-116163000D01*
X116435000Y-116163000D02*
X68095400Y-116163000D01*
X63565000Y-112091000D02*
X63565000Y-112711000D01*
X63565000Y-112711000D02*
X67017000Y-116163000D01*
X67017000Y-116163000D02*
X68095400Y-116163000D01*
%TO.N,/Computador/Video Out/Sincroniza\u00E7\u00E3o Vertical/Q3*%
X61744900Y-129662000D02*
X61193600Y-129111000D01*
X61744900Y-129662000D02*
X61099300Y-130308000D01*
X61099300Y-130308000D02*
X61099300Y-131727000D01*
X86309000Y-116954000D02*
X83393700Y-116954000D01*
X83393700Y-116954000D02*
X70685600Y-129662000D01*
X70685600Y-129662000D02*
X61744900Y-129662000D01*
%TO.N,/Computador/Video Out/Sincroniza\u00E7\u00E3o Horizontal/Q7*%
X49471200Y-96541300D02*
X73591000Y-96541300D01*
%TO.N,/Computador/Video Out/Sincroniza\u00E7\u00E3o Horizontal/Q6*%
X60063900Y-77077100D02*
X59946700Y-76959900D01*
X59946700Y-76959900D02*
X55582600Y-76959900D01*
X60063900Y-77077100D02*
X60063900Y-84079200D01*
X60063900Y-84079200D02*
X62129500Y-86144800D01*
X62129500Y-86144800D02*
X62129500Y-87394700D01*
X62129500Y-87394700D02*
X61942900Y-87394700D01*
X61942900Y-87394700D02*
X60238700Y-89098900D01*
X60238700Y-89098900D02*
X60238700Y-89153400D01*
X60238700Y-89153400D02*
X50548600Y-89153400D01*
X50548600Y-89153400D02*
X44739800Y-94962200D01*
X44739800Y-94962200D02*
X44739800Y-96022400D01*
X44739800Y-96022400D02*
X44905800Y-96188400D01*
X60063900Y-77077100D02*
X65108200Y-77077100D01*
X65108200Y-77077100D02*
X77790200Y-77077100D01*
X77790200Y-77077100D02*
X79078600Y-75788700D01*
%TO.N,/Computador/Video Out/Sincroniza\u00E7\u00E3o Horizontal/Q1*%
X87387400Y-69180700D02*
X67260700Y-69180700D01*
X67260700Y-69180700D02*
X67260700Y-68902200D01*
X67260700Y-68902200D02*
X57752700Y-59394200D01*
X57752700Y-59394200D02*
X56089800Y-59394200D01*
X56089800Y-59394200D02*
X55963500Y-59520500D01*
X67260700Y-69180700D02*
X61714400Y-74727000D01*
X61714400Y-74727000D02*
X56736500Y-74727000D01*
%TO.N,/Computador/Video Out/Sincroniza\u00E7\u00E3o Horizontal/Q2*%
X54853800Y-58785500D02*
X54853800Y-58772400D01*
X45437200Y-66005500D02*
X52657200Y-58785500D01*
X52657200Y-58785500D02*
X54853800Y-58785500D01*
X54853800Y-58785500D02*
X57930900Y-58785500D01*
X57930900Y-58785500D02*
X67256500Y-68111100D01*
X67256500Y-68111100D02*
X107836000Y-68111100D01*
X107836000Y-68111100D02*
X113165000Y-73440800D01*
%TO.N,/Computador/Video Out/Sincroniza\u00E7\u00E3o Horizontal/Q3*%
X59904800Y-65404900D02*
X56240100Y-65404900D01*
X56240100Y-65404900D02*
X55706500Y-64871300D01*
X60789200Y-78255500D02*
X61532800Y-78999100D01*
X61532800Y-78999100D02*
X72186000Y-78999100D01*
X72186000Y-78999100D02*
X72771200Y-78413900D01*
X113500000Y-88203000D02*
X87055900Y-88203000D01*
X87055900Y-88203000D02*
X86986600Y-88272300D01*
X72771200Y-78413900D02*
X77128200Y-78413900D01*
X77128200Y-78413900D02*
X86986600Y-88272300D01*
X86986600Y-88272300D02*
X86986600Y-90440700D01*
X86986600Y-90440700D02*
X83950000Y-93477300D01*
%TO.N,/Computador/Video Out/Sincroniza\u00E7\u00E3o Horizontal/Q4*%
X54813200Y-75476100D02*
X53998600Y-76290700D01*
X53998600Y-76290700D02*
X53998600Y-79323800D01*
X54789300Y-69960300D02*
X54789300Y-75452200D01*
X54789300Y-75452200D02*
X54813200Y-75476100D01*
X54813200Y-75476100D02*
X62143800Y-75476100D01*
X62143800Y-75476100D02*
X62364300Y-75255600D01*
X62364300Y-75255600D02*
X62589300Y-75030600D01*
X62589300Y-75030600D02*
X108142000Y-75030600D01*
X108142000Y-75030600D02*
X110590000Y-77479600D01*
%TO.N,/Computador/Video Out/Sincroniza\u00E7\u00E3o Horizontal/Q5*%
X55543400Y-70928400D02*
X61072900Y-70928400D01*
X61072900Y-70928400D02*
X61964900Y-71820400D01*
%TO.N,/Computador/Video Out/Sincroniza\u00E7\u00E3o Vertical/Q4*%
X62824600Y-127637000D02*
X62824600Y-111747000D01*
X62824600Y-111747000D02*
X64223500Y-110348000D01*
X64223500Y-110348000D02*
X69991300Y-110348000D01*
X69991300Y-110348000D02*
X70235300Y-110104000D01*
X70235300Y-110104000D02*
X84336000Y-110104000D01*
X84336000Y-110104000D02*
X84510000Y-110278000D01*
X84510000Y-110278000D02*
X85914800Y-110278000D01*
X85914800Y-110278000D02*
X86526100Y-109667000D01*
X86526100Y-109667000D02*
X86526100Y-107860000D01*
X86526100Y-107860000D02*
X86092300Y-107426000D01*
X57180200Y-127763000D02*
X57305500Y-127637000D01*
X57305500Y-127637000D02*
X62824600Y-127637000D01*
X62824600Y-127637000D02*
X67358800Y-127637000D01*
%TO.N,/Computador/Video Out/Sincroniza\u00E7\u00E3o Vertical/Q5*%
X85765500Y-108438000D02*
X84301400Y-106974000D01*
X84301400Y-106974000D02*
X67868300Y-106974000D01*
X67868300Y-106974000D02*
X63052700Y-106974000D01*
X63052700Y-106974000D02*
X53118100Y-116908000D01*
X53118100Y-116908000D02*
X53118100Y-133217000D01*
X53118100Y-133217000D02*
X59916400Y-140016000D01*
X59916400Y-140016000D02*
X60191500Y-140016000D01*
%TO.N,/Computador/Video Out/Sincroniza\u00E7\u00E3o Vertical/Q6*%
X85537300Y-109545000D02*
X69768400Y-109545000D01*
X69768400Y-109545000D02*
X69690800Y-109623000D01*
X56178800Y-127986000D02*
X56178800Y-127738000D01*
X56178800Y-127738000D02*
X62321300Y-121596000D01*
X62321300Y-121596000D02*
X62321300Y-111613000D01*
X62321300Y-111613000D02*
X64311900Y-109623000D01*
X64311900Y-109623000D02*
X69690800Y-109623000D01*
%TO.N,/Computador/Video Out/Sincroniza\u00E7\u00E3o Horizontal/264*%
X46755000Y-66740000D02*
X45139700Y-66740000D01*
X45139700Y-66740000D02*
X44700700Y-66301000D01*
X44700700Y-66301000D02*
X44700700Y-58940900D01*
X44700700Y-58940900D02*
X48348700Y-55292900D01*
X47580400Y-81989600D02*
X47580400Y-67565400D01*
X47580400Y-67565400D02*
X46755000Y-66740000D01*
X60626700Y-87685000D02*
X60821200Y-87879500D01*
X60821200Y-87879500D02*
X60724500Y-87976200D01*
X60724500Y-87976200D02*
X54330500Y-87976200D01*
X54330500Y-87976200D02*
X48343900Y-81989600D01*
X48343900Y-81989600D02*
X47580400Y-81989600D01*
%TO.N,/Computador/Video Out/Sincroniza\u00E7\u00E3o Horizontal/Q8*%
X53435500Y-84228200D02*
X58579700Y-84228200D01*
X58579700Y-84228200D02*
X61327300Y-86975800D01*
X61327300Y-86975800D02*
X61332300Y-86975800D01*
%TO.N,/Computador/Video Out/Sincroniza\u00E7\u00E3o Vertical/Q0*%
X57741500Y-113683000D02*
X57167300Y-114257000D01*
X57167300Y-114257000D02*
X57167300Y-117608000D01*
X85514800Y-115132000D02*
X67011600Y-115132000D01*
X67011600Y-115132000D02*
X65208000Y-113329000D01*
%TO.N,/Computador/Video Out/Sincroniza\u00E7\u00E3o Vertical/Q1*%
X64364900Y-111250000D02*
X67581800Y-114467000D01*
X67581800Y-114467000D02*
X82062200Y-114467000D01*
X82062200Y-114467000D02*
X82133700Y-114395000D01*
X82133700Y-114395000D02*
X86240200Y-114395000D01*
%TO.N,/Computador/Video Out/Sincroniza\u00E7\u00E3o Vertical/Q2*%
X60986200Y-133824000D02*
X60986200Y-134713000D01*
X62180300Y-132700000D02*
X61055900Y-133824000D01*
X61055900Y-133824000D02*
X60986200Y-133824000D01*
X60986200Y-133824000D02*
X54844400Y-127682000D01*
X54844400Y-127682000D02*
X54844400Y-117642000D01*
X84982400Y-117790000D02*
X70072900Y-132700000D01*
X70072900Y-132700000D02*
X62180300Y-132700000D01*
%TO.N,Net-(U31-Pad12)*%
X82328600Y-80567600D02*
X79394500Y-77633500D01*
X79394500Y-77633500D02*
X65732900Y-77633500D01*
X65732900Y-77633500D02*
X65092600Y-78273800D01*
%TO.N,Net-(J2-Pad2)*%
X134620000Y-151130000D02*
X135745000Y-151130000D01*
X135745000Y-151130000D02*
X135745000Y-150849000D01*
X135745000Y-150849000D02*
X139877000Y-146717000D01*
X139877000Y-146717000D02*
X176852000Y-146717000D01*
%TO.N,Net-(J3-PadA6)*%
X96330900Y-51332800D02*
X96330900Y-51486100D01*
X96330900Y-51486100D02*
X107140000Y-62294800D01*
X107140000Y-62294800D02*
X173463000Y-62294800D01*
%TO.N,Net-(U15-Pad1)*%
X78270000Y-113690000D02*
X75384500Y-113690000D01*
X85835300Y-105646000D02*
X86976400Y-106787000D01*
X86976400Y-106787000D02*
X86976400Y-109853000D01*
X86976400Y-109853000D02*
X85399000Y-111431000D01*
X85399000Y-111431000D02*
X80529800Y-111431000D01*
X80529800Y-111431000D02*
X78270000Y-113690000D01*
%TO.N,Net-(U28-Pad15)*%
X57461400Y-60178100D02*
X52691400Y-64948100D01*
X52691400Y-64948100D02*
X52691400Y-72082600D01*
X52691400Y-72082600D02*
X53332200Y-72723400D01*
%TO.N,Net-(U31-Pad8)*%
X66407000Y-88697000D02*
X59836000Y-95268000D01*
X59836000Y-95268000D02*
X45465200Y-95268000D01*
X66407000Y-88697000D02*
X66407000Y-87952400D01*
X66407000Y-87952400D02*
X72792800Y-81566600D01*
X66407000Y-88697000D02*
X74003300Y-88697000D01*
%TO.N,Net-(R12-Pad1)*%
X137160000Y-151130000D02*
X136035000Y-152255000D01*
X136035000Y-152255000D02*
X131608000Y-152255000D01*
X131608000Y-152255000D02*
X130810000Y-151458000D01*
X130810000Y-151458000D02*
X130810000Y-150731000D01*
X130810000Y-150731000D02*
X119776000Y-139697000D01*
X119776000Y-139697000D02*
X112292000Y-139697000D01*
X112292000Y-139697000D02*
X110135000Y-137540000D01*
X110135000Y-137540000D02*
X110135000Y-136744000D01*
X110135000Y-136744000D02*
X111629000Y-135250000D01*
X111629000Y-135250000D02*
X111629000Y-128452000D01*
X111629000Y-128452000D02*
X110770000Y-127593000D01*
%TD*%
M02*
